solid
 facet normal -9.989528e-01  0.000000e+00  4.575356e-02
   outer loop
     vertex -2.547500e+00 -1.810000e+00  1.190000e+00
     vertex -2.506926e+00 -1.769426e+00  2.075861e+00
     vertex -2.506926e+00  1.769426e+00  2.075861e+00
   endloop
 endfacet
 facet normal -9.989528e-01  0.000000e+00  4.575356e-02
   outer loop
     vertex -2.547500e+00  1.810000e+00  1.190000e+00
     vertex -2.547500e+00 -1.810000e+00  1.190000e+00
     vertex -2.506926e+00  1.769426e+00  2.075861e+00
   endloop
 endfacet
 facet normal  4.146570e-16 -9.989528e-01  4.575356e-02
   outer loop
     vertex -2.062917e+00 -1.750000e+00  2.500000e+00
     vertex -2.506926e+00 -1.769426e+00  2.075861e+00
     vertex -2.547500e+00 -1.810000e+00  1.190000e+00
   endloop
 endfacet
 facet normal  0.000000e+00 -9.989528e-01  4.575356e-02
   outer loop
     vertex  2.547500e+00 -1.810000e+00  1.190000e+00
     vertex -2.062917e+00 -1.750000e+00  2.500000e+00
     vertex -2.547500e+00 -1.810000e+00  1.190000e+00
   endloop
 endfacet
 facet normal  0.000000e+00 -9.989528e-01  4.575356e-02
   outer loop
     vertex  2.487500e+00 -1.750000e+00  2.500000e+00
     vertex -2.062917e+00 -1.750000e+00  2.500000e+00
     vertex  2.547500e+00 -1.810000e+00  1.190000e+00
   endloop
 endfacet
 facet normal -6.907411e-01  0.000000e+00  7.231022e-01
   outer loop
     vertex -2.506926e+00 -1.769426e+00  2.075861e+00
     vertex -2.062917e+00 -1.750000e+00  2.500000e+00
     vertex -2.506926e+00  1.769426e+00  2.075861e+00
   endloop
 endfacet
 facet normal -6.907411e-01  0.000000e+00  7.231022e-01
   outer loop
     vertex -2.506926e+00  1.769426e+00  2.075861e+00
     vertex -2.062917e+00 -1.750000e+00  2.500000e+00
     vertex -2.062917e+00  1.750000e+00  2.500000e+00
   endloop
 endfacet
 facet normal -1.000000e+00  0.000000e+00  0.000000e+00
   outer loop
     vertex -2.547500e+00  1.810000e+00  1.180000e+00
     vertex -2.547500e+00 -1.810000e+00  1.180000e+00
     vertex -2.547500e+00 -1.810000e+00  1.190000e+00
   endloop
 endfacet
 facet normal -1.000000e+00 -0.000000e+00 -0.000000e+00
   outer loop
     vertex -2.547500e+00  1.810000e+00  1.190000e+00
     vertex -2.547500e+00  1.810000e+00  1.180000e+00
     vertex -2.547500e+00 -1.810000e+00  1.190000e+00
   endloop
 endfacet
 facet normal -1.907422e-15  9.989528e-01  4.575356e-02
   outer loop
     vertex -2.547500e+00  1.810000e+00  1.190000e+00
     vertex -2.506926e+00  1.769426e+00  2.075861e+00
     vertex -2.062917e+00  1.750000e+00  2.500000e+00
   endloop
 endfacet
 facet normal  0.000000e+00  9.989528e-01  4.575356e-02
   outer loop
     vertex -2.547500e+00  1.810000e+00  1.190000e+00
     vertex -2.062917e+00  1.750000e+00  2.500000e+00
     vertex  2.547500e+00  1.810000e+00  1.190000e+00
   endloop
 endfacet
 facet normal -0.000000e+00  9.989528e-01  4.575356e-02
   outer loop
     vertex  2.547500e+00  1.810000e+00  1.190000e+00
     vertex -2.062917e+00  1.750000e+00  2.500000e+00
     vertex  2.487500e+00  1.750000e+00  2.500000e+00
   endloop
 endfacet
 facet normal  0.000000e+00 -1.000000e+00  0.000000e+00
   outer loop
     vertex -2.547500e+00 -1.810000e+00  1.180000e+00
     vertex  2.547500e+00 -1.810000e+00  1.180000e+00
     vertex  2.547500e+00 -1.810000e+00  1.190000e+00
   endloop
 endfacet
 facet normal  0.000000e+00 -1.000000e+00  0.000000e+00
   outer loop
     vertex -2.547500e+00 -1.810000e+00  1.190000e+00
     vertex -2.547500e+00 -1.810000e+00  1.180000e+00
     vertex  2.547500e+00 -1.810000e+00  1.190000e+00
   endloop
 endfacet
 facet normal -0.000000e+00  0.000000e+00  1.000000e+00
   outer loop
     vertex  2.487500e+00  1.750000e+00  2.500000e+00
     vertex -2.062917e+00 -1.750000e+00  2.500000e+00
     vertex  2.487500e+00 -1.750000e+00  2.500000e+00
   endloop
 endfacet
 facet normal  0.000000e+00  0.000000e+00  1.000000e+00
   outer loop
     vertex  2.487500e+00  1.750000e+00  2.500000e+00
     vertex -2.062917e+00  1.750000e+00  2.500000e+00
     vertex -2.062917e+00 -1.750000e+00  2.500000e+00
   endloop
 endfacet
 facet normal  9.989528e-01  0.000000e+00  4.575356e-02
   outer loop
     vertex  2.487500e+00  1.750000e+00  2.500000e+00
     vertex  2.487500e+00 -1.750000e+00  2.500000e+00
     vertex  2.547500e+00 -1.810000e+00  1.190000e+00
   endloop
 endfacet
 facet normal  9.989528e-01 -0.000000e+00  4.575356e-02
   outer loop
     vertex  2.487500e+00  1.750000e+00  2.500000e+00
     vertex  2.547500e+00 -1.810000e+00  1.190000e+00
     vertex  2.547500e+00  1.810000e+00  1.190000e+00
   endloop
 endfacet
 facet normal -9.984604e-01 -0.000000e+00 -5.547002e-02
   outer loop
     vertex -2.487500e+00  1.750000e+00  1.000000e-01
     vertex -2.487500e+00 -1.750000e+00  1.000000e-01
     vertex -2.547500e+00 -1.810000e+00  1.180000e+00
   endloop
 endfacet
 facet normal -9.984604e-01  0.000000e+00 -5.547002e-02
   outer loop
     vertex -2.487500e+00  1.750000e+00  1.000000e-01
     vertex -2.547500e+00 -1.810000e+00  1.180000e+00
     vertex -2.547500e+00  1.810000e+00  1.180000e+00
   endloop
 endfacet
 facet normal  0.000000e+00  1.000000e+00  0.000000e+00
   outer loop
     vertex  2.547500e+00  1.810000e+00  1.190000e+00
     vertex  2.547500e+00  1.810000e+00  1.180000e+00
     vertex -2.547500e+00  1.810000e+00  1.180000e+00
   endloop
 endfacet
 facet normal  0.000000e+00  1.000000e+00 -0.000000e+00
   outer loop
     vertex  2.547500e+00  1.810000e+00  1.190000e+00
     vertex -2.547500e+00  1.810000e+00  1.180000e+00
     vertex -2.547500e+00  1.810000e+00  1.190000e+00
   endloop
 endfacet
 facet normal  1.000000e+00 -0.000000e+00  0.000000e+00
   outer loop
     vertex  2.547500e+00 -1.810000e+00  1.190000e+00
     vertex  2.547500e+00 -1.810000e+00  1.180000e+00
     vertex  2.547500e+00  1.810000e+00  1.180000e+00
   endloop
 endfacet
 facet normal  1.000000e+00 -0.000000e+00  0.000000e+00
   outer loop
     vertex  2.547500e+00 -1.810000e+00  1.190000e+00
     vertex  2.547500e+00  1.810000e+00  1.180000e+00
     vertex  2.547500e+00  1.810000e+00  1.190000e+00
   endloop
 endfacet
 facet normal  0.000000e+00 -9.984604e-01 -5.547002e-02
   outer loop
     vertex -2.547500e+00 -1.810000e+00  1.180000e+00
     vertex -2.487500e+00 -1.750000e+00  1.000000e-01
     vertex  2.547500e+00 -1.810000e+00  1.180000e+00
   endloop
 endfacet
 facet normal  0.000000e+00 -9.984604e-01 -5.547002e-02
   outer loop
     vertex  2.547500e+00 -1.810000e+00  1.180000e+00
     vertex -2.487500e+00 -1.750000e+00  1.000000e-01
     vertex  2.487500e+00 -1.750000e+00  1.000000e-01
   endloop
 endfacet
 facet normal  0.000000e+00  0.000000e+00 -1.000000e+00
   outer loop
     vertex -2.487500e+00 -1.750000e+00  1.000000e-01
     vertex -2.487500e+00  1.750000e+00  1.000000e-01
     vertex  2.487500e+00  1.750000e+00  1.000000e-01
   endloop
 endfacet
 facet normal  0.000000e+00  0.000000e+00 -1.000000e+00
   outer loop
     vertex  2.487500e+00 -1.750000e+00  1.000000e-01
     vertex -2.487500e+00 -1.750000e+00  1.000000e-01
     vertex  2.487500e+00  1.750000e+00  1.000000e-01
   endloop
 endfacet
 facet normal  0.000000e+00  9.984604e-01 -5.547002e-02
   outer loop
     vertex  2.547500e+00  1.810000e+00  1.180000e+00
     vertex -2.487500e+00  1.750000e+00  1.000000e-01
     vertex -2.547500e+00  1.810000e+00  1.180000e+00
   endloop
 endfacet
 facet normal  0.000000e+00  9.984604e-01 -5.547002e-02
   outer loop
     vertex  2.487500e+00  1.750000e+00  1.000000e-01
     vertex -2.487500e+00  1.750000e+00  1.000000e-01
     vertex  2.547500e+00  1.810000e+00  1.180000e+00
   endloop
 endfacet
 facet normal  9.984604e-01  0.000000e+00 -5.547002e-02
   outer loop
     vertex  2.547500e+00 -1.810000e+00  1.180000e+00
     vertex  2.487500e+00 -1.750000e+00  1.000000e-01
     vertex  2.547500e+00  1.810000e+00  1.180000e+00
   endloop
 endfacet
 facet normal  9.984604e-01  0.000000e+00 -5.547002e-02
   outer loop
     vertex  2.547500e+00  1.810000e+00  1.180000e+00
     vertex  2.487500e+00 -1.750000e+00  1.000000e-01
     vertex  2.487500e+00  1.750000e+00  1.000000e-01
   endloop
 endfacet
 facet normal  0.000000e+00 -1.000000e+00  0.000000e+00
   outer loop
     vertex -2.573382e+00 -1.042500e+00  3.407417e-03
     vertex -2.547500e+00 -1.042500e+00 -1.387779e-17
     vertex -2.547500e+00 -1.042500e+00  1.000000e-01
   endloop
 endfacet
 facet normal  0.000000e+00 -1.000000e+00  0.000000e+00
   outer loop
     vertex -2.597500e+00 -1.042500e+00  1.339746e-02
     vertex -2.573382e+00 -1.042500e+00  3.407417e-03
     vertex -2.547500e+00 -1.042500e+00  1.000000e-01
   endloop
 endfacet
 facet normal  0.000000e+00 -1.000000e+00  0.000000e+00
   outer loop
     vertex -2.618211e+00 -1.042500e+00  2.928932e-02
     vertex -2.597500e+00 -1.042500e+00  1.339746e-02
     vertex -2.547500e+00 -1.042500e+00  1.000000e-01
   endloop
 endfacet
 facet normal  0.000000e+00 -1.000000e+00  0.000000e+00
   outer loop
     vertex -2.634103e+00 -1.042500e+00  5.000000e-02
     vertex -2.618211e+00 -1.042500e+00  2.928932e-02
     vertex -2.547500e+00 -1.042500e+00  1.000000e-01
   endloop
 endfacet
 facet normal  0.000000e+00 -1.000000e+00  0.000000e+00
   outer loop
     vertex -2.644093e+00 -1.042500e+00  7.411810e-02
     vertex -2.634103e+00 -1.042500e+00  5.000000e-02
     vertex -2.547500e+00 -1.042500e+00  1.000000e-01
   endloop
 endfacet
 facet normal  0.000000e+00 -1.000000e+00  0.000000e+00
   outer loop
     vertex -2.647500e+00 -1.042500e+00  1.000000e-01
     vertex -2.644093e+00 -1.042500e+00  7.411810e-02
     vertex -2.547500e+00 -1.042500e+00  1.000000e-01
   endloop
 endfacet
 facet normal  0.000000e+00 -1.000000e+00  0.000000e+00
   outer loop
     vertex -2.647500e+00 -1.042500e+00  1.000000e-01
     vertex -2.547500e+00 -1.042500e+00  1.000000e-01
     vertex -2.647500e+00 -1.042500e+00  1.080000e+00
   endloop
 endfacet
 facet normal  0.000000e+00 -1.000000e+00 -0.000000e+00
   outer loop
     vertex -2.644093e+00 -1.042500e+00  1.105882e+00
     vertex -2.647500e+00 -1.042500e+00  1.080000e+00
     vertex -2.547500e+00 -1.042500e+00  1.080000e+00
   endloop
 endfacet
 facet normal  0.000000e+00 -1.000000e+00 -0.000000e+00
   outer loop
     vertex -2.634103e+00 -1.042500e+00  1.130000e+00
     vertex -2.644093e+00 -1.042500e+00  1.105882e+00
     vertex -2.547500e+00 -1.042500e+00  1.080000e+00
   endloop
 endfacet
 facet normal  0.000000e+00 -1.000000e+00 -0.000000e+00
   outer loop
     vertex -2.618211e+00 -1.042500e+00  1.150711e+00
     vertex -2.634103e+00 -1.042500e+00  1.130000e+00
     vertex -2.547500e+00 -1.042500e+00  1.080000e+00
   endloop
 endfacet
 facet normal  0.000000e+00 -1.000000e+00  0.000000e+00
   outer loop
     vertex -2.647500e+00 -1.042500e+00  1.080000e+00
     vertex -2.547500e+00 -1.042500e+00  1.000000e-01
     vertex -2.547500e+00 -1.042500e+00  1.080000e+00
   endloop
 endfacet
 facet normal  0.000000e+00 -1.000000e+00  0.000000e+00
   outer loop
     vertex -2.618211e+00 -1.042500e+00  1.150711e+00
     vertex -2.547500e+00 -1.042500e+00  1.080000e+00
     vertex -2.597500e+00 -1.042500e+00  1.166603e+00
   endloop
 endfacet
 facet normal  0.000000e+00 -1.000000e+00  0.000000e+00
   outer loop
     vertex -2.547500e+00 -1.042500e+00 -1.387779e-17
     vertex -1.507500e+00 -1.042500e+00  0.000000e+00
     vertex -1.507500e+00 -1.042500e+00  1.000000e-01
   endloop
 endfacet
 facet normal  0.000000e+00 -1.000000e+00  0.000000e+00
   outer loop
     vertex -2.547500e+00 -1.042500e+00  1.000000e-01
     vertex -2.547500e+00 -1.042500e+00 -1.387779e-17
     vertex -1.507500e+00 -1.042500e+00  1.000000e-01
   endloop
 endfacet
 facet normal  0.000000e+00 -1.000000e+00  0.000000e+00
   outer loop
     vertex -2.597500e+00 -1.042500e+00  1.166603e+00
     vertex -2.547500e+00 -1.042500e+00  1.080000e+00
     vertex -2.573382e+00 -1.042500e+00  1.176593e+00
   endloop
 endfacet
 facet normal  0.000000e+00 -1.000000e+00  0.000000e+00
   outer loop
     vertex -2.573382e+00 -1.042500e+00  1.176593e+00
     vertex -2.547500e+00 -1.042500e+00  1.080000e+00
     vertex -2.547500e+00 -1.042500e+00  1.180000e+00
   endloop
 endfacet
 facet normal  0.000000e+00 -1.000000e+00  0.000000e+00
   outer loop
     vertex -2.547500e+00 -1.042500e+00  1.080000e+00
     vertex -1.607500e+00 -1.042500e+00  1.080000e+00
     vertex -1.607500e+00 -1.042500e+00  1.180000e+00
   endloop
 endfacet
 facet normal  0.000000e+00 -1.000000e+00  0.000000e+00
   outer loop
     vertex -2.547500e+00 -1.042500e+00  1.180000e+00
     vertex -2.547500e+00 -1.042500e+00  1.080000e+00
     vertex -1.607500e+00 -1.042500e+00  1.180000e+00
   endloop
 endfacet
 facet normal -0.000000e+00  0.000000e+00  1.000000e+00
   outer loop
     vertex -2.547500e+00  1.042500e+00  1.180000e+00
     vertex -2.547500e+00 -1.042500e+00  1.180000e+00
     vertex -1.607500e+00 -1.042500e+00  1.180000e+00
   endloop
 endfacet
 facet normal  0.000000e+00  0.000000e+00  1.000000e+00
   outer loop
     vertex -1.607500e+00  1.042500e+00  1.180000e+00
     vertex -2.547500e+00  1.042500e+00  1.180000e+00
     vertex -1.607500e+00 -1.042500e+00  1.180000e+00
   endloop
 endfacet
 facet normal -9.914449e-01  0.000000e+00  1.305262e-01
   outer loop
     vertex -2.647500e+00  1.042500e+00  1.080000e+00
     vertex -2.647500e+00 -1.042500e+00  1.080000e+00
     vertex -2.644093e+00 -1.042500e+00  1.105882e+00
   endloop
 endfacet
 facet normal -9.238795e-01  0.000000e+00  3.826834e-01
   outer loop
     vertex -2.644093e+00  1.042500e+00  1.105882e+00
     vertex -2.644093e+00 -1.042500e+00  1.105882e+00
     vertex -2.634103e+00 -1.042500e+00  1.130000e+00
   endloop
 endfacet
 facet normal -9.914449e-01  0.000000e+00  1.305262e-01
   outer loop
     vertex -2.644093e+00  1.042500e+00  1.105882e+00
     vertex -2.647500e+00  1.042500e+00  1.080000e+00
     vertex -2.644093e+00 -1.042500e+00  1.105882e+00
   endloop
 endfacet
 facet normal -7.933533e-01  0.000000e+00  6.087614e-01
   outer loop
     vertex -2.634103e+00  1.042500e+00  1.130000e+00
     vertex -2.634103e+00 -1.042500e+00  1.130000e+00
     vertex -2.618211e+00 -1.042500e+00  1.150711e+00
   endloop
 endfacet
 facet normal -9.238795e-01  0.000000e+00  3.826834e-01
   outer loop
     vertex -2.634103e+00  1.042500e+00  1.130000e+00
     vertex -2.644093e+00  1.042500e+00  1.105882e+00
     vertex -2.634103e+00 -1.042500e+00  1.130000e+00
   endloop
 endfacet
 facet normal -6.087614e-01  0.000000e+00  7.933533e-01
   outer loop
     vertex -2.618211e+00  1.042500e+00  1.150711e+00
     vertex -2.618211e+00 -1.042500e+00  1.150711e+00
     vertex -2.597500e+00 -1.042500e+00  1.166603e+00
   endloop
 endfacet
 facet normal -7.933533e-01  0.000000e+00  6.087614e-01
   outer loop
     vertex -2.618211e+00  1.042500e+00  1.150711e+00
     vertex -2.634103e+00  1.042500e+00  1.130000e+00
     vertex -2.618211e+00 -1.042500e+00  1.150711e+00
   endloop
 endfacet
 facet normal -6.087614e-01  0.000000e+00  7.933533e-01
   outer loop
     vertex -2.597500e+00  1.042500e+00  1.166603e+00
     vertex -2.618211e+00  1.042500e+00  1.150711e+00
     vertex -2.597500e+00 -1.042500e+00  1.166603e+00
   endloop
 endfacet
 facet normal -3.826834e-01  0.000000e+00  9.238795e-01
   outer loop
     vertex -2.573382e+00  1.042500e+00  1.176593e+00
     vertex -2.597500e+00 -1.042500e+00  1.166603e+00
     vertex -2.573382e+00 -1.042500e+00  1.176593e+00
   endloop
 endfacet
 facet normal -1.305262e-01  0.000000e+00  9.914449e-01
   outer loop
     vertex -2.573382e+00  1.042500e+00  1.176593e+00
     vertex -2.573382e+00 -1.042500e+00  1.176593e+00
     vertex -2.547500e+00 -1.042500e+00  1.180000e+00
   endloop
 endfacet
 facet normal -3.826834e-01  0.000000e+00  9.238795e-01
   outer loop
     vertex -2.573382e+00  1.042500e+00  1.176593e+00
     vertex -2.597500e+00  1.042500e+00  1.166603e+00
     vertex -2.597500e+00 -1.042500e+00  1.166603e+00
   endloop
 endfacet
 facet normal -1.305262e-01  0.000000e+00  9.914449e-01
   outer loop
     vertex -2.547500e+00  1.042500e+00  1.180000e+00
     vertex -2.573382e+00  1.042500e+00  1.176593e+00
     vertex -2.547500e+00 -1.042500e+00  1.180000e+00
   endloop
 endfacet
 facet normal  1.000000e+00 -0.000000e+00  0.000000e+00
   outer loop
     vertex -1.607500e+00 -1.042500e+00  1.180000e+00
     vertex -1.607500e+00  1.042500e+00  1.080000e+00
     vertex -1.607500e+00  1.042500e+00  1.180000e+00
   endloop
 endfacet
 facet normal  1.000000e+00 -0.000000e+00  0.000000e+00
   outer loop
     vertex -1.607500e+00 -1.042500e+00  1.180000e+00
     vertex -1.607500e+00 -1.042500e+00  1.080000e+00
     vertex -1.607500e+00  1.042500e+00  1.080000e+00
   endloop
 endfacet
 facet normal -1.000000e+00  0.000000e+00  0.000000e+00
   outer loop
     vertex -2.647500e+00  1.042500e+00  1.000000e-01
     vertex -2.647500e+00 -1.042500e+00  1.000000e-01
     vertex -2.647500e+00 -1.042500e+00  1.080000e+00
   endloop
 endfacet
 facet normal -1.000000e+00 -0.000000e+00 -0.000000e+00
   outer loop
     vertex -2.647500e+00  1.042500e+00  1.080000e+00
     vertex -2.647500e+00  1.042500e+00  1.000000e-01
     vertex -2.647500e+00 -1.042500e+00  1.080000e+00
   endloop
 endfacet
 facet normal  0.000000e+00  0.000000e+00 -1.000000e+00
   outer loop
     vertex -1.607500e+00 -1.042500e+00  1.080000e+00
     vertex -2.547500e+00 -1.042500e+00  1.080000e+00
     vertex -2.547500e+00  1.042500e+00  1.080000e+00
   endloop
 endfacet
 facet normal  0.000000e+00  0.000000e+00 -1.000000e+00
   outer loop
     vertex -1.607500e+00 -1.042500e+00  1.080000e+00
     vertex -2.547500e+00  1.042500e+00  1.080000e+00
     vertex -1.607500e+00  1.042500e+00  1.080000e+00
   endloop
 endfacet
 facet normal -1.305262e-01 -0.000000e+00 -9.914449e-01
   outer loop
     vertex -2.547500e+00  1.042500e+00 -1.387779e-17
     vertex -2.547500e+00 -1.042500e+00 -1.387779e-17
     vertex -2.573382e+00 -1.042500e+00  3.407417e-03
   endloop
 endfacet
 facet normal -3.826834e-01 -0.000000e+00 -9.238795e-01
   outer loop
     vertex -2.573382e+00  1.042500e+00  3.407417e-03
     vertex -2.573382e+00 -1.042500e+00  3.407417e-03
     vertex -2.597500e+00 -1.042500e+00  1.339746e-02
   endloop
 endfacet
 facet normal -1.305262e-01  0.000000e+00 -9.914449e-01
   outer loop
     vertex -2.573382e+00  1.042500e+00  3.407417e-03
     vertex -2.547500e+00  1.042500e+00 -1.387779e-17
     vertex -2.573382e+00 -1.042500e+00  3.407417e-03
   endloop
 endfacet
 facet normal -3.826834e-01  0.000000e+00 -9.238795e-01
   outer loop
     vertex -2.597500e+00  1.042500e+00  1.339746e-02
     vertex -2.573382e+00  1.042500e+00  3.407417e-03
     vertex -2.597500e+00 -1.042500e+00  1.339746e-02
   endloop
 endfacet
 facet normal -6.087614e-01  0.000000e+00 -7.933533e-01
   outer loop
     vertex -2.618211e+00  1.042500e+00  2.928932e-02
     vertex -2.597500e+00 -1.042500e+00  1.339746e-02
     vertex -2.618211e+00 -1.042500e+00  2.928932e-02
   endloop
 endfacet
 facet normal -6.087614e-01 -0.000000e+00 -7.933533e-01
   outer loop
     vertex -2.618211e+00  1.042500e+00  2.928932e-02
     vertex -2.597500e+00  1.042500e+00  1.339746e-02
     vertex -2.597500e+00 -1.042500e+00  1.339746e-02
   endloop
 endfacet
 facet normal -7.933533e-01  0.000000e+00 -6.087614e-01
   outer loop
     vertex -2.634103e+00  1.042500e+00  5.000000e-02
     vertex -2.618211e+00 -1.042500e+00  2.928932e-02
     vertex -2.634103e+00 -1.042500e+00  5.000000e-02
   endloop
 endfacet
 facet normal -7.933533e-01 -0.000000e+00 -6.087614e-01
   outer loop
     vertex -2.634103e+00  1.042500e+00  5.000000e-02
     vertex -2.618211e+00  1.042500e+00  2.928932e-02
     vertex -2.618211e+00 -1.042500e+00  2.928932e-02
   endloop
 endfacet
 facet normal -9.238795e-01  0.000000e+00 -3.826834e-01
   outer loop
     vertex -2.644093e+00  1.042500e+00  7.411810e-02
     vertex -2.634103e+00 -1.042500e+00  5.000000e-02
     vertex -2.644093e+00 -1.042500e+00  7.411810e-02
   endloop
 endfacet
 facet normal -9.914449e-01 -0.000000e+00 -1.305262e-01
   outer loop
     vertex -2.644093e+00  1.042500e+00  7.411810e-02
     vertex -2.644093e+00 -1.042500e+00  7.411810e-02
     vertex -2.647500e+00 -1.042500e+00  1.000000e-01
   endloop
 endfacet
 facet normal -9.238795e-01 -0.000000e+00 -3.826834e-01
   outer loop
     vertex -2.644093e+00  1.042500e+00  7.411810e-02
     vertex -2.634103e+00  1.042500e+00  5.000000e-02
     vertex -2.634103e+00 -1.042500e+00  5.000000e-02
   endloop
 endfacet
 facet normal -9.914449e-01  0.000000e+00 -1.305262e-01
   outer loop
     vertex -2.647500e+00  1.042500e+00  1.000000e-01
     vertex -2.644093e+00  1.042500e+00  7.411810e-02
     vertex -2.647500e+00 -1.042500e+00  1.000000e-01
   endloop
 endfacet
 facet normal  1.000000e+00 -0.000000e+00  0.000000e+00
   outer loop
     vertex -2.547500e+00 -1.042500e+00  1.080000e+00
     vertex -2.547500e+00  1.042500e+00  1.000000e-01
     vertex -2.547500e+00  1.042500e+00  1.080000e+00
   endloop
 endfacet
 facet normal  1.000000e+00 -0.000000e+00  0.000000e+00
   outer loop
     vertex -2.547500e+00 -1.042500e+00  1.080000e+00
     vertex -2.547500e+00 -1.042500e+00  1.000000e-01
     vertex -2.547500e+00  1.042500e+00  1.000000e-01
   endloop
 endfacet
 facet normal  1.334403e-17  0.000000e+00 -1.000000e+00
   outer loop
     vertex -2.547500e+00 -1.042500e+00 -1.387779e-17
     vertex -2.547500e+00  1.042500e+00 -1.387779e-17
     vertex -1.507500e+00  1.042500e+00  0.000000e+00
   endloop
 endfacet
 facet normal  1.334403e-17  0.000000e+00 -1.000000e+00
   outer loop
     vertex -1.507500e+00 -1.042500e+00  0.000000e+00
     vertex -2.547500e+00 -1.042500e+00 -1.387779e-17
     vertex -1.507500e+00  1.042500e+00  0.000000e+00
   endloop
 endfacet
 facet normal -0.000000e+00  0.000000e+00  1.000000e+00
   outer loop
     vertex -1.507500e+00  1.042500e+00  1.000000e-01
     vertex -2.547500e+00 -1.042500e+00  1.000000e-01
     vertex -1.507500e+00 -1.042500e+00  1.000000e-01
   endloop
 endfacet
 facet normal  0.000000e+00  0.000000e+00  1.000000e+00
   outer loop
     vertex -1.507500e+00  1.042500e+00  1.000000e-01
     vertex -2.547500e+00  1.042500e+00  1.000000e-01
     vertex -2.547500e+00 -1.042500e+00  1.000000e-01
   endloop
 endfacet
 facet normal  1.000000e+00 -0.000000e+00  0.000000e+00
   outer loop
     vertex -1.507500e+00 -1.042500e+00  1.000000e-01
     vertex -1.507500e+00  1.042500e+00  0.000000e+00
     vertex -1.507500e+00  1.042500e+00  1.000000e-01
   endloop
 endfacet
 facet normal  1.000000e+00 -0.000000e+00  0.000000e+00
   outer loop
     vertex -1.507500e+00 -1.042500e+00  1.000000e-01
     vertex -1.507500e+00 -1.042500e+00  0.000000e+00
     vertex -1.507500e+00  1.042500e+00  0.000000e+00
   endloop
 endfacet
 facet normal  0.000000e+00  1.000000e+00  0.000000e+00
   outer loop
     vertex -2.547500e+00  1.042500e+00  1.000000e-01
     vertex -2.547500e+00  1.042500e+00 -1.387779e-17
     vertex -2.573382e+00  1.042500e+00  3.407417e-03
   endloop
 endfacet
 facet normal  0.000000e+00  1.000000e+00  0.000000e+00
   outer loop
     vertex -2.547500e+00  1.042500e+00  1.000000e-01
     vertex -2.573382e+00  1.042500e+00  3.407417e-03
     vertex -2.597500e+00  1.042500e+00  1.339746e-02
   endloop
 endfacet
 facet normal  0.000000e+00  1.000000e+00  0.000000e+00
   outer loop
     vertex -2.547500e+00  1.042500e+00  1.000000e-01
     vertex -2.597500e+00  1.042500e+00  1.339746e-02
     vertex -2.618211e+00  1.042500e+00  2.928932e-02
   endloop
 endfacet
 facet normal  0.000000e+00  1.000000e+00  0.000000e+00
   outer loop
     vertex -2.547500e+00  1.042500e+00  1.000000e-01
     vertex -2.618211e+00  1.042500e+00  2.928932e-02
     vertex -2.634103e+00  1.042500e+00  5.000000e-02
   endloop
 endfacet
 facet normal  0.000000e+00  1.000000e+00  0.000000e+00
   outer loop
     vertex -2.547500e+00  1.042500e+00  1.000000e-01
     vertex -2.634103e+00  1.042500e+00  5.000000e-02
     vertex -2.644093e+00  1.042500e+00  7.411810e-02
   endloop
 endfacet
 facet normal  0.000000e+00  1.000000e+00  0.000000e+00
   outer loop
     vertex -2.547500e+00  1.042500e+00  1.000000e-01
     vertex -2.644093e+00  1.042500e+00  7.411810e-02
     vertex -2.647500e+00  1.042500e+00  1.000000e-01
   endloop
 endfacet
 facet normal  0.000000e+00  1.000000e+00  0.000000e+00
   outer loop
     vertex -2.647500e+00  1.042500e+00  1.080000e+00
     vertex -2.547500e+00  1.042500e+00  1.000000e-01
     vertex -2.647500e+00  1.042500e+00  1.000000e-01
   endloop
 endfacet
 facet normal  0.000000e+00  1.000000e+00 -0.000000e+00
   outer loop
     vertex -2.547500e+00  1.042500e+00  1.080000e+00
     vertex -2.647500e+00  1.042500e+00  1.080000e+00
     vertex -2.644093e+00  1.042500e+00  1.105882e+00
   endloop
 endfacet
 facet normal  0.000000e+00  1.000000e+00 -0.000000e+00
   outer loop
     vertex -2.547500e+00  1.042500e+00  1.080000e+00
     vertex -2.644093e+00  1.042500e+00  1.105882e+00
     vertex -2.634103e+00  1.042500e+00  1.130000e+00
   endloop
 endfacet
 facet normal  0.000000e+00  1.000000e+00 -0.000000e+00
   outer loop
     vertex -2.547500e+00  1.042500e+00  1.080000e+00
     vertex -2.634103e+00  1.042500e+00  1.130000e+00
     vertex -2.618211e+00  1.042500e+00  1.150711e+00
   endloop
 endfacet
 facet normal  0.000000e+00  1.000000e+00  0.000000e+00
   outer loop
     vertex -2.547500e+00  1.042500e+00  1.080000e+00
     vertex -2.547500e+00  1.042500e+00  1.000000e-01
     vertex -2.647500e+00  1.042500e+00  1.080000e+00
   endloop
 endfacet
 facet normal  0.000000e+00  1.000000e+00  0.000000e+00
   outer loop
     vertex -2.597500e+00  1.042500e+00  1.166603e+00
     vertex -2.547500e+00  1.042500e+00  1.080000e+00
     vertex -2.618211e+00  1.042500e+00  1.150711e+00
   endloop
 endfacet
 facet normal  0.000000e+00  1.000000e+00  0.000000e+00
   outer loop
     vertex -1.507500e+00  1.042500e+00  1.000000e-01
     vertex -1.507500e+00  1.042500e+00  0.000000e+00
     vertex -2.547500e+00  1.042500e+00 -1.387779e-17
   endloop
 endfacet
 facet normal  0.000000e+00  1.000000e+00 -0.000000e+00
   outer loop
     vertex -1.507500e+00  1.042500e+00  1.000000e-01
     vertex -2.547500e+00  1.042500e+00 -1.387779e-17
     vertex -2.547500e+00  1.042500e+00  1.000000e-01
   endloop
 endfacet
 facet normal  0.000000e+00  1.000000e+00  0.000000e+00
   outer loop
     vertex -2.573382e+00  1.042500e+00  1.176593e+00
     vertex -2.547500e+00  1.042500e+00  1.080000e+00
     vertex -2.597500e+00  1.042500e+00  1.166603e+00
   endloop
 endfacet
 facet normal  0.000000e+00  1.000000e+00  0.000000e+00
   outer loop
     vertex -2.547500e+00  1.042500e+00  1.180000e+00
     vertex -2.547500e+00  1.042500e+00  1.080000e+00
     vertex -2.573382e+00  1.042500e+00  1.176593e+00
   endloop
 endfacet
 facet normal  0.000000e+00  1.000000e+00  0.000000e+00
   outer loop
     vertex -1.607500e+00  1.042500e+00  1.180000e+00
     vertex -1.607500e+00  1.042500e+00  1.080000e+00
     vertex -2.547500e+00  1.042500e+00  1.080000e+00
   endloop
 endfacet
 facet normal  0.000000e+00  1.000000e+00 -0.000000e+00
   outer loop
     vertex -1.607500e+00  1.042500e+00  1.180000e+00
     vertex -2.547500e+00  1.042500e+00  1.080000e+00
     vertex -2.547500e+00  1.042500e+00  1.180000e+00
   endloop
 endfacet
 facet normal  1.000000e+00 -0.000000e+00  0.000000e+00
   outer loop
     vertex  2.647500e+00 -1.042500e+00  1.080000e+00
     vertex  2.647500e+00 -1.042500e+00  1.000000e-01
     vertex  2.647500e+00  1.042500e+00  1.000000e-01
   endloop
 endfacet
 facet normal  1.000000e+00 -0.000000e+00  0.000000e+00
   outer loop
     vertex  2.647500e+00 -1.042500e+00  1.080000e+00
     vertex  2.647500e+00  1.042500e+00  1.000000e-01
     vertex  2.647500e+00  1.042500e+00  1.080000e+00
   endloop
 endfacet
 facet normal  0.000000e+00 -1.000000e+00  0.000000e+00
   outer loop
     vertex  1.407500e+00 -1.042500e+00  0.000000e+00
     vertex  2.547500e+00 -1.042500e+00 -1.387779e-17
     vertex  2.547500e+00 -1.042500e+00  1.000000e-01
   endloop
 endfacet
 facet normal  0.000000e+00 -1.000000e+00  0.000000e+00
   outer loop
     vertex  2.573382e+00 -1.042500e+00  3.407417e-03
     vertex  2.597500e+00 -1.042500e+00  1.339746e-02
     vertex  2.547500e+00 -1.042500e+00  1.000000e-01
   endloop
 endfacet
 facet normal  0.000000e+00 -1.000000e+00  0.000000e+00
   outer loop
     vertex  2.547500e+00 -1.042500e+00 -1.387779e-17
     vertex  2.573382e+00 -1.042500e+00  3.407417e-03
     vertex  2.547500e+00 -1.042500e+00  1.000000e-01
   endloop
 endfacet
 facet normal  0.000000e+00 -1.000000e+00  0.000000e+00
   outer loop
     vertex  1.407500e+00 -1.042500e+00  1.000000e-01
     vertex  1.407500e+00 -1.042500e+00  0.000000e+00
     vertex  2.547500e+00 -1.042500e+00  1.000000e-01
   endloop
 endfacet
 facet normal  0.000000e+00 -1.000000e+00  0.000000e+00
   outer loop
     vertex  2.547500e+00 -1.042500e+00  1.000000e-01
     vertex  2.597500e+00 -1.042500e+00  1.339746e-02
     vertex  2.618211e+00 -1.042500e+00  2.928932e-02
   endloop
 endfacet
 facet normal  0.000000e+00 -1.000000e+00  0.000000e+00
   outer loop
     vertex  2.547500e+00 -1.042500e+00  1.000000e-01
     vertex  2.618211e+00 -1.042500e+00  2.928932e-02
     vertex  2.634103e+00 -1.042500e+00  5.000000e-02
   endloop
 endfacet
 facet normal  0.000000e+00 -1.000000e+00  0.000000e+00
   outer loop
     vertex  2.547500e+00 -1.042500e+00  1.000000e-01
     vertex  2.634103e+00 -1.042500e+00  5.000000e-02
     vertex  2.644093e+00 -1.042500e+00  7.411810e-02
   endloop
 endfacet
 facet normal  0.000000e+00 -1.000000e+00  0.000000e+00
   outer loop
     vertex  2.547500e+00 -1.042500e+00  1.000000e-01
     vertex  2.644093e+00 -1.042500e+00  7.411810e-02
     vertex  2.647500e+00 -1.042500e+00  1.000000e-01
   endloop
 endfacet
 facet normal  0.000000e+00 -1.000000e+00  0.000000e+00
   outer loop
     vertex  1.507500e+00 -1.042500e+00  1.180000e+00
     vertex  1.507500e+00 -1.042500e+00  1.080000e+00
     vertex  2.547500e+00 -1.042500e+00  1.080000e+00
   endloop
 endfacet
 facet normal  0.000000e+00 -1.000000e+00  0.000000e+00
   outer loop
     vertex  2.547500e+00 -1.042500e+00  1.000000e-01
     vertex  2.647500e+00 -1.042500e+00  1.000000e-01
     vertex  2.547500e+00 -1.042500e+00  1.080000e+00
   endloop
 endfacet
 facet normal  0.000000e+00 -1.000000e+00  0.000000e+00
   outer loop
     vertex  1.507500e+00 -1.042500e+00  1.180000e+00
     vertex  2.547500e+00 -1.042500e+00  1.080000e+00
     vertex  2.547500e+00 -1.042500e+00  1.180000e+00
   endloop
 endfacet
 facet normal  0.000000e+00 -1.000000e+00  0.000000e+00
   outer loop
     vertex  2.547500e+00 -1.042500e+00  1.080000e+00
     vertex  2.647500e+00 -1.042500e+00  1.000000e-01
     vertex  2.647500e+00 -1.042500e+00  1.080000e+00
   endloop
 endfacet
 facet normal  0.000000e+00 -1.000000e+00  0.000000e+00
   outer loop
     vertex  2.547500e+00 -1.042500e+00  1.180000e+00
     vertex  2.547500e+00 -1.042500e+00  1.080000e+00
     vertex  2.573382e+00 -1.042500e+00  1.176593e+00
   endloop
 endfacet
 facet normal  0.000000e+00 -1.000000e+00  0.000000e+00
   outer loop
     vertex  2.547500e+00 -1.042500e+00  1.080000e+00
     vertex  2.647500e+00 -1.042500e+00  1.080000e+00
     vertex  2.644093e+00 -1.042500e+00  1.105882e+00
   endloop
 endfacet
 facet normal  0.000000e+00 -1.000000e+00 -0.000000e+00
   outer loop
     vertex  2.573382e+00 -1.042500e+00  1.176593e+00
     vertex  2.547500e+00 -1.042500e+00  1.080000e+00
     vertex  2.597500e+00 -1.042500e+00  1.166603e+00
   endloop
 endfacet
 facet normal  0.000000e+00 -1.000000e+00  0.000000e+00
   outer loop
     vertex  2.547500e+00 -1.042500e+00  1.080000e+00
     vertex  2.644093e+00 -1.042500e+00  1.105882e+00
     vertex  2.634103e+00 -1.042500e+00  1.130000e+00
   endloop
 endfacet
 facet normal  0.000000e+00 -1.000000e+00 -0.000000e+00
   outer loop
     vertex  2.597500e+00 -1.042500e+00  1.166603e+00
     vertex  2.547500e+00 -1.042500e+00  1.080000e+00
     vertex  2.618211e+00 -1.042500e+00  1.150711e+00
   endloop
 endfacet
 facet normal  0.000000e+00 -1.000000e+00  0.000000e+00
   outer loop
     vertex  2.547500e+00 -1.042500e+00  1.080000e+00
     vertex  2.634103e+00 -1.042500e+00  1.130000e+00
     vertex  2.618211e+00 -1.042500e+00  1.150711e+00
   endloop
 endfacet
 facet normal  9.914449e-01  0.000000e+00 -1.305262e-01
   outer loop
     vertex  2.647500e+00  1.042500e+00  1.000000e-01
     vertex  2.647500e+00 -1.042500e+00  1.000000e-01
     vertex  2.644093e+00 -1.042500e+00  7.411810e-02
   endloop
 endfacet
 facet normal  9.914449e-01  0.000000e+00 -1.305262e-01
   outer loop
     vertex  2.644093e+00  1.042500e+00  7.411810e-02
     vertex  2.647500e+00  1.042500e+00  1.000000e-01
     vertex  2.644093e+00 -1.042500e+00  7.411810e-02
   endloop
 endfacet
 facet normal  9.238795e-01  0.000000e+00 -3.826834e-01
   outer loop
     vertex  2.634103e+00  1.042500e+00  5.000000e-02
     vertex  2.644093e+00 -1.042500e+00  7.411810e-02
     vertex  2.634103e+00 -1.042500e+00  5.000000e-02
   endloop
 endfacet
 facet normal  7.933533e-01  0.000000e+00 -6.087614e-01
   outer loop
     vertex  2.634103e+00  1.042500e+00  5.000000e-02
     vertex  2.634103e+00 -1.042500e+00  5.000000e-02
     vertex  2.618211e+00 -1.042500e+00  2.928932e-02
   endloop
 endfacet
 facet normal  9.238795e-01  0.000000e+00 -3.826834e-01
   outer loop
     vertex  2.634103e+00  1.042500e+00  5.000000e-02
     vertex  2.644093e+00  1.042500e+00  7.411810e-02
     vertex  2.644093e+00 -1.042500e+00  7.411810e-02
   endloop
 endfacet
 facet normal  7.933533e-01  0.000000e+00 -6.087614e-01
   outer loop
     vertex  2.618211e+00  1.042500e+00  2.928932e-02
     vertex  2.634103e+00  1.042500e+00  5.000000e-02
     vertex  2.618211e+00 -1.042500e+00  2.928932e-02
   endloop
 endfacet
 facet normal  6.087614e-01  0.000000e+00 -7.933533e-01
   outer loop
     vertex  2.597500e+00  1.042500e+00  1.339746e-02
     vertex  2.618211e+00 -1.042500e+00  2.928932e-02
     vertex  2.597500e+00 -1.042500e+00  1.339746e-02
   endloop
 endfacet
 facet normal  6.087614e-01  0.000000e+00 -7.933533e-01
   outer loop
     vertex  2.597500e+00  1.042500e+00  1.339746e-02
     vertex  2.618211e+00  1.042500e+00  2.928932e-02
     vertex  2.618211e+00 -1.042500e+00  2.928932e-02
   endloop
 endfacet
 facet normal  3.826834e-01  0.000000e+00 -9.238795e-01
   outer loop
     vertex  2.573382e+00  1.042500e+00  3.407417e-03
     vertex  2.597500e+00 -1.042500e+00  1.339746e-02
     vertex  2.573382e+00 -1.042500e+00  3.407417e-03
   endloop
 endfacet
 facet normal  1.305262e-01  0.000000e+00 -9.914449e-01
   outer loop
     vertex  2.573382e+00  1.042500e+00  3.407417e-03
     vertex  2.573382e+00 -1.042500e+00  3.407417e-03
     vertex  2.547500e+00 -1.042500e+00 -1.387779e-17
   endloop
 endfacet
 facet normal  3.826834e-01  0.000000e+00 -9.238795e-01
   outer loop
     vertex  2.573382e+00  1.042500e+00  3.407417e-03
     vertex  2.597500e+00  1.042500e+00  1.339746e-02
     vertex  2.597500e+00 -1.042500e+00  1.339746e-02
   endloop
 endfacet
 facet normal  1.305262e-01  0.000000e+00 -9.914449e-01
   outer loop
     vertex  2.547500e+00  1.042500e+00 -1.387779e-17
     vertex  2.573382e+00  1.042500e+00  3.407417e-03
     vertex  2.547500e+00 -1.042500e+00 -1.387779e-17
   endloop
 endfacet
 facet normal  9.914449e-01 -0.000000e+00  1.305262e-01
   outer loop
     vertex  2.644093e+00 -1.042500e+00  1.105882e+00
     vertex  2.647500e+00 -1.042500e+00  1.080000e+00
     vertex  2.647500e+00  1.042500e+00  1.080000e+00
   endloop
 endfacet
 facet normal  9.238795e-01 -0.000000e+00  3.826834e-01
   outer loop
     vertex  2.634103e+00 -1.042500e+00  1.130000e+00
     vertex  2.644093e+00 -1.042500e+00  1.105882e+00
     vertex  2.644093e+00  1.042500e+00  1.105882e+00
   endloop
 endfacet
 facet normal  9.914449e-01  0.000000e+00  1.305262e-01
   outer loop
     vertex  2.644093e+00 -1.042500e+00  1.105882e+00
     vertex  2.647500e+00  1.042500e+00  1.080000e+00
     vertex  2.644093e+00  1.042500e+00  1.105882e+00
   endloop
 endfacet
 facet normal  7.933533e-01 -0.000000e+00  6.087614e-01
   outer loop
     vertex  2.618211e+00 -1.042500e+00  1.150711e+00
     vertex  2.634103e+00 -1.042500e+00  1.130000e+00
     vertex  2.634103e+00  1.042500e+00  1.130000e+00
   endloop
 endfacet
 facet normal  9.238795e-01  0.000000e+00  3.826834e-01
   outer loop
     vertex  2.634103e+00 -1.042500e+00  1.130000e+00
     vertex  2.644093e+00  1.042500e+00  1.105882e+00
     vertex  2.634103e+00  1.042500e+00  1.130000e+00
   endloop
 endfacet
 facet normal  6.087614e-01 -0.000000e+00  7.933533e-01
   outer loop
     vertex  2.597500e+00 -1.042500e+00  1.166603e+00
     vertex  2.618211e+00 -1.042500e+00  1.150711e+00
     vertex  2.618211e+00  1.042500e+00  1.150711e+00
   endloop
 endfacet
 facet normal  7.933533e-01  0.000000e+00  6.087614e-01
   outer loop
     vertex  2.618211e+00 -1.042500e+00  1.150711e+00
     vertex  2.634103e+00  1.042500e+00  1.130000e+00
     vertex  2.618211e+00  1.042500e+00  1.150711e+00
   endloop
 endfacet
 facet normal  6.087614e-01  0.000000e+00  7.933533e-01
   outer loop
     vertex  2.597500e+00 -1.042500e+00  1.166603e+00
     vertex  2.618211e+00  1.042500e+00  1.150711e+00
     vertex  2.597500e+00  1.042500e+00  1.166603e+00
   endloop
 endfacet
 facet normal  3.826834e-01  0.000000e+00  9.238795e-01
   outer loop
     vertex  2.573382e+00 -1.042500e+00  1.176593e+00
     vertex  2.597500e+00 -1.042500e+00  1.166603e+00
     vertex  2.573382e+00  1.042500e+00  1.176593e+00
   endloop
 endfacet
 facet normal  1.305262e-01 -0.000000e+00  9.914449e-01
   outer loop
     vertex  2.547500e+00 -1.042500e+00  1.180000e+00
     vertex  2.573382e+00 -1.042500e+00  1.176593e+00
     vertex  2.573382e+00  1.042500e+00  1.176593e+00
   endloop
 endfacet
 facet normal  3.826834e-01 -0.000000e+00  9.238795e-01
   outer loop
     vertex  2.597500e+00 -1.042500e+00  1.166603e+00
     vertex  2.597500e+00  1.042500e+00  1.166603e+00
     vertex  2.573382e+00  1.042500e+00  1.176593e+00
   endloop
 endfacet
 facet normal  1.305262e-01  0.000000e+00  9.914449e-01
   outer loop
     vertex  2.547500e+00 -1.042500e+00  1.180000e+00
     vertex  2.573382e+00  1.042500e+00  1.176593e+00
     vertex  2.547500e+00  1.042500e+00  1.180000e+00
   endloop
 endfacet
 facet normal  0.000000e+00  1.000000e+00  0.000000e+00
   outer loop
     vertex  2.547500e+00  1.042500e+00  1.000000e-01
     vertex  2.597500e+00  1.042500e+00  1.339746e-02
     vertex  2.573382e+00  1.042500e+00  3.407417e-03
   endloop
 endfacet
 facet normal  0.000000e+00  1.000000e+00  0.000000e+00
   outer loop
     vertex  2.547500e+00  1.042500e+00  1.000000e-01
     vertex  2.573382e+00  1.042500e+00  3.407417e-03
     vertex  2.547500e+00  1.042500e+00 -1.387779e-17
   endloop
 endfacet
 facet normal  0.000000e+00  1.000000e+00  0.000000e+00
   outer loop
     vertex  2.547500e+00  1.042500e+00  1.000000e-01
     vertex  2.547500e+00  1.042500e+00 -1.387779e-17
     vertex  1.407500e+00  1.042500e+00  0.000000e+00
   endloop
 endfacet
 facet normal  0.000000e+00  1.000000e+00 -0.000000e+00
   outer loop
     vertex  2.547500e+00  1.042500e+00  1.000000e-01
     vertex  1.407500e+00  1.042500e+00  0.000000e+00
     vertex  1.407500e+00  1.042500e+00  1.000000e-01
   endloop
 endfacet
 facet normal  0.000000e+00  1.000000e+00  0.000000e+00
   outer loop
     vertex  2.618211e+00  1.042500e+00  2.928932e-02
     vertex  2.597500e+00  1.042500e+00  1.339746e-02
     vertex  2.547500e+00  1.042500e+00  1.000000e-01
   endloop
 endfacet
 facet normal  0.000000e+00  1.000000e+00  0.000000e+00
   outer loop
     vertex  2.634103e+00  1.042500e+00  5.000000e-02
     vertex  2.618211e+00  1.042500e+00  2.928932e-02
     vertex  2.547500e+00  1.042500e+00  1.000000e-01
   endloop
 endfacet
 facet normal  0.000000e+00  1.000000e+00  0.000000e+00
   outer loop
     vertex  2.644093e+00  1.042500e+00  7.411810e-02
     vertex  2.634103e+00  1.042500e+00  5.000000e-02
     vertex  2.547500e+00  1.042500e+00  1.000000e-01
   endloop
 endfacet
 facet normal  0.000000e+00  1.000000e+00  0.000000e+00
   outer loop
     vertex  2.647500e+00  1.042500e+00  1.000000e-01
     vertex  2.644093e+00  1.042500e+00  7.411810e-02
     vertex  2.547500e+00  1.042500e+00  1.000000e-01
   endloop
 endfacet
 facet normal  0.000000e+00  1.000000e+00 -0.000000e+00
   outer loop
     vertex  2.547500e+00  1.042500e+00  1.080000e+00
     vertex  1.507500e+00  1.042500e+00  1.080000e+00
     vertex  1.507500e+00  1.042500e+00  1.180000e+00
   endloop
 endfacet
 facet normal  0.000000e+00  1.000000e+00  0.000000e+00
   outer loop
     vertex  2.547500e+00  1.042500e+00  1.080000e+00
     vertex  2.647500e+00  1.042500e+00  1.000000e-01
     vertex  2.547500e+00  1.042500e+00  1.000000e-01
   endloop
 endfacet
 facet normal  0.000000e+00  1.000000e+00  0.000000e+00
   outer loop
     vertex  2.547500e+00  1.042500e+00  1.180000e+00
     vertex  2.547500e+00  1.042500e+00  1.080000e+00
     vertex  1.507500e+00  1.042500e+00  1.180000e+00
   endloop
 endfacet
 facet normal  0.000000e+00  1.000000e+00  0.000000e+00
   outer loop
     vertex  2.647500e+00  1.042500e+00  1.080000e+00
     vertex  2.647500e+00  1.042500e+00  1.000000e-01
     vertex  2.547500e+00  1.042500e+00  1.080000e+00
   endloop
 endfacet
 facet normal  0.000000e+00  1.000000e+00  0.000000e+00
   outer loop
     vertex  2.644093e+00  1.042500e+00  1.105882e+00
     vertex  2.647500e+00  1.042500e+00  1.080000e+00
     vertex  2.547500e+00  1.042500e+00  1.080000e+00
   endloop
 endfacet
 facet normal  0.000000e+00  1.000000e+00 -0.000000e+00
   outer loop
     vertex  2.573382e+00  1.042500e+00  1.176593e+00
     vertex  2.547500e+00  1.042500e+00  1.080000e+00
     vertex  2.547500e+00  1.042500e+00  1.180000e+00
   endloop
 endfacet
 facet normal  0.000000e+00  1.000000e+00  0.000000e+00
   outer loop
     vertex  2.634103e+00  1.042500e+00  1.130000e+00
     vertex  2.644093e+00  1.042500e+00  1.105882e+00
     vertex  2.547500e+00  1.042500e+00  1.080000e+00
   endloop
 endfacet
 facet normal  0.000000e+00  1.000000e+00 -0.000000e+00
   outer loop
     vertex  2.597500e+00  1.042500e+00  1.166603e+00
     vertex  2.547500e+00  1.042500e+00  1.080000e+00
     vertex  2.573382e+00  1.042500e+00  1.176593e+00
   endloop
 endfacet
 facet normal  0.000000e+00  1.000000e+00  0.000000e+00
   outer loop
     vertex  2.618211e+00  1.042500e+00  1.150711e+00
     vertex  2.634103e+00  1.042500e+00  1.130000e+00
     vertex  2.547500e+00  1.042500e+00  1.080000e+00
   endloop
 endfacet
 facet normal  0.000000e+00  1.000000e+00 -0.000000e+00
   outer loop
     vertex  2.618211e+00  1.042500e+00  1.150711e+00
     vertex  2.547500e+00  1.042500e+00  1.080000e+00
     vertex  2.597500e+00  1.042500e+00  1.166603e+00
   endloop
 endfacet
 facet normal -1.217350e-17  0.000000e+00 -1.000000e+00
   outer loop
     vertex  1.407500e+00 -1.042500e+00  0.000000e+00
     vertex  1.407500e+00  1.042500e+00  0.000000e+00
     vertex  2.547500e+00  1.042500e+00 -1.387779e-17
   endloop
 endfacet
 facet normal -1.217350e-17  0.000000e+00 -1.000000e+00
   outer loop
     vertex  2.547500e+00 -1.042500e+00 -1.387779e-17
     vertex  1.407500e+00 -1.042500e+00  0.000000e+00
     vertex  2.547500e+00  1.042500e+00 -1.387779e-17
   endloop
 endfacet
 facet normal -1.000000e+00 -0.000000e+00 -0.000000e+00
   outer loop
     vertex  1.407500e+00  1.042500e+00  1.000000e-01
     vertex  1.407500e+00  1.042500e+00  0.000000e+00
     vertex  1.407500e+00 -1.042500e+00  1.000000e-01
   endloop
 endfacet
 facet normal -1.000000e+00  0.000000e+00  0.000000e+00
   outer loop
     vertex  1.407500e+00  1.042500e+00  0.000000e+00
     vertex  1.407500e+00 -1.042500e+00  0.000000e+00
     vertex  1.407500e+00 -1.042500e+00  1.000000e-01
   endloop
 endfacet
 facet normal  0.000000e+00  0.000000e+00  1.000000e+00
   outer loop
     vertex  2.547500e+00  1.042500e+00  1.000000e-01
     vertex  1.407500e+00  1.042500e+00  1.000000e-01
     vertex  1.407500e+00 -1.042500e+00  1.000000e-01
   endloop
 endfacet
 facet normal -0.000000e+00  0.000000e+00  1.000000e+00
   outer loop
     vertex  2.547500e+00  1.042500e+00  1.000000e-01
     vertex  1.407500e+00 -1.042500e+00  1.000000e-01
     vertex  2.547500e+00 -1.042500e+00  1.000000e-01
   endloop
 endfacet
 facet normal -1.000000e+00 -0.000000e+00 -0.000000e+00
   outer loop
     vertex  2.547500e+00  1.042500e+00  1.080000e+00
     vertex  2.547500e+00  1.042500e+00  1.000000e-01
     vertex  2.547500e+00 -1.042500e+00  1.080000e+00
   endloop
 endfacet
 facet normal -1.000000e+00  0.000000e+00  0.000000e+00
   outer loop
     vertex  2.547500e+00  1.042500e+00  1.000000e-01
     vertex  2.547500e+00 -1.042500e+00  1.000000e-01
     vertex  2.547500e+00 -1.042500e+00  1.080000e+00
   endloop
 endfacet
 facet normal  0.000000e+00 -0.000000e+00  1.000000e+00
   outer loop
     vertex  1.507500e+00 -1.042500e+00  1.180000e+00
     vertex  2.547500e+00 -1.042500e+00  1.180000e+00
     vertex  1.507500e+00  1.042500e+00  1.180000e+00
   endloop
 endfacet
 facet normal  0.000000e+00 -0.000000e+00  1.000000e+00
   outer loop
     vertex  2.547500e+00 -1.042500e+00  1.180000e+00
     vertex  2.547500e+00  1.042500e+00  1.180000e+00
     vertex  1.507500e+00  1.042500e+00  1.180000e+00
   endloop
 endfacet
 facet normal  0.000000e+00  0.000000e+00 -1.000000e+00
   outer loop
     vertex  1.507500e+00 -1.042500e+00  1.080000e+00
     vertex  1.507500e+00  1.042500e+00  1.080000e+00
     vertex  2.547500e+00  1.042500e+00  1.080000e+00
   endloop
 endfacet
 facet normal  0.000000e+00  0.000000e+00 -1.000000e+00
   outer loop
     vertex  2.547500e+00 -1.042500e+00  1.080000e+00
     vertex  1.507500e+00 -1.042500e+00  1.080000e+00
     vertex  2.547500e+00  1.042500e+00  1.080000e+00
   endloop
 endfacet
 facet normal -1.000000e+00 -0.000000e+00 -0.000000e+00
   outer loop
     vertex  1.507500e+00  1.042500e+00  1.180000e+00
     vertex  1.507500e+00  1.042500e+00  1.080000e+00
     vertex  1.507500e+00 -1.042500e+00  1.180000e+00
   endloop
 endfacet
 facet normal -1.000000e+00  0.000000e+00  0.000000e+00
   outer loop
     vertex  1.507500e+00  1.042500e+00  1.080000e+00
     vertex  1.507500e+00 -1.042500e+00  1.080000e+00
     vertex  1.507500e+00 -1.042500e+00  1.180000e+00
   endloop
 endfacet
endsolid
