G04*
G04 #@! TF.GenerationSoftware,Altium Limited,Altium Designer,18.1.9 (240)*
G04*
G04 Layer_Color=16711935*
%FSLAX25Y25*%
%MOIN*%
G70*
G01*
G75*
%ADD49C,0.08177*%
%ADD50R,0.07933X0.07933*%
%ADD51C,0.06996*%
%ADD52R,0.07933X0.07933*%
%ADD53R,0.07075X0.07075*%
%ADD54C,0.07291*%
%ADD55C,0.06500*%
%ADD56C,0.05224*%
%ADD57C,0.07193*%
%ADD58C,0.04831*%
%ADD59C,0.06110*%
%ADD60C,0.03000*%
%ADD61C,0.05500*%
D49*
X272000Y184917D02*
D03*
X266316Y378000D02*
D03*
X177925Y276000D02*
D03*
X203000Y275335D02*
D03*
D50*
X282000Y184917D02*
D03*
X167925Y276000D02*
D03*
X193000Y275335D02*
D03*
D51*
X279402Y202240D02*
D03*
X280500Y248669D02*
D03*
X355500Y251643D02*
D03*
X224434Y221000D02*
D03*
X378224Y233179D02*
D03*
D52*
X266316Y368000D02*
D03*
D53*
X179252Y223610D02*
D03*
X297500Y465665D02*
D03*
X325000Y445388D02*
D03*
X285368Y482205D02*
D03*
D54*
X189252Y223610D02*
D03*
X199252D02*
D03*
X307500Y465665D02*
D03*
X317500D02*
D03*
X305000Y445388D02*
D03*
X315000D02*
D03*
X305368Y482205D02*
D03*
X295368D02*
D03*
D55*
X367949Y373000D02*
D03*
X377949D02*
D03*
X367949Y383000D02*
D03*
X377949D02*
D03*
X367949Y393000D02*
D03*
X377949D02*
D03*
X367949Y403000D02*
D03*
X377949D02*
D03*
X367949Y413000D02*
D03*
X377949D02*
D03*
X367949Y423000D02*
D03*
X377949D02*
D03*
X367949Y433000D02*
D03*
X377949D02*
D03*
X367949Y443000D02*
D03*
X377949D02*
D03*
X367949Y453000D02*
D03*
X377949D02*
D03*
X367949Y463000D02*
D03*
X377949D02*
D03*
D56*
X345225Y139500D02*
D03*
X355225D02*
D03*
D57*
X143343Y431157D02*
D03*
Y450843D02*
D03*
X123657D02*
D03*
Y431157D02*
D03*
D58*
X220642Y477705D02*
D03*
X239854D02*
D03*
D59*
X139500Y221870D02*
D03*
Y371476D02*
D03*
D60*
X254831Y375000D02*
D03*
X316949Y283233D02*
D03*
X317178Y276999D02*
D03*
X203278Y241727D02*
D03*
X201147Y348761D02*
D03*
X300678Y232595D02*
D03*
X287627Y233672D02*
D03*
X258678Y232294D02*
D03*
X260178Y218709D02*
D03*
X217078Y304595D02*
D03*
X227083Y322695D02*
D03*
X191793Y336095D02*
D03*
X196882Y348095D02*
D03*
X192678Y444465D02*
D03*
X241934Y277247D02*
D03*
X261855Y266708D02*
D03*
X299843Y272129D02*
D03*
X269662Y285384D02*
D03*
X338129Y339234D02*
D03*
X263803Y425206D02*
D03*
X284307Y466699D02*
D03*
X292224Y438706D02*
D03*
X353091Y386706D02*
D03*
X261807Y416206D02*
D03*
X279807Y408706D02*
D03*
X259303Y398206D02*
D03*
X321000Y403000D02*
D03*
X251071Y383000D02*
D03*
X391500Y423000D02*
D03*
X224434Y447194D02*
D03*
X199422Y400040D02*
D03*
X181890Y385733D02*
D03*
X217666Y446765D02*
D03*
X225268Y375268D02*
D03*
X187500Y376500D02*
D03*
X183339Y464568D02*
D03*
X219220Y341091D02*
D03*
X188107Y313823D02*
D03*
X236520Y342323D02*
D03*
X340500Y457500D02*
D03*
X202695Y330829D02*
D03*
X393000Y332043D02*
D03*
X376725Y326963D02*
D03*
X345225Y320351D02*
D03*
X364949Y318131D02*
D03*
X303449Y229199D02*
D03*
X296868Y228914D02*
D03*
X363815Y295266D02*
D03*
X337949Y226199D02*
D03*
X280949Y230577D02*
D03*
X252497Y297629D02*
D03*
X318449Y262443D02*
D03*
X316949Y287504D02*
D03*
X310020Y296651D02*
D03*
X289949Y224135D02*
D03*
X251071Y244198D02*
D03*
X231919Y267000D02*
D03*
X211360Y238500D02*
D03*
X191156D02*
D03*
D61*
X214366Y189000D02*
D03*
X177000Y169500D02*
D03*
X173587Y157547D02*
D03*
X211500Y165787D02*
D03*
X310807Y183047D02*
D03*
X275874Y174000D02*
D03*
X139500Y384000D02*
D03*
X150000Y163547D02*
D03*
X137693D02*
D03*
M02*
