G04*
G04 #@! TF.GenerationSoftware,Altium Limited,Altium Designer,18.1.9 (240)*
G04*
G04 Layer_Color=32896*
%FSLAX25Y25*%
%MOIN*%
G70*
G01*
G75*
G36*
X328400Y186500D02*
Y185700D01*
X327600D01*
Y186500D01*
Y187300D01*
X328400D01*
Y186500D01*
D02*
G37*
G36*
X318000Y176900D02*
Y176100D01*
X317200D01*
Y176900D01*
Y177700D01*
X318000D01*
Y176900D01*
D02*
G37*
G36*
X329200Y180900D02*
X330000D01*
Y180100D01*
Y179300D01*
X334800D01*
Y178500D01*
X329200D01*
Y177700D01*
X328400D01*
Y176900D01*
X327600D01*
Y177700D01*
X326800D01*
Y176900D01*
Y176100D01*
Y175300D01*
Y174500D01*
X336400D01*
Y175300D01*
Y176100D01*
X337200D01*
Y176900D01*
Y177700D01*
X338000D01*
Y178500D01*
X338800D01*
Y179300D01*
X339600D01*
Y178500D01*
X340400D01*
Y177700D01*
Y176900D01*
Y176100D01*
X339600D01*
Y175300D01*
X338800D01*
Y174500D01*
X347600D01*
Y175300D01*
X348400D01*
Y176100D01*
X349200D01*
Y176900D01*
X350000D01*
Y176100D01*
X350800D01*
Y175300D01*
Y174500D01*
X355600D01*
Y173700D01*
X350000D01*
Y172900D01*
X349200D01*
Y172100D01*
X348400D01*
Y172900D01*
X347600D01*
Y172100D01*
Y171300D01*
Y170500D01*
Y169700D01*
X358000D01*
Y170500D01*
X358800D01*
Y171300D01*
X359600D01*
Y172100D01*
X360400D01*
Y171300D01*
X361200D01*
Y170500D01*
Y169700D01*
X367600D01*
Y170500D01*
Y171300D01*
Y172100D01*
Y172900D01*
Y173700D01*
X363600D01*
Y174500D01*
X367600D01*
Y175300D01*
Y176100D01*
X368400D01*
Y176900D01*
Y177700D01*
X369200D01*
Y178500D01*
X370000D01*
Y179300D01*
X370800D01*
Y178500D01*
X371600D01*
Y177700D01*
Y176900D01*
Y176100D01*
X370800D01*
Y175300D01*
X370000D01*
Y174500D01*
X378800D01*
Y175300D01*
X379600D01*
Y176100D01*
X380400D01*
Y176900D01*
X381200D01*
Y176100D01*
X382000D01*
Y175300D01*
Y174500D01*
X386800D01*
Y173700D01*
X381200D01*
Y172900D01*
X380400D01*
Y172100D01*
X379600D01*
Y172900D01*
X378800D01*
Y172100D01*
Y171300D01*
Y170500D01*
Y169700D01*
X389200D01*
Y170500D01*
X390000D01*
Y171300D01*
X390800D01*
Y172100D01*
X391600D01*
Y171300D01*
X392400D01*
Y170500D01*
Y169700D01*
X399600D01*
Y170500D01*
X400400D01*
Y171300D01*
X401200D01*
Y172100D01*
X402000D01*
Y171300D01*
X402800D01*
Y170500D01*
Y169700D01*
X410000D01*
Y170500D01*
X410800D01*
Y171300D01*
X411600D01*
Y172100D01*
X412400D01*
Y171300D01*
X413200D01*
Y170500D01*
Y169700D01*
X418000D01*
Y168900D01*
X412400D01*
Y168100D01*
X411600D01*
Y167300D01*
X410800D01*
Y168100D01*
X410000D01*
Y167300D01*
Y166500D01*
Y165700D01*
Y164900D01*
X419600D01*
Y164100D01*
X410000D01*
Y163300D01*
Y162500D01*
Y161700D01*
Y160900D01*
Y160100D01*
X419600D01*
Y159300D01*
X410000D01*
Y158500D01*
Y157700D01*
Y156900D01*
Y156100D01*
Y155300D01*
X419600D01*
Y154500D01*
X410000D01*
Y153700D01*
Y152900D01*
Y152100D01*
X336400D01*
Y152900D01*
Y153700D01*
Y154500D01*
X326800D01*
Y153700D01*
Y152900D01*
Y152100D01*
Y151300D01*
Y150500D01*
X419600D01*
Y149700D01*
X399600D01*
Y148900D01*
Y148100D01*
Y147300D01*
Y146500D01*
X382800D01*
Y147300D01*
X398800D01*
Y148100D01*
Y148900D01*
Y149700D01*
X358000D01*
Y148900D01*
Y148100D01*
Y147300D01*
X373200D01*
Y146500D01*
X357200D01*
Y147300D01*
Y148100D01*
Y148900D01*
Y149700D01*
X326800D01*
Y148900D01*
Y148100D01*
Y147300D01*
X284400D01*
Y148100D01*
Y148900D01*
Y149700D01*
X246000D01*
Y150500D01*
X284400D01*
Y151300D01*
Y152100D01*
Y152900D01*
Y153700D01*
Y154500D01*
X256400D01*
Y153700D01*
X257200D01*
Y152900D01*
Y152100D01*
X256400D01*
Y152900D01*
X254800D01*
Y153700D01*
X253200D01*
Y152900D01*
X251600D01*
Y153700D01*
Y154500D01*
X248400D01*
Y153700D01*
X247600D01*
Y154500D01*
X246000D01*
Y155300D01*
X248400D01*
Y156100D01*
Y156900D01*
X249200D01*
Y157700D01*
X250000D01*
Y158500D01*
Y159300D01*
X246000D01*
Y160100D01*
X251600D01*
Y160900D01*
X252400D01*
Y161700D01*
X254000D01*
Y160900D01*
Y160100D01*
X284400D01*
Y160900D01*
Y161700D01*
Y162500D01*
Y163300D01*
Y164100D01*
X246000D01*
Y164900D01*
X267600D01*
Y165700D01*
X268400D01*
Y164900D01*
X283600D01*
Y165700D01*
X282800D01*
Y166500D01*
Y167300D01*
Y168100D01*
X281200D01*
Y168900D01*
X279600D01*
Y169700D01*
X281200D01*
Y168900D01*
X282800D01*
Y168100D01*
X283600D01*
Y167300D01*
Y166500D01*
Y165700D01*
X284400D01*
Y164900D01*
X285200D01*
Y165700D01*
X286000D01*
Y166500D01*
X286800D01*
Y167300D01*
X287600D01*
Y166500D01*
X288400D01*
Y165700D01*
Y164900D01*
X305200D01*
Y165700D01*
Y166500D01*
X306000D01*
Y167300D01*
Y168100D01*
X306800D01*
Y168900D01*
X307600D01*
Y169700D01*
X308400D01*
Y168900D01*
X309200D01*
Y168100D01*
Y167300D01*
Y166500D01*
X308400D01*
Y165700D01*
X307600D01*
Y164900D01*
X315600D01*
Y165700D01*
Y166500D01*
Y167300D01*
Y168100D01*
Y168900D01*
X311600D01*
Y169700D01*
X316400D01*
Y170500D01*
X317200D01*
Y171300D01*
X318000D01*
Y172100D01*
X318800D01*
Y171300D01*
X319600D01*
Y170500D01*
Y169700D01*
X326000D01*
Y170500D01*
Y171300D01*
Y172100D01*
Y172900D01*
Y173700D01*
X322000D01*
Y174500D01*
X326000D01*
Y175300D01*
Y176100D01*
Y176900D01*
Y177700D01*
Y178500D01*
X322000D01*
Y179300D01*
X326800D01*
Y180100D01*
X327600D01*
Y180900D01*
X328400D01*
Y181700D01*
X329200D01*
Y180900D01*
D02*
G37*
G36*
X254000Y169700D02*
X254800D01*
Y168900D01*
Y168100D01*
X252400D01*
Y168900D01*
Y169700D01*
X253200D01*
Y170500D01*
X254000D01*
Y169700D01*
D02*
G37*
G36*
X292400Y167300D02*
Y166500D01*
X291600D01*
Y167300D01*
Y168100D01*
X292400D01*
Y167300D01*
D02*
G37*
G36*
X252400D02*
Y166500D01*
X251600D01*
Y167300D01*
Y168100D01*
X252400D01*
Y167300D01*
D02*
G37*
G36*
X278000D02*
Y166500D01*
Y165700D01*
X277200D01*
Y166500D01*
Y167300D01*
Y168100D01*
X278000D01*
Y167300D01*
D02*
G37*
G36*
X254800Y162500D02*
Y161700D01*
X254000D01*
Y162500D01*
Y163300D01*
X254800D01*
Y162500D01*
D02*
G37*
G36*
X253200Y145700D02*
X419600D01*
Y144900D01*
X377200D01*
Y144100D01*
X376400D01*
Y144900D01*
X246000D01*
Y145700D01*
X251600D01*
Y146500D01*
X253200D01*
Y145700D01*
D02*
G37*
G36*
X251600Y142500D02*
X252400D01*
Y141700D01*
Y140900D01*
X251600D01*
Y140100D01*
X250000D01*
Y140900D01*
Y141700D01*
Y142500D01*
X250800D01*
Y143300D01*
X251600D01*
Y142500D01*
D02*
G37*
%LPC*%
G36*
X369200Y175300D02*
X368400D01*
Y174500D01*
X369200D01*
Y175300D01*
D02*
G37*
G36*
X338000D02*
X337200D01*
Y174500D01*
X338000D01*
Y175300D01*
D02*
G37*
G36*
X378000Y173700D02*
X368400D01*
Y172900D01*
Y172100D01*
Y171300D01*
Y170500D01*
Y169700D01*
X378000D01*
Y170500D01*
Y171300D01*
Y172100D01*
Y172900D01*
Y173700D01*
D02*
G37*
G36*
X346800D02*
X337200D01*
Y172900D01*
Y172100D01*
Y171300D01*
Y170500D01*
Y169700D01*
X346800D01*
Y170500D01*
Y171300D01*
Y172100D01*
Y172900D01*
Y173700D01*
D02*
G37*
G36*
X336400D02*
X326800D01*
Y172900D01*
Y172100D01*
Y171300D01*
Y170500D01*
Y169700D01*
X336400D01*
Y170500D01*
Y171300D01*
Y172100D01*
Y172900D01*
Y173700D01*
D02*
G37*
G36*
X409200Y168900D02*
X402000D01*
Y168100D01*
X401200D01*
Y167300D01*
X400400D01*
Y168100D01*
X399600D01*
Y167300D01*
Y166500D01*
Y165700D01*
Y164900D01*
X409200D01*
Y165700D01*
Y166500D01*
Y167300D01*
Y168100D01*
Y168900D01*
D02*
G37*
G36*
X398800D02*
X391600D01*
Y168100D01*
X390800D01*
Y167300D01*
X390000D01*
Y168100D01*
X389200D01*
Y167300D01*
Y166500D01*
Y165700D01*
Y164900D01*
X398800D01*
Y165700D01*
Y166500D01*
Y167300D01*
Y168100D01*
Y168900D01*
D02*
G37*
G36*
X367600D02*
X360400D01*
Y168100D01*
X359600D01*
Y167300D01*
X358800D01*
Y168100D01*
X358000D01*
Y167300D01*
Y166500D01*
Y165700D01*
Y164900D01*
X367600D01*
Y165700D01*
Y166500D01*
Y167300D01*
Y168100D01*
Y168900D01*
D02*
G37*
G36*
X326000D02*
X318800D01*
Y168100D01*
X318000D01*
Y167300D01*
X317200D01*
Y168100D01*
X316400D01*
Y167300D01*
Y166500D01*
Y165700D01*
Y164900D01*
X326000D01*
Y165700D01*
Y166500D01*
Y167300D01*
Y168100D01*
Y168900D01*
D02*
G37*
G36*
X388400D02*
X378800D01*
Y168100D01*
Y167300D01*
Y166500D01*
Y165700D01*
Y164900D01*
X388400D01*
Y165700D01*
Y166500D01*
Y167300D01*
Y168100D01*
Y168900D01*
D02*
G37*
G36*
X378000D02*
X368400D01*
Y168100D01*
Y167300D01*
Y166500D01*
Y165700D01*
Y164900D01*
X378000D01*
Y165700D01*
Y166500D01*
Y167300D01*
Y168100D01*
Y168900D01*
D02*
G37*
G36*
X357200D02*
X347600D01*
Y168100D01*
Y167300D01*
Y166500D01*
Y165700D01*
Y164900D01*
X357200D01*
Y165700D01*
Y166500D01*
Y167300D01*
Y168100D01*
Y168900D01*
D02*
G37*
G36*
X346800D02*
X337200D01*
Y168100D01*
Y167300D01*
Y166500D01*
Y165700D01*
Y164900D01*
X346800D01*
Y165700D01*
Y166500D01*
Y167300D01*
Y168100D01*
Y168900D01*
D02*
G37*
G36*
X336400D02*
X326800D01*
Y168100D01*
Y167300D01*
Y166500D01*
Y165700D01*
Y164900D01*
X336400D01*
Y165700D01*
Y166500D01*
Y167300D01*
Y168100D01*
Y168900D01*
D02*
G37*
G36*
X306800Y165700D02*
X306000D01*
Y164900D01*
X306800D01*
Y165700D01*
D02*
G37*
G36*
X305200Y164100D02*
X287600D01*
Y163300D01*
X286800D01*
Y162500D01*
X286000D01*
Y163300D01*
X285200D01*
Y162500D01*
Y161700D01*
Y160900D01*
Y160100D01*
X305200D01*
Y160900D01*
Y161700D01*
Y162500D01*
Y163300D01*
Y164100D01*
D02*
G37*
G36*
X409200D02*
X399600D01*
Y163300D01*
Y162500D01*
Y161700D01*
Y160900D01*
Y160100D01*
X409200D01*
Y160900D01*
Y161700D01*
Y162500D01*
Y163300D01*
Y164100D01*
D02*
G37*
G36*
X398800D02*
X389200D01*
Y163300D01*
Y162500D01*
Y161700D01*
Y160900D01*
Y160100D01*
X398800D01*
Y160900D01*
Y161700D01*
Y162500D01*
Y163300D01*
Y164100D01*
D02*
G37*
G36*
X388400D02*
X378800D01*
Y163300D01*
Y162500D01*
Y161700D01*
Y160900D01*
Y160100D01*
X388400D01*
Y160900D01*
Y161700D01*
Y162500D01*
Y163300D01*
Y164100D01*
D02*
G37*
G36*
X378000D02*
X368400D01*
Y163300D01*
Y162500D01*
Y161700D01*
Y160900D01*
Y160100D01*
X378000D01*
Y160900D01*
Y161700D01*
Y162500D01*
Y163300D01*
Y164100D01*
D02*
G37*
G36*
X367600D02*
X358000D01*
Y163300D01*
Y162500D01*
Y161700D01*
Y160900D01*
Y160100D01*
X367600D01*
Y160900D01*
Y161700D01*
Y162500D01*
Y163300D01*
Y164100D01*
D02*
G37*
G36*
X357200D02*
X347600D01*
Y163300D01*
Y162500D01*
Y161700D01*
Y160900D01*
Y160100D01*
X357200D01*
Y160900D01*
Y161700D01*
Y162500D01*
Y163300D01*
Y164100D01*
D02*
G37*
G36*
X346800D02*
X337200D01*
Y163300D01*
Y162500D01*
Y161700D01*
Y160900D01*
Y160100D01*
X346800D01*
Y160900D01*
Y161700D01*
Y162500D01*
Y163300D01*
Y164100D01*
D02*
G37*
G36*
X336400D02*
X326800D01*
Y163300D01*
Y162500D01*
Y161700D01*
Y160900D01*
Y160100D01*
X336400D01*
Y160900D01*
Y161700D01*
Y162500D01*
Y163300D01*
Y164100D01*
D02*
G37*
G36*
X326000D02*
X316400D01*
Y163300D01*
Y162500D01*
Y161700D01*
Y160900D01*
Y160100D01*
X326000D01*
Y160900D01*
Y161700D01*
Y162500D01*
Y163300D01*
Y164100D01*
D02*
G37*
G36*
X315600D02*
X306000D01*
Y163300D01*
Y162500D01*
Y161700D01*
Y160900D01*
Y160100D01*
X315600D01*
Y160900D01*
Y161700D01*
Y162500D01*
Y163300D01*
Y164100D01*
D02*
G37*
G36*
X398800Y158500D02*
X389200D01*
Y157700D01*
Y156900D01*
X398800D01*
Y157700D01*
Y158500D01*
D02*
G37*
G36*
X388400D02*
X378800D01*
Y157700D01*
Y156900D01*
X388400D01*
Y157700D01*
Y158500D01*
D02*
G37*
G36*
X378000D02*
X368400D01*
Y157700D01*
Y156900D01*
X378000D01*
Y157700D01*
Y158500D01*
D02*
G37*
G36*
X367600D02*
X358000D01*
Y157700D01*
Y156900D01*
X367600D01*
Y157700D01*
Y158500D01*
D02*
G37*
G36*
X346800Y159300D02*
X337200D01*
Y158500D01*
Y157700D01*
Y156900D01*
X346800D01*
Y157700D01*
Y158500D01*
Y159300D01*
D02*
G37*
G36*
X409200D02*
X399600D01*
Y158500D01*
Y157700D01*
Y156900D01*
Y156100D01*
Y155300D01*
X409200D01*
Y156100D01*
Y156900D01*
Y157700D01*
Y158500D01*
Y159300D01*
D02*
G37*
G36*
X357200D02*
X347600D01*
Y158500D01*
Y157700D01*
Y156900D01*
Y156100D01*
Y155300D01*
X357200D01*
Y156100D01*
Y156900D01*
Y157700D01*
Y158500D01*
Y159300D01*
D02*
G37*
G36*
X336400D02*
X326800D01*
Y158500D01*
Y157700D01*
Y156900D01*
Y156100D01*
Y155300D01*
X336400D01*
Y156100D01*
Y156900D01*
Y157700D01*
Y158500D01*
Y159300D01*
D02*
G37*
G36*
X326000D02*
X316400D01*
Y158500D01*
Y157700D01*
Y156900D01*
Y156100D01*
Y155300D01*
X326000D01*
Y156100D01*
Y156900D01*
Y157700D01*
Y158500D01*
Y159300D01*
D02*
G37*
G36*
X315600D02*
X306000D01*
Y158500D01*
Y157700D01*
Y156900D01*
Y156100D01*
Y155300D01*
X315600D01*
Y156100D01*
Y156900D01*
Y157700D01*
Y158500D01*
Y159300D01*
D02*
G37*
G36*
X305200D02*
X285200D01*
Y158500D01*
Y157700D01*
Y156900D01*
Y156100D01*
Y155300D01*
X305200D01*
Y156100D01*
Y156900D01*
Y157700D01*
Y158500D01*
Y159300D01*
D02*
G37*
G36*
X284400D02*
X252400D01*
Y158500D01*
X251600D01*
Y157700D01*
X250800D01*
Y156900D01*
X250000D01*
Y156100D01*
X249200D01*
Y155300D01*
X272400D01*
Y156100D01*
X273200D01*
Y155300D01*
X284400D01*
Y156100D01*
Y156900D01*
Y157700D01*
Y158500D01*
Y159300D01*
D02*
G37*
G36*
X409200Y154500D02*
X399600D01*
Y153700D01*
X409200D01*
Y154500D01*
D02*
G37*
G36*
X398800D02*
X389200D01*
Y153700D01*
X398800D01*
Y154500D01*
D02*
G37*
G36*
X388400D02*
X378800D01*
Y153700D01*
X388400D01*
Y154500D01*
D02*
G37*
G36*
X378000D02*
X368400D01*
Y153700D01*
X378000D01*
Y154500D01*
D02*
G37*
G36*
X367600D02*
X358000D01*
Y153700D01*
X367600D01*
Y154500D01*
D02*
G37*
G36*
X357200D02*
X347600D01*
Y153700D01*
X357200D01*
Y154500D01*
D02*
G37*
G36*
X346800D02*
X337200D01*
Y153700D01*
X346800D01*
Y154500D01*
D02*
G37*
G36*
X326000D02*
X316400D01*
Y153700D01*
Y152900D01*
Y152100D01*
X326000D01*
Y152900D01*
Y153700D01*
Y154500D01*
D02*
G37*
G36*
X315600D02*
X306000D01*
Y153700D01*
Y152900D01*
Y152100D01*
X315600D01*
Y152900D01*
Y153700D01*
Y154500D01*
D02*
G37*
G36*
X305200D02*
X285200D01*
Y153700D01*
Y152900D01*
Y152100D01*
Y151300D01*
Y150500D01*
X305200D01*
Y151300D01*
Y152100D01*
Y152900D01*
Y153700D01*
Y154500D01*
D02*
G37*
G36*
X326000Y149700D02*
X316400D01*
Y148900D01*
X326000D01*
Y149700D01*
D02*
G37*
G36*
X315600D02*
X306000D01*
Y148900D01*
X315600D01*
Y149700D01*
D02*
G37*
G36*
X305200D02*
X285200D01*
Y148900D01*
X305200D01*
Y149700D01*
D02*
G37*
%LPD*%
G36*
X263600Y157700D02*
X264400D01*
Y156900D01*
X263600D01*
Y157700D01*
X262800D01*
Y158500D01*
X263600D01*
Y157700D01*
D02*
G37*
M02*
