G04*
G04 #@! TF.GenerationSoftware,Altium Limited,Altium Designer,18.1.9 (240)*
G04*
G04 Layer_Color=65535*
%FSLAX25Y25*%
%MOIN*%
G70*
G01*
G75*
%ADD11C,0.00787*%
%ADD64C,0.02000*%
%ADD66C,0.00600*%
%ADD104C,0.00394*%
%ADD105C,0.00197*%
D11*
X143343Y420583D02*
X144245Y421022D01*
X145127Y421500D01*
X145988Y422014D01*
X146827Y422565D01*
X147641Y423151D01*
X148429Y423772D01*
X149190Y424425D01*
X149923Y425110D01*
X150626Y425826D01*
X151297Y426571D01*
X151936Y427345D01*
X152542Y428144D01*
X153113Y428969D01*
X153648Y429818D01*
X154147Y430688D01*
X154607Y431579D01*
X155030Y432489D01*
X155413Y433416D01*
X155757Y434359D01*
X156060Y435315D01*
X156322Y436283D01*
X156542Y437262D01*
X156720Y438249D01*
X156856Y439243D01*
X156950Y440242D01*
X157001Y441244D01*
X157009Y442247D01*
X156974Y443249D01*
X156896Y444249D01*
X156776Y445245D01*
X156614Y446235D01*
X156409Y447217D01*
X156163Y448190D01*
X155876Y449151D01*
X155547Y450099D01*
X155179Y451032D01*
X154771Y451948D01*
X154325Y452847D01*
X153840Y453725D01*
X153319Y454582D01*
X152761Y455416D01*
X152169Y456225D01*
X151542Y457009D01*
X150882Y457765D01*
X150191Y458492D01*
X149470Y459189D01*
X148719Y459854D01*
X147941Y460487D01*
X147136Y461086D01*
X146307Y461651D01*
X145454Y462179D01*
X144580Y462671D01*
X143685Y463124D01*
X142772Y463539D01*
X141842Y463915D01*
X140896Y464251D01*
X139938Y464546D01*
X138967Y464800D01*
X137987Y465013D01*
X136998Y465183D01*
X136003Y465311D01*
X135004Y465397D01*
X134002Y465440D01*
X132998D01*
X131996Y465397D01*
X130997Y465311D01*
X130002Y465183D01*
X129013Y465013D01*
X128033Y464800D01*
X127062Y464546D01*
X126103Y464251D01*
X125158Y463915D01*
X124228Y463539D01*
X123315Y463124D01*
X122420Y462670D01*
X121546Y462179D01*
X120693Y461651D01*
X119864Y461086D01*
X119059Y460487D01*
X118281Y459854D01*
X117530Y459189D01*
X116809Y458492D01*
X116118Y457765D01*
X115458Y457009D01*
X114831Y456225D01*
X114239Y455416D01*
X113681Y454582D01*
X113160Y453725D01*
X112675Y452847D01*
X112229Y451948D01*
X111821Y451032D01*
X111452Y450099D01*
X111124Y449151D01*
X110837Y448190D01*
X110591Y447217D01*
X110386Y446235D01*
X110224Y445245D01*
X110103Y444249D01*
X110026Y443249D01*
X109991Y442247D01*
X109999Y441244D01*
X110050Y440242D01*
X110144Y439243D01*
X110280Y438249D01*
X110458Y437262D01*
X110679Y436283D01*
X110940Y435315D01*
X111243Y434358D01*
X111587Y433416D01*
X111970Y432489D01*
X112392Y431579D01*
X112854Y430688D01*
X113352Y429817D01*
X113887Y428969D01*
X114458Y428144D01*
X115064Y427344D01*
X115703Y426571D01*
X116375Y425826D01*
X117077Y425110D01*
X117810Y424425D01*
X118571Y423771D01*
X119359Y423151D01*
X120174Y422565D01*
X121012Y422014D01*
X121873Y421500D01*
X122755Y421022D01*
X123657Y420583D01*
X389068Y147000D02*
X389055Y147998D01*
X389016Y148996D01*
X388952Y149993D01*
X388862Y150987D01*
X388747Y151979D01*
X388606Y152968D01*
X388439Y153953D01*
X388248Y154932D01*
X388031Y155907D01*
X387789Y156876D01*
X387522Y157838D01*
X387231Y158794D01*
X386915Y159741D01*
X386575Y160680D01*
X386211Y161609D01*
X385823Y162530D01*
X385411Y163439D01*
X384976Y164338D01*
X384518Y165226D01*
X384037Y166101D01*
X383535Y166964D01*
X383009Y167813D01*
X382463Y168649D01*
X381895Y169470D01*
X381306Y170276D01*
X380696Y171067D01*
X380066Y171842D01*
X379417Y172601D01*
X378748Y173342D01*
X378060Y174066D01*
X377354Y174772D01*
X376630Y175460D01*
X375888Y176129D01*
X375130Y176778D01*
X374355Y177408D01*
X373564Y178018D01*
X372758Y178607D01*
X371936Y179175D01*
X371101Y179722D01*
X370251Y180247D01*
X369389Y180750D01*
X368513Y181230D01*
X367626Y181688D01*
X366727Y182123D01*
X365817Y182535D01*
X364897Y182923D01*
X363967Y183287D01*
X363029Y183627D01*
X362081Y183943D01*
X361126Y184235D01*
X360164Y184501D01*
X359195Y184743D01*
X358220Y184960D01*
X357240Y185152D01*
X356256Y185318D01*
X355267Y185459D01*
X354275Y185574D01*
X353281Y185664D01*
X352284Y185729D01*
X351286Y185767D01*
X350288Y185780D01*
X349289Y185767D01*
X348291Y185729D01*
X347295Y185664D01*
X346300Y185574D01*
X345308Y185459D01*
X344320Y185318D01*
X343335Y185152D01*
X342355Y184960D01*
X341381Y184743D01*
X340412Y184501D01*
X339449Y184235D01*
X338494Y183943D01*
X337547Y183627D01*
X336608Y183287D01*
X335678Y182923D01*
X334758Y182535D01*
X333848Y182123D01*
X332949Y181688D01*
X332062Y181230D01*
X331187Y180750D01*
X330324Y180247D01*
X329475Y179722D01*
X328639Y179175D01*
X327818Y178607D01*
X327011Y178018D01*
X326221Y177408D01*
X325446Y176778D01*
X324687Y176129D01*
X323946Y175460D01*
X323221Y174772D01*
X322515Y174066D01*
X321828Y173342D01*
X321159Y172601D01*
X320509Y171842D01*
X319880Y171067D01*
X319270Y170276D01*
X318681Y169470D01*
X318113Y168649D01*
X317566Y167813D01*
X317041Y166964D01*
X316538Y166101D01*
X316057Y165226D01*
X315600Y164338D01*
X315165Y163440D01*
X314753Y162530D01*
X314365Y161610D01*
X314001Y160680D01*
X313661Y159741D01*
X313345Y158794D01*
X313053Y157838D01*
X312787Y156876D01*
X312545Y155907D01*
X312328Y154933D01*
X312136Y153953D01*
X311970Y152968D01*
X311829Y151979D01*
X311713Y150988D01*
X311624Y149993D01*
X311559Y148996D01*
X311521Y147999D01*
X311508Y147000D01*
X311521Y146002D01*
X311559Y145004D01*
X311624Y144007D01*
X311713Y143013D01*
X311829Y142021D01*
X311970Y141032D01*
X312136Y140048D01*
X312328Y139068D01*
X312545Y138093D01*
X312786Y137124D01*
X313053Y136162D01*
X313345Y135207D01*
X313660Y134259D01*
X314001Y133320D01*
X314365Y132391D01*
X314753Y131471D01*
X315165Y130561D01*
X315599Y129662D01*
X316057Y128774D01*
X316538Y127899D01*
X317041Y127036D01*
X317566Y126187D01*
X318113Y125352D01*
X318681Y124530D01*
X319270Y123724D01*
X319880Y122933D01*
X320509Y122158D01*
X321159Y121399D01*
X321828Y120658D01*
X322515Y119934D01*
X323221Y119228D01*
X323945Y118540D01*
X324687Y117871D01*
X325445Y117222D01*
X326220Y116592D01*
X327011Y115982D01*
X327818Y115393D01*
X328639Y114825D01*
X329474Y114279D01*
X330324Y113753D01*
X331187Y113251D01*
X332062Y112770D01*
X332949Y112312D01*
X333848Y111877D01*
X334758Y111465D01*
X335678Y111077D01*
X336608Y110713D01*
X337547Y110373D01*
X338494Y110057D01*
X339449Y109766D01*
X340411Y109499D01*
X341380Y109257D01*
X342355Y109040D01*
X343335Y108848D01*
X344320Y108682D01*
X345308Y108541D01*
X346300Y108426D01*
X347294Y108336D01*
X348291Y108271D01*
X349289Y108233D01*
X350287Y108220D01*
X351286Y108233D01*
X352284Y108271D01*
X353280Y108336D01*
X354275Y108425D01*
X355267Y108541D01*
X356255Y108682D01*
X357240Y108848D01*
X358220Y109040D01*
X359195Y109257D01*
X360163Y109499D01*
X361126Y109765D01*
X362081Y110057D01*
X363028Y110373D01*
X363967Y110713D01*
X364897Y111077D01*
X365817Y111465D01*
X366727Y111877D01*
X367626Y112312D01*
X368513Y112769D01*
X369388Y113250D01*
X370251Y113753D01*
X371100Y114278D01*
X371936Y114825D01*
X372757Y115393D01*
X373564Y115982D01*
X374355Y116592D01*
X375130Y117221D01*
X375888Y117871D01*
X376630Y118540D01*
X377354Y119227D01*
X378060Y119933D01*
X378748Y120657D01*
X379416Y121399D01*
X380066Y122157D01*
X380696Y122932D01*
X381305Y123723D01*
X381894Y124530D01*
X382462Y125351D01*
X383009Y126186D01*
X383534Y127036D01*
X384037Y127899D01*
X384518Y128774D01*
X384976Y129661D01*
X385411Y130560D01*
X385822Y131470D01*
X386210Y132390D01*
X386575Y133320D01*
X386915Y134258D01*
X387231Y135206D01*
X387522Y136161D01*
X387789Y137123D01*
X388031Y138092D01*
X388248Y139067D01*
X388439Y140047D01*
X388606Y141032D01*
X388747Y142020D01*
X388862Y143012D01*
X388952Y144006D01*
X389016Y145003D01*
X389055Y146001D01*
X389068Y146999D01*
Y147000D01*
X245012Y467862D02*
X245995Y468071D01*
X246952Y468378D01*
X247873Y468779D01*
X248749Y469271D01*
X249571Y469849D01*
X250331Y470507D01*
X251021Y471238D01*
X251633Y472034D01*
X252163Y472889D01*
X252603Y473792D01*
X252951Y474735D01*
X253201Y475708D01*
X253353Y476701D01*
X253403Y477705D01*
X253353Y478709D01*
X253201Y479702D01*
X252951Y480676D01*
X252603Y481618D01*
X252163Y482522D01*
X251633Y483376D01*
X251021Y484173D01*
X250331Y484903D01*
X249571Y485561D01*
X248749Y486139D01*
X247873Y486631D01*
X246952Y487033D01*
X245995Y487339D01*
X245012Y487548D01*
X215484D02*
X214500Y487340D01*
X213542Y487034D01*
X212620Y486633D01*
X211743Y486141D01*
X210920Y485564D01*
X210160Y484906D01*
X209470Y484175D01*
X208856Y483378D01*
X208327Y482524D01*
X207885Y481620D01*
X207538Y480677D01*
X207287Y479703D01*
X207135Y478709D01*
X207084Y477705D01*
X207135Y476701D01*
X207287Y475707D01*
X207538Y474733D01*
X207885Y473790D01*
X208327Y472887D01*
X208856Y472032D01*
X209470Y471235D01*
X210160Y470505D01*
X210920Y469847D01*
X211743Y469269D01*
X212620Y468777D01*
X213542Y468376D01*
X214500Y468070D01*
X215484Y467862D01*
X123657Y420583D02*
X143343D01*
X299322Y316254D02*
X309322D01*
Y306766D02*
Y316254D01*
X299322Y306766D02*
X309322D01*
X299322D02*
Y316254D01*
X274402Y197496D02*
Y206984D01*
Y197496D02*
X284402D01*
Y206984D01*
X274402D02*
X284402D01*
X275500Y243924D02*
Y253413D01*
Y243924D02*
X285500D01*
Y253413D01*
X275500D02*
X285500D01*
X350500Y246899D02*
Y256387D01*
Y246899D02*
X360500D01*
Y256387D01*
X350500D02*
X360500D01*
X219434Y216256D02*
Y225744D01*
Y216256D02*
X229434D01*
Y225744D01*
X219434D02*
X229434D01*
X373224Y228435D02*
Y237923D01*
Y228435D02*
X383224D01*
Y237923D01*
X373224D02*
X383224D01*
X215484Y487548D02*
X245012D01*
X215484Y467862D02*
X245012D01*
D64*
X358449Y374000D02*
X357568Y373713D01*
X357023Y372964D01*
Y372037D01*
X357568Y371287D01*
X358449Y371000D01*
X359331Y371287D01*
X359876Y372037D01*
Y372964D01*
X359331Y373713D01*
X358449Y374000D01*
D66*
X211400Y355400D02*
Y361800D01*
X210400D02*
X211400D01*
X208400D02*
X210400D01*
X203000D02*
X208400D01*
X200000Y359800D02*
Y361800D01*
Y357400D02*
Y359800D01*
Y355400D02*
Y357400D01*
Y355400D02*
X201000D01*
X203000D01*
X204700D01*
X206700D01*
X208400D01*
X201000Y353100D02*
Y355400D01*
Y353100D02*
X203000D01*
Y355400D01*
X204700Y353100D02*
Y355400D01*
Y353100D02*
X206700D01*
Y355400D01*
X210400D02*
X211400D01*
X208400D02*
X210400D01*
X208400Y353100D02*
Y355400D01*
Y353100D02*
X210400D01*
Y355400D01*
Y361800D02*
Y364100D01*
X208400D02*
X210400D01*
X208400Y361800D02*
Y364100D01*
X200000Y361800D02*
X201000D01*
X203000D01*
Y364100D01*
X201000D02*
X203000D01*
X201000Y361800D02*
Y364100D01*
X363249Y367000D02*
Y469000D01*
Y367000D02*
X382749D01*
Y469000D01*
X363249D02*
X382749D01*
X359215Y336729D02*
X366015D01*
X359215Y335529D02*
Y336729D01*
Y333529D02*
Y335529D01*
Y328129D02*
Y333529D01*
Y324929D02*
X361415D01*
X363815D01*
X366015D01*
Y326129D01*
Y328129D01*
Y329829D01*
Y331829D01*
Y333529D01*
Y326129D02*
X368515D01*
Y328129D01*
X366015D02*
X368515D01*
X366015Y329829D02*
X368515D01*
Y331829D01*
X366015D02*
X368515D01*
X366015Y335529D02*
Y336729D01*
Y333529D02*
Y335529D01*
Y333529D02*
X368515D01*
Y335529D01*
X366015D02*
X368515D01*
X356715D02*
X359215D01*
X356715Y333529D02*
Y335529D01*
Y333529D02*
X359215D01*
Y324929D02*
Y326129D01*
Y328129D01*
X356715D02*
X359215D01*
X356715Y326129D02*
Y328129D01*
Y326129D02*
X359215D01*
X212700Y250056D02*
Y256456D01*
X211700D02*
X212700D01*
X209700D02*
X211700D01*
X204300D02*
X209700D01*
X201300Y254456D02*
Y256456D01*
Y252056D02*
Y254456D01*
Y250056D02*
Y252056D01*
Y250056D02*
X202300D01*
X204300D01*
X206000D01*
X208000D01*
X209700D01*
X202300Y247756D02*
Y250056D01*
Y247756D02*
X204300D01*
Y250056D01*
X206000Y247756D02*
Y250056D01*
Y247756D02*
X208000D01*
Y250056D01*
X211700D02*
X212700D01*
X209700D02*
X211700D01*
X209700Y247756D02*
Y250056D01*
Y247756D02*
X211700D01*
Y250056D01*
Y256456D02*
Y258756D01*
X209700D02*
X211700D01*
X209700Y256456D02*
Y258756D01*
X201300Y256456D02*
X202300D01*
X204300D01*
Y258756D01*
X202300D02*
X204300D01*
X202300Y256456D02*
Y258756D01*
X212005Y318200D02*
Y320500D01*
X214005D01*
Y318200D02*
Y320500D01*
X212005Y318200D02*
X214005D01*
X211005D02*
X212005D01*
X219405D02*
Y320500D01*
X221405D01*
Y318200D02*
Y320500D01*
Y309500D02*
Y311800D01*
X219405Y309500D02*
X221405D01*
X219405D02*
Y311800D01*
X221405D01*
X222405D01*
X217705Y309500D02*
Y311800D01*
X215705Y309500D02*
X217705D01*
X215705D02*
Y311800D01*
X214005Y309500D02*
Y311800D01*
X212005Y309500D02*
X214005D01*
X212005D02*
Y311800D01*
X217705D02*
X219405D01*
X215705D02*
X217705D01*
X214005D02*
X215705D01*
X212005D02*
X214005D01*
X211005D02*
X212005D01*
X211005D02*
Y313800D01*
Y316200D01*
Y318200D01*
X214005D02*
X219405D01*
X221405D01*
X222405D01*
Y311800D02*
Y318200D01*
D104*
X271891Y380586D02*
X282481D01*
X271891Y349404D02*
Y380586D01*
Y349404D02*
X282481D01*
Y380586D01*
X319205Y315938D02*
X339795D01*
X319205Y305348D02*
Y315938D01*
Y305348D02*
X339795D01*
Y315938D01*
X266705Y190212D02*
X287295D01*
X266705Y179622D02*
Y190212D01*
Y179622D02*
X287295D01*
Y190212D01*
X378835Y341602D02*
X402457D01*
X378835D02*
Y354398D01*
X402457D01*
Y341602D02*
Y354398D01*
X397929Y341602D02*
X402457Y346130D01*
X397551Y287888D02*
Y311510D01*
X410347D01*
Y287888D02*
Y311510D01*
X397551Y287888D02*
X410347D01*
X397551Y292416D02*
X402079Y287888D01*
X173661Y228905D02*
X204843D01*
Y218315D02*
Y228905D01*
X173661Y218315D02*
X204843D01*
X173661D02*
Y228905D01*
X181764Y418350D02*
X184914D01*
Y424650D01*
X181764D02*
X184914D01*
X181764Y418350D02*
Y424650D01*
X293606Y244096D02*
X296166Y241537D01*
X293606D02*
X313292D01*
Y258859D01*
X293606D02*
X313292D01*
X293606Y241537D02*
Y258859D01*
X128673Y265177D02*
Y328169D01*
X150327D01*
Y265177D02*
Y328169D01*
X128673Y265177D02*
X150327D01*
X139500Y221870D02*
Y265177D01*
Y328169D02*
Y371476D01*
X162630Y270705D02*
Y281295D01*
X183220D01*
Y270705D02*
Y281295D01*
X162630Y270705D02*
X183220D01*
X187705Y270040D02*
Y280630D01*
X208295D01*
Y270040D02*
Y280630D01*
X187705Y270040D02*
X208295D01*
X355189Y270437D02*
X378811D01*
X355189D02*
Y283233D01*
X378811D01*
Y270437D02*
Y283233D01*
X374283Y270437D02*
X378811Y274965D01*
X181575Y200626D02*
X202425D01*
Y186374D02*
Y200626D01*
X181575Y186374D02*
X202425D01*
X181575D02*
Y200626D01*
Y196394D02*
X185811Y200626D01*
X258579Y137421D02*
Y177579D01*
X218421Y137421D02*
X258579D01*
X218421D02*
Y177579D01*
X258579D01*
X291909Y470960D02*
X323091D01*
Y460370D02*
Y470960D01*
X291909Y460370D02*
X323091D01*
X291909D02*
Y470960D01*
X330591Y440093D02*
Y450683D01*
X299409D02*
X330591D01*
X299409Y440093D02*
Y450683D01*
Y440093D02*
X330591D01*
X279777Y476910D02*
Y487500D01*
Y476910D02*
X310959D01*
Y487500D01*
X279777D02*
X310959D01*
D105*
X270906Y381570D02*
X283466D01*
X270906Y348420D02*
Y381570D01*
Y348420D02*
X283466D01*
Y381570D01*
X318220Y316923D02*
X340780D01*
X318220Y304363D02*
Y316923D01*
Y304363D02*
X340780D01*
Y316923D01*
X265720Y191197D02*
X288280D01*
X265720Y178637D02*
Y191197D01*
Y178637D02*
X288280D01*
Y191197D01*
X375489Y340323D02*
X405803D01*
X375489D02*
Y355677D01*
X405803D01*
Y340323D02*
Y355677D01*
X396272Y284542D02*
Y314856D01*
X411626D01*
Y284542D02*
Y314856D01*
X396272Y284542D02*
X411626D01*
X172677Y229890D02*
X205827D01*
Y217330D02*
Y229890D01*
X172677Y217330D02*
X205827D01*
X172677D02*
Y229890D01*
X180386Y415594D02*
X186292D01*
Y427406D01*
X180386D02*
X186292D01*
X180386Y415594D02*
Y427406D01*
X292425Y234746D02*
X314473D01*
Y265651D01*
X292425D02*
X314473D01*
X292425Y234746D02*
Y265651D01*
X200720Y493453D02*
X259776D01*
Y461957D02*
Y493453D01*
X200720Y461957D02*
X259776D01*
X200720D02*
Y493453D01*
X127295Y218083D02*
Y375268D01*
X151705D01*
Y218083D02*
Y375268D01*
X127295Y218083D02*
X151705D01*
X161645Y269720D02*
Y282280D01*
X184205D01*
Y269720D02*
Y282280D01*
X161645Y269720D02*
X184205D01*
X186720Y269055D02*
Y281615D01*
X209280D01*
Y269055D02*
Y281615D01*
X186720Y269055D02*
X209280D01*
X351843Y269158D02*
X382157D01*
X351843D02*
Y284512D01*
X382157D01*
Y269158D02*
Y284512D01*
X177925Y202240D02*
X206075D01*
Y184760D02*
Y202240D01*
X177925Y184760D02*
X206075D01*
X177925D02*
Y202240D01*
X260154Y133878D02*
Y181122D01*
X216846Y133878D02*
X260154D01*
X216846D02*
Y181122D01*
X260154D01*
X290925Y471945D02*
X324075D01*
Y459385D02*
Y471945D01*
X290925Y459385D02*
X324075D01*
X290925D02*
Y471945D01*
X331575Y439108D02*
Y451668D01*
X298425D02*
X331575D01*
X298425Y439108D02*
Y451668D01*
Y439108D02*
X331575D01*
X278793Y475925D02*
Y488485D01*
Y475925D02*
X311943D01*
Y488485D01*
X278793D02*
X311943D01*
M02*
