G04*
G04 #@! TF.GenerationSoftware,Altium Limited,Altium Designer,18.1.9 (240)*
G04*
G04 Layer_Color=65535*
%FSLAX25Y25*%
%MOIN*%
G70*
G01*
G75*
%ADD10C,0.01000*%
%ADD11C,0.00787*%
%ADD12C,0.00984*%
%ADD13C,0.00787*%
%ADD14C,0.00900*%
D10*
X262767Y184500D02*
X262569Y185491D01*
X262008Y186330D01*
X261169Y186892D01*
X260178Y187089D01*
X259187Y186892D01*
X258347Y186330D01*
X257786Y185491D01*
X257589Y184500D01*
X257786Y183509D01*
X258347Y182669D01*
X259187Y182108D01*
X260178Y181911D01*
X261169Y182108D01*
X262008Y182669D01*
X262569Y183509D01*
X262767Y184500D01*
X195999Y113998D02*
X192000D01*
Y108000D01*
X195999D01*
X192000Y110999D02*
X193999D01*
X197998Y108000D02*
Y111999D01*
X199997Y113998D01*
X201997Y111999D01*
Y108000D01*
Y110999D01*
X197998D01*
X203996Y113998D02*
Y108000D01*
X206995D01*
X207995Y109000D01*
Y112998D01*
X206995Y113998D01*
X203996D01*
X213993Y112998D02*
X212993Y113998D01*
X210994D01*
X209994Y112998D01*
Y109000D01*
X210994Y108000D01*
X212993D01*
X213993Y109000D01*
Y110999D01*
X211994D01*
X215992Y113998D02*
Y108000D01*
X218991D01*
X219991Y109000D01*
Y109999D01*
X218991Y110999D01*
X215992D01*
X218991D01*
X219991Y111999D01*
Y112998D01*
X218991Y113998D01*
X215992D01*
X224989Y108000D02*
X222990D01*
X221990Y109000D01*
Y110999D01*
X222990Y111999D01*
X224989D01*
X225989Y110999D01*
Y109999D01*
X221990D01*
X188107Y125998D02*
Y120000D01*
X192106D01*
X195105D02*
X197104D01*
X198104Y121000D01*
Y122999D01*
X197104Y123999D01*
X195105D01*
X194105Y122999D01*
Y121000D01*
X195105Y120000D01*
X200103Y123999D02*
Y121000D01*
X201103Y120000D01*
X202102Y121000D01*
X203102Y120000D01*
X204102Y121000D01*
Y123999D01*
X212099Y125998D02*
X216098D01*
X214099D01*
Y120000D01*
X219097D02*
X221096D01*
X222096Y121000D01*
Y122999D01*
X221096Y123999D01*
X219097D01*
X218097Y122999D01*
Y121000D01*
X219097Y120000D01*
X230093Y125998D02*
Y120000D01*
Y122999D01*
X234092D01*
Y125998D01*
Y120000D01*
X236091D02*
X238091D01*
X237091D01*
Y123999D01*
X236091D01*
X243089Y118001D02*
X244089D01*
X245088Y119000D01*
Y123999D01*
X242089D01*
X241090Y122999D01*
Y121000D01*
X242089Y120000D01*
X245088D01*
X247088Y125998D02*
Y120000D01*
Y122999D01*
X248088Y123999D01*
X250087D01*
X251086Y122999D01*
Y120000D01*
X370499Y118500D02*
X371249D01*
X371999Y119250D01*
Y122999D01*
X369750D01*
X369000Y122249D01*
Y120750D01*
X369750Y120000D01*
X371999D01*
X374248D02*
Y124499D01*
X375748D02*
Y120000D01*
X373499Y122999D02*
X375748D01*
X376498D01*
X373499Y121500D02*
X376498D01*
X371249Y175500D02*
X369750D01*
X369000Y176250D01*
Y177749D01*
X369750Y178499D01*
X371249D01*
X371999Y177749D01*
Y176999D01*
X369000D01*
X377949Y170286D02*
Y165787D01*
X380199D01*
X380948Y166537D01*
Y167287D01*
Y168037D01*
X380199Y168786D01*
X377949D01*
X384750Y148500D02*
Y152249D01*
Y150749D01*
X384000D01*
X385500D01*
X384750D01*
Y152249D01*
X385500Y152999D01*
X388498Y148500D02*
Y152999D01*
X389998D02*
Y148500D01*
X387749Y151499D02*
X389998D01*
X390748D01*
X387749Y149999D02*
X390748D01*
X377999Y136499D02*
X375750D01*
X375000Y135749D01*
Y134250D01*
X375750Y133500D01*
X377999D01*
X380248D02*
Y137999D01*
X381748D02*
Y133500D01*
X379499Y136499D02*
X381748D01*
X382498D01*
X379499Y135000D02*
X382498D01*
X345749Y112500D02*
X344250D01*
X343500Y113250D01*
Y114749D01*
X344250Y115499D01*
X345749D01*
X346499Y114749D01*
Y113999D01*
X343500D01*
X347998Y116999D02*
Y112500D01*
X350248D01*
X350998Y113250D01*
Y113999D01*
Y114749D01*
X350248Y115499D01*
X347998D01*
X352497Y112500D02*
X355496Y115499D01*
X359995Y116999D02*
Y112500D01*
X357745D01*
X356996Y113250D01*
Y114749D01*
X357745Y115499D01*
X359995D01*
X362244Y112500D02*
Y116999D01*
X363743D02*
Y112500D01*
X361494Y115499D02*
X363743D01*
X364493D01*
X361494Y113999D02*
X364493D01*
X328500Y125999D02*
Y121500D01*
X330749D01*
X331499Y122250D01*
Y123000D01*
Y123749D01*
X330749Y124499D01*
X328500D01*
X332998Y125999D02*
Y121500D01*
X335248D01*
X335998Y122250D01*
Y123000D01*
Y123749D01*
X335248Y124499D01*
X332998D01*
X337497Y121500D02*
X340496Y124499D01*
X342745D02*
X344245D01*
X344995Y123749D01*
Y121500D01*
X342745D01*
X341996Y122250D01*
X342745Y123000D01*
X344995D01*
X347244Y121500D02*
Y125999D01*
X348744D02*
Y121500D01*
X346494Y124499D02*
X348744D01*
X349493D01*
X346494Y123000D02*
X349493D01*
X320250Y130500D02*
Y134249D01*
Y132749D01*
X319500D01*
X321000D01*
X320250D01*
Y134249D01*
X321000Y134999D01*
X317472Y149999D02*
X315223D01*
X314473Y149249D01*
Y147750D01*
X315223Y147000D01*
X317472D01*
X319949Y160745D02*
X320698D01*
X321448Y161494D01*
Y165243D01*
X319199D01*
X318449Y164493D01*
Y162994D01*
X319199Y162244D01*
X321448D01*
X328499Y175499D02*
Y171000D01*
X326250D01*
X325500Y171750D01*
Y173249D01*
X326250Y173999D01*
X328499D01*
X350250Y182621D02*
X351749D01*
X352499Y181872D01*
Y179622D01*
X350250D01*
X349500Y180372D01*
X350250Y181122D01*
X352499D01*
X301500Y170998D02*
Y165000D01*
X304499D01*
X305499Y166000D01*
Y166999D01*
X304499Y167999D01*
X301500D01*
X304499D01*
X305499Y168999D01*
Y169998D01*
X304499Y170998D01*
X301500D01*
X307498D02*
Y165000D01*
X310497D01*
X311497Y166000D01*
Y166999D01*
Y167999D01*
X310497Y168999D01*
X307498D01*
X295500Y113998D02*
Y108000D01*
X298499D01*
X299499Y109000D01*
Y112998D01*
X298499Y113998D01*
X295500D01*
X301498D02*
Y108000D01*
X304497D01*
X305497Y109000D01*
Y109999D01*
Y110999D01*
X304497Y111999D01*
X301498D01*
X307496Y108000D02*
X311495Y111999D01*
X317493Y112998D02*
X316493Y113998D01*
X314494D01*
X313494Y112998D01*
Y109000D01*
X314494Y108000D01*
X316493D01*
X317493Y109000D01*
X320492Y108000D02*
Y113998D01*
X322491D02*
Y108000D01*
X319492Y111999D02*
X322491D01*
X323491D01*
X319492Y109999D02*
X323491D01*
X301500Y124500D02*
Y128499D01*
X303499Y130498D01*
X305499Y128499D01*
Y124500D01*
Y127499D01*
X301500D01*
X307498Y130498D02*
Y124500D01*
X310497D01*
X311497Y125500D01*
Y126499D01*
Y127499D01*
X310497Y128499D01*
X307498D01*
X300999Y149998D02*
X297000D01*
Y144000D01*
X300999D01*
X297000Y146999D02*
X298999D01*
X302998Y149998D02*
Y144000D01*
X305997D01*
X306997Y145000D01*
Y145999D01*
Y146999D01*
X305997Y147999D01*
X302998D01*
X308499Y185620D02*
X304500D01*
Y182621D01*
X306499D01*
X304500D01*
Y179622D01*
X345833Y106999D02*
X343500D01*
Y105249D01*
X344666D01*
X343500D01*
Y103500D01*
X347582D02*
Y106999D01*
X348748D02*
Y103500D01*
X346999Y105833D02*
X348748D01*
X349331D01*
X346999Y104666D02*
X349331D01*
X350498Y103500D02*
X352830Y105833D01*
X356329Y106416D02*
X355746Y106999D01*
X354580D01*
X353997Y106416D01*
Y104083D01*
X354580Y103500D01*
X355746D01*
X356329Y104083D01*
Y105249D01*
X355163D01*
X357495Y106999D02*
Y103500D01*
X359245D01*
X359828Y104083D01*
Y104666D01*
Y105249D01*
X359245Y105833D01*
X357495D01*
X379500Y117098D02*
Y111100D01*
X382499D01*
X383499Y112100D01*
Y113099D01*
X382499Y114099D01*
X379500D01*
X382499D01*
X383499Y115099D01*
Y116098D01*
X382499Y117098D01*
X379500D01*
X393999Y131998D02*
X390000D01*
Y126000D01*
X393999D01*
X390000Y128999D02*
X391999D01*
X396000Y148500D02*
Y152499D01*
X397999Y154498D01*
X399999Y152499D01*
Y148500D01*
Y151499D01*
X396000D01*
X390000Y172498D02*
Y166500D01*
X392999D01*
X393999Y167500D01*
Y171498D01*
X392999Y172498D01*
X390000D01*
X375999Y189916D02*
X374999Y190915D01*
X373000D01*
X372000Y189916D01*
Y185917D01*
X373000Y184917D01*
X374999D01*
X375999Y185917D01*
Y187916D01*
X373999D01*
X352883Y193998D02*
X351883Y194998D01*
X349884D01*
X348884Y193998D01*
Y190000D01*
X349884Y189000D01*
X351883D01*
X352883Y190000D01*
X261999Y347451D02*
X260999Y348451D01*
X259000D01*
X258000Y347451D01*
Y343453D01*
X259000Y342453D01*
X260999D01*
X261999Y343453D01*
Y345452D01*
X259999D01*
X263998Y346452D02*
Y343453D01*
X264998Y342453D01*
X267997D01*
Y346452D01*
X269996Y342453D02*
X271995D01*
X270996D01*
Y346452D01*
X269996D01*
X275994Y347451D02*
Y346452D01*
X274994D01*
X276994D01*
X275994D01*
Y343453D01*
X276994Y342453D01*
X280993Y346452D02*
X282992D01*
X283992Y345452D01*
Y342453D01*
X280993D01*
X279993Y343453D01*
X280993Y344452D01*
X283992D01*
X285991Y346452D02*
Y342453D01*
Y344452D01*
X286991Y345452D01*
X287990Y346452D01*
X288990D01*
X297987Y348451D02*
X301986D01*
X299986D01*
Y342453D01*
X303985Y346452D02*
Y343453D01*
X304985Y342453D01*
X307984D01*
Y346452D01*
X309983Y342453D02*
Y346452D01*
X312982D01*
X313982Y345452D01*
Y342453D01*
X318980D02*
X316981D01*
X315981Y343453D01*
Y345452D01*
X316981Y346452D01*
X318980D01*
X319980Y345452D01*
Y344452D01*
X315981D01*
X321979Y346452D02*
Y342453D01*
Y344452D01*
X322979Y345452D01*
X323979Y346452D01*
X324978D01*
X289313Y361500D02*
Y367498D01*
X292312D01*
X293312Y366498D01*
Y364499D01*
X292312Y363499D01*
X289313D01*
X291313D02*
X293312Y361500D01*
X296311D02*
X298310D01*
X299310Y362500D01*
Y364499D01*
X298310Y365499D01*
X296311D01*
X295311Y364499D01*
Y362500D01*
X296311Y361500D01*
X301309Y367498D02*
Y361500D01*
X304309D01*
X305308Y362500D01*
Y363499D01*
Y364499D01*
X304309Y365499D01*
X301309D01*
X307308Y367498D02*
Y361500D01*
X310307D01*
X311306Y362500D01*
Y363499D01*
Y364499D01*
X310307Y365499D01*
X307308D01*
X287627Y379498D02*
Y373500D01*
X290626D01*
X291626Y374500D01*
Y378498D01*
X290626Y379498D01*
X287627D01*
X293625Y377499D02*
Y374500D01*
X294625Y373500D01*
X297624D01*
Y377499D01*
X300623Y373500D02*
Y378498D01*
Y376499D01*
X299623D01*
X301623D01*
X300623D01*
Y378498D01*
X301623Y379498D01*
X305621Y373500D02*
X307621D01*
X308620Y374500D01*
Y376499D01*
X307621Y377499D01*
X305621D01*
X304622Y376499D01*
Y374500D01*
X305621Y373500D01*
X310620Y377499D02*
Y374500D01*
X311619Y373500D01*
X314618D01*
Y377499D01*
X316618D02*
Y373500D01*
Y375499D01*
X317617Y376499D01*
X318617Y377499D01*
X319617D01*
X250086Y446765D02*
Y450264D01*
X251835D01*
X252418Y449681D01*
Y448514D01*
X251835Y447931D01*
X250086D01*
X251252D02*
X252418Y446765D01*
X253585D02*
X254751D01*
X254168D01*
Y450264D01*
X253585Y449681D01*
X251800Y466399D02*
Y462900D01*
X253549D01*
X254133Y463483D01*
Y465816D01*
X253549Y466399D01*
X251800D01*
X257631Y462900D02*
X255299D01*
X257631Y465233D01*
Y465816D01*
X257048Y466399D01*
X255882D01*
X255299Y465816D01*
X287124Y323042D02*
X285125D01*
X286125D01*
Y318043D01*
X285125Y317044D01*
X284125D01*
X283126Y318043D01*
X292123Y323042D02*
X290123D01*
X289124Y322042D01*
Y318043D01*
X290123Y317044D01*
X292123D01*
X293122Y318043D01*
Y322042D01*
X292123Y323042D01*
X299120D02*
X297121Y322042D01*
X295122Y320043D01*
Y318043D01*
X296122Y317044D01*
X298121D01*
X299120Y318043D01*
Y319043D01*
X298121Y320043D01*
X295122D01*
X157500Y417984D02*
X151502D01*
Y420983D01*
X152502Y421983D01*
X154501D01*
X155501Y420983D01*
Y417984D01*
X152502Y423982D02*
X151502Y424982D01*
Y426981D01*
X152502Y427981D01*
X153501D01*
X154501Y426981D01*
Y425982D01*
Y426981D01*
X155501Y427981D01*
X156500D01*
X157500Y426981D01*
Y424982D01*
X156500Y423982D01*
X320070Y319020D02*
Y325019D01*
X323069D01*
X324068Y324019D01*
Y322019D01*
X323069Y321020D01*
X320070D01*
X330067Y319020D02*
X326068D01*
X330067Y323019D01*
Y324019D01*
X329067Y325019D01*
X327067D01*
X326068Y324019D01*
X272770Y383395D02*
Y389393D01*
X275769D01*
X276769Y388394D01*
Y386394D01*
X275769Y385395D01*
X272770D01*
X278768Y383395D02*
X280767D01*
X279768D01*
Y389393D01*
X278768Y388394D01*
X268495Y168242D02*
X266496D01*
X267495D01*
Y163244D01*
X266496Y162244D01*
X265496D01*
X264496Y163244D01*
X270495Y162244D02*
Y168242D01*
X272494Y166243D01*
X274493Y168242D01*
Y162244D01*
X276493D02*
X278492D01*
X277492D01*
Y168242D01*
X276493Y167243D01*
X366318Y256263D02*
X364319D01*
X365318D01*
Y251265D01*
X364319Y250266D01*
X363319D01*
X362319Y251265D01*
X371316Y256263D02*
X369317D01*
X368317Y255264D01*
Y251265D01*
X369317Y250266D01*
X371316D01*
X372316Y251265D01*
Y255264D01*
X371316Y256263D01*
X377314Y250266D02*
Y256263D01*
X374315Y253264D01*
X378314D01*
X263302Y260201D02*
X261303D01*
X262302D01*
Y255202D01*
X261303Y254203D01*
X260303D01*
X259303Y255202D01*
X268301Y260201D02*
X266301D01*
X265301Y259201D01*
Y255202D01*
X266301Y254203D01*
X268301D01*
X269300Y255202D01*
Y259201D01*
X268301Y260201D01*
X275298D02*
X271300D01*
Y257202D01*
X273299Y258201D01*
X274299D01*
X275298Y257202D01*
Y255202D01*
X274299Y254203D01*
X272299D01*
X271300Y255202D01*
X377823Y247277D02*
X375824D01*
X376823D01*
Y242278D01*
X375824Y241279D01*
X374824D01*
X373824Y242278D01*
X382821Y247277D02*
X380822D01*
X379822Y246277D01*
Y242278D01*
X380822Y241279D01*
X382821D01*
X383821Y242278D01*
Y246277D01*
X382821Y247277D01*
X385821Y246277D02*
X386820Y247277D01*
X388820D01*
X389819Y246277D01*
Y245277D01*
X388820Y244278D01*
X387820D01*
X388820D01*
X389819Y243278D01*
Y242278D01*
X388820Y241279D01*
X386820D01*
X385821Y242278D01*
X212294Y213355D02*
X210294D01*
X211294D01*
Y208356D01*
X210294Y207357D01*
X209295D01*
X208295Y208356D01*
X217292Y213355D02*
X215293D01*
X214293Y212355D01*
Y208356D01*
X215293Y207357D01*
X217292D01*
X218292Y208356D01*
Y212355D01*
X217292Y213355D01*
X224290Y207357D02*
X220291D01*
X224290Y211355D01*
Y212355D01*
X223290Y213355D01*
X221291D01*
X220291Y212355D01*
X262578Y200998D02*
X260578D01*
X261578D01*
Y196000D01*
X260578Y195000D01*
X259579D01*
X258579Y196000D01*
X267576Y200998D02*
X265577D01*
X264577Y199998D01*
Y196000D01*
X265577Y195000D01*
X267576D01*
X268576Y196000D01*
Y199998D01*
X267576Y200998D01*
X270575Y195000D02*
X272574D01*
X271575D01*
Y200998D01*
X270575Y199998D01*
D11*
X123303Y416682D02*
X122783D01*
X123303D01*
X389068Y147000D02*
X389055Y147998D01*
X389016Y148996D01*
X388952Y149993D01*
X388862Y150987D01*
X388747Y151979D01*
X388606Y152968D01*
X388439Y153953D01*
X388248Y154932D01*
X388031Y155907D01*
X387789Y156876D01*
X387522Y157838D01*
X387231Y158794D01*
X386915Y159741D01*
X386575Y160680D01*
X386211Y161609D01*
X385823Y162530D01*
X385411Y163439D01*
X384976Y164338D01*
X384518Y165226D01*
X384037Y166101D01*
X383535Y166964D01*
X383009Y167813D01*
X382463Y168649D01*
X381895Y169470D01*
X381306Y170276D01*
X380696Y171067D01*
X380066Y171842D01*
X379417Y172601D01*
X378748Y173342D01*
X378060Y174066D01*
X377354Y174772D01*
X376630Y175460D01*
X375888Y176129D01*
X375130Y176778D01*
X374355Y177408D01*
X373564Y178018D01*
X372758Y178607D01*
X371936Y179175D01*
X371101Y179722D01*
X370251Y180247D01*
X369389Y180750D01*
X368513Y181230D01*
X367626Y181688D01*
X366727Y182123D01*
X365817Y182535D01*
X364897Y182923D01*
X363967Y183287D01*
X363029Y183627D01*
X362081Y183943D01*
X361126Y184235D01*
X360164Y184501D01*
X359195Y184743D01*
X358220Y184960D01*
X357240Y185152D01*
X356256Y185318D01*
X355267Y185459D01*
X354275Y185574D01*
X353281Y185664D01*
X352284Y185729D01*
X351286Y185767D01*
X350288Y185780D01*
X349289Y185767D01*
X348291Y185729D01*
X347295Y185664D01*
X346300Y185574D01*
X345308Y185459D01*
X344320Y185318D01*
X343335Y185152D01*
X342355Y184960D01*
X341381Y184743D01*
X340412Y184501D01*
X339449Y184235D01*
X338494Y183943D01*
X337547Y183627D01*
X336608Y183287D01*
X335678Y182923D01*
X334758Y182535D01*
X333848Y182123D01*
X332949Y181688D01*
X332062Y181230D01*
X331187Y180750D01*
X330324Y180247D01*
X329475Y179722D01*
X328639Y179175D01*
X327818Y178607D01*
X327011Y178018D01*
X326221Y177408D01*
X325446Y176778D01*
X324687Y176129D01*
X323946Y175460D01*
X323221Y174772D01*
X322515Y174066D01*
X321828Y173342D01*
X321159Y172601D01*
X320509Y171842D01*
X319880Y171067D01*
X319270Y170276D01*
X318681Y169470D01*
X318113Y168649D01*
X317566Y167813D01*
X317041Y166964D01*
X316538Y166101D01*
X316057Y165226D01*
X315600Y164338D01*
X315165Y163440D01*
X314753Y162530D01*
X314365Y161610D01*
X314001Y160680D01*
X313661Y159741D01*
X313345Y158794D01*
X313053Y157838D01*
X312787Y156876D01*
X312545Y155907D01*
X312328Y154933D01*
X312136Y153953D01*
X311970Y152968D01*
X311829Y151979D01*
X311713Y150988D01*
X311624Y149993D01*
X311559Y148996D01*
X311521Y147999D01*
X311508Y147000D01*
X311521Y146002D01*
X311559Y145004D01*
X311624Y144007D01*
X311713Y143013D01*
X311829Y142021D01*
X311970Y141032D01*
X312136Y140048D01*
X312328Y139068D01*
X312545Y138093D01*
X312786Y137124D01*
X313053Y136162D01*
X313345Y135207D01*
X313660Y134259D01*
X314001Y133320D01*
X314365Y132391D01*
X314753Y131471D01*
X315165Y130561D01*
X315599Y129662D01*
X316057Y128774D01*
X316538Y127899D01*
X317041Y127036D01*
X317566Y126187D01*
X318113Y125352D01*
X318681Y124530D01*
X319270Y123724D01*
X319880Y122933D01*
X320509Y122158D01*
X321159Y121399D01*
X321828Y120658D01*
X322515Y119934D01*
X323221Y119228D01*
X323945Y118540D01*
X324687Y117871D01*
X325445Y117222D01*
X326220Y116592D01*
X327011Y115982D01*
X327818Y115393D01*
X328639Y114825D01*
X329474Y114279D01*
X330324Y113753D01*
X331187Y113251D01*
X332062Y112770D01*
X332949Y112312D01*
X333848Y111877D01*
X334758Y111465D01*
X335678Y111077D01*
X336608Y110713D01*
X337547Y110373D01*
X338494Y110057D01*
X339449Y109766D01*
X340411Y109499D01*
X341380Y109257D01*
X342355Y109040D01*
X343335Y108848D01*
X344320Y108682D01*
X345308Y108541D01*
X346300Y108426D01*
X347294Y108336D01*
X348291Y108271D01*
X349289Y108233D01*
X350287Y108220D01*
X351286Y108233D01*
X352284Y108271D01*
X353280Y108336D01*
X354275Y108425D01*
X355267Y108541D01*
X356255Y108682D01*
X357240Y108848D01*
X358220Y109040D01*
X359195Y109257D01*
X360163Y109499D01*
X361126Y109765D01*
X362081Y110057D01*
X363028Y110373D01*
X363967Y110713D01*
X364897Y111077D01*
X365817Y111465D01*
X366727Y111877D01*
X367626Y112312D01*
X368513Y112769D01*
X369388Y113250D01*
X370251Y113753D01*
X371100Y114278D01*
X371936Y114825D01*
X372757Y115393D01*
X373564Y115982D01*
X374355Y116592D01*
X375130Y117221D01*
X375888Y117871D01*
X376630Y118540D01*
X377354Y119227D01*
X378060Y119933D01*
X378748Y120657D01*
X379416Y121399D01*
X380066Y122157D01*
X380696Y122932D01*
X381305Y123723D01*
X381894Y124530D01*
X382462Y125351D01*
X383009Y126186D01*
X383534Y127036D01*
X384037Y127899D01*
X384518Y128774D01*
X384976Y129661D01*
X385411Y130560D01*
X385822Y131470D01*
X386210Y132390D01*
X386575Y133320D01*
X386915Y134258D01*
X387231Y135206D01*
X387522Y136161D01*
X387789Y137123D01*
X388031Y138092D01*
X388248Y139067D01*
X388439Y140047D01*
X388606Y141032D01*
X388747Y142020D01*
X388862Y143012D01*
X388952Y144006D01*
X389016Y145003D01*
X389055Y146001D01*
X389068Y146999D01*
Y147000D01*
D12*
X247709Y441508D02*
X246971Y441934D01*
Y441082D01*
X247709Y441508D01*
D13*
X161500Y414953D02*
Y434953D01*
Y414953D02*
X171500D01*
Y434953D01*
X161500D02*
X171500D01*
X211193Y435307D02*
X247807D01*
X211193Y398693D02*
Y435307D01*
Y398693D02*
X247807D01*
Y435307D01*
X240374Y217151D02*
X243524D01*
X240374Y211246D02*
X243524D01*
X345642Y264454D02*
Y267604D01*
X339736Y264454D02*
Y267604D01*
X262528Y309758D02*
X265678D01*
X262528Y303852D02*
X265678D01*
X206953Y303261D02*
Y306411D01*
X201047Y303261D02*
Y306411D01*
X367902Y222166D02*
Y225316D01*
X361996Y222166D02*
Y225316D01*
D14*
X289940Y209688D02*
X286941D01*
Y211188D01*
X287441Y211688D01*
X288440D01*
X288940Y211188D01*
Y209688D01*
Y210688D02*
X289940Y211688D01*
Y212687D02*
X286941D01*
X287940Y213687D01*
X286941Y214687D01*
X289940D01*
Y217686D02*
Y215686D01*
X287940Y217686D01*
X287441D01*
X286941Y217186D01*
Y216186D01*
X287441Y215686D01*
X292615Y494499D02*
X291282D01*
X291949D01*
Y491166D01*
X291282Y490500D01*
X290616D01*
X289949Y491166D01*
X296614Y494499D02*
X293948D01*
Y492499D01*
X295281Y493166D01*
X295947D01*
X296614Y492499D01*
Y491166D01*
X295947Y490500D01*
X294614D01*
X293948Y491166D01*
X315639Y457290D02*
X314306D01*
X314972D01*
Y453958D01*
X314306Y453292D01*
X313639D01*
X312973Y453958D01*
X319637Y457290D02*
X318304Y456624D01*
X316972Y455291D01*
Y453958D01*
X317638Y453292D01*
X318971D01*
X319637Y453958D01*
Y454625D01*
X318971Y455291D01*
X316972D01*
X329666Y468567D02*
X328333D01*
X328999D01*
Y465235D01*
X328333Y464568D01*
X327666D01*
X327000Y465235D01*
X330999Y468567D02*
X333664D01*
Y467901D01*
X330999Y465235D01*
Y464568D01*
X178700Y209199D02*
Y205200D01*
X180699D01*
X181366Y205866D01*
Y208532D01*
X180699Y209199D01*
X178700D01*
X182699Y205200D02*
X184032D01*
X183365D01*
Y209199D01*
X182699Y208532D01*
X357666Y261888D02*
X356999Y262554D01*
X355666D01*
X355000Y261888D01*
Y259222D01*
X355666Y258555D01*
X356999D01*
X357666Y259222D01*
X358999Y258555D02*
X360332D01*
X359665D01*
Y262554D01*
X358999Y261888D01*
X362331D02*
X362997Y262554D01*
X364330D01*
X364997Y261888D01*
Y259222D01*
X364330Y258555D01*
X362997D01*
X362331Y259222D01*
Y261888D01*
X366330Y258555D02*
X367663D01*
X366996D01*
Y262554D01*
X366330Y261888D01*
X369662Y258555D02*
Y262554D01*
X370995Y261221D01*
X372328Y262554D01*
Y258555D01*
X175253Y310348D02*
X178586D01*
X179252Y311015D01*
Y312348D01*
X178586Y313014D01*
X175253D01*
X179252Y314347D02*
X176586D01*
X175253Y315680D01*
X176586Y317013D01*
X179252D01*
X177253D01*
Y314347D01*
X179252Y318346D02*
X176586D01*
X175253Y319679D01*
X176586Y321011D01*
X179252D01*
X177253D01*
Y318346D01*
X231919Y351748D02*
X227921D01*
Y353747D01*
X228587Y354414D01*
X229920D01*
X230586Y353747D01*
Y351748D01*
Y353081D02*
X231919Y354414D01*
X227921Y355747D02*
Y358412D01*
Y357079D01*
X231919D01*
X227921Y362411D02*
Y359745D01*
X229920D01*
X229253Y361078D01*
Y361745D01*
X229920Y362411D01*
X231253D01*
X231919Y361745D01*
Y360412D01*
X231253Y359745D01*
X184500Y320500D02*
Y324499D01*
X186499D01*
X187166Y323832D01*
Y322499D01*
X186499Y321833D01*
X184500D01*
X185833D02*
X187166Y320500D01*
X191165Y324499D02*
X188499D01*
Y320500D01*
X191165D01*
X188499Y322499D02*
X189832D01*
X194497Y320500D02*
Y324499D01*
X192497Y322499D01*
X195163D01*
X231132Y317503D02*
Y321502D01*
X233131D01*
X233798Y320835D01*
Y319502D01*
X233131Y318836D01*
X231132D01*
X232465D02*
X233798Y317503D01*
X235131Y320835D02*
X235797Y321502D01*
X237130D01*
X237796Y320835D01*
Y320169D01*
X237130Y319502D01*
X236463D01*
X237130D01*
X237796Y318836D01*
Y318169D01*
X237130Y317503D01*
X235797D01*
X235131Y318169D01*
X241795Y321502D02*
X239129D01*
Y317503D01*
X241795D01*
X239129Y319502D02*
X240462D01*
X228516Y279000D02*
X224517D01*
Y280999D01*
X225184Y281666D01*
X226516D01*
X227183Y280999D01*
Y279000D01*
Y280333D02*
X228516Y281666D01*
Y285665D02*
Y282999D01*
X225850Y285665D01*
X225184D01*
X224517Y284998D01*
Y283665D01*
X225184Y282999D01*
X224517Y289663D02*
Y286997D01*
X228516D01*
Y289663D01*
X226516Y286997D02*
Y288330D01*
X238260Y279482D02*
X234261D01*
Y281482D01*
X234928Y282148D01*
X236260D01*
X236927Y281482D01*
Y279482D01*
Y280815D02*
X238260Y282148D01*
Y283481D02*
Y284814D01*
Y284147D01*
X234261D01*
X234928Y283481D01*
X234261Y289479D02*
Y286813D01*
X238260D01*
Y289479D01*
X236260Y286813D02*
Y288146D01*
X190166Y288599D02*
X188833D01*
X189499D01*
Y285266D01*
X188833Y284600D01*
X188166D01*
X187500Y285266D01*
X193498Y284600D02*
Y288599D01*
X191499Y286599D01*
X194165D01*
X165066Y289299D02*
X163733D01*
X164399D01*
Y285966D01*
X163733Y285300D01*
X163066D01*
X162400Y285966D01*
X166399Y288632D02*
X167065Y289299D01*
X168398D01*
X169064Y288632D01*
Y287966D01*
X168398Y287299D01*
X167732D01*
X168398D01*
X169064Y286633D01*
Y285966D01*
X168398Y285300D01*
X167065D01*
X166399Y285966D01*
X211400Y267999D02*
X212733D01*
X212066D01*
Y264000D01*
X211400D01*
X212733D01*
X217398Y267332D02*
X216732Y267999D01*
X215399D01*
X214732Y267332D01*
Y264666D01*
X215399Y264000D01*
X216732D01*
X217398Y264666D01*
X221397Y264000D02*
X218731D01*
X221397Y266666D01*
Y267332D01*
X220730Y267999D01*
X219397D01*
X218731Y267332D01*
X225395Y264000D02*
X222730D01*
X225395Y266666D01*
Y267332D01*
X224729Y267999D01*
X223396D01*
X222730Y267332D01*
X227424Y245666D02*
X226757Y244999D01*
Y243666D01*
X227424Y243000D01*
X230090D01*
X230756Y243666D01*
Y244999D01*
X230090Y245666D01*
X226757Y248998D02*
Y247665D01*
X227424Y246999D01*
X230090D01*
X230756Y247665D01*
Y248998D01*
X230090Y249664D01*
X227424D01*
X226757Y248998D01*
X227424Y250997D02*
X226757Y251664D01*
Y252997D01*
X227424Y253663D01*
X228090D01*
X228757Y252997D01*
Y252330D01*
Y252997D01*
X229423Y253663D01*
X230090D01*
X230756Y252997D01*
Y251664D01*
X230090Y250997D01*
X188054Y249820D02*
X187387Y249153D01*
Y247821D01*
X188054Y247154D01*
X190720D01*
X191386Y247821D01*
Y249153D01*
X190720Y249820D01*
X187387Y253152D02*
Y251819D01*
X188054Y251153D01*
X190720D01*
X191386Y251819D01*
Y253152D01*
X190720Y253819D01*
X188054D01*
X187387Y253152D01*
X191386Y257817D02*
Y255152D01*
X188720Y257817D01*
X188054D01*
X187387Y257151D01*
Y255818D01*
X188054Y255152D01*
X195002Y300809D02*
X194335Y300143D01*
Y298810D01*
X195002Y298143D01*
X197668D01*
X198334Y298810D01*
Y300143D01*
X197668Y300809D01*
X194335Y304808D02*
Y302142D01*
X196335D01*
X195668Y303475D01*
Y304141D01*
X196335Y304808D01*
X197668D01*
X198334Y304141D01*
Y302808D01*
X197668Y302142D01*
X194335Y308807D02*
Y306141D01*
X198334D01*
Y308807D01*
X196335Y306141D02*
Y307474D01*
X240926Y307523D02*
X240259Y308190D01*
X238926D01*
X238260Y307523D01*
Y304858D01*
X238926Y304191D01*
X240259D01*
X240926Y304858D01*
X244924Y304191D02*
X242259D01*
X244924Y306857D01*
Y307523D01*
X244258Y308190D01*
X242925D01*
X242259Y307523D01*
X248923Y308190D02*
X246257D01*
Y304191D01*
X248923D01*
X246257Y306191D02*
X247590D01*
X218071Y232531D02*
X217404Y233197D01*
X216071D01*
X215405Y232531D01*
Y229865D01*
X216071Y229199D01*
X217404D01*
X218071Y229865D01*
X219404Y232531D02*
X220070Y233197D01*
X221403D01*
X222069Y232531D01*
Y229865D01*
X221403Y229199D01*
X220070D01*
X219404Y229865D01*
Y232531D01*
X223402Y229199D02*
X224735D01*
X224069D01*
Y233197D01*
X223402Y232531D01*
X218772Y330961D02*
Y326963D01*
X220771D01*
X221438Y327629D01*
Y328296D01*
X220771Y328962D01*
X218772D01*
X220771D01*
X221438Y329629D01*
Y330295D01*
X220771Y330961D01*
X218772D01*
X225436Y330295D02*
X224770Y330961D01*
X223437D01*
X222771Y330295D01*
Y327629D01*
X223437Y326963D01*
X224770D01*
X225436Y327629D01*
X229435Y330961D02*
X226769D01*
Y328962D01*
X228102Y329629D01*
X228769D01*
X229435Y328962D01*
Y327629D01*
X228769Y326963D01*
X227436D01*
X226769Y327629D01*
X128100Y378300D02*
X129433D01*
X128767D01*
Y382299D01*
X128100Y381632D01*
X131432D02*
X132099Y382299D01*
X133432D01*
X134098Y381632D01*
Y378966D01*
X133432Y378300D01*
X132099D01*
X131432Y378966D01*
Y381632D01*
X256495Y159000D02*
X252497D01*
Y156334D01*
X256495Y155001D02*
X252497D01*
Y153002D01*
X253163Y152336D01*
X253830D01*
X254496Y153002D01*
Y155001D01*
Y153002D01*
X255163Y152336D01*
X255829D01*
X256495Y153002D01*
Y155001D01*
X269640Y495705D02*
X268974D01*
X267641Y494372D01*
X268974Y493039D01*
X269640D01*
X267641Y494372D02*
X265642D01*
Y491706D02*
Y490373D01*
Y491040D01*
X269640D01*
X268974Y491706D01*
X355700Y343899D02*
X358366Y339900D01*
Y343899D02*
X355700Y339900D01*
X359699D02*
X361032D01*
X360365D01*
Y343899D01*
X359699Y343232D01*
X280949Y259492D02*
Y256160D01*
X281616Y255493D01*
X282949D01*
X283615Y256160D01*
Y259492D01*
X162191Y471332D02*
X161525Y471999D01*
X160192D01*
X159525Y471332D01*
Y470666D01*
X160192Y469999D01*
X161525D01*
X162191Y469333D01*
Y468666D01*
X161525Y468000D01*
X160192D01*
X159525Y468666D01*
X163524Y468000D02*
X164857D01*
X164191D01*
Y471999D01*
X163524Y471332D01*
X241706Y287699D02*
Y291697D01*
X243705D01*
X244372Y291031D01*
Y289698D01*
X243705Y289031D01*
X241706D01*
X243039D02*
X244372Y287699D01*
X245705Y291697D02*
X248370D01*
X247037D01*
Y287699D01*
X251703D02*
Y291697D01*
X249703Y289698D01*
X252369D01*
X302737Y301050D02*
Y305048D01*
X304736D01*
X305402Y304382D01*
Y303049D01*
X304736Y302383D01*
X302737D01*
X304069D02*
X305402Y301050D01*
X306735Y305048D02*
X309401D01*
X308068D01*
Y301050D01*
X310734Y304382D02*
X311401Y305048D01*
X312733D01*
X313400Y304382D01*
Y303715D01*
X312733Y303049D01*
X312067D01*
X312733D01*
X313400Y302383D01*
Y301716D01*
X312733Y301050D01*
X311401D01*
X310734Y301716D01*
X317429Y234574D02*
Y238573D01*
X319428D01*
X320095Y237906D01*
Y236573D01*
X319428Y235907D01*
X317429D01*
X318762D02*
X320095Y234574D01*
X321428Y238573D02*
X324094D01*
X322761D01*
Y234574D01*
X328092D02*
X325427D01*
X328092Y237240D01*
Y237906D01*
X327426Y238573D01*
X326093D01*
X325427Y237906D01*
X299163Y205500D02*
Y209499D01*
X301162D01*
X301829Y208832D01*
Y207499D01*
X301162Y206833D01*
X299163D01*
X300496D02*
X301829Y205500D01*
X303162Y209499D02*
X305827D01*
X304495D01*
Y205500D01*
X307160D02*
X308493D01*
X307827D01*
Y209499D01*
X307160Y208832D01*
X323437Y187500D02*
Y191499D01*
X325436D01*
X326103Y190832D01*
Y189499D01*
X325436Y188833D01*
X323437D01*
X324770D02*
X326103Y187500D01*
X327436D02*
Y191499D01*
X328769Y190166D01*
X330102Y191499D01*
Y187500D01*
X331435Y191499D02*
Y187500D01*
Y188833D01*
X334100Y191499D01*
X332101Y189499D01*
X334100Y187500D01*
X160500Y132000D02*
Y135999D01*
X162499D01*
X163166Y135332D01*
Y133999D01*
X162499Y133333D01*
X160500D01*
X161833D02*
X163166Y132000D01*
X164499Y135332D02*
X165165Y135999D01*
X166498D01*
X167165Y135332D01*
Y134666D01*
X166498Y133999D01*
X167165Y133333D01*
Y132667D01*
X166498Y132000D01*
X165165D01*
X164499Y132667D01*
Y133333D01*
X165165Y133999D01*
X164499Y134666D01*
Y135332D01*
X165165Y133999D02*
X166498D01*
X168497Y132000D02*
Y135999D01*
X170497D01*
X171163Y135332D01*
Y133999D01*
X170497Y133333D01*
X168497D01*
X217500Y451500D02*
Y455499D01*
X219499D01*
X220166Y454832D01*
Y453499D01*
X219499Y452833D01*
X217500D01*
X218833D02*
X220166Y451500D01*
X223498D02*
Y455499D01*
X221499Y453499D01*
X224165D01*
X228163Y454832D02*
X227497Y455499D01*
X226164D01*
X225497Y454832D01*
Y454166D01*
X226164Y453499D01*
X227497D01*
X228163Y452833D01*
Y452166D01*
X227497Y451500D01*
X226164D01*
X225497Y452166D01*
X254831Y275356D02*
Y279355D01*
X256831D01*
X257497Y278688D01*
Y277355D01*
X256831Y276689D01*
X254831D01*
X256164D02*
X257497Y275356D01*
X260829D02*
Y279355D01*
X258830Y277355D01*
X261496D01*
X262829Y279355D02*
Y275356D01*
X264828D01*
X265495Y276022D01*
Y278688D01*
X264828Y279355D01*
X262829D01*
X303180Y277292D02*
Y281291D01*
X305179D01*
X305846Y280624D01*
Y279291D01*
X305179Y278625D01*
X303180D01*
X304513D02*
X305846Y277292D01*
X309178D02*
Y281291D01*
X307179Y279291D01*
X309844D01*
X313843Y280624D02*
X313177Y281291D01*
X311844D01*
X311177Y280624D01*
Y277958D01*
X311844Y277292D01*
X313177D01*
X313843Y277958D01*
X347784Y238500D02*
Y242499D01*
X349783D01*
X350450Y241832D01*
Y240499D01*
X349783Y239833D01*
X347784D01*
X349117D02*
X350450Y238500D01*
X353782D02*
Y242499D01*
X351782Y240499D01*
X354448D01*
X355781Y242499D02*
Y238500D01*
X357781D01*
X358447Y239166D01*
Y239833D01*
X357781Y240499D01*
X355781D01*
X357781D01*
X358447Y241166D01*
Y241832D01*
X357781Y242499D01*
X355781D01*
X238358Y239328D02*
Y243327D01*
X240357D01*
X241024Y242661D01*
Y241328D01*
X240357Y240661D01*
X238358D01*
X239691D02*
X241024Y239328D01*
X244356D02*
Y243327D01*
X242357Y241328D01*
X245023D01*
X246356Y239328D02*
Y241994D01*
X247689Y243327D01*
X249021Y241994D01*
Y239328D01*
Y241328D01*
X246356D01*
X337949Y467862D02*
Y471861D01*
X339949D01*
X340615Y471194D01*
Y469861D01*
X339949Y469195D01*
X337949D01*
X339282D02*
X340615Y467862D01*
X341948Y471194D02*
X342614Y471861D01*
X343947D01*
X344614Y471194D01*
Y470528D01*
X343947Y469861D01*
X343281D01*
X343947D01*
X344614Y469195D01*
Y468528D01*
X343947Y467862D01*
X342614D01*
X341948Y468528D01*
X348612Y471194D02*
X347946Y471861D01*
X346613D01*
X345947Y471194D01*
Y470528D01*
X346613Y469861D01*
X347946D01*
X348612Y469195D01*
Y468528D01*
X347946Y467862D01*
X346613D01*
X345947Y468528D01*
X346595Y328162D02*
X342596D01*
Y330162D01*
X343263Y330828D01*
X344596D01*
X345262Y330162D01*
Y328162D01*
Y329495D02*
X346595Y330828D01*
X343263Y332161D02*
X342596Y332828D01*
Y334160D01*
X343263Y334827D01*
X343929D01*
X344596Y334160D01*
Y333494D01*
Y334160D01*
X345262Y334827D01*
X345929D01*
X346595Y334160D01*
Y332828D01*
X345929Y332161D01*
X346595Y336160D02*
X342596D01*
X343929Y337493D01*
X342596Y338826D01*
X346595D01*
X256871Y295145D02*
Y299144D01*
X258870D01*
X259536Y298478D01*
Y297145D01*
X258870Y296478D01*
X256871D01*
X258204D02*
X259536Y295145D01*
X260869Y298478D02*
X261536Y299144D01*
X262869D01*
X263535Y298478D01*
Y297811D01*
X262869Y297145D01*
X262202D01*
X262869D01*
X263535Y296478D01*
Y295812D01*
X262869Y295145D01*
X261536D01*
X260869Y295812D01*
X264868Y299144D02*
Y295145D01*
X266867D01*
X267534Y295812D01*
Y298478D01*
X266867Y299144D01*
X264868D01*
X321252Y289269D02*
Y293268D01*
X323252D01*
X323918Y292601D01*
Y291268D01*
X323252Y290602D01*
X321252D01*
X322585D02*
X323918Y289269D01*
X325251Y292601D02*
X325917Y293268D01*
X327250D01*
X327917Y292601D01*
Y291935D01*
X327250Y291268D01*
X326584D01*
X327250D01*
X327917Y290602D01*
Y289935D01*
X327250Y289269D01*
X325917D01*
X325251Y289935D01*
X331915Y292601D02*
X331249Y293268D01*
X329916D01*
X329250Y292601D01*
Y289935D01*
X329916Y289269D01*
X331249D01*
X331915Y289935D01*
X348884Y219000D02*
Y222999D01*
X350884D01*
X351550Y222332D01*
Y220999D01*
X350884Y220333D01*
X348884D01*
X350217D02*
X351550Y219000D01*
X352883Y222332D02*
X353549Y222999D01*
X354882D01*
X355549Y222332D01*
Y221666D01*
X354882Y220999D01*
X354216D01*
X354882D01*
X355549Y220333D01*
Y219666D01*
X354882Y219000D01*
X353549D01*
X352883Y219666D01*
X356882Y222999D02*
Y219000D01*
X358881D01*
X359547Y219666D01*
Y220333D01*
X358881Y220999D01*
X356882D01*
X358881D01*
X359547Y221666D01*
Y222332D01*
X358881Y222999D01*
X356882D01*
X249150Y221379D02*
Y225377D01*
X251150D01*
X251816Y224711D01*
Y223378D01*
X251150Y222712D01*
X249150D01*
X250483D02*
X251816Y221379D01*
X253149Y224711D02*
X253815Y225377D01*
X255148D01*
X255815Y224711D01*
Y224044D01*
X255148Y223378D01*
X254482D01*
X255148D01*
X255815Y222712D01*
Y222045D01*
X255148Y221379D01*
X253815D01*
X253149Y222045D01*
X257148Y221379D02*
Y224044D01*
X258481Y225377D01*
X259813Y224044D01*
Y221379D01*
Y223378D01*
X257148D01*
X339000Y443476D02*
Y447475D01*
X340999D01*
X341666Y446809D01*
Y445476D01*
X340999Y444809D01*
X339000D01*
X340333D02*
X341666Y443476D01*
X345665D02*
X342999D01*
X345665Y446142D01*
Y446809D01*
X344998Y447475D01*
X343665D01*
X342999Y446809D01*
X349663D02*
X348997Y447475D01*
X347664D01*
X346997Y446809D01*
Y446142D01*
X347664Y445476D01*
X348997D01*
X349663Y444809D01*
Y444143D01*
X348997Y443476D01*
X347664D01*
X346997Y444143D01*
X386106Y267773D02*
Y271772D01*
X388106D01*
X388772Y271105D01*
Y269772D01*
X388106Y269106D01*
X386106D01*
X387439D02*
X388772Y267773D01*
X392771D02*
X390105D01*
X392771Y270439D01*
Y271105D01*
X392105Y271772D01*
X390772D01*
X390105Y271105D01*
X394104Y267773D02*
Y271772D01*
X395437Y270439D01*
X396770Y271772D01*
Y267773D01*
X276103Y276439D02*
Y280437D01*
X278102D01*
X278769Y279771D01*
Y278438D01*
X278102Y277772D01*
X276103D01*
X277436D02*
X278769Y276439D01*
X282768D02*
X280102D01*
X282768Y279105D01*
Y279771D01*
X282101Y280437D01*
X280768D01*
X280102Y279771D01*
X284100Y280437D02*
Y276439D01*
X286100D01*
X286766Y277105D01*
Y279771D01*
X286100Y280437D01*
X284100D01*
X328077Y277317D02*
Y281315D01*
X330077D01*
X330743Y280649D01*
Y279316D01*
X330077Y278650D01*
X328077D01*
X329410D02*
X330743Y277317D01*
X334742D02*
X332076D01*
X334742Y279982D01*
Y280649D01*
X334075Y281315D01*
X332742D01*
X332076Y280649D01*
X338740D02*
X338074Y281315D01*
X336741D01*
X336075Y280649D01*
Y277983D01*
X336741Y277317D01*
X338074D01*
X338740Y277983D01*
X325912Y210458D02*
Y214457D01*
X327911D01*
X328578Y213790D01*
Y212458D01*
X327911Y211791D01*
X325912D01*
X327245D02*
X328578Y210458D01*
X332576D02*
X329910D01*
X332576Y213124D01*
Y213790D01*
X331910Y214457D01*
X330577D01*
X329910Y213790D01*
X333909Y214457D02*
Y210458D01*
X335909D01*
X336575Y211125D01*
Y211791D01*
X335909Y212458D01*
X333909D01*
X335909D01*
X336575Y213124D01*
Y213790D01*
X335909Y214457D01*
X333909D01*
X254831Y202500D02*
Y206499D01*
X256831D01*
X257497Y205832D01*
Y204499D01*
X256831Y203833D01*
X254831D01*
X256164D02*
X257497Y202500D01*
X261496D02*
X258830D01*
X261496Y205166D01*
Y205832D01*
X260829Y206499D01*
X259497D01*
X258830Y205832D01*
X262829Y202500D02*
Y205166D01*
X264162Y206499D01*
X265495Y205166D01*
Y202500D01*
Y204499D01*
X262829D01*
X347200Y428300D02*
Y432299D01*
X349199D01*
X349866Y431632D01*
Y430299D01*
X349199Y429633D01*
X347200D01*
X348533D02*
X349866Y428300D01*
X351199D02*
X352532D01*
X351865D01*
Y432299D01*
X351199Y431632D01*
X357197D02*
X356530Y432299D01*
X355197D01*
X354531Y431632D01*
Y430966D01*
X355197Y430299D01*
X356530D01*
X357197Y429633D01*
Y428966D01*
X356530Y428300D01*
X355197D01*
X354531Y428966D01*
X379408Y322126D02*
Y326125D01*
X381407D01*
X382073Y325458D01*
Y324125D01*
X381407Y323459D01*
X379408D01*
X380740D02*
X382073Y322126D01*
X383406D02*
X384739D01*
X384073D01*
Y326125D01*
X383406Y325458D01*
X386739Y322126D02*
Y326125D01*
X388071Y324792D01*
X389404Y326125D01*
Y322126D01*
X286652Y290818D02*
Y294817D01*
X288651D01*
X289318Y294151D01*
Y292818D01*
X288651Y292151D01*
X286652D01*
X287985D02*
X289318Y290818D01*
X290651D02*
X291984D01*
X291317D01*
Y294817D01*
X290651Y294151D01*
X293983Y294817D02*
Y290818D01*
X295982D01*
X296649Y291485D01*
Y294151D01*
X295982Y294817D01*
X293983D01*
X329732Y262443D02*
X333731D01*
Y260443D01*
X333065Y259777D01*
X331732D01*
X331065Y260443D01*
Y262443D01*
Y261110D02*
X329732Y259777D01*
Y258444D02*
Y257111D01*
Y257778D01*
X333731D01*
X333065Y258444D01*
Y252446D02*
X333731Y253112D01*
Y254445D01*
X333065Y255112D01*
X330399D01*
X329732Y254445D01*
Y253112D01*
X330399Y252446D01*
X311815Y210458D02*
Y214457D01*
X313815D01*
X314481Y213790D01*
Y212458D01*
X313815Y211791D01*
X311815D01*
X313148D02*
X314481Y210458D01*
X315814D02*
X317147D01*
X316480D01*
Y214457D01*
X315814Y213790D01*
X319146Y214457D02*
Y210458D01*
X321146D01*
X321812Y211125D01*
Y211791D01*
X321146Y212458D01*
X319146D01*
X321146D01*
X321812Y213124D01*
Y213790D01*
X321146Y214457D01*
X319146D01*
X273000Y217742D02*
Y221741D01*
X274999D01*
X275666Y221074D01*
Y219741D01*
X274999Y219075D01*
X273000D01*
X274333D02*
X275666Y217742D01*
X276999D02*
X278332D01*
X277665D01*
Y221741D01*
X276999Y221074D01*
X280331Y217742D02*
Y220408D01*
X281664Y221741D01*
X282997Y220408D01*
Y217742D01*
Y219741D01*
X280331D01*
X346500Y150000D02*
Y153999D01*
X347833Y152666D01*
X349166Y153999D01*
Y150000D01*
X350499Y153999D02*
Y150000D01*
Y151333D01*
X353165Y153999D01*
X351165Y151999D01*
X353165Y150000D01*
X174665Y424204D02*
Y420206D01*
X177331D01*
X178664D02*
X179997D01*
X179331D01*
Y424204D01*
X178664Y423538D01*
X359466Y476199D02*
X358133D01*
X358799D01*
Y472866D01*
X358133Y472200D01*
X357466D01*
X356800Y472866D01*
X360799Y476199D02*
X363464D01*
X362132D01*
Y472200D01*
X364797D02*
Y474866D01*
X366130Y476199D01*
X367463Y474866D01*
Y472200D01*
Y474199D01*
X364797D01*
X371462Y475532D02*
X370795Y476199D01*
X369463D01*
X368796Y475532D01*
Y472866D01*
X369463Y472200D01*
X370795D01*
X371462Y472866D01*
Y474199D01*
X370129D01*
X176166Y236899D02*
X174833D01*
X175499D01*
Y233566D01*
X174833Y232900D01*
X174167D01*
X173500Y233566D01*
X180165Y232900D02*
X177499D01*
X180165Y235566D01*
Y236232D01*
X179498Y236899D01*
X178165D01*
X177499Y236232D01*
X200600Y372999D02*
X201933D01*
X201267D01*
Y369000D01*
X200600D01*
X201933D01*
X206598Y372332D02*
X205932Y372999D01*
X204599D01*
X203932Y372332D01*
Y369666D01*
X204599Y369000D01*
X205932D01*
X206598Y369666D01*
X207931Y372999D02*
X210597D01*
Y372332D01*
X207931Y369666D01*
Y369000D01*
X296272Y193832D02*
X295605Y194499D01*
X294273D01*
X293606Y193832D01*
Y191166D01*
X294273Y190500D01*
X295605D01*
X296272Y191166D01*
X297605Y190500D02*
Y194499D01*
X298938Y193166D01*
X300271Y194499D01*
Y190500D01*
X301604Y194499D02*
Y190500D01*
Y191833D01*
X304269Y194499D01*
X302270Y192499D01*
X304269Y190500D01*
X172166Y448832D02*
X171499Y449499D01*
X170167D01*
X169500Y448832D01*
Y446166D01*
X170167Y445500D01*
X171499D01*
X172166Y446166D01*
X173499Y445500D02*
X174832D01*
X174165D01*
Y449499D01*
X173499Y448832D01*
X179497Y445500D02*
X176831D01*
X179497Y448166D01*
Y448832D01*
X178830Y449499D01*
X177497D01*
X176831Y448832D01*
X183495D02*
X182829Y449499D01*
X181496D01*
X180830Y448832D01*
Y448166D01*
X181496Y447499D01*
X182829D01*
X183495Y446833D01*
Y446166D01*
X182829Y445500D01*
X181496D01*
X180830Y446166D01*
X167666Y440415D02*
X166999Y441081D01*
X165666D01*
X165000Y440415D01*
Y437749D01*
X165666Y437083D01*
X166999D01*
X167666Y437749D01*
X168999Y437083D02*
X170332D01*
X169665D01*
Y441081D01*
X168999Y440415D01*
X172331Y437083D02*
X173664D01*
X172997D01*
Y441081D01*
X172331Y440415D01*
X178329D02*
X177663Y441081D01*
X176330D01*
X175663Y440415D01*
Y439748D01*
X176330Y439082D01*
X177663D01*
X178329Y438416D01*
Y437749D01*
X177663Y437083D01*
X176330D01*
X175663Y437749D01*
X166166Y412167D02*
X165499Y412833D01*
X164166D01*
X163500Y412167D01*
Y409501D01*
X164166Y408835D01*
X165499D01*
X166166Y409501D01*
X167499Y408835D02*
X168832D01*
X168165D01*
Y412833D01*
X167499Y412167D01*
X170831D02*
X171497Y412833D01*
X172830D01*
X173497Y412167D01*
Y409501D01*
X172830Y408835D01*
X171497D01*
X170831Y409501D01*
Y412167D01*
X177496D02*
X176829Y412833D01*
X175496D01*
X174830Y412167D01*
Y411500D01*
X175496Y410834D01*
X176829D01*
X177496Y410168D01*
Y409501D01*
X176829Y408835D01*
X175496D01*
X174830Y409501D01*
X170666Y403832D02*
X169999Y404499D01*
X168667D01*
X168000Y403832D01*
Y401166D01*
X168667Y400500D01*
X169999D01*
X170666Y401166D01*
X171999D02*
X172665Y400500D01*
X173998D01*
X174664Y401166D01*
Y403832D01*
X173998Y404499D01*
X172665D01*
X171999Y403832D01*
Y403166D01*
X172665Y402499D01*
X174664D01*
X178663Y403832D02*
X177997Y404499D01*
X176664D01*
X175997Y403832D01*
Y403166D01*
X176664Y402499D01*
X177997D01*
X178663Y401833D01*
Y401166D01*
X177997Y400500D01*
X176664D01*
X175997Y401166D01*
X170666Y396290D02*
X169999Y396957D01*
X168667D01*
X168000Y396290D01*
Y393624D01*
X168667Y392958D01*
X169999D01*
X170666Y393624D01*
X171999Y396290D02*
X172665Y396957D01*
X173998D01*
X174664Y396290D01*
Y395624D01*
X173998Y394957D01*
X174664Y394291D01*
Y393624D01*
X173998Y392958D01*
X172665D01*
X171999Y393624D01*
Y394291D01*
X172665Y394957D01*
X171999Y395624D01*
Y396290D01*
X172665Y394957D02*
X173998D01*
X178663Y396290D02*
X177997Y396957D01*
X176664D01*
X175997Y396290D01*
Y395624D01*
X176664Y394957D01*
X177997D01*
X178663Y394291D01*
Y393624D01*
X177997Y392958D01*
X176664D01*
X175997Y393624D01*
X161666Y189706D02*
X160999Y190373D01*
X159667D01*
X159000Y189706D01*
Y187040D01*
X159667Y186374D01*
X160999D01*
X161666Y187040D01*
X162999Y189706D02*
X163665Y190373D01*
X164998D01*
X165665Y189706D01*
Y189040D01*
X164998Y188373D01*
X165665Y187707D01*
Y187040D01*
X164998Y186374D01*
X163665D01*
X162999Y187040D01*
Y187707D01*
X163665Y188373D01*
X162999Y189040D01*
Y189706D01*
X163665Y188373D02*
X164998D01*
X166997Y186374D02*
Y190373D01*
X168997D01*
X169663Y189706D01*
Y188373D01*
X168997Y187707D01*
X166997D01*
X199316Y387332D02*
X198649Y387999D01*
X197317D01*
X196650Y387332D01*
Y384666D01*
X197317Y384000D01*
X198649D01*
X199316Y384666D01*
X200649Y387999D02*
X203314D01*
Y387332D01*
X200649Y384666D01*
Y384000D01*
X207313Y387332D02*
X206647Y387999D01*
X205314D01*
X204647Y387332D01*
Y386666D01*
X205314Y385999D01*
X206647D01*
X207313Y385333D01*
Y384666D01*
X206647Y384000D01*
X205314D01*
X204647Y384666D01*
X131910Y189332D02*
X131243Y189999D01*
X129910D01*
X129244Y189332D01*
Y186667D01*
X129910Y186000D01*
X131243D01*
X131910Y186667D01*
X133243Y189999D02*
X135908D01*
Y189332D01*
X133243Y186667D01*
Y186000D01*
X137241D02*
Y189999D01*
X139241D01*
X139907Y189332D01*
Y187999D01*
X139241Y187333D01*
X137241D01*
X217914Y365494D02*
X217247Y366160D01*
X215914D01*
X215248Y365494D01*
Y362828D01*
X215914Y362162D01*
X217247D01*
X217914Y362828D01*
X221913Y366160D02*
X220580Y365494D01*
X219247Y364161D01*
Y362828D01*
X219913Y362162D01*
X221246D01*
X221913Y362828D01*
Y363495D01*
X221246Y364161D01*
X219247D01*
X225911Y365494D02*
X225245Y366160D01*
X223912D01*
X223245Y365494D01*
Y364828D01*
X223912Y364161D01*
X225245D01*
X225911Y363495D01*
Y362828D01*
X225245Y362162D01*
X223912D01*
X223245Y362828D01*
X191866Y179632D02*
X191199Y180299D01*
X189866D01*
X189200Y179632D01*
Y176967D01*
X189866Y176300D01*
X191199D01*
X191866Y176967D01*
X195864Y180299D02*
X194532Y179632D01*
X193199Y178299D01*
Y176967D01*
X193865Y176300D01*
X195198D01*
X195864Y176967D01*
Y177633D01*
X195198Y178299D01*
X193199D01*
X197197Y176300D02*
Y180299D01*
X199197D01*
X199863Y179632D01*
Y178299D01*
X199197Y177633D01*
X197197D01*
X183886Y352166D02*
X183220Y351499D01*
Y350166D01*
X183886Y349500D01*
X186552D01*
X187219Y350166D01*
Y351499D01*
X186552Y352166D01*
X183220Y356165D02*
Y353499D01*
X185219D01*
X184553Y354832D01*
Y355498D01*
X185219Y356165D01*
X186552D01*
X187219Y355498D01*
Y354165D01*
X186552Y353499D01*
X183886Y360163D02*
X183220Y359497D01*
Y358164D01*
X183886Y357497D01*
X184553D01*
X185219Y358164D01*
Y359497D01*
X185886Y360163D01*
X186552D01*
X187219Y359497D01*
Y358164D01*
X186552Y357497D01*
X145166Y157832D02*
X144499Y158499D01*
X143166D01*
X142500Y157832D01*
Y155166D01*
X143166Y154500D01*
X144499D01*
X145166Y155166D01*
X149164Y158499D02*
X146499D01*
Y156499D01*
X147832Y157166D01*
X148498D01*
X149164Y156499D01*
Y155166D01*
X148498Y154500D01*
X147165D01*
X146499Y155166D01*
X150497Y154500D02*
Y158499D01*
X152497D01*
X153163Y157832D01*
Y156499D01*
X152497Y155833D01*
X150497D01*
X257545Y315571D02*
X256878Y316237D01*
X255545D01*
X254879Y315571D01*
Y312905D01*
X255545Y312238D01*
X256878D01*
X257545Y312905D01*
X261543Y316237D02*
X258877D01*
Y314238D01*
X260210Y314904D01*
X260877D01*
X261543Y314238D01*
Y312905D01*
X260877Y312238D01*
X259544D01*
X258877Y312905D01*
X262876Y316237D02*
Y312238D01*
X264876D01*
X265542Y312905D01*
Y315571D01*
X264876Y316237D01*
X262876D01*
X343069Y253422D02*
X343735Y254089D01*
Y255422D01*
X343069Y256088D01*
X340403D01*
X339736Y255422D01*
Y254089D01*
X340403Y253422D01*
X343735Y249424D02*
Y252090D01*
X341736D01*
X342402Y250757D01*
Y250090D01*
X341736Y249424D01*
X340403D01*
X339736Y250090D01*
Y251423D01*
X340403Y252090D01*
X343069Y245425D02*
X343735Y246091D01*
Y247424D01*
X343069Y248091D01*
X340403D01*
X339736Y247424D01*
Y246091D01*
X340403Y245425D01*
X373166Y224711D02*
X372499Y225377D01*
X371166D01*
X370500Y224711D01*
Y222045D01*
X371166Y221379D01*
X372499D01*
X373166Y222045D01*
X377165Y225377D02*
X374499D01*
Y223378D01*
X375832Y224044D01*
X376498D01*
X377165Y223378D01*
Y222045D01*
X376498Y221379D01*
X375165D01*
X374499Y222045D01*
X378497Y225377D02*
Y221379D01*
X380497D01*
X381163Y222045D01*
Y222712D01*
X380497Y223378D01*
X378497D01*
X380497D01*
X381163Y224044D01*
Y224711D01*
X380497Y225377D01*
X378497D01*
X237466Y224332D02*
X236799Y224999D01*
X235466D01*
X234800Y224332D01*
Y221666D01*
X235466Y221000D01*
X236799D01*
X237466Y221666D01*
X241464Y224999D02*
X238799D01*
Y222999D01*
X240132Y223666D01*
X240798D01*
X241464Y222999D01*
Y221666D01*
X240798Y221000D01*
X239465D01*
X238799Y221666D01*
X242797Y221000D02*
Y223666D01*
X244130Y224999D01*
X245463Y223666D01*
Y221000D01*
Y222999D01*
X242797D01*
X185283Y342332D02*
X184616Y342999D01*
X183283D01*
X182617Y342332D01*
Y339666D01*
X183283Y339000D01*
X184616D01*
X185283Y339666D01*
X188615Y339000D02*
Y342999D01*
X186616Y340999D01*
X189281D01*
X193280Y342332D02*
X192614Y342999D01*
X191281D01*
X190614Y342332D01*
Y341666D01*
X191281Y340999D01*
X192614D01*
X193280Y340333D01*
Y339666D01*
X192614Y339000D01*
X191281D01*
X190614Y339666D01*
X383678Y317974D02*
X383012Y318640D01*
X381679D01*
X381013Y317974D01*
Y315308D01*
X381679Y314642D01*
X383012D01*
X383678Y315308D01*
X387011Y314642D02*
Y318640D01*
X385011Y316641D01*
X387677D01*
X389010Y314642D02*
Y318640D01*
X390343Y317307D01*
X391676Y318640D01*
Y314642D01*
X184017Y478975D02*
X183350Y479642D01*
X182017D01*
X181351Y478975D01*
Y476310D01*
X182017Y475643D01*
X183350D01*
X184017Y476310D01*
X185350Y478975D02*
X186016Y479642D01*
X187349D01*
X188015Y478975D01*
Y478309D01*
X187349Y477643D01*
X186682D01*
X187349D01*
X188015Y476976D01*
Y476310D01*
X187349Y475643D01*
X186016D01*
X185350Y476310D01*
X192014Y478975D02*
X191348Y479642D01*
X190015D01*
X189348Y478975D01*
Y478309D01*
X190015Y477643D01*
X191348D01*
X192014Y476976D01*
Y476310D01*
X191348Y475643D01*
X190015D01*
X189348Y476310D01*
X382617Y287772D02*
X381950Y287106D01*
Y285773D01*
X382617Y285106D01*
X385283D01*
X385949Y285773D01*
Y287106D01*
X385283Y287772D01*
X382617Y289105D02*
X381950Y289772D01*
Y291105D01*
X382617Y291771D01*
X383283D01*
X383950Y291105D01*
Y290438D01*
Y291105D01*
X384616Y291771D01*
X385283D01*
X385949Y291105D01*
Y289772D01*
X385283Y289105D01*
X385949Y293104D02*
X381950D01*
X383283Y294437D01*
X381950Y295770D01*
X385949D01*
X268166Y477632D02*
X267499Y478299D01*
X266166D01*
X265500Y477632D01*
Y474966D01*
X266166Y474300D01*
X267499D01*
X268166Y474966D01*
X272165Y474300D02*
X269499D01*
X272165Y476966D01*
Y477632D01*
X271498Y478299D01*
X270165D01*
X269499Y477632D01*
X276163D02*
X275497Y478299D01*
X274164D01*
X273497Y477632D01*
Y476966D01*
X274164Y476299D01*
X275497D01*
X276163Y475633D01*
Y474966D01*
X275497Y474300D01*
X274164D01*
X273497Y474966D01*
X403009Y320194D02*
X402343Y320861D01*
X401010D01*
X400343Y320194D01*
Y317528D01*
X401010Y316862D01*
X402343D01*
X403009Y317528D01*
X407008Y316862D02*
X404342D01*
X407008Y319528D01*
Y320194D01*
X406341Y320861D01*
X405008D01*
X404342Y320194D01*
X408341Y316862D02*
Y320861D01*
X409674Y319528D01*
X411006Y320861D01*
Y316862D01*
X275724Y298299D02*
X275057Y297633D01*
Y296300D01*
X275724Y295633D01*
X278389D01*
X279056Y296300D01*
Y297633D01*
X278389Y298299D01*
X279056Y302298D02*
Y299632D01*
X276390Y302298D01*
X275724D01*
X275057Y301631D01*
Y300299D01*
X275724Y299632D01*
X275057Y303631D02*
X279056D01*
Y305630D01*
X278389Y306297D01*
X275724D01*
X275057Y305630D01*
Y303631D01*
X343994Y289890D02*
X344661Y290557D01*
Y291890D01*
X343994Y292556D01*
X341329D01*
X340662Y291890D01*
Y290557D01*
X341329Y289890D01*
X340662Y285892D02*
Y288557D01*
X343328Y285892D01*
X343994D01*
X344661Y286558D01*
Y287891D01*
X343994Y288557D01*
Y281893D02*
X344661Y282559D01*
Y283892D01*
X343994Y284559D01*
X341329D01*
X340662Y283892D01*
Y282559D01*
X341329Y281893D01*
X343386Y213332D02*
X342720Y213999D01*
X341387D01*
X340721Y213332D01*
Y210666D01*
X341387Y210000D01*
X342720D01*
X343386Y210666D01*
X347385Y210000D02*
X344719D01*
X347385Y212666D01*
Y213332D01*
X346719Y213999D01*
X345386D01*
X344719Y213332D01*
X348718Y213999D02*
Y210000D01*
X350717D01*
X351384Y210666D01*
Y211333D01*
X350717Y211999D01*
X348718D01*
X350717D01*
X351384Y212666D01*
Y213332D01*
X350717Y213999D01*
X348718D01*
X257891Y247134D02*
X257224Y247801D01*
X255891D01*
X255225Y247134D01*
Y244468D01*
X255891Y243802D01*
X257224D01*
X257891Y244468D01*
X261890Y243802D02*
X259224D01*
X261890Y246468D01*
Y247134D01*
X261223Y247801D01*
X259890D01*
X259224Y247134D01*
X263222Y243802D02*
Y246468D01*
X264555Y247801D01*
X265888Y246468D01*
Y243802D01*
Y245801D01*
X263222D01*
X130654Y413632D02*
X129988Y414299D01*
X128655D01*
X127988Y413632D01*
Y410966D01*
X128655Y410300D01*
X129988D01*
X130654Y410966D01*
X131987Y410300D02*
X133320D01*
X132653D01*
Y414299D01*
X131987Y413632D01*
X137985D02*
X137319Y414299D01*
X135986D01*
X135319Y413632D01*
Y412966D01*
X135986Y412299D01*
X137319D01*
X137985Y411633D01*
Y410966D01*
X137319Y410300D01*
X135986D01*
X135319Y410966D01*
X378966Y362032D02*
X378299Y362699D01*
X376966D01*
X376300Y362032D01*
Y359366D01*
X376966Y358700D01*
X378299D01*
X378966Y359366D01*
X380299Y358700D02*
X381632D01*
X380965D01*
Y362699D01*
X380299Y362032D01*
X383631Y358700D02*
Y362699D01*
X384964Y361366D01*
X386297Y362699D01*
Y358700D01*
X190500Y134499D02*
Y130500D01*
X192499D01*
X193166Y131167D01*
Y131833D01*
X192499Y132499D01*
X190500D01*
X192499D01*
X193166Y133166D01*
Y133832D01*
X192499Y134499D01*
X190500D01*
X194499Y133166D02*
Y131167D01*
X195165Y130500D01*
X197164D01*
Y133166D01*
X201163D02*
X199164D01*
X198497Y132499D01*
Y131167D01*
X199164Y130500D01*
X201163D01*
X202496D02*
Y134499D01*
Y131833D02*
X204496Y133166D01*
X202496Y131833D02*
X204496Y130500D01*
X376062Y287116D02*
X375396Y286450D01*
Y285117D01*
X376062Y284451D01*
X378728D01*
X379394Y285117D01*
Y286450D01*
X378728Y287116D01*
Y288449D02*
X379394Y289116D01*
Y290449D01*
X378728Y291115D01*
X376062D01*
X375396Y290449D01*
Y289116D01*
X376062Y288449D01*
X376729D01*
X377395Y289116D01*
Y291115D01*
X379394Y292448D02*
X375396D01*
X376729Y293781D01*
X375396Y295114D01*
X379394D01*
X368450Y284699D02*
X372449D01*
Y286698D01*
X371783Y287364D01*
X371116D01*
X370450Y286698D01*
Y284699D01*
Y286698D01*
X369783Y287364D01*
X369117D01*
X368450Y286698D01*
Y284699D01*
X369117Y291363D02*
X368450Y290697D01*
Y289364D01*
X369117Y288697D01*
X371783D01*
X372449Y289364D01*
Y290697D01*
X371783Y291363D01*
X372449Y294695D02*
X368450D01*
X370450Y292696D01*
Y295362D01*
X359451Y284699D02*
X363449D01*
Y286698D01*
X362783Y287364D01*
X362116D01*
X361450Y286698D01*
Y284699D01*
Y286698D01*
X360783Y287364D01*
X360117D01*
X359451Y286698D01*
Y284699D01*
X360117Y291363D02*
X359451Y290697D01*
Y289364D01*
X360117Y288697D01*
X362783D01*
X363449Y289364D01*
Y290697D01*
X362783Y291363D01*
X360117Y292696D02*
X359451Y293362D01*
Y294695D01*
X360117Y295362D01*
X360783D01*
X361450Y294695D01*
Y294029D01*
Y294695D01*
X362116Y295362D01*
X362783D01*
X363449Y294695D01*
Y293362D01*
X362783Y292696D01*
X346501Y296651D02*
X350500D01*
Y298651D01*
X349834Y299317D01*
X349167D01*
X348501Y298651D01*
Y296651D01*
Y298651D01*
X347834Y299317D01*
X347168D01*
X346501Y298651D01*
Y296651D01*
X347168Y303316D02*
X346501Y302649D01*
Y301316D01*
X347168Y300650D01*
X349834D01*
X350500Y301316D01*
Y302649D01*
X349834Y303316D01*
X350500Y307314D02*
Y304649D01*
X347834Y307314D01*
X347168D01*
X346501Y306648D01*
Y305315D01*
X347168Y304649D01*
X314001Y198000D02*
X318000D01*
Y199999D01*
X317334Y200666D01*
X316667D01*
X316001Y199999D01*
Y198000D01*
Y199999D01*
X315334Y200666D01*
X314668D01*
X314001Y199999D01*
Y198000D01*
X314668Y204664D02*
X314001Y203998D01*
Y202665D01*
X314668Y201999D01*
X317334D01*
X318000Y202665D01*
Y203998D01*
X317334Y204664D01*
X318000Y205997D02*
Y207330D01*
Y206664D01*
X314001D01*
X314668Y205997D01*
X199252Y444999D02*
Y441000D01*
X201252D01*
X201918Y441666D01*
Y442333D01*
X201252Y442999D01*
X199252D01*
X201252D01*
X201918Y443666D01*
Y444332D01*
X201252Y444999D01*
X199252D01*
X203251Y441000D02*
X204584D01*
X203917D01*
Y444999D01*
X203251Y444332D01*
M02*
