G04*
G04 #@! TF.GenerationSoftware,Altium Limited,Altium Designer,18.1.9 (240)*
G04*
G04 Layer_Color=255*
%FSLAX25Y25*%
%MOIN*%
G70*
G01*
G75*
%ADD15R,0.03543X0.03150*%
%ADD16R,0.03150X0.03543*%
G04:AMPARAMS|DCode=17|XSize=35.43mil|YSize=31.5mil|CornerRadius=0mil|HoleSize=0mil|Usage=FLASHONLY|Rotation=135.000|XOffset=0mil|YOffset=0mil|HoleType=Round|Shape=Rectangle|*
%AMROTATEDRECTD17*
4,1,4,0.02366,-0.00139,0.00139,-0.02366,-0.02366,0.00139,-0.00139,0.02366,0.02366,-0.00139,0.0*
%
%ADD17ROTATEDRECTD17*%

%ADD18R,0.05807X0.01181*%
%ADD19R,0.01181X0.05807*%
%ADD20R,0.09055X0.09055*%
%ADD21R,0.09055X0.09055*%
%ADD22R,0.04331X0.06693*%
%ADD23R,0.06693X0.04331*%
%ADD24R,0.02200X0.05200*%
%ADD25R,0.03937X0.03543*%
%ADD26R,0.01772X0.05807*%
%ADD27R,0.05800X0.02200*%
%ADD28R,0.08858X0.08465*%
%ADD29R,0.12205X0.08661*%
%ADD30R,0.07800X0.02200*%
%ADD31R,0.09000X0.09000*%
%ADD67C,0.05906*%
%ADD68R,0.05906X0.05906*%
%ADD69C,0.06000*%
%ADD70C,0.06693*%
%ADD71C,0.06496*%
%ADD72C,0.06791*%
%ADD73R,0.06575X0.06575*%
%ADD74C,0.07677*%
%ADD75R,0.07433X0.07433*%
%ADD76R,0.06575X0.06575*%
%ADD77C,0.04724*%
%ADD78C,0.04331*%
%ADD79C,0.05610*%
D15*
X293508Y210244D02*
D03*
Y215756D02*
D03*
X318937Y180291D02*
D03*
Y185803D02*
D03*
X165000Y144441D02*
D03*
Y149953D02*
D03*
X237000Y456835D02*
D03*
Y451323D02*
D03*
X349949Y334800D02*
D03*
Y340312D02*
D03*
X323418Y280100D02*
D03*
Y285612D02*
D03*
X324796Y266672D02*
D03*
Y272183D02*
D03*
X295820Y280073D02*
D03*
Y285584D02*
D03*
X324796Y252234D02*
D03*
Y257746D02*
D03*
X236390Y360398D02*
D03*
Y354886D02*
D03*
X303918Y222000D02*
D03*
Y227512D02*
D03*
X354000Y304472D02*
D03*
Y309984D02*
D03*
X360449Y309954D02*
D03*
Y304443D02*
D03*
X367949Y309954D02*
D03*
Y304443D02*
D03*
X375449Y304443D02*
D03*
Y309955D02*
D03*
X275316Y291584D02*
D03*
Y286073D02*
D03*
X267000Y469194D02*
D03*
Y463682D02*
D03*
X382949Y304443D02*
D03*
Y309954D02*
D03*
X196012Y465100D02*
D03*
Y470612D02*
D03*
X390449Y304191D02*
D03*
Y309703D02*
D03*
X156000Y149756D02*
D03*
Y144244D02*
D03*
X192370Y353114D02*
D03*
Y358626D02*
D03*
X220500Y354000D02*
D03*
Y359512D02*
D03*
X142500Y177094D02*
D03*
Y182606D02*
D03*
X156000Y177094D02*
D03*
Y182606D02*
D03*
X195000Y256256D02*
D03*
Y250744D02*
D03*
X220500Y255847D02*
D03*
Y250335D02*
D03*
D16*
X246394Y284699D02*
D03*
X251906D02*
D03*
X303918Y289669D02*
D03*
X309430D02*
D03*
X318693Y231013D02*
D03*
X324205D02*
D03*
X306674Y214198D02*
D03*
X301162D02*
D03*
X257193Y284699D02*
D03*
X262705D02*
D03*
X312776Y273903D02*
D03*
X307264D02*
D03*
X356882Y232883D02*
D03*
X351370D02*
D03*
X236638Y235419D02*
D03*
X242150D02*
D03*
X355800Y463500D02*
D03*
X350288D02*
D03*
X263560Y291584D02*
D03*
X269072D02*
D03*
X350853Y226864D02*
D03*
X345341D02*
D03*
X264693Y229199D02*
D03*
X270205D02*
D03*
X355800Y453000D02*
D03*
X350288D02*
D03*
X392866Y279482D02*
D03*
X387354D02*
D03*
X288624Y285829D02*
D03*
X283113D02*
D03*
X326109Y219213D02*
D03*
X331621D02*
D03*
X257146Y214198D02*
D03*
X262658D02*
D03*
X353930Y423000D02*
D03*
X348418D02*
D03*
X313268Y219213D02*
D03*
X318780D02*
D03*
X279205Y214198D02*
D03*
X273693D02*
D03*
X199043Y318200D02*
D03*
X204555D02*
D03*
X229163Y313800D02*
D03*
X234675D02*
D03*
X226154Y298500D02*
D03*
X220642D02*
D03*
X238209Y298500D02*
D03*
X232697D02*
D03*
X134756Y405000D02*
D03*
X129244D02*
D03*
X257194Y239328D02*
D03*
X262705D02*
D03*
X345205Y219410D02*
D03*
X339693D02*
D03*
X330937Y285809D02*
D03*
X336449D02*
D03*
X207617Y343500D02*
D03*
X202105D02*
D03*
X190500Y171000D02*
D03*
X196012D02*
D03*
X193256Y387000D02*
D03*
X187744D02*
D03*
X193256Y396000D02*
D03*
X187744D02*
D03*
X193256Y404000D02*
D03*
X187744D02*
D03*
X193256Y411000D02*
D03*
X187744D02*
D03*
X188756Y431764D02*
D03*
X183244D02*
D03*
X188756Y439500D02*
D03*
X183244D02*
D03*
X293410Y199500D02*
D03*
X298922D02*
D03*
X210104Y327129D02*
D03*
X215616D02*
D03*
X217886Y240000D02*
D03*
X223398D02*
D03*
X228000Y305013D02*
D03*
X233512D02*
D03*
D17*
X372587Y316419D02*
D03*
X376484Y320317D02*
D03*
D18*
X252091Y431764D02*
D03*
Y429795D02*
D03*
Y427827D02*
D03*
Y425858D02*
D03*
Y423890D02*
D03*
Y421921D02*
D03*
Y419953D02*
D03*
Y417984D02*
D03*
Y416016D02*
D03*
Y414047D02*
D03*
Y412079D02*
D03*
Y410110D02*
D03*
Y408142D02*
D03*
Y406173D02*
D03*
Y404205D02*
D03*
Y402236D02*
D03*
X206909D02*
D03*
Y404205D02*
D03*
Y406173D02*
D03*
Y408142D02*
D03*
Y410110D02*
D03*
Y412079D02*
D03*
Y414047D02*
D03*
Y416016D02*
D03*
Y417984D02*
D03*
Y419953D02*
D03*
Y421921D02*
D03*
Y423890D02*
D03*
Y425858D02*
D03*
Y427827D02*
D03*
Y429795D02*
D03*
Y431764D02*
D03*
D19*
X244264Y394409D02*
D03*
X242295D02*
D03*
X240327D02*
D03*
X238358D02*
D03*
X236390D02*
D03*
X234421D02*
D03*
X232453D02*
D03*
X230484D02*
D03*
X228516D02*
D03*
X226547D02*
D03*
X224579D02*
D03*
X222610D02*
D03*
X220642D02*
D03*
X218673D02*
D03*
X216705D02*
D03*
X214736D02*
D03*
Y439591D02*
D03*
X216705D02*
D03*
X218673D02*
D03*
X220642D02*
D03*
X222610D02*
D03*
X224579D02*
D03*
X226547D02*
D03*
X228516D02*
D03*
X230484D02*
D03*
X232453D02*
D03*
X234421D02*
D03*
X236390D02*
D03*
X238358D02*
D03*
X240327D02*
D03*
X242295D02*
D03*
X244264D02*
D03*
D20*
X400292Y348000D02*
D03*
X381000D02*
D03*
X376646Y276835D02*
D03*
X357354D02*
D03*
D21*
X403949Y290053D02*
D03*
Y309345D02*
D03*
D22*
X236634Y214198D02*
D03*
X247264D02*
D03*
X258788Y306805D02*
D03*
X269418D02*
D03*
D23*
X342689Y271344D02*
D03*
Y260714D02*
D03*
X204000Y310151D02*
D03*
Y299521D02*
D03*
X364949Y229056D02*
D03*
Y218426D02*
D03*
D24*
X202000Y354000D02*
D03*
X205700D02*
D03*
X209400D02*
D03*
Y363200D02*
D03*
X202000D02*
D03*
X203300Y248656D02*
D03*
X207000D02*
D03*
X210700D02*
D03*
Y257856D02*
D03*
X203300D02*
D03*
X213005Y319600D02*
D03*
X220405D02*
D03*
Y310400D02*
D03*
X216705D02*
D03*
X213005D02*
D03*
D25*
X183339Y424650D02*
D03*
Y418350D02*
D03*
D26*
X295772Y261766D02*
D03*
X298331D02*
D03*
X300890D02*
D03*
X303449D02*
D03*
X306008D02*
D03*
X308567D02*
D03*
X311126D02*
D03*
Y238632D02*
D03*
X308567D02*
D03*
X306008D02*
D03*
X303449D02*
D03*
X300890D02*
D03*
X298331D02*
D03*
X295772D02*
D03*
D27*
X367315Y327129D02*
D03*
Y330829D02*
D03*
Y334529D02*
D03*
X357915D02*
D03*
Y327129D02*
D03*
D28*
X183339Y193500D02*
D03*
X200661D02*
D03*
D29*
X238500Y175807D02*
D03*
Y139193D02*
D03*
D30*
X185461Y156567D02*
D03*
Y151567D02*
D03*
Y146567D02*
D03*
Y141567D02*
D03*
X204861D02*
D03*
Y146567D02*
D03*
Y151567D02*
D03*
Y156567D02*
D03*
D31*
X195161Y149067D02*
D03*
D67*
X166500Y429953D02*
D03*
D68*
Y419953D02*
D03*
D69*
X409500Y478500D02*
D03*
X114000Y114000D02*
D03*
X409500Y112500D02*
D03*
X114000Y478500D02*
D03*
X367949Y373000D02*
D03*
X377949D02*
D03*
X367949Y383000D02*
D03*
X377949D02*
D03*
X367949Y393000D02*
D03*
X377949D02*
D03*
X367949Y403000D02*
D03*
X377949D02*
D03*
X367949Y413000D02*
D03*
X377949D02*
D03*
X367949Y423000D02*
D03*
X377949D02*
D03*
X367949Y433000D02*
D03*
X377949D02*
D03*
X367949Y443000D02*
D03*
X377949D02*
D03*
X367949Y453000D02*
D03*
X377949D02*
D03*
X367949Y463000D02*
D03*
X377949D02*
D03*
D70*
X123657Y432000D02*
D03*
X143343D02*
D03*
Y451686D02*
D03*
X123657D02*
D03*
D71*
X304322Y311510D02*
D03*
X279402Y202240D02*
D03*
X280500Y248669D02*
D03*
X355500Y251643D02*
D03*
X224434Y221000D02*
D03*
X378224Y233179D02*
D03*
D72*
X277186Y354995D02*
D03*
Y364995D02*
D03*
X189252Y223610D02*
D03*
X199252D02*
D03*
X307500Y465665D02*
D03*
X317500D02*
D03*
X305000Y445388D02*
D03*
X315000D02*
D03*
X305368Y482205D02*
D03*
X295368D02*
D03*
D73*
X277186Y374995D02*
D03*
D74*
X324500Y310643D02*
D03*
X272000Y184917D02*
D03*
X177925Y276000D02*
D03*
X203000Y275335D02*
D03*
D75*
X334500Y310643D02*
D03*
X282000Y184917D02*
D03*
X167925Y276000D02*
D03*
X193000Y275335D02*
D03*
D76*
X179252Y223610D02*
D03*
X297500Y465665D02*
D03*
X325000Y445388D02*
D03*
X285368Y482205D02*
D03*
D77*
X345225Y139500D02*
D03*
X355225D02*
D03*
D78*
X220642Y477705D02*
D03*
X239854D02*
D03*
D79*
X139500Y221870D02*
D03*
Y371476D02*
D03*
M02*
