G04*
G04 #@! TF.GenerationSoftware,Altium Limited,Altium Designer,18.1.9 (240)*
G04*
G04 Layer_Color=128*
%FSLAX25Y25*%
%MOIN*%
G70*
G01*
G75*
%ADD97C,0.00200*%
D97*
X269441Y184917D02*
X274559D01*
X272000Y182358D02*
Y187476D01*
X279441Y184917D02*
X284559D01*
X282000Y182358D02*
Y187476D01*
X277237Y202240D02*
X281568D01*
X279402Y200075D02*
Y204405D01*
X278334Y248669D02*
X282665D01*
X280500Y246503D02*
Y250834D01*
X353334Y251643D02*
X357665D01*
X355500Y249478D02*
Y253809D01*
X222268Y221000D02*
X226599D01*
X224434Y218834D02*
Y223165D01*
X376059Y233179D02*
X380390D01*
X378224Y231013D02*
Y235344D01*
X263757Y378000D02*
X268875D01*
X266316Y375441D02*
Y380559D01*
X263757Y368000D02*
X268875D01*
X266316Y365441D02*
Y370559D01*
X176988Y223610D02*
X181516D01*
X179252Y221346D02*
Y225874D01*
X186988Y223610D02*
X191516D01*
X189252Y221346D02*
Y225874D01*
X196988Y223610D02*
X201516D01*
X199252Y221346D02*
Y225874D01*
X365949Y373000D02*
X369949D01*
X367949Y371000D02*
Y375000D01*
X375949Y373000D02*
X379949D01*
X377949Y371000D02*
Y375000D01*
X365949Y383000D02*
X369949D01*
X367949Y381000D02*
Y385000D01*
X375949Y383000D02*
X379949D01*
X377949Y381000D02*
Y385000D01*
X365949Y393000D02*
X369949D01*
X367949Y391000D02*
Y395000D01*
X375949Y393000D02*
X379949D01*
X377949Y391000D02*
Y395000D01*
X365949Y403000D02*
X369949D01*
X367949Y401000D02*
Y405000D01*
X375949Y403000D02*
X379949D01*
X377949Y401000D02*
Y405000D01*
X365949Y413000D02*
X369949D01*
X367949Y411000D02*
Y415000D01*
X375949Y413000D02*
X379949D01*
X377949Y411000D02*
Y415000D01*
X365949Y423000D02*
X369949D01*
X367949Y421000D02*
Y425000D01*
X375949Y423000D02*
X379949D01*
X377949Y421000D02*
Y425000D01*
X365949Y433000D02*
X369949D01*
X367949Y431000D02*
Y435000D01*
X375949Y433000D02*
X379949D01*
X377949Y431000D02*
Y435000D01*
X365949Y443000D02*
X369949D01*
X367949Y441000D02*
Y445000D01*
X375949Y443000D02*
X379949D01*
X377949Y441000D02*
Y445000D01*
X365949Y453000D02*
X369949D01*
X367949Y451000D02*
Y455000D01*
X375949Y453000D02*
X379949D01*
X377949Y451000D02*
Y455000D01*
X365949Y463000D02*
X369949D01*
X367949Y461000D02*
Y465000D01*
X375949Y463000D02*
X379949D01*
X377949Y461000D02*
Y465000D01*
X343847Y139500D02*
X346603D01*
X345225Y138122D02*
Y140878D01*
X353847Y139500D02*
X356603D01*
X355225Y138122D02*
Y140878D01*
X141099Y431157D02*
X145587D01*
X143343Y428913D02*
Y433401D01*
X141099Y450843D02*
X145587D01*
X143343Y448599D02*
Y453087D01*
X121413Y450843D02*
X125901D01*
X123657Y448599D02*
Y453087D01*
X121413Y431157D02*
X125901D01*
X123657Y428913D02*
Y433401D01*
X219343Y477705D02*
X221941D01*
X220642Y476406D02*
Y479004D01*
X238555Y477705D02*
X241153D01*
X239854Y476406D02*
Y479004D01*
X137630Y221870D02*
X141370D01*
X139500Y220000D02*
Y223740D01*
X137630Y371476D02*
X141370D01*
X139500Y369606D02*
Y373346D01*
X165366Y276000D02*
X170484D01*
X167925Y273441D02*
Y278559D01*
X175366Y276000D02*
X180484D01*
X177925Y273441D02*
Y278559D01*
X190441Y275335D02*
X195559D01*
X193000Y272776D02*
Y277894D01*
X200441Y275335D02*
X205559D01*
X203000Y272776D02*
Y277894D01*
X295236Y465665D02*
X299764D01*
X297500Y463401D02*
Y467929D01*
X305236Y465665D02*
X309764D01*
X307500Y463401D02*
Y467929D01*
X315236Y465665D02*
X319764D01*
X317500Y463401D02*
Y467929D01*
X302736Y445388D02*
X307264D01*
X305000Y443124D02*
Y447652D01*
X312736Y445388D02*
X317264D01*
X315000Y443124D02*
Y447652D01*
X322736Y445388D02*
X327264D01*
X325000Y443124D02*
Y447652D01*
X303104Y482205D02*
X307632D01*
X305368Y479941D02*
Y484469D01*
X293104Y482205D02*
X297632D01*
X295368Y479941D02*
Y484469D01*
X283104Y482205D02*
X287632D01*
X285368Y479941D02*
Y484469D01*
X254231Y375000D02*
X255431D01*
X254831Y374400D02*
Y375600D01*
X316349Y283233D02*
X317549D01*
X316949Y282633D02*
Y283833D01*
X316578Y276999D02*
X317778D01*
X317178Y276399D02*
Y277599D01*
X202678Y241727D02*
X203878D01*
X203278Y241127D02*
Y242327D01*
X200547Y348761D02*
X201747D01*
X201147Y348161D02*
Y349361D01*
X300078Y232595D02*
X301278D01*
X300678Y231996D02*
Y233195D01*
X287027Y233672D02*
X288227D01*
X287627Y233072D02*
Y234272D01*
X258078Y232294D02*
X259278D01*
X258678Y231694D02*
Y232894D01*
X259578Y218709D02*
X260778D01*
X260178Y218109D02*
Y219309D01*
X216478Y304595D02*
X217678D01*
X217078Y303995D02*
Y305195D01*
X226483Y322695D02*
X227683D01*
X227083Y322095D02*
Y323295D01*
X191193Y336095D02*
X192393D01*
X191793Y335495D02*
Y336696D01*
X196282Y348095D02*
X197482D01*
X196882Y347496D02*
Y348695D01*
X192078Y444465D02*
X193278D01*
X192678Y443865D02*
Y445065D01*
X241334Y277247D02*
X242534D01*
X241934Y276647D02*
Y277847D01*
X261255Y266708D02*
X262455D01*
X261855Y266108D02*
Y267308D01*
X299243Y272129D02*
X300443D01*
X299843Y271529D02*
Y272729D01*
X269062Y285384D02*
X270262D01*
X269662Y284784D02*
Y285984D01*
X337529Y339234D02*
X338729D01*
X338129Y338634D02*
Y339834D01*
X263203Y425206D02*
X264403D01*
X263803Y424606D02*
Y425806D01*
X283707Y466699D02*
X284907D01*
X284307Y466099D02*
Y467299D01*
X291624Y438706D02*
X292824D01*
X292224Y438106D02*
Y439306D01*
X352490Y386706D02*
X353691D01*
X353091Y386106D02*
Y387306D01*
X261207Y416206D02*
X262407D01*
X261807Y415606D02*
Y416806D01*
X279207Y408706D02*
X280407D01*
X279807Y408106D02*
Y409306D01*
X258703Y398206D02*
X259904D01*
X259303Y397606D02*
Y398806D01*
X320400Y403000D02*
X321600D01*
X321000Y402400D02*
Y403600D01*
X250471Y383000D02*
X251671D01*
X251071Y382400D02*
Y383600D01*
X390900Y423000D02*
X392100D01*
X391500Y422400D02*
Y423600D01*
X223834Y447194D02*
X225034D01*
X224434Y446594D02*
Y447794D01*
X198822Y400040D02*
X200022D01*
X199422Y399440D02*
Y400640D01*
X181290Y385733D02*
X182490D01*
X181890Y385133D02*
Y386333D01*
X217066Y446765D02*
X218266D01*
X217666Y446165D02*
Y447365D01*
X224668Y375268D02*
X225868D01*
X225268Y374668D02*
Y375868D01*
X186900Y376500D02*
X188100D01*
X187500Y375900D02*
Y377100D01*
X182739Y464568D02*
X183939D01*
X183339Y463968D02*
Y465168D01*
X218620Y341091D02*
X219820D01*
X219220Y340491D02*
Y341691D01*
X187507Y313823D02*
X188707D01*
X188107Y313223D02*
Y314423D01*
X235920Y342323D02*
X237120D01*
X236520Y341723D02*
Y342923D01*
X339900Y457500D02*
X341100D01*
X340500Y456900D02*
Y458100D01*
X202095Y330829D02*
X203295D01*
X202695Y330229D02*
Y331429D01*
X392400Y332043D02*
X393600D01*
X393000Y331443D02*
Y332643D01*
X376125Y326963D02*
X377325D01*
X376725Y326363D02*
Y327563D01*
X344625Y320351D02*
X345825D01*
X345225Y319751D02*
Y320951D01*
X364349Y318131D02*
X365549D01*
X364949Y317531D02*
Y318731D01*
X302849Y229199D02*
X304049D01*
X303449Y228598D02*
Y229799D01*
X296268Y228914D02*
X297468D01*
X296868Y228314D02*
Y229514D01*
X363215Y295266D02*
X364415D01*
X363815Y294666D02*
Y295866D01*
X337349Y226199D02*
X338549D01*
X337949Y225599D02*
Y226799D01*
X280349Y230577D02*
X281549D01*
X280949Y229977D02*
Y231177D01*
X251897Y297629D02*
X253097D01*
X252497Y297029D02*
Y298229D01*
X317849Y262443D02*
X319049D01*
X318449Y261843D02*
Y263043D01*
X316349Y287504D02*
X317549D01*
X316949Y286904D02*
Y288104D01*
X309420Y296651D02*
X310620D01*
X310020Y296051D02*
Y297251D01*
X289349Y224135D02*
X290549D01*
X289949Y223535D02*
Y224735D01*
X250471Y244198D02*
X251671D01*
X251071Y243599D02*
Y244798D01*
X231319Y267000D02*
X232519D01*
X231919Y266400D02*
Y267600D01*
X210760Y238500D02*
X211960D01*
X211360Y237900D02*
Y239100D01*
X212966Y189000D02*
X215766D01*
X214366Y187600D02*
Y190400D01*
X175600Y169500D02*
X178400D01*
X177000Y168100D02*
Y170900D01*
X172187Y157547D02*
X174987D01*
X173587Y156147D02*
Y158947D01*
X210100Y165787D02*
X212900D01*
X211500Y164387D02*
Y167187D01*
X309407Y183047D02*
X312208D01*
X310807Y181647D02*
Y184447D01*
X190556Y238500D02*
X191756D01*
X191156Y237900D02*
Y239100D01*
X274474Y174000D02*
X277274D01*
X275874Y172600D02*
Y175400D01*
X138100Y384000D02*
X140900D01*
X139500Y382600D02*
Y385400D01*
X148600Y163547D02*
X151400D01*
X150000Y162147D02*
Y164947D01*
X136293Y163547D02*
X139093D01*
X137693Y162147D02*
Y164947D01*
M02*
