G04*
G04 #@! TF.GenerationSoftware,Altium Limited,Altium Designer,18.1.9 (240)*
G04*
G04 Layer_Physical_Order=3*
G04 Layer_Color=128*
%FSLAX25Y25*%
%MOIN*%
G70*
G01*
G75*
%ADD14C,0.01000*%
%ADD66C,0.00600*%
%ADD69C,0.06000*%
%ADD82C,0.04000*%
%ADD83C,0.05543*%
%ADD84C,0.18900*%
%ADD86C,0.06488*%
%ADD87C,0.06331*%
%ADD88C,0.06528*%
%ADD89C,0.07118*%
G04:AMPARAMS|DCode=90|XSize=60mil|YSize=60mil|CornerRadius=0mil|HoleSize=0mil|Usage=FLASHONLY|Rotation=0.000|XOffset=0mil|YOffset=0mil|HoleType=Round|Shape=Relief|Width=6mil|Gap=6mil|Entries=4|*
%AMTHD90*
7,0,0,0.06000,0.04800,0.00600,45*
%
%ADD90THD90*%
%ADD92C,0.04756*%
%ADD93C,0.04598*%
%ADD94C,0.05740*%
G04:AMPARAMS|DCode=96|XSize=65.28mil|YSize=65.28mil|CornerRadius=0mil|HoleSize=0mil|Usage=FLASHONLY|Rotation=0.000|XOffset=0mil|YOffset=0mil|HoleType=Round|Shape=Relief|Width=6mil|Gap=6mil|Entries=4|*
%AMTHD96*
7,0,0,0.06528,0.05328,0.00600,45*
%
%ADD96THD96*%
G04:AMPARAMS|DCode=97|XSize=32mil|YSize=32mil|CornerRadius=0mil|HoleSize=0mil|Usage=FLASHONLY|Rotation=0.000|XOffset=0mil|YOffset=0mil|HoleType=Round|Shape=Relief|Width=6mil|Gap=6mil|Entries=4|*
%AMTHD97*
7,0,0,0.03200,0.02000,0.00600,45*
%
%ADD97THD97*%
%ADD98C,0.03200*%
G04:AMPARAMS|DCode=99|XSize=48mil|YSize=48mil|CornerRadius=0mil|HoleSize=0mil|Usage=FLASHONLY|Rotation=0.000|XOffset=0mil|YOffset=0mil|HoleType=Round|Shape=Relief|Width=6mil|Gap=6mil|Entries=4|*
%AMTHD99*
7,0,0,0.04800,0.03600,0.00600,45*
%
%ADD99THD99*%
%ADD100C,0.04800*%
G04:AMPARAMS|DCode=101|XSize=55.433mil|YSize=55.433mil|CornerRadius=0mil|HoleSize=0mil|Usage=FLASHONLY|Rotation=0.000|XOffset=0mil|YOffset=0mil|HoleType=Round|Shape=Relief|Width=6mil|Gap=6mil|Entries=4|*
%AMTHD101*
7,0,0,0.05543,0.04343,0.00600,45*
%
%ADD101THD101*%
G04:AMPARAMS|DCode=102|XSize=71.18mil|YSize=71.18mil|CornerRadius=0mil|HoleSize=0mil|Usage=FLASHONLY|Rotation=0.000|XOffset=0mil|YOffset=0mil|HoleType=Round|Shape=Relief|Width=6mil|Gap=6mil|Entries=4|*
%AMTHD102*
7,0,0,0.07118,0.05918,0.00600,45*
%
%ADD102THD102*%
D14*
X337500Y133500D02*
X337337Y134474D01*
X336867Y135343D01*
X336141Y136012D01*
X335237Y136408D01*
X334252Y136490D01*
X333295Y136247D01*
X332468Y135707D01*
X331862Y134928D01*
X331541Y133994D01*
Y133006D01*
X331862Y132072D01*
X332468Y131293D01*
X333295Y130753D01*
X334252Y130510D01*
X335237Y130592D01*
X336141Y130989D01*
X336867Y131657D01*
X337337Y132526D01*
X337500Y133500D01*
X264750Y184917D02*
X264622Y185888D01*
X264247Y186792D01*
X263651Y187569D01*
X262875Y188164D01*
X261970Y188539D01*
X261000Y188667D01*
X260030Y188539D01*
X259125Y188164D01*
X258349Y187569D01*
X257753Y186792D01*
X257378Y185888D01*
X257250Y184917D01*
X257378Y183947D01*
X257753Y183043D01*
X258349Y182266D01*
X259125Y181670D01*
X260030Y181295D01*
X261000Y181168D01*
X261970Y181295D01*
X262875Y181670D01*
X263651Y182266D01*
X264247Y183043D01*
X264622Y183947D01*
X264750Y184917D01*
X206052Y267484D02*
X205817Y268438D01*
X205166Y269173D01*
X204247Y269521D01*
X203272Y269403D01*
X202464Y268845D01*
X202008Y267975D01*
Y266993D01*
X202464Y266124D01*
X203272Y265566D01*
X204247Y265447D01*
X205166Y265796D01*
X205817Y266531D01*
X206052Y267484D01*
X179272Y285000D02*
X179047Y285986D01*
X178417Y286776D01*
X177506Y287215D01*
X176494D01*
X175583Y286776D01*
X174953Y285986D01*
X174728Y285000D01*
X174953Y284014D01*
X175583Y283224D01*
X176494Y282785D01*
X177506D01*
X178417Y283224D01*
X179047Y284014D01*
X179272Y285000D01*
X231499Y201755D02*
X227500D01*
Y198756D01*
X229499D01*
X227500D01*
Y195757D01*
X233498D02*
X235497D01*
X234498D01*
Y199756D01*
X233498D01*
X238496Y195757D02*
X240496D01*
X239496D01*
Y201755D01*
X238496D01*
X244495Y200756D02*
Y199756D01*
X243495D01*
X245494D01*
X244495D01*
Y196757D01*
X245494Y195757D01*
X251492D02*
X249493D01*
X248493Y196757D01*
Y198756D01*
X249493Y199756D01*
X251492D01*
X252492Y198756D01*
Y197757D01*
X248493D01*
X254491Y199756D02*
Y195757D01*
Y197757D01*
X255491Y198756D01*
X256491Y199756D01*
X257490D01*
X227500Y192158D02*
X229499D01*
X228500D01*
Y186160D01*
X227500D01*
X229499D01*
X232498D02*
Y190158D01*
X235497D01*
X236497Y189159D01*
Y186160D01*
X329499Y126498D02*
X328499Y127498D01*
X326500D01*
X325500Y126498D01*
Y122500D01*
X326500Y121500D01*
X328499D01*
X329499Y122500D01*
Y124499D01*
X327499D01*
X331498Y121500D02*
Y125499D01*
X334497D01*
X335497Y124499D01*
Y121500D01*
X341495Y127498D02*
Y121500D01*
X338496D01*
X337496Y122500D01*
Y124499D01*
X338496Y125499D01*
X341495D01*
D66*
X426625Y357000D02*
Y408198D01*
Y471066D02*
Y502500D01*
Y408198D02*
Y471066D01*
X180000Y357000D02*
X426625D01*
X174665Y362335D02*
X180000Y357000D01*
X174665Y362335D02*
Y393169D01*
X170335Y397500D02*
X174665Y393169D01*
X97500Y397500D02*
X170335D01*
D69*
X367949Y383000D02*
D03*
X377949D02*
D03*
X367949Y393000D02*
D03*
X377949D02*
D03*
X367949Y403000D02*
D03*
X377949D02*
D03*
X367949Y413000D02*
D03*
X377949D02*
D03*
X367949Y423000D02*
D03*
X377949D02*
D03*
X367949Y433000D02*
D03*
X377949D02*
D03*
X367949Y443000D02*
D03*
X377949D02*
D03*
X367949Y453000D02*
D03*
X377949D02*
D03*
X367949Y463000D02*
D03*
X377949D02*
D03*
D82*
X426625Y100000D02*
Y499500D01*
X100000Y100000D02*
X426625D01*
X100000Y499500D02*
X415000D01*
X426625D01*
X100000Y100000D02*
Y499500D01*
D83*
X166500Y429953D02*
D03*
D84*
X409500Y478500D02*
D03*
X114000Y114000D02*
D03*
X409500Y112500D02*
D03*
X114000Y478500D02*
D03*
D86*
X123657Y432000D02*
D03*
X143343D02*
D03*
Y451686D02*
D03*
X123657D02*
D03*
D87*
X304322Y311510D02*
D03*
X279402Y202240D02*
D03*
X280500Y248669D02*
D03*
X355500Y251643D02*
D03*
X224434Y221000D02*
D03*
X378224Y233179D02*
D03*
D88*
X277186Y354995D02*
D03*
Y364995D02*
D03*
Y374995D02*
D03*
X179252Y223610D02*
D03*
X189252D02*
D03*
X199252D02*
D03*
X297500Y465665D02*
D03*
X307500D02*
D03*
X317500D02*
D03*
X305000Y445388D02*
D03*
X315000D02*
D03*
X295368Y482205D02*
D03*
X285368D02*
D03*
D89*
X324500Y310643D02*
D03*
X334500D02*
D03*
X272000Y184917D02*
D03*
X282000D02*
D03*
X167925Y276000D02*
D03*
X193000Y275335D02*
D03*
D90*
X367949Y373000D02*
D03*
X377949D02*
D03*
D92*
X345225Y139500D02*
D03*
X355225D02*
D03*
D93*
X220642Y477705D02*
D03*
X239854D02*
D03*
D94*
X139500Y221870D02*
D03*
Y371476D02*
D03*
D96*
X325000Y445388D02*
D03*
X305368Y482205D02*
D03*
D97*
X241919Y429807D02*
D03*
X200072Y427307D02*
D03*
X304902Y231538D02*
D03*
X201147Y348761D02*
D03*
X199422Y400040D02*
D03*
X181890Y385733D02*
D03*
X225268Y375268D02*
D03*
X202695Y330829D02*
D03*
X345225Y320351D02*
D03*
D98*
X267266Y455820D02*
D03*
X242178Y402465D02*
D03*
X202698Y395631D02*
D03*
X199233Y431671D02*
D03*
X225000Y450843D02*
D03*
X228516Y239800D02*
D03*
X307818Y222868D02*
D03*
X300678Y232595D02*
D03*
X211360Y447194D02*
D03*
X217666Y446765D02*
D03*
X365129Y318234D02*
D03*
X316949Y283233D02*
D03*
X317178Y276999D02*
D03*
X203278Y241727D02*
D03*
X287627Y233672D02*
D03*
X258678Y232294D02*
D03*
X260178Y218709D02*
D03*
X217078Y304595D02*
D03*
X227083Y322695D02*
D03*
X191793Y336095D02*
D03*
X196882Y348095D02*
D03*
X192678Y444465D02*
D03*
X241934Y277247D02*
D03*
X299843Y272129D02*
D03*
X269662Y285384D02*
D03*
X338129Y339234D02*
D03*
X263803Y425206D02*
D03*
X284307Y466699D02*
D03*
X353091Y386706D02*
D03*
X261807Y416206D02*
D03*
X279807Y408706D02*
D03*
X259303Y398206D02*
D03*
X321000Y403000D02*
D03*
X251071Y383000D02*
D03*
X391500Y423000D02*
D03*
X187500Y376500D02*
D03*
X183339Y464568D02*
D03*
X219220Y341091D02*
D03*
X188107Y313823D02*
D03*
X236520Y342323D02*
D03*
X340500Y457500D02*
D03*
X393000Y332043D02*
D03*
X376725Y326963D02*
D03*
X296868Y228914D02*
D03*
X363815Y295266D02*
D03*
X337949Y226199D02*
D03*
X280949Y230577D02*
D03*
X252497Y297629D02*
D03*
X318449Y262443D02*
D03*
X316949Y287504D02*
D03*
X310020Y296651D02*
D03*
X289949Y224135D02*
D03*
X251071Y244198D02*
D03*
X231919Y267000D02*
D03*
X211360Y238500D02*
D03*
X191156D02*
D03*
D99*
X310807Y183047D02*
D03*
D100*
X214366Y189000D02*
D03*
X177000Y169500D02*
D03*
X173587Y157547D02*
D03*
X211500Y165787D02*
D03*
X275874Y174000D02*
D03*
X150000Y163547D02*
D03*
X137693D02*
D03*
D101*
X166500Y419953D02*
D03*
D102*
X177925Y276000D02*
D03*
X203000Y275335D02*
D03*
M02*
