G04*
G04 #@! TF.GenerationSoftware,Altium Limited,Altium Designer,18.1.9 (240)*
G04*
G04 Layer_Color=65535*
%FSLAX25Y25*%
%MOIN*%
G70*
G01*
G75*
%ADD11C,0.00787*%
%ADD62C,0.00600*%
%ADD92C,0.02000*%
%ADD93C,0.00394*%
%ADD94C,0.00197*%
D11*
X389004Y147374D02*
X388992Y148373D01*
X388953Y149371D01*
X388889Y150367D01*
X388799Y151362D01*
X388684Y152353D01*
X388543Y153342D01*
X388376Y154327D01*
X388184Y155307D01*
X387968Y156281D01*
X387726Y157250D01*
X387459Y158213D01*
X387168Y159168D01*
X386852Y160115D01*
X386512Y161054D01*
X386147Y161984D01*
X385759Y162904D01*
X385348Y163813D01*
X384913Y164712D01*
X384455Y165600D01*
X383974Y166475D01*
X383471Y167338D01*
X382946Y168187D01*
X382399Y169023D01*
X381831Y169844D01*
X381242Y170650D01*
X380633Y171441D01*
X380003Y172216D01*
X379353Y172975D01*
X378685Y173716D01*
X377997Y174440D01*
X377291Y175146D01*
X376567Y175834D01*
X375825Y176503D01*
X375067Y177153D01*
X374292Y177782D01*
X373501Y178392D01*
X372694Y178981D01*
X371873Y179549D01*
X371038Y180096D01*
X370188Y180621D01*
X369325Y181124D01*
X368450Y181604D01*
X367563Y182062D01*
X366664Y182497D01*
X365754Y182909D01*
X364834Y183297D01*
X363904Y183661D01*
X362965Y184001D01*
X362018Y184317D01*
X361063Y184609D01*
X360101Y184875D01*
X359132Y185117D01*
X358157Y185334D01*
X357177Y185526D01*
X356192Y185692D01*
X355204Y185833D01*
X354212Y185949D01*
X353217Y186038D01*
X352221Y186103D01*
X351223Y186141D01*
X350224Y186154D01*
X349226Y186141D01*
X348228Y186103D01*
X347232Y186038D01*
X346237Y185949D01*
X345245Y185833D01*
X344257Y185692D01*
X343272Y185526D01*
X342292Y185334D01*
X341317Y185117D01*
X340348Y184875D01*
X339386Y184609D01*
X338431Y184317D01*
X337484Y184001D01*
X336545Y183661D01*
X335615Y183297D01*
X334695Y182909D01*
X333785Y182497D01*
X332886Y182062D01*
X331999Y181604D01*
X331123Y181124D01*
X330261Y180621D01*
X329411Y180096D01*
X328576Y179549D01*
X327754Y178981D01*
X326948Y178392D01*
X326157Y177782D01*
X325382Y177153D01*
X324624Y176503D01*
X323882Y175834D01*
X323158Y175146D01*
X322452Y174440D01*
X321764Y173716D01*
X321096Y172975D01*
X320446Y172216D01*
X319816Y171441D01*
X319207Y170650D01*
X318618Y169844D01*
X318050Y169023D01*
X317503Y168187D01*
X316978Y167338D01*
X316475Y166475D01*
X315994Y165600D01*
X315536Y164712D01*
X315101Y163814D01*
X314690Y162904D01*
X314302Y161984D01*
X313937Y161054D01*
X313597Y160115D01*
X313281Y159168D01*
X312990Y158213D01*
X312723Y157250D01*
X312481Y156281D01*
X312264Y155307D01*
X312073Y154327D01*
X311907Y153342D01*
X311766Y152354D01*
X311650Y151362D01*
X311560Y150367D01*
X311496Y149371D01*
X311457Y148373D01*
X311444Y147374D01*
X311457Y146376D01*
X311496Y145378D01*
X311560Y144381D01*
X311650Y143387D01*
X311766Y142395D01*
X311906Y141406D01*
X312073Y140422D01*
X312264Y139442D01*
X312481Y138467D01*
X312723Y137498D01*
X312990Y136536D01*
X313281Y135581D01*
X313597Y134633D01*
X313937Y133695D01*
X314302Y132765D01*
X314690Y131845D01*
X315101Y130935D01*
X315536Y130036D01*
X315994Y129149D01*
X316475Y128273D01*
X316978Y127411D01*
X317503Y126561D01*
X318050Y125726D01*
X318618Y124904D01*
X319207Y124098D01*
X319816Y123307D01*
X320446Y122532D01*
X321095Y121774D01*
X321764Y121032D01*
X322452Y120308D01*
X323158Y119602D01*
X323882Y118914D01*
X324624Y118245D01*
X325382Y117596D01*
X326157Y116966D01*
X326948Y116357D01*
X327754Y115768D01*
X328576Y115199D01*
X329411Y114653D01*
X330261Y114128D01*
X331123Y113625D01*
X331998Y113144D01*
X332886Y112686D01*
X333785Y112251D01*
X334695Y111839D01*
X335615Y111451D01*
X336544Y111087D01*
X337483Y110747D01*
X338431Y110431D01*
X339386Y110140D01*
X340348Y109873D01*
X341317Y109631D01*
X342292Y109414D01*
X343272Y109222D01*
X344256Y109056D01*
X345245Y108915D01*
X346237Y108800D01*
X347231Y108710D01*
X348228Y108645D01*
X349226Y108607D01*
X350224Y108594D01*
X351223Y108607D01*
X352220Y108645D01*
X353217Y108710D01*
X354211Y108800D01*
X355203Y108915D01*
X356192Y109056D01*
X357177Y109222D01*
X358157Y109414D01*
X359131Y109631D01*
X360100Y109873D01*
X361063Y110139D01*
X362018Y110431D01*
X362965Y110747D01*
X363904Y111087D01*
X364834Y111451D01*
X365754Y111839D01*
X366664Y112251D01*
X367562Y112686D01*
X368450Y113144D01*
X369325Y113624D01*
X370188Y114127D01*
X371037Y114652D01*
X371873Y115199D01*
X372694Y115767D01*
X373500Y116356D01*
X374291Y116966D01*
X375066Y117595D01*
X375825Y118245D01*
X376566Y118914D01*
X377290Y119601D01*
X377996Y120307D01*
X378684Y121031D01*
X379353Y121773D01*
X380003Y122531D01*
X380632Y123306D01*
X381242Y124097D01*
X381831Y124904D01*
X382399Y125725D01*
X382946Y126560D01*
X383471Y127410D01*
X383974Y128273D01*
X384454Y129148D01*
X384912Y130035D01*
X385347Y130934D01*
X385759Y131844D01*
X386147Y132764D01*
X386511Y133694D01*
X386852Y134633D01*
X387168Y135580D01*
X387459Y136535D01*
X387726Y137497D01*
X387967Y138466D01*
X388184Y139441D01*
X388376Y140421D01*
X388543Y141406D01*
X388683Y142394D01*
X388799Y143386D01*
X388889Y144380D01*
X388953Y145377D01*
X388992Y146375D01*
X389004Y147373D01*
Y147374D01*
X154760Y450843D02*
X154321Y451745D01*
X153843Y452627D01*
X153329Y453488D01*
X152778Y454327D01*
X152192Y455141D01*
X151571Y455929D01*
X150918Y456690D01*
X150233Y457423D01*
X149517Y458126D01*
X148772Y458797D01*
X147998Y459436D01*
X147199Y460042D01*
X146374Y460613D01*
X145525Y461148D01*
X144655Y461647D01*
X143764Y462108D01*
X142854Y462530D01*
X141927Y462913D01*
X140984Y463257D01*
X140028Y463560D01*
X139060Y463822D01*
X138081Y464042D01*
X137094Y464220D01*
X136100Y464356D01*
X135101Y464450D01*
X134099Y464501D01*
X133096Y464509D01*
X132094Y464474D01*
X131094Y464396D01*
X130098Y464276D01*
X129108Y464114D01*
X128126Y463909D01*
X127153Y463663D01*
X126192Y463376D01*
X125244Y463048D01*
X124311Y462679D01*
X123395Y462271D01*
X122496Y461825D01*
X121618Y461340D01*
X120761Y460819D01*
X119927Y460261D01*
X119118Y459668D01*
X118334Y459042D01*
X117578Y458382D01*
X116851Y457691D01*
X116154Y456970D01*
X115489Y456219D01*
X114856Y455441D01*
X114257Y454636D01*
X113692Y453807D01*
X113164Y452954D01*
X112672Y452080D01*
X112219Y451185D01*
X111804Y450272D01*
X111428Y449342D01*
X111092Y448396D01*
X110797Y447438D01*
X110543Y446467D01*
X110330Y445487D01*
X110160Y444498D01*
X110032Y443503D01*
X109946Y442504D01*
X109904Y441502D01*
Y440498D01*
X109946Y439496D01*
X110032Y438497D01*
X110160Y437502D01*
X110330Y436513D01*
X110543Y435533D01*
X110797Y434562D01*
X111092Y433603D01*
X111428Y432658D01*
X111804Y431728D01*
X112219Y430815D01*
X112673Y429920D01*
X113164Y429046D01*
X113692Y428193D01*
X114257Y427364D01*
X114856Y426559D01*
X115489Y425781D01*
X116154Y425030D01*
X116851Y424309D01*
X117578Y423618D01*
X118334Y422958D01*
X119118Y422331D01*
X119927Y421739D01*
X120761Y421181D01*
X121618Y420660D01*
X122496Y420175D01*
X123395Y419729D01*
X124311Y419321D01*
X125244Y418953D01*
X126192Y418624D01*
X127153Y418337D01*
X128126Y418090D01*
X129108Y417886D01*
X130098Y417724D01*
X131094Y417603D01*
X132094Y417526D01*
X133096Y417491D01*
X134099Y417499D01*
X135101Y417550D01*
X136100Y417644D01*
X137094Y417780D01*
X138081Y417958D01*
X139060Y418179D01*
X140028Y418440D01*
X140985Y418743D01*
X141927Y419087D01*
X142854Y419470D01*
X143764Y419893D01*
X144655Y420354D01*
X145526Y420852D01*
X146374Y421387D01*
X147199Y421958D01*
X147999Y422564D01*
X148772Y423203D01*
X149517Y423874D01*
X150233Y424577D01*
X150918Y425310D01*
X151572Y426071D01*
X152192Y426859D01*
X152778Y427673D01*
X153329Y428512D01*
X153843Y429373D01*
X154321Y430255D01*
X154760Y431157D01*
X245012Y467862D02*
X245995Y468071D01*
X246952Y468378D01*
X247873Y468779D01*
X248749Y469271D01*
X249571Y469849D01*
X250331Y470507D01*
X251021Y471238D01*
X251633Y472034D01*
X252163Y472889D01*
X252603Y473792D01*
X252951Y474735D01*
X253201Y475708D01*
X253353Y476701D01*
X253403Y477705D01*
X253353Y478709D01*
X253201Y479702D01*
X252951Y480676D01*
X252603Y481618D01*
X252163Y482522D01*
X251633Y483376D01*
X251021Y484173D01*
X250331Y484903D01*
X249571Y485561D01*
X248749Y486139D01*
X247873Y486631D01*
X246952Y487033D01*
X245995Y487339D01*
X245012Y487548D01*
X215484D02*
X214500Y487340D01*
X213542Y487034D01*
X212620Y486633D01*
X211743Y486141D01*
X210920Y485564D01*
X210160Y484906D01*
X209470Y484175D01*
X208856Y483378D01*
X208327Y482524D01*
X207885Y481620D01*
X207538Y480677D01*
X207287Y479703D01*
X207135Y478709D01*
X207084Y477705D01*
X207135Y476701D01*
X207287Y475707D01*
X207538Y474733D01*
X207885Y473790D01*
X208327Y472887D01*
X208856Y472032D01*
X209470Y471235D01*
X210160Y470505D01*
X210920Y469847D01*
X211743Y469269D01*
X212620Y468777D01*
X213542Y468376D01*
X214500Y468070D01*
X215484Y467862D01*
X274402Y197496D02*
Y206984D01*
Y197496D02*
X284402D01*
Y206984D01*
X274402D02*
X284402D01*
X275500Y243924D02*
Y253413D01*
Y243924D02*
X285500D01*
Y253413D01*
X275500D02*
X285500D01*
X350500Y246899D02*
Y256387D01*
Y246899D02*
X360500D01*
Y256387D01*
X350500D02*
X360500D01*
X219434Y216256D02*
Y225744D01*
Y216256D02*
X229434D01*
Y225744D01*
X219434D02*
X229434D01*
X373224Y228435D02*
Y237923D01*
Y228435D02*
X383224D01*
Y237923D01*
X373224D02*
X383224D01*
X154760Y431157D02*
Y450843D01*
X215484Y487548D02*
X245012D01*
X215484Y467862D02*
X245012D01*
D62*
X211400Y355400D02*
Y361800D01*
X210400D02*
X211400D01*
X208400D02*
X210400D01*
X203000D02*
X208400D01*
X200000Y359800D02*
Y361800D01*
Y357400D02*
Y359800D01*
Y355400D02*
Y357400D01*
Y355400D02*
X201000D01*
X203000D01*
X204700D01*
X206700D01*
X208400D01*
X201000Y353100D02*
Y355400D01*
Y353100D02*
X203000D01*
Y355400D01*
X204700Y353100D02*
Y355400D01*
Y353100D02*
X206700D01*
Y355400D01*
X210400D02*
X211400D01*
X208400D02*
X210400D01*
X208400Y353100D02*
Y355400D01*
Y353100D02*
X210400D01*
Y355400D01*
Y361800D02*
Y364100D01*
X208400D02*
X210400D01*
X208400Y361800D02*
Y364100D01*
X200000Y361800D02*
X201000D01*
X203000D01*
Y364100D01*
X201000D02*
X203000D01*
X201000Y361800D02*
Y364100D01*
X363249Y367000D02*
Y469000D01*
Y367000D02*
X382749D01*
Y469000D01*
X363249D02*
X382749D01*
X359215Y336729D02*
X366015D01*
X359215Y335529D02*
Y336729D01*
Y333529D02*
Y335529D01*
Y328129D02*
Y333529D01*
Y324929D02*
X361415D01*
X363815D01*
X366015D01*
Y326129D01*
Y328129D01*
Y329829D01*
Y331829D01*
Y333529D01*
Y326129D02*
X368515D01*
Y328129D01*
X366015D02*
X368515D01*
X366015Y329829D02*
X368515D01*
Y331829D01*
X366015D02*
X368515D01*
X366015Y335529D02*
Y336729D01*
Y333529D02*
Y335529D01*
Y333529D02*
X368515D01*
Y335529D01*
X366015D02*
X368515D01*
X356715D02*
X359215D01*
X356715Y333529D02*
Y335529D01*
Y333529D02*
X359215D01*
Y324929D02*
Y326129D01*
Y328129D01*
X356715D02*
X359215D01*
X356715Y326129D02*
Y328129D01*
Y326129D02*
X359215D01*
X212700Y250056D02*
Y256456D01*
X211700D02*
X212700D01*
X209700D02*
X211700D01*
X204300D02*
X209700D01*
X201300Y254456D02*
Y256456D01*
Y252056D02*
Y254456D01*
Y250056D02*
Y252056D01*
Y250056D02*
X202300D01*
X204300D01*
X206000D01*
X208000D01*
X209700D01*
X202300Y247756D02*
Y250056D01*
Y247756D02*
X204300D01*
Y250056D01*
X206000Y247756D02*
Y250056D01*
Y247756D02*
X208000D01*
Y250056D01*
X211700D02*
X212700D01*
X209700D02*
X211700D01*
X209700Y247756D02*
Y250056D01*
Y247756D02*
X211700D01*
Y250056D01*
Y256456D02*
Y258756D01*
X209700D02*
X211700D01*
X209700Y256456D02*
Y258756D01*
X201300Y256456D02*
X202300D01*
X204300D01*
Y258756D01*
X202300D02*
X204300D01*
X202300Y256456D02*
Y258756D01*
X212005Y318200D02*
Y320500D01*
X214005D01*
Y318200D02*
Y320500D01*
X212005Y318200D02*
X214005D01*
X211005D02*
X212005D01*
X219405D02*
Y320500D01*
X221405D01*
Y318200D02*
Y320500D01*
Y309500D02*
Y311800D01*
X219405Y309500D02*
X221405D01*
X219405D02*
Y311800D01*
X221405D01*
X222405D01*
X217705Y309500D02*
Y311800D01*
X215705Y309500D02*
X217705D01*
X215705D02*
Y311800D01*
X214005Y309500D02*
Y311800D01*
X212005Y309500D02*
X214005D01*
X212005D02*
Y311800D01*
X217705D02*
X219405D01*
X215705D02*
X217705D01*
X214005D02*
X215705D01*
X212005D02*
X214005D01*
X211005D02*
X212005D01*
X211005D02*
Y313800D01*
Y316200D01*
Y318200D01*
X214005D02*
X219405D01*
X221405D01*
X222405D01*
Y311800D02*
Y318200D01*
D92*
X358449Y374000D02*
X357568Y373713D01*
X357023Y372964D01*
Y372037D01*
X357568Y371287D01*
X358449Y371000D01*
X359331Y371287D01*
X359876Y372037D01*
Y372964D01*
X359331Y373713D01*
X358449Y374000D01*
D93*
X266705Y190212D02*
X287295D01*
X266705Y179622D02*
Y190212D01*
Y179622D02*
X287295D01*
Y190212D01*
X271611Y362705D02*
Y383295D01*
X261021D02*
X271611D01*
X261021Y362705D02*
Y383295D01*
Y362705D02*
X271611D01*
X378835Y341602D02*
X402457D01*
X378835D02*
Y354398D01*
X402457D01*
Y341602D02*
Y354398D01*
X397929Y341602D02*
X402457Y346130D01*
X397551Y287888D02*
Y311510D01*
X410347D01*
Y287888D02*
Y311510D01*
X397551Y287888D02*
X410347D01*
X397551Y292416D02*
X402079Y287888D01*
X173661Y228905D02*
X204843D01*
Y218315D02*
Y228905D01*
X173661Y218315D02*
X204843D01*
X173661D02*
Y228905D01*
X181764Y418350D02*
X184914D01*
Y424650D01*
X181764D02*
X184914D01*
X181764Y418350D02*
Y424650D01*
X293606Y244096D02*
X296166Y241537D01*
X293606D02*
X313292D01*
Y258859D01*
X293606D02*
X313292D01*
X293606Y241537D02*
Y258859D01*
X128673Y265177D02*
Y328169D01*
X150327D01*
Y265177D02*
Y328169D01*
X128673Y265177D02*
X150327D01*
X139500Y221870D02*
Y265177D01*
Y328169D02*
Y371476D01*
X162630Y270705D02*
Y281295D01*
X183220D01*
Y270705D02*
Y281295D01*
X162630Y270705D02*
X183220D01*
X187705Y270040D02*
Y280630D01*
X208295D01*
Y270040D02*
Y280630D01*
X187705Y270040D02*
X208295D01*
X355189Y270437D02*
X378811D01*
X355189D02*
Y283233D01*
X378811D01*
Y270437D02*
Y283233D01*
X374283Y270437D02*
X378811Y274965D01*
X181575Y200626D02*
X202425D01*
Y186374D02*
Y200626D01*
X181575Y186374D02*
X202425D01*
X181575D02*
Y200626D01*
Y196394D02*
X185811Y200626D01*
X258579Y137421D02*
Y177579D01*
X218421Y137421D02*
X258579D01*
X218421D02*
Y177579D01*
X258579D01*
X291909Y470960D02*
X323091D01*
Y460370D02*
Y470960D01*
X291909Y460370D02*
X323091D01*
X291909D02*
Y470960D01*
X330591Y440093D02*
Y450683D01*
X299409D02*
X330591D01*
X299409Y440093D02*
Y450683D01*
Y440093D02*
X330591D01*
X279777Y476910D02*
Y487500D01*
Y476910D02*
X310959D01*
Y487500D01*
X279777D02*
X310959D01*
D94*
X265720Y191197D02*
X288280D01*
X265720Y178637D02*
Y191197D01*
Y178637D02*
X288280D01*
Y191197D01*
X272596Y361720D02*
Y384280D01*
X260036D02*
X272596D01*
X260036Y361720D02*
Y384280D01*
Y361720D02*
X272596D01*
X375489Y340323D02*
X405803D01*
X375489D02*
Y355677D01*
X405803D01*
Y340323D02*
Y355677D01*
X396272Y284542D02*
Y314856D01*
X411626D01*
Y284542D02*
Y314856D01*
X396272Y284542D02*
X411626D01*
X172677Y229890D02*
X205827D01*
Y217330D02*
Y229890D01*
X172677Y217330D02*
X205827D01*
X172677D02*
Y229890D01*
X180386Y415594D02*
X186292D01*
Y427406D01*
X180386D02*
X186292D01*
X180386Y415594D02*
Y427406D01*
X292425Y234746D02*
X314473D01*
Y265651D01*
X292425D02*
X314473D01*
X292425Y234746D02*
Y265651D01*
X200720Y493453D02*
X259776D01*
Y461957D02*
Y493453D01*
X200720Y461957D02*
X259776D01*
X200720D02*
Y493453D01*
X127295Y218083D02*
Y375268D01*
X151705D01*
Y218083D02*
Y375268D01*
X127295Y218083D02*
X151705D01*
X161645Y269720D02*
Y282280D01*
X184205D01*
Y269720D02*
Y282280D01*
X161645Y269720D02*
X184205D01*
X186720Y269055D02*
Y281615D01*
X209280D01*
Y269055D02*
Y281615D01*
X186720Y269055D02*
X209280D01*
X351843Y269158D02*
X382157D01*
X351843D02*
Y284512D01*
X382157D01*
Y269158D02*
Y284512D01*
X177925Y202240D02*
X206075D01*
Y184760D02*
Y202240D01*
X177925Y184760D02*
X206075D01*
X177925D02*
Y202240D01*
X260154Y133878D02*
Y181122D01*
X216846Y133878D02*
X260154D01*
X216846D02*
Y181122D01*
X260154D01*
X290925Y471945D02*
X324075D01*
Y459385D02*
Y471945D01*
X290925Y459385D02*
X324075D01*
X290925D02*
Y471945D01*
X331575Y439108D02*
Y451668D01*
X298425D02*
X331575D01*
X298425Y439108D02*
Y451668D01*
Y439108D02*
X331575D01*
X278793Y475925D02*
Y488485D01*
Y475925D02*
X311943D01*
Y488485D01*
X278793D02*
X311943D01*
M02*
