G04*
G04 #@! TF.GenerationSoftware,Altium Limited,Altium Designer,18.1.9 (240)*
G04*
G04 Layer_Physical_Order=4*
G04 Layer_Color=16711680*
%FSLAX25Y25*%
%MOIN*%
G70*
G01*
G75*
%ADD14C,0.01000*%
%ADD65C,0.00800*%
%ADD66C,0.00600*%
%ADD67C,0.05906*%
%ADD68R,0.05906X0.05906*%
%ADD69C,0.06000*%
%ADD70C,0.06693*%
%ADD71C,0.06496*%
%ADD72C,0.06791*%
%ADD73R,0.06575X0.06575*%
%ADD74C,0.07677*%
%ADD75R,0.07433X0.07433*%
%ADD76R,0.06575X0.06575*%
%ADD77C,0.04724*%
%ADD78C,0.04331*%
%ADD79C,0.05610*%
%ADD80C,0.05000*%
%ADD81C,0.02500*%
D14*
X342017Y418350D02*
X341898Y419323D01*
X341551Y420240D01*
X340994Y421047D01*
X340260Y421697D01*
X339391Y422153D01*
X338439Y422388D01*
X337459D01*
X336507Y422153D01*
X335639Y421697D01*
X334905Y421047D01*
X334348Y420240D01*
X334000Y419323D01*
X333882Y418350D01*
X334000Y417377D01*
X334348Y416460D01*
X334905Y415653D01*
X335639Y415003D01*
X336507Y414547D01*
X337459Y414312D01*
X338439Y414312D01*
X339391Y414547D01*
X340260Y415003D01*
X340994Y415653D01*
X341551Y416460D01*
X341898Y417377D01*
X342017Y418350D01*
X316949Y277227D02*
X317178Y276999D01*
X316949Y277227D02*
Y283233D01*
X200051Y238500D02*
X203278Y241727D01*
X191156Y238500D02*
X200051D01*
X217078Y304595D02*
X227083Y314600D01*
Y322695D01*
X285368Y482205D02*
X297620Y469953D01*
X301202D01*
X303104Y468050D01*
Y463845D02*
Y468050D01*
Y463845D02*
X315000Y451949D01*
Y445388D02*
Y451949D01*
X187500Y357478D02*
X196882Y348095D01*
X187500Y357478D02*
Y376500D01*
X191793Y336095D02*
X196882Y341185D01*
Y348095D01*
X183339Y453804D02*
X192678Y444465D01*
X183339Y453804D02*
Y464568D01*
X137693Y163547D02*
X150000D01*
X211500Y165787D02*
X214366Y168654D01*
Y189000D01*
X229366Y174000D01*
X275874D01*
X363815Y295266D02*
X376725Y308175D01*
Y326963D01*
X381804Y332043D01*
X393000D01*
D65*
X211360Y412521D02*
Y447194D01*
Y412521D02*
X250086Y373795D01*
X258386D01*
X277186Y354995D01*
X316949Y287504D02*
X324500Y295055D01*
Y310643D01*
X334500D02*
X338129Y314272D01*
Y339234D01*
D66*
X225000Y446627D02*
Y450843D01*
Y446627D02*
X227605Y444023D01*
X252497Y245624D02*
Y297629D01*
X251071Y244198D02*
X252497Y245624D01*
X299601Y233672D02*
X300678Y232595D01*
X296868Y228914D02*
X298331Y227451D01*
X295015Y224135D02*
X298331Y227451D01*
X288872Y220690D02*
X332441D01*
X217666Y407912D02*
Y446765D01*
Y407912D02*
X244745Y380833D01*
X254836Y374995D02*
X277186D01*
X248999Y380833D02*
X254836Y374995D01*
X359233Y318131D02*
X364949D01*
X244745Y380833D02*
X248999D01*
X227605Y431157D02*
Y444023D01*
Y431157D02*
X237262Y421500D01*
X321918D01*
X343418Y443000D01*
X367949D01*
X287627Y233672D02*
X299601D01*
X258678Y232294D02*
X260178Y230794D01*
Y218709D02*
Y230794D01*
X269662Y285384D02*
X295853D01*
X264742D02*
X269662D01*
X316949Y287504D02*
Y292621D01*
X311560Y298010D02*
X316949Y292621D01*
X311560Y298010D02*
X311560D01*
X310869Y298701D02*
X311560Y298010D01*
X309171Y298701D02*
X310869D01*
X295853Y285384D02*
X309171Y298701D01*
X338129Y339234D02*
X359233Y318131D01*
X284307Y445709D02*
Y466699D01*
X263803Y425206D02*
X284307Y445709D01*
X261807Y416206D02*
X318000D01*
X347500Y386706D01*
X353091D01*
X259303Y398206D02*
Y401574D01*
X266435Y408706D01*
X279807D01*
X251071Y383000D02*
X271071Y403000D01*
X321000D01*
X185115Y385733D02*
X199422Y400040D01*
X181890Y385733D02*
X185115D01*
X208020Y313823D02*
X236520Y342323D01*
X188107Y313823D02*
X208020D01*
X251071Y244198D02*
X261882D01*
X275504Y230577D01*
X280949D01*
X252497Y297629D02*
X264742Y285384D01*
X310020Y270872D02*
X318449Y262443D01*
X310020Y270872D02*
Y296651D01*
X332441Y220690D02*
X337949Y226199D01*
X285449Y224113D02*
X288872Y220690D01*
X285449Y224113D02*
Y226077D01*
X280949Y230577D02*
X285449Y226077D01*
X289949Y224135D02*
X295015D01*
X211360Y246441D02*
X231919Y267000D01*
X211360Y238500D02*
Y246441D01*
X173587Y166087D02*
X177000Y169500D01*
X173587Y157547D02*
Y166087D01*
D67*
X166500Y429953D02*
D03*
D68*
Y419953D02*
D03*
D69*
X409500Y478500D02*
D03*
X114000Y114000D02*
D03*
X409500Y112500D02*
D03*
X114000Y478500D02*
D03*
X367949Y373000D02*
D03*
X377949D02*
D03*
X367949Y383000D02*
D03*
X377949D02*
D03*
X367949Y393000D02*
D03*
X377949D02*
D03*
X367949Y403000D02*
D03*
X377949D02*
D03*
X367949Y413000D02*
D03*
X377949D02*
D03*
X367949Y423000D02*
D03*
X377949D02*
D03*
X367949Y433000D02*
D03*
X377949D02*
D03*
X367949Y443000D02*
D03*
X377949D02*
D03*
X367949Y453000D02*
D03*
X377949D02*
D03*
X367949Y463000D02*
D03*
X377949D02*
D03*
D70*
X123657Y432000D02*
D03*
X143343D02*
D03*
Y451686D02*
D03*
X123657D02*
D03*
D71*
X304322Y311510D02*
D03*
X279402Y202240D02*
D03*
X280500Y248669D02*
D03*
X355500Y251643D02*
D03*
X224434Y221000D02*
D03*
X378224Y233179D02*
D03*
D72*
X277186Y354995D02*
D03*
Y364995D02*
D03*
X189252Y223610D02*
D03*
X199252D02*
D03*
X307500Y465665D02*
D03*
X317500D02*
D03*
X305000Y445388D02*
D03*
X315000D02*
D03*
X305368Y482205D02*
D03*
X295368D02*
D03*
D73*
X277186Y374995D02*
D03*
D74*
X324500Y310643D02*
D03*
X272000Y184917D02*
D03*
X177925Y276000D02*
D03*
X203000Y275335D02*
D03*
D75*
X334500Y310643D02*
D03*
X282000Y184917D02*
D03*
X167925Y276000D02*
D03*
X193000Y275335D02*
D03*
D76*
X179252Y223610D02*
D03*
X297500Y465665D02*
D03*
X325000Y445388D02*
D03*
X285368Y482205D02*
D03*
D77*
X345288Y139126D02*
D03*
X355288D02*
D03*
D78*
X220642Y477705D02*
D03*
X239854D02*
D03*
D79*
X139500Y221870D02*
D03*
Y371476D02*
D03*
D80*
X311126Y180094D02*
D03*
X214366Y189000D02*
D03*
X177000Y169500D02*
D03*
X173587Y157547D02*
D03*
X211500Y165787D02*
D03*
X275874Y174000D02*
D03*
X150000Y163547D02*
D03*
X137693D02*
D03*
D81*
X303721Y245624D02*
D03*
X298922Y225000D02*
D03*
X267266Y455820D02*
D03*
X242178Y402465D02*
D03*
X241919Y429807D02*
D03*
X200072Y427307D02*
D03*
X225000Y450843D02*
D03*
X228516Y239800D02*
D03*
X300678Y232595D02*
D03*
X211360Y447194D02*
D03*
X217666Y446765D02*
D03*
X365129Y318234D02*
D03*
X316949Y283233D02*
D03*
X317178Y276999D02*
D03*
X203278Y241727D02*
D03*
X201147Y348761D02*
D03*
X287627Y233672D02*
D03*
X258678Y232294D02*
D03*
X260178Y218709D02*
D03*
X217078Y304595D02*
D03*
X227083Y322695D02*
D03*
X191793Y336095D02*
D03*
X196882Y348095D02*
D03*
X192678Y444465D02*
D03*
X299843Y272129D02*
D03*
X269662Y285384D02*
D03*
X338129Y339234D02*
D03*
X263803Y425206D02*
D03*
X284307Y466699D02*
D03*
X353091Y386706D02*
D03*
X261807Y416206D02*
D03*
X279807Y408706D02*
D03*
X259303Y398206D02*
D03*
X321000Y403000D02*
D03*
X251071Y383000D02*
D03*
X391500Y423000D02*
D03*
X199422Y400040D02*
D03*
X181890Y385733D02*
D03*
X225268Y375268D02*
D03*
X187500Y376500D02*
D03*
X183339Y464568D02*
D03*
X188107Y313823D02*
D03*
X236520Y342323D02*
D03*
X340500Y457500D02*
D03*
X202695Y330829D02*
D03*
X393000Y332043D02*
D03*
X376725Y326963D02*
D03*
X345225Y320351D02*
D03*
X296868Y228914D02*
D03*
X363815Y295266D02*
D03*
X337949Y226199D02*
D03*
X280949Y230577D02*
D03*
X252497Y297629D02*
D03*
X318449Y262443D02*
D03*
X316949Y287504D02*
D03*
X310020Y296651D02*
D03*
X289949Y224135D02*
D03*
X251071Y244198D02*
D03*
X231919Y267000D02*
D03*
X211360Y238500D02*
D03*
X191156D02*
D03*
M02*
