G04*
G04 #@! TF.GenerationSoftware,Altium Limited,Altium Designer,18.1.9 (240)*
G04*
G04 Layer_Physical_Order=2*
G04 Layer_Color=32768*
%FSLAX25Y25*%
%MOIN*%
G70*
G01*
G75*
%ADD69C,0.06000*%
%ADD82C,0.04000*%
%ADD83C,0.05543*%
%ADD84C,0.18900*%
G04:AMPARAMS|DCode=85|XSize=64.88mil|YSize=64.88mil|CornerRadius=0mil|HoleSize=0mil|Usage=FLASHONLY|Rotation=0.000|XOffset=0mil|YOffset=0mil|HoleType=Round|Shape=Relief|Width=6mil|Gap=6mil|Entries=4|*
%AMTHD85*
7,0,0,0.06488,0.05288,0.00600,45*
%
%ADD85THD85*%
%ADD86C,0.06488*%
%ADD87C,0.06331*%
%ADD88C,0.06528*%
%ADD89C,0.07118*%
G04:AMPARAMS|DCode=90|XSize=60mil|YSize=60mil|CornerRadius=0mil|HoleSize=0mil|Usage=FLASHONLY|Rotation=0.000|XOffset=0mil|YOffset=0mil|HoleType=Round|Shape=Relief|Width=6mil|Gap=6mil|Entries=4|*
%AMTHD90*
7,0,0,0.06000,0.04800,0.00600,45*
%
%ADD90THD90*%
G04:AMPARAMS|DCode=91|XSize=47.56mil|YSize=47.56mil|CornerRadius=0mil|HoleSize=0mil|Usage=FLASHONLY|Rotation=0.000|XOffset=0mil|YOffset=0mil|HoleType=Round|Shape=Relief|Width=6mil|Gap=6mil|Entries=4|*
%AMTHD91*
7,0,0,0.04756,0.03556,0.00600,45*
%
%ADD91THD91*%
%ADD92C,0.04756*%
%ADD93C,0.04598*%
%ADD94C,0.05740*%
G04:AMPARAMS|DCode=95|XSize=57.4mil|YSize=57.4mil|CornerRadius=0mil|HoleSize=0mil|Usage=FLASHONLY|Rotation=0.000|XOffset=0mil|YOffset=0mil|HoleType=Round|Shape=Relief|Width=6mil|Gap=6mil|Entries=4|*
%AMTHD95*
7,0,0,0.05740,0.04540,0.00600,45*
%
%ADD95THD95*%
G04:AMPARAMS|DCode=96|XSize=65.28mil|YSize=65.28mil|CornerRadius=0mil|HoleSize=0mil|Usage=FLASHONLY|Rotation=0.000|XOffset=0mil|YOffset=0mil|HoleType=Round|Shape=Relief|Width=6mil|Gap=6mil|Entries=4|*
%AMTHD96*
7,0,0,0.06528,0.05328,0.00600,45*
%
%ADD96THD96*%
G04:AMPARAMS|DCode=97|XSize=32mil|YSize=32mil|CornerRadius=0mil|HoleSize=0mil|Usage=FLASHONLY|Rotation=0.000|XOffset=0mil|YOffset=0mil|HoleType=Round|Shape=Relief|Width=6mil|Gap=6mil|Entries=4|*
%AMTHD97*
7,0,0,0.03200,0.02000,0.00600,45*
%
%ADD97THD97*%
%ADD98C,0.03200*%
G04:AMPARAMS|DCode=99|XSize=48mil|YSize=48mil|CornerRadius=0mil|HoleSize=0mil|Usage=FLASHONLY|Rotation=0.000|XOffset=0mil|YOffset=0mil|HoleType=Round|Shape=Relief|Width=6mil|Gap=6mil|Entries=4|*
%AMTHD99*
7,0,0,0.04800,0.03600,0.00600,45*
%
%ADD99THD99*%
%ADD100C,0.04800*%
D69*
X367949Y373000D02*
D03*
X377949D02*
D03*
X367949Y383000D02*
D03*
Y393000D02*
D03*
Y403000D02*
D03*
Y413000D02*
D03*
Y423000D02*
D03*
Y433000D02*
D03*
Y443000D02*
D03*
Y453000D02*
D03*
Y463000D02*
D03*
D82*
X426625Y100000D02*
Y499500D01*
X100000Y100000D02*
X426625D01*
X100000Y499500D02*
X415000D01*
X426625D01*
X100000Y100000D02*
Y499500D01*
D83*
X166500Y429953D02*
D03*
Y419953D02*
D03*
D84*
X409500Y478500D02*
D03*
X114000Y114000D02*
D03*
X409500Y112500D02*
D03*
X114000Y478500D02*
D03*
D85*
X123657Y432000D02*
D03*
Y451686D02*
D03*
D86*
X143343Y432000D02*
D03*
Y451686D02*
D03*
D87*
X304322Y311510D02*
D03*
X279402Y202240D02*
D03*
X280500Y248669D02*
D03*
X355500Y251643D02*
D03*
X224434Y221000D02*
D03*
X378224Y233179D02*
D03*
D88*
X277186Y354995D02*
D03*
Y364995D02*
D03*
Y374995D02*
D03*
X179252Y223610D02*
D03*
X189252D02*
D03*
X199252D02*
D03*
X297500Y465665D02*
D03*
X307500D02*
D03*
X317500D02*
D03*
X305000Y445388D02*
D03*
X325000D02*
D03*
X305368Y482205D02*
D03*
X295368D02*
D03*
D89*
X324500Y310643D02*
D03*
X334500D02*
D03*
X272000Y184917D02*
D03*
X282000D02*
D03*
X167925Y276000D02*
D03*
X177925D02*
D03*
X193000Y275335D02*
D03*
X203000D02*
D03*
D90*
X377949Y383000D02*
D03*
Y393000D02*
D03*
Y403000D02*
D03*
Y413000D02*
D03*
Y423000D02*
D03*
Y433000D02*
D03*
Y443000D02*
D03*
Y453000D02*
D03*
Y463000D02*
D03*
D91*
X345225Y139500D02*
D03*
D92*
X355225D02*
D03*
D93*
X220642Y477705D02*
D03*
X239854D02*
D03*
D94*
X139500Y221870D02*
D03*
D95*
Y371476D02*
D03*
D96*
X315000Y445388D02*
D03*
X285368Y482205D02*
D03*
D97*
X267266Y455820D02*
D03*
X242178Y402465D02*
D03*
X202698Y395631D02*
D03*
X199233Y431671D02*
D03*
X228516Y239800D02*
D03*
X307818Y222868D02*
D03*
X203278Y241727D02*
D03*
X217078Y304595D02*
D03*
X227083Y322695D02*
D03*
X191793Y336095D02*
D03*
X196882Y348095D02*
D03*
X192678Y444465D02*
D03*
X241934Y277247D02*
D03*
X299843Y272129D02*
D03*
X391500Y423000D02*
D03*
X187500Y376500D02*
D03*
X183339Y464568D02*
D03*
X219220Y341091D02*
D03*
X340500Y457500D02*
D03*
X393000Y332043D02*
D03*
X376725Y326963D02*
D03*
X363815Y295266D02*
D03*
X191156Y238500D02*
D03*
D98*
X241919Y429807D02*
D03*
X200072Y427307D02*
D03*
X225000Y450843D02*
D03*
X304902Y231538D02*
D03*
X300678Y232595D02*
D03*
X211360Y447194D02*
D03*
X217666Y446765D02*
D03*
X365129Y318234D02*
D03*
X316949Y283233D02*
D03*
X317178Y276999D02*
D03*
X201147Y348761D02*
D03*
X287627Y233672D02*
D03*
X258678Y232294D02*
D03*
X260178Y218709D02*
D03*
X269662Y285384D02*
D03*
X338129Y339234D02*
D03*
X263803Y425206D02*
D03*
X284307Y466699D02*
D03*
X353091Y386706D02*
D03*
X261807Y416206D02*
D03*
X279807Y408706D02*
D03*
X259303Y398206D02*
D03*
X321000Y403000D02*
D03*
X251071Y383000D02*
D03*
X199422Y400040D02*
D03*
X181890Y385733D02*
D03*
X225268Y375268D02*
D03*
X188107Y313823D02*
D03*
X236520Y342323D02*
D03*
X202695Y330829D02*
D03*
X345225Y320351D02*
D03*
X296868Y228914D02*
D03*
X337949Y226199D02*
D03*
X280949Y230577D02*
D03*
X252497Y297629D02*
D03*
X318449Y262443D02*
D03*
X316949Y287504D02*
D03*
X310020Y296651D02*
D03*
X289949Y224135D02*
D03*
X251071Y244198D02*
D03*
X231919Y267000D02*
D03*
X211360Y238500D02*
D03*
D99*
X214366Y189000D02*
D03*
X211500Y165787D02*
D03*
X275874Y174000D02*
D03*
X150000Y163547D02*
D03*
X137693D02*
D03*
D100*
X177000Y169500D02*
D03*
X173587Y157547D02*
D03*
X310807Y183047D02*
D03*
M02*
