M48
;Layer_Color=9474304
;FILE_FORMAT=2:5
INCH,TZ
;TYPE=PLATED
T1F00S00C0.01200
T2F00S00C0.02598
T3F00S00C0.02756
T4F00S00C0.02800
T5F00S00C0.03543
T6F00S00C0.03740
T7F00S00C0.04000
T8F00S00C0.04331
T9F00S00C0.04488
T10F00S00C0.04528
T11F00S00C0.05118
T12F00S00C0.11600
%
T01
X337949Y226199
X318449Y262443
X317178Y276999
X316949Y283233
Y287504
X363815Y295266
X310020Y296651
X299843Y272129
X303721Y245624
X300678Y232595
X296868Y228914
X298922Y225000
X289949Y224135
X287627Y233672
X280949Y230577
X258678Y232294
X260178Y218709
X251071Y244198
X228516Y239800
X211360Y238500
X203278Y241727
X191156Y238500
X231919Y267000
X252497Y297629
X269662Y285384
X217078Y304595
X227083Y322695
X236520Y342323
X201147Y348761
X196882Y348095
X191793Y336095
X202695Y330829
X188107Y313823
X187500Y376500
X181890Y385733
X199422Y400040
X200072Y427307
X192678Y444465
X211360Y447194
X217666Y446765
X225000Y450843
X241919Y429807
X263803Y425206
X261807Y416206
X259303Y398206
X242178Y402465
X251071Y383000
X225268Y375268
X279807Y408706
X267266Y455820
X284307Y466699
X183339Y464568
X340500Y457500
X321000Y403000
X353091Y386706
X338129Y339234
X345225Y320351
X365129Y318234
X376725Y326963
X393000Y332043
X391500Y423000
T02
X220642Y477705
X239854
T03
X345288Y139126
X355288
T04
X173587Y157547
X177000Y169500
X211500Y165787
X214366Y189000
X275874Y174000
X311126Y180094
X150000Y163547
X137693
T05
X166500Y419953
Y429953
T06
X139500Y221870
Y371476
T07
X367949Y373000
X377949
Y383000
X367949
Y393000
X377949
Y403000
X367949
Y413000
X377949
Y423000
X367949
Y433000
X377949
Y443000
X367949
Y453000
X377949
Y463000
X367949
T08
X355500Y251643
X378224Y233179
X280500Y248669
X279402Y202240
X224434Y221000
X304322Y311510
T09
X123657Y432000
X143343
Y451686
X123657
T10
X179252Y223610
X189252
X199252
X277186Y354995
Y364995
Y374995
X305000Y445388
X307500Y465665
X297500
X317500
X315000Y445388
X325000
X305368Y482205
X295368
X285368
T11
X324500Y310643
X334500
X203000Y275335
X193000
X177925Y276000
X167925
X272000Y184917
X282000
T12
X114000Y114000
X409500Y112500
Y478500
X114000
M30
