G04*
G04 #@! TF.GenerationSoftware,Altium Limited,Altium Designer,18.1.9 (240)*
G04*
G04 Layer_Color=2752767*
%FSLAX25Y25*%
%MOIN*%
G70*
G01*
G75*
%ADD108C,0.00200*%
%ADD109C,0.00267*%
%ADD110C,0.00133*%
D108*
X165700Y429153D02*
Y430753D01*
X167300D01*
Y429153D01*
X165700D01*
Y419153D02*
Y420753D01*
X167300D01*
Y419153D01*
X165700D01*
X123657Y431200D02*
X122857Y432800D01*
X124457D01*
X123657Y431200D01*
X143343D02*
X142543Y432800D01*
X144143D01*
X143343Y431200D01*
Y450886D02*
X142543Y452486D01*
X144143D01*
X143343Y450886D01*
X123657D02*
X122857Y452486D01*
X124457D01*
X123657Y450886D01*
X304322Y310710D02*
X304722Y311110D01*
X305122D01*
X304722Y311510D01*
X305122Y311910D01*
X304722D01*
X304322Y312310D01*
X303922Y311910D01*
X303522D01*
X303922Y311510D01*
X303522Y311110D01*
X303922D01*
X304322Y310710D01*
X276386Y354195D02*
X276786Y354995D01*
X276386Y355795D01*
X277186Y355395D01*
X277986Y355795D01*
X277586Y354995D01*
X277986Y354195D01*
X277186Y354595D01*
X276386Y354195D01*
Y364195D02*
X276786Y364995D01*
X276386Y365795D01*
X277186Y365395D01*
X277986Y365795D01*
X277586Y364995D01*
X277986Y364195D01*
X277186Y364595D01*
X276386Y364195D01*
Y374195D02*
X276786Y374995D01*
X276386Y375795D01*
X277186Y375395D01*
X277986Y375795D01*
X277586Y374995D01*
X277986Y374195D01*
X277186Y374595D01*
X276386Y374195D01*
X324100Y310243D02*
Y309843D01*
X324900D01*
Y310243D01*
X325300D01*
Y311043D01*
X324900D01*
Y311443D01*
X324100D01*
Y311043D01*
X323700D01*
Y310243D01*
X324100D01*
X334100D02*
Y309843D01*
X334900D01*
Y310243D01*
X335300D01*
Y311043D01*
X334900D01*
Y311443D01*
X334100D01*
Y311043D01*
X333700D01*
Y310243D01*
X334100D01*
X271600Y184517D02*
Y184117D01*
X272400D01*
Y184517D01*
X272800D01*
Y185317D01*
X272400D01*
Y185717D01*
X271600D01*
Y185317D01*
X271200D01*
Y184517D01*
X271600D01*
X281600D02*
Y184117D01*
X282400D01*
Y184517D01*
X282800D01*
Y185317D01*
X282400D01*
Y185717D01*
X281600D01*
Y185317D01*
X281200D01*
Y184517D01*
X281600D01*
X279402Y201440D02*
X279802Y201840D01*
X280202D01*
X279802Y202240D01*
X280202Y202640D01*
X279802D01*
X279402Y203040D01*
X279002Y202640D01*
X278602D01*
X279002Y202240D01*
X278602Y201840D01*
X279002D01*
X279402Y201440D01*
X280500Y247868D02*
X280900Y248269D01*
X281300D01*
X280900Y248669D01*
X281300Y249068D01*
X280900D01*
X280500Y249468D01*
X280100Y249068D01*
X279700D01*
X280100Y248669D01*
X279700Y248269D01*
X280100D01*
X280500Y247868D01*
X355500Y250843D02*
X355900Y251243D01*
X356300D01*
X355900Y251643D01*
X356300Y252043D01*
X355900D01*
X355500Y252443D01*
X355100Y252043D01*
X354700D01*
X355100Y251643D01*
X354700Y251243D01*
X355100D01*
X355500Y250843D01*
X224434Y220200D02*
X224834Y220600D01*
X225234D01*
X224834Y221000D01*
X225234Y221400D01*
X224834D01*
X224434Y221800D01*
X224034Y221400D01*
X223634D01*
X224034Y221000D01*
X223634Y220600D01*
X224034D01*
X224434Y220200D01*
X378224Y232379D02*
X378624Y232779D01*
X379024D01*
X378624Y233179D01*
X379024Y233579D01*
X378624D01*
X378224Y233979D01*
X377824Y233579D01*
X377424D01*
X377824Y233179D01*
X377424Y232779D01*
X377824D01*
X378224Y232379D01*
X178452Y222810D02*
X178852Y223610D01*
X178452Y224410D01*
X179252Y224010D01*
X180052Y224410D01*
X179652Y223610D01*
X180052Y222810D01*
X179252Y223210D01*
X178452Y222810D01*
X188452D02*
X188852Y223610D01*
X188452Y224410D01*
X189252Y224010D01*
X190052Y224410D01*
X189652Y223610D01*
X190052Y222810D01*
X189252Y223210D01*
X188452Y222810D01*
X198452D02*
X198852Y223610D01*
X198452Y224410D01*
X199252Y224010D01*
X200052Y224410D01*
X199652Y223610D01*
X200052Y222810D01*
X199252Y223210D01*
X198452Y222810D01*
X367149Y372200D02*
X367549D01*
X367949Y372600D01*
X368349Y372200D01*
X368749D01*
Y372600D01*
X368349Y373000D01*
X368749Y373400D01*
Y373800D01*
X368349D01*
X367949Y373400D01*
X367549Y373800D01*
X367149D01*
Y373400D01*
X367549Y373000D01*
X367149Y372600D01*
Y372200D01*
X377149D02*
X377549D01*
X377949Y372600D01*
X378349Y372200D01*
X378749D01*
Y372600D01*
X378349Y373000D01*
X378749Y373400D01*
Y373800D01*
X378349D01*
X377949Y373400D01*
X377549Y373800D01*
X377149D01*
Y373400D01*
X377549Y373000D01*
X377149Y372600D01*
Y372200D01*
X367149Y382200D02*
X367549D01*
X367949Y382600D01*
X368349Y382200D01*
X368749D01*
Y382600D01*
X368349Y383000D01*
X368749Y383400D01*
Y383800D01*
X368349D01*
X367949Y383400D01*
X367549Y383800D01*
X367149D01*
Y383400D01*
X367549Y383000D01*
X367149Y382600D01*
Y382200D01*
X377149D02*
X377549D01*
X377949Y382600D01*
X378349Y382200D01*
X378749D01*
Y382600D01*
X378349Y383000D01*
X378749Y383400D01*
Y383800D01*
X378349D01*
X377949Y383400D01*
X377549Y383800D01*
X377149D01*
Y383400D01*
X377549Y383000D01*
X377149Y382600D01*
Y382200D01*
X367149Y392200D02*
X367549D01*
X367949Y392600D01*
X368349Y392200D01*
X368749D01*
Y392600D01*
X368349Y393000D01*
X368749Y393400D01*
Y393800D01*
X368349D01*
X367949Y393400D01*
X367549Y393800D01*
X367149D01*
Y393400D01*
X367549Y393000D01*
X367149Y392600D01*
Y392200D01*
X377149D02*
X377549D01*
X377949Y392600D01*
X378349Y392200D01*
X378749D01*
Y392600D01*
X378349Y393000D01*
X378749Y393400D01*
Y393800D01*
X378349D01*
X377949Y393400D01*
X377549Y393800D01*
X377149D01*
Y393400D01*
X377549Y393000D01*
X377149Y392600D01*
Y392200D01*
X367149Y402200D02*
X367549D01*
X367949Y402600D01*
X368349Y402200D01*
X368749D01*
Y402600D01*
X368349Y403000D01*
X368749Y403400D01*
Y403800D01*
X368349D01*
X367949Y403400D01*
X367549Y403800D01*
X367149D01*
Y403400D01*
X367549Y403000D01*
X367149Y402600D01*
Y402200D01*
X377149D02*
X377549D01*
X377949Y402600D01*
X378349Y402200D01*
X378749D01*
Y402600D01*
X378349Y403000D01*
X378749Y403400D01*
Y403800D01*
X378349D01*
X377949Y403400D01*
X377549Y403800D01*
X377149D01*
Y403400D01*
X377549Y403000D01*
X377149Y402600D01*
Y402200D01*
X367149Y412200D02*
X367549D01*
X367949Y412600D01*
X368349Y412200D01*
X368749D01*
Y412600D01*
X368349Y413000D01*
X368749Y413400D01*
Y413800D01*
X368349D01*
X367949Y413400D01*
X367549Y413800D01*
X367149D01*
Y413400D01*
X367549Y413000D01*
X367149Y412600D01*
Y412200D01*
X377149D02*
X377549D01*
X377949Y412600D01*
X378349Y412200D01*
X378749D01*
Y412600D01*
X378349Y413000D01*
X378749Y413400D01*
Y413800D01*
X378349D01*
X377949Y413400D01*
X377549Y413800D01*
X377149D01*
Y413400D01*
X377549Y413000D01*
X377149Y412600D01*
Y412200D01*
X367149Y422200D02*
X367549D01*
X367949Y422600D01*
X368349Y422200D01*
X368749D01*
Y422600D01*
X368349Y423000D01*
X368749Y423400D01*
Y423800D01*
X368349D01*
X367949Y423400D01*
X367549Y423800D01*
X367149D01*
Y423400D01*
X367549Y423000D01*
X367149Y422600D01*
Y422200D01*
X377149D02*
X377549D01*
X377949Y422600D01*
X378349Y422200D01*
X378749D01*
Y422600D01*
X378349Y423000D01*
X378749Y423400D01*
Y423800D01*
X378349D01*
X377949Y423400D01*
X377549Y423800D01*
X377149D01*
Y423400D01*
X377549Y423000D01*
X377149Y422600D01*
Y422200D01*
X367149Y432200D02*
X367549D01*
X367949Y432600D01*
X368349Y432200D01*
X368749D01*
Y432600D01*
X368349Y433000D01*
X368749Y433400D01*
Y433800D01*
X368349D01*
X367949Y433400D01*
X367549Y433800D01*
X367149D01*
Y433400D01*
X367549Y433000D01*
X367149Y432600D01*
Y432200D01*
X377149D02*
X377549D01*
X377949Y432600D01*
X378349Y432200D01*
X378749D01*
Y432600D01*
X378349Y433000D01*
X378749Y433400D01*
Y433800D01*
X378349D01*
X377949Y433400D01*
X377549Y433800D01*
X377149D01*
Y433400D01*
X377549Y433000D01*
X377149Y432600D01*
Y432200D01*
X367149Y442200D02*
X367549D01*
X367949Y442600D01*
X368349Y442200D01*
X368749D01*
Y442600D01*
X368349Y443000D01*
X368749Y443400D01*
Y443800D01*
X368349D01*
X367949Y443400D01*
X367549Y443800D01*
X367149D01*
Y443400D01*
X367549Y443000D01*
X367149Y442600D01*
Y442200D01*
X377149D02*
X377549D01*
X377949Y442600D01*
X378349Y442200D01*
X378749D01*
Y442600D01*
X378349Y443000D01*
X378749Y443400D01*
Y443800D01*
X378349D01*
X377949Y443400D01*
X377549Y443800D01*
X377149D01*
Y443400D01*
X377549Y443000D01*
X377149Y442600D01*
Y442200D01*
X367149Y452200D02*
X367549D01*
X367949Y452600D01*
X368349Y452200D01*
X368749D01*
Y452600D01*
X368349Y453000D01*
X368749Y453400D01*
Y453800D01*
X368349D01*
X367949Y453400D01*
X367549Y453800D01*
X367149D01*
Y453400D01*
X367549Y453000D01*
X367149Y452600D01*
Y452200D01*
X377149D02*
X377549D01*
X377949Y452600D01*
X378349Y452200D01*
X378749D01*
Y452600D01*
X378349Y453000D01*
X378749Y453400D01*
Y453800D01*
X378349D01*
X377949Y453400D01*
X377549Y453800D01*
X377149D01*
Y453400D01*
X377549Y453000D01*
X377149Y452600D01*
Y452200D01*
X367149Y462200D02*
X367549D01*
X367949Y462600D01*
X368349Y462200D01*
X368749D01*
Y462600D01*
X368349Y463000D01*
X368749Y463400D01*
Y463800D01*
X368349D01*
X367949Y463400D01*
X367549Y463800D01*
X367149D01*
Y463400D01*
X367549Y463000D01*
X367149Y462600D01*
Y462200D01*
X377149D02*
X377549D01*
X377949Y462600D01*
X378349Y462200D01*
X378749D01*
Y462600D01*
X378349Y463000D01*
X378749Y463400D01*
Y463800D01*
X378349D01*
X377949Y463400D01*
X377549Y463800D01*
X377149D01*
Y463400D01*
X377549Y463000D01*
X377149Y462600D01*
Y462200D01*
X344425Y139500D02*
X345225Y140300D01*
X346025Y139500D01*
X345225Y138700D01*
X344425Y139500D01*
X354425D02*
X355225Y140300D01*
X356025Y139500D01*
X355225Y138700D01*
X354425Y139500D01*
X219842Y476905D02*
Y478505D01*
X221442D01*
Y476905D01*
X219842D01*
X220242Y477305D02*
Y478105D01*
X221042D01*
Y477305D01*
X220242D01*
X239054Y476905D02*
Y478505D01*
X240654D01*
Y476905D01*
X239054D01*
X239454Y477305D02*
Y478105D01*
X240254D01*
Y477305D01*
X239454D01*
X167525Y275600D02*
Y275200D01*
X168325D01*
Y275600D01*
X168725D01*
Y276400D01*
X168325D01*
Y276800D01*
X167525D01*
Y276400D01*
X167125D01*
Y275600D01*
X167525D01*
X177525D02*
Y275200D01*
X178325D01*
Y275600D01*
X178725D01*
Y276400D01*
X178325D01*
Y276800D01*
X177525D01*
Y276400D01*
X177125D01*
Y275600D01*
X177525D01*
X192600Y274935D02*
Y274535D01*
X193400D01*
Y274935D01*
X193800D01*
Y275735D01*
X193400D01*
Y276135D01*
X192600D01*
Y275735D01*
X192200D01*
Y274935D01*
X192600D01*
X202600D02*
Y274535D01*
X203400D01*
Y274935D01*
X203800D01*
Y275735D01*
X203400D01*
Y276135D01*
X202600D01*
Y275735D01*
X202200D01*
Y274935D01*
X202600D01*
X296700Y464865D02*
X297100Y465665D01*
X296700Y466465D01*
X297500Y466065D01*
X298300Y466465D01*
X297900Y465665D01*
X298300Y464865D01*
X297500Y465265D01*
X296700Y464865D01*
X306700D02*
X307100Y465665D01*
X306700Y466465D01*
X307500Y466065D01*
X308300Y466465D01*
X307900Y465665D01*
X308300Y464865D01*
X307500Y465265D01*
X306700Y464865D01*
X316700D02*
X317100Y465665D01*
X316700Y466465D01*
X317500Y466065D01*
X318300Y466465D01*
X317900Y465665D01*
X318300Y464865D01*
X317500Y465265D01*
X316700Y464865D01*
X304200Y444588D02*
X304600Y445388D01*
X304200Y446188D01*
X305000Y445788D01*
X305800Y446188D01*
X305400Y445388D01*
X305800Y444588D01*
X305000Y444988D01*
X304200Y444588D01*
X314200D02*
X314600Y445388D01*
X314200Y446188D01*
X315000Y445788D01*
X315800Y446188D01*
X315400Y445388D01*
X315800Y444588D01*
X315000Y444988D01*
X314200Y444588D01*
X324200D02*
X324600Y445388D01*
X324200Y446188D01*
X325000Y445788D01*
X325800Y446188D01*
X325400Y445388D01*
X325800Y444588D01*
X325000Y444988D01*
X324200Y444588D01*
X304568Y481405D02*
X304968Y482205D01*
X304568Y483005D01*
X305368Y482605D01*
X306168Y483005D01*
X305768Y482205D01*
X306168Y481405D01*
X305368Y481805D01*
X304568Y481405D01*
X294568D02*
X294968Y482205D01*
X294568Y483005D01*
X295368Y482605D01*
X296168Y483005D01*
X295768Y482205D01*
X296168Y481405D01*
X295368Y481805D01*
X294568Y481405D01*
X284568D02*
X284968Y482205D01*
X284568Y483005D01*
X285368Y482605D01*
X286168Y483005D01*
X285768Y482205D01*
X286168Y481405D01*
X285368Y481805D01*
X284568Y481405D01*
X267266Y455020D02*
X266466Y456620D01*
X268066D01*
X267266Y455020D01*
Y455420D02*
X266866Y456220D01*
X267666D01*
X267266Y455420D01*
X242178Y401665D02*
X241378Y403265D01*
X242978D01*
X242178Y401665D01*
Y402066D02*
X241778Y402866D01*
X242578D01*
X242178Y402066D01*
X202698Y394831D02*
X201898Y396431D01*
X203498D01*
X202698Y394831D01*
Y395231D02*
X202298Y396031D01*
X203098D01*
X202698Y395231D01*
X199233Y430871D02*
X198433Y432471D01*
X200033D01*
X199233Y430871D01*
Y431271D02*
X198833Y432071D01*
X199633D01*
X199233Y431271D01*
X241919Y429007D02*
X241119Y430607D01*
X242719D01*
X241919Y429007D01*
Y429407D02*
X241519Y430207D01*
X242319D01*
X241919Y429407D01*
X200072Y426507D02*
X199272Y428107D01*
X200872D01*
X200072Y426507D01*
Y426907D02*
X199672Y427707D01*
X200472D01*
X200072Y426907D01*
X225000Y450043D02*
X224200Y451643D01*
X225800D01*
X225000Y450043D01*
Y450443D02*
X224600Y451243D01*
X225400D01*
X225000Y450443D01*
X228516Y239000D02*
X227716Y240600D01*
X229316D01*
X228516Y239000D01*
Y239400D02*
X228116Y240200D01*
X228916D01*
X228516Y239400D01*
X307818Y222068D02*
X307018Y223668D01*
X308618D01*
X307818Y222068D01*
Y222468D02*
X307418Y223268D01*
X308218D01*
X307818Y222468D01*
X304902Y230738D02*
X304102Y232338D01*
X305702D01*
X304902Y230738D01*
Y231138D02*
X304502Y231938D01*
X305302D01*
X304902Y231138D01*
X300678Y231796D02*
X299878Y233396D01*
X301478D01*
X300678Y231796D01*
Y232195D02*
X300278Y232996D01*
X301078D01*
X300678Y232195D01*
X211360Y446394D02*
X210560Y447994D01*
X212160D01*
X211360Y446394D01*
Y446794D02*
X210960Y447594D01*
X211760D01*
X211360Y446794D01*
X217666Y445965D02*
X216866Y447565D01*
X218466D01*
X217666Y445965D01*
Y446365D02*
X217266Y447165D01*
X218066D01*
X217666Y446365D01*
X365129Y317434D02*
X364329Y319034D01*
X365929D01*
X365129Y317434D01*
Y317834D02*
X364729Y318634D01*
X365529D01*
X365129Y317834D01*
X316949Y282433D02*
X316149Y284033D01*
X317749D01*
X316949Y282433D01*
Y282833D02*
X316549Y283633D01*
X317349D01*
X316949Y282833D01*
X317178Y276199D02*
X316378Y277799D01*
X317978D01*
X317178Y276199D01*
Y276599D02*
X316778Y277399D01*
X317578D01*
X317178Y276599D01*
X203278Y240927D02*
X202478Y242527D01*
X204078D01*
X203278Y240927D01*
Y241327D02*
X202878Y242127D01*
X203678D01*
X203278Y241327D01*
X201147Y347961D02*
X200347Y349561D01*
X201947D01*
X201147Y347961D01*
Y348361D02*
X200747Y349161D01*
X201547D01*
X201147Y348361D01*
X287627Y232872D02*
X286827Y234472D01*
X288427D01*
X287627Y232872D01*
Y233272D02*
X287227Y234072D01*
X288027D01*
X287627Y233272D01*
X258678Y231494D02*
X257878Y233094D01*
X259478D01*
X258678Y231494D01*
Y231894D02*
X258278Y232694D01*
X259078D01*
X258678Y231894D01*
X260178Y217909D02*
X259378Y219509D01*
X260978D01*
X260178Y217909D01*
Y218309D02*
X259778Y219109D01*
X260578D01*
X260178Y218309D01*
X217078Y303796D02*
X216278Y305396D01*
X217878D01*
X217078Y303796D01*
Y304195D02*
X216678Y304995D01*
X217478D01*
X217078Y304195D01*
X227083Y321895D02*
X226283Y323495D01*
X227883D01*
X227083Y321895D01*
Y322295D02*
X226683Y323095D01*
X227483D01*
X227083Y322295D01*
X191793Y335296D02*
X190993Y336895D01*
X192593D01*
X191793Y335296D01*
Y335696D02*
X191393Y336495D01*
X192193D01*
X191793Y335696D01*
X196882Y347295D02*
X196082Y348896D01*
X197682D01*
X196882Y347295D01*
Y347695D02*
X196482Y348496D01*
X197282D01*
X196882Y347695D01*
X192678Y443666D02*
X191878Y445265D01*
X193478D01*
X192678Y443666D01*
Y444066D02*
X192278Y444866D01*
X193078D01*
X192678Y444066D01*
X241934Y276447D02*
X241134Y278047D01*
X242734D01*
X241934Y276447D01*
Y276847D02*
X241534Y277647D01*
X242334D01*
X241934Y276847D01*
X299843Y271329D02*
X299043Y272929D01*
X300643D01*
X299843Y271329D01*
Y271729D02*
X299443Y272529D01*
X300243D01*
X299843Y271729D01*
X269662Y284584D02*
X268862Y286184D01*
X270462D01*
X269662Y284584D01*
Y284984D02*
X269262Y285784D01*
X270062D01*
X269662Y284984D01*
X338129Y338434D02*
X337329Y340034D01*
X338929D01*
X338129Y338434D01*
Y338834D02*
X337729Y339634D01*
X338529D01*
X338129Y338834D01*
X263803Y424406D02*
X263003Y426006D01*
X264603D01*
X263803Y424406D01*
Y424806D02*
X263403Y425606D01*
X264203D01*
X263803Y424806D01*
X284307Y465899D02*
X283507Y467499D01*
X285107D01*
X284307Y465899D01*
Y466299D02*
X283907Y467099D01*
X284707D01*
X284307Y466299D01*
X353091Y385906D02*
X352291Y387506D01*
X353890D01*
X353091Y385906D01*
Y386306D02*
X352691Y387106D01*
X353490D01*
X353091Y386306D01*
X261807Y415406D02*
X261007Y417006D01*
X262607D01*
X261807Y415406D01*
Y415806D02*
X261407Y416606D01*
X262207D01*
X261807Y415806D01*
X279807Y407906D02*
X279007Y409506D01*
X280607D01*
X279807Y407906D01*
Y408306D02*
X279407Y409106D01*
X280207D01*
X279807Y408306D01*
X259303Y397406D02*
X258504Y399006D01*
X260104D01*
X259303Y397406D01*
Y397806D02*
X258904Y398606D01*
X259703D01*
X259303Y397806D01*
X321000Y402200D02*
X320200Y403800D01*
X321800D01*
X321000Y402200D01*
Y402600D02*
X320600Y403400D01*
X321400D01*
X321000Y402600D01*
X251071Y382200D02*
X250271Y383800D01*
X251871D01*
X251071Y382200D01*
Y382600D02*
X250671Y383400D01*
X251471D01*
X251071Y382600D01*
X391500Y422200D02*
X390700Y423800D01*
X392300D01*
X391500Y422200D01*
Y422600D02*
X391100Y423400D01*
X391900D01*
X391500Y422600D01*
X199422Y399240D02*
X198622Y400840D01*
X200222D01*
X199422Y399240D01*
Y399640D02*
X199022Y400440D01*
X199822D01*
X199422Y399640D01*
X181890Y384933D02*
X181090Y386533D01*
X182690D01*
X181890Y384933D01*
Y385333D02*
X181490Y386133D01*
X182290D01*
X181890Y385333D01*
X225268Y374468D02*
X224468Y376068D01*
X226068D01*
X225268Y374468D01*
Y374868D02*
X224868Y375668D01*
X225668D01*
X225268Y374868D01*
X187500Y375700D02*
X186700Y377300D01*
X188300D01*
X187500Y375700D01*
Y376100D02*
X187100Y376900D01*
X187900D01*
X187500Y376100D01*
X183339Y463768D02*
X182539Y465368D01*
X184139D01*
X183339Y463768D01*
Y464168D02*
X182939Y464968D01*
X183739D01*
X183339Y464168D01*
X219220Y340291D02*
X218420Y341891D01*
X220020D01*
X219220Y340291D01*
Y340691D02*
X218820Y341491D01*
X219620D01*
X219220Y340691D01*
X188107Y313023D02*
X187307Y314623D01*
X188907D01*
X188107Y313023D01*
Y313423D02*
X187707Y314223D01*
X188507D01*
X188107Y313423D01*
X236520Y341523D02*
X235720Y343123D01*
X237320D01*
X236520Y341523D01*
Y341923D02*
X236120Y342723D01*
X236920D01*
X236520Y341923D01*
X340500Y456700D02*
X339700Y458300D01*
X341300D01*
X340500Y456700D01*
Y457100D02*
X340100Y457900D01*
X340900D01*
X340500Y457100D01*
X202695Y330029D02*
X201895Y331629D01*
X203495D01*
X202695Y330029D01*
Y330429D02*
X202295Y331229D01*
X203095D01*
X202695Y330429D01*
X393000Y331243D02*
X392200Y332843D01*
X393800D01*
X393000Y331243D01*
Y331643D02*
X392600Y332443D01*
X393400D01*
X393000Y331643D01*
X376725Y326163D02*
X375925Y327763D01*
X377525D01*
X376725Y326163D01*
Y326563D02*
X376325Y327363D01*
X377125D01*
X376725Y326563D01*
X345225Y319551D02*
X344425Y321151D01*
X346025D01*
X345225Y319551D01*
Y319951D02*
X344825Y320751D01*
X345625D01*
X345225Y319951D01*
X296868Y228114D02*
X296068Y229714D01*
X297668D01*
X296868Y228114D01*
Y228514D02*
X296468Y229314D01*
X297268D01*
X296868Y228514D01*
X363815Y294465D02*
X363015Y296065D01*
X364615D01*
X363815Y294465D01*
Y294865D02*
X363415Y295666D01*
X364215D01*
X363815Y294865D01*
X337949Y225398D02*
X337149Y226998D01*
X338749D01*
X337949Y225398D01*
Y225799D02*
X337549Y226599D01*
X338349D01*
X337949Y225799D01*
X280949Y229777D02*
X280149Y231377D01*
X281749D01*
X280949Y229777D01*
Y230177D02*
X280549Y230977D01*
X281349D01*
X280949Y230177D01*
X252497Y296829D02*
X251697Y298429D01*
X253297D01*
X252497Y296829D01*
Y297229D02*
X252097Y298029D01*
X252897D01*
X252497Y297229D01*
X318449Y261643D02*
X317649Y263243D01*
X319249D01*
X318449Y261643D01*
Y262043D02*
X318049Y262843D01*
X318849D01*
X318449Y262043D01*
X316949Y286704D02*
X316149Y288304D01*
X317749D01*
X316949Y286704D01*
Y287104D02*
X316549Y287904D01*
X317349D01*
X316949Y287104D01*
X310020Y295851D02*
X309220Y297451D01*
X310820D01*
X310020Y295851D01*
Y296251D02*
X309620Y297051D01*
X310420D01*
X310020Y296251D01*
X289949Y223335D02*
X289149Y224935D01*
X290749D01*
X289949Y223335D01*
Y223735D02*
X289549Y224535D01*
X290349D01*
X289949Y223735D01*
X251071Y243398D02*
X250271Y244999D01*
X251871D01*
X251071Y243398D01*
Y243798D02*
X250671Y244599D01*
X251471D01*
X251071Y243798D01*
X231919Y266200D02*
X231119Y267800D01*
X232719D01*
X231919Y266200D01*
Y266600D02*
X231519Y267400D01*
X232319D01*
X231919Y266600D01*
X211360Y237700D02*
X210560Y239300D01*
X212160D01*
X211360Y237700D01*
Y238100D02*
X210960Y238900D01*
X211760D01*
X211360Y238100D01*
X214366Y188200D02*
X214766Y188600D01*
X215166D01*
X214766Y189000D01*
X215166Y189400D01*
X214766D01*
X214366Y189800D01*
X213966Y189400D01*
X213566D01*
X213966Y189000D01*
X213566Y188600D01*
X213966D01*
X214366Y188200D01*
Y188600D02*
X214566Y188800D01*
X214766D01*
X214566Y189000D01*
X214766Y189200D01*
X214566D01*
X214366Y189400D01*
X214166Y189200D01*
X213966D01*
X214166Y189000D01*
X213966Y188800D01*
X214166D01*
X214366Y188600D01*
X177000Y168700D02*
X177400Y169100D01*
X177800D01*
X177400Y169500D01*
X177800Y169900D01*
X177400D01*
X177000Y170300D01*
X176600Y169900D01*
X176200D01*
X176600Y169500D01*
X176200Y169100D01*
X176600D01*
X177000Y168700D01*
Y169100D02*
X177200Y169300D01*
X177400D01*
X177200Y169500D01*
X177400Y169700D01*
X177200D01*
X177000Y169900D01*
X176800Y169700D01*
X176600D01*
X176800Y169500D01*
X176600Y169300D01*
X176800D01*
X177000Y169100D01*
X173587Y156747D02*
X173987Y157147D01*
X174387D01*
X173987Y157547D01*
X174387Y157947D01*
X173987D01*
X173587Y158347D01*
X173187Y157947D01*
X172787D01*
X173187Y157547D01*
X172787Y157147D01*
X173187D01*
X173587Y156747D01*
Y157147D02*
X173787Y157347D01*
X173987D01*
X173787Y157547D01*
X173987Y157747D01*
X173787D01*
X173587Y157947D01*
X173387Y157747D01*
X173187D01*
X173387Y157547D01*
X173187Y157347D01*
X173387D01*
X173587Y157147D01*
X211500Y164987D02*
X211900Y165387D01*
X212300D01*
X211900Y165787D01*
X212300Y166187D01*
X211900D01*
X211500Y166587D01*
X211100Y166187D01*
X210700D01*
X211100Y165787D01*
X210700Y165387D01*
X211100D01*
X211500Y164987D01*
Y165387D02*
X211700Y165587D01*
X211900D01*
X211700Y165787D01*
X211900Y165987D01*
X211700D01*
X211500Y166187D01*
X211300Y165987D01*
X211100D01*
X211300Y165787D01*
X211100Y165587D01*
X211300D01*
X211500Y165387D01*
X310807Y182247D02*
X311208Y182647D01*
X311608D01*
X311208Y183047D01*
X311608Y183447D01*
X311208D01*
X310807Y183847D01*
X310407Y183447D01*
X310008D01*
X310407Y183047D01*
X310008Y182647D01*
X310407D01*
X310807Y182247D01*
Y182647D02*
X311007Y182847D01*
X311208D01*
X311007Y183047D01*
X311208Y183247D01*
X311007D01*
X310807Y183447D01*
X310608Y183247D01*
X310407D01*
X310608Y183047D01*
X310407Y182847D01*
X310608D01*
X310807Y182647D01*
X191156Y237700D02*
X190356Y239300D01*
X191956D01*
X191156Y237700D01*
Y238100D02*
X190756Y238900D01*
X191556D01*
X191156Y238100D01*
X275874Y173200D02*
X276274Y173600D01*
X276674D01*
X276274Y174000D01*
X276674Y174400D01*
X276274D01*
X275874Y174800D01*
X275474Y174400D01*
X275074D01*
X275474Y174000D01*
X275074Y173600D01*
X275474D01*
X275874Y173200D01*
Y173600D02*
X276074Y173800D01*
X276274D01*
X276074Y174000D01*
X276274Y174200D01*
X276074D01*
X275874Y174400D01*
X275674Y174200D01*
X275474D01*
X275674Y174000D01*
X275474Y173800D01*
X275674D01*
X275874Y173600D01*
X150000Y162747D02*
X150400Y163147D01*
X150800D01*
X150400Y163547D01*
X150800Y163947D01*
X150400D01*
X150000Y164347D01*
X149600Y163947D01*
X149200D01*
X149600Y163547D01*
X149200Y163147D01*
X149600D01*
X150000Y162747D01*
Y163147D02*
X150200Y163347D01*
X150400D01*
X150200Y163547D01*
X150400Y163747D01*
X150200D01*
X150000Y163947D01*
X149800Y163747D01*
X149600D01*
X149800Y163547D01*
X149600Y163347D01*
X149800D01*
X150000Y163147D01*
X137693Y162747D02*
X138093Y163147D01*
X138493D01*
X138093Y163547D01*
X138493Y163947D01*
X138093D01*
X137693Y164347D01*
X137293Y163947D01*
X136893D01*
X137293Y163547D01*
X136893Y163147D01*
X137293D01*
X137693Y162747D01*
Y163147D02*
X137893Y163347D01*
X138093D01*
X137893Y163547D01*
X138093Y163747D01*
X137893D01*
X137693Y163947D01*
X137493Y163747D01*
X137293D01*
X137493Y163547D01*
X137293Y163347D01*
X137493D01*
X137693Y163147D01*
D109*
X410300Y478500D02*
X409747Y479261D01*
X408853Y478970D01*
Y478030D01*
X409747Y477739D01*
X410300Y478500D01*
X114800Y114000D02*
X114247Y114761D01*
X113353Y114470D01*
Y113530D01*
X114247Y113239D01*
X114800Y114000D01*
X410300Y112500D02*
X409747Y113261D01*
X408853Y112970D01*
Y112030D01*
X409747Y111739D01*
X410300Y112500D01*
X114800Y478500D02*
X114247Y479261D01*
X113353Y478970D01*
Y478030D01*
X114247Y477739D01*
X114800Y478500D01*
X140300Y221870D02*
X139747Y222631D01*
X138853Y222340D01*
Y221400D01*
X139747Y221109D01*
X140300Y221870D01*
Y371476D02*
X139747Y372237D01*
X138853Y371946D01*
Y371006D01*
X139747Y370715D01*
X140300Y371476D01*
D110*
X139900Y221870D02*
X139300Y222216D01*
Y221524D01*
X139900Y221870D01*
Y371476D02*
X139300Y371822D01*
Y371130D01*
X139900Y371476D01*
M02*
