solid
 facet normal -1.000000e+00  0.000000e+00  0.000000e+00
   outer loop
     vertex -2.602500e+00  1.812500e+00  1.166500e+00
     vertex -2.602500e+00 -1.812500e+00  1.166500e+00
     vertex -2.602500e+00 -1.812500e+00  1.176500e+00
   endloop
 endfacet
 facet normal -1.000000e+00 -0.000000e+00 -0.000000e+00
   outer loop
     vertex -2.602500e+00  1.812500e+00  1.176500e+00
     vertex -2.602500e+00  1.812500e+00  1.166500e+00
     vertex -2.602500e+00 -1.812500e+00  1.176500e+00
   endloop
 endfacet
 facet normal  0.000000e+00 -1.000000e+00  0.000000e+00
   outer loop
     vertex -2.602500e+00 -1.812500e+00  1.176500e+00
     vertex -2.602500e+00 -1.812500e+00  1.166500e+00
     vertex  2.602500e+00 -1.812500e+00  1.166500e+00
   endloop
 endfacet
 facet normal  0.000000e+00 -1.000000e+00  0.000000e+00
   outer loop
     vertex -2.602500e+00 -1.812500e+00  1.176500e+00
     vertex  2.602500e+00 -1.812500e+00  1.166500e+00
     vertex  2.602500e+00 -1.812500e+00  1.176500e+00
   endloop
 endfacet
 facet normal -9.984604e-01 -0.000000e+00 -5.547002e-02
   outer loop
     vertex -2.543250e+00  1.753250e+00  1.000000e-01
     vertex -2.543250e+00 -1.753250e+00  1.000000e-01
     vertex -2.602500e+00 -1.812500e+00  1.166500e+00
   endloop
 endfacet
 facet normal -9.984604e-01  0.000000e+00 -5.547002e-02
   outer loop
     vertex -2.543250e+00  1.753250e+00  1.000000e-01
     vertex -2.602500e+00 -1.812500e+00  1.166500e+00
     vertex -2.602500e+00  1.812500e+00  1.166500e+00
   endloop
 endfacet
 facet normal -9.989526e-01  0.000000e+00  4.575797e-02
   outer loop
     vertex -2.602500e+00 -1.812500e+00  1.176500e+00
     vertex -2.543250e+00 -1.753250e+00  2.470000e+00
     vertex -2.602500e+00  1.812500e+00  1.176500e+00
   endloop
 endfacet
 facet normal -9.989526e-01  0.000000e+00  4.575797e-02
   outer loop
     vertex -2.602500e+00  1.812500e+00  1.176500e+00
     vertex -2.543250e+00 -1.753250e+00  2.470000e+00
     vertex -2.543250e+00  1.753250e+00  2.470000e+00
   endloop
 endfacet
 facet normal  0.000000e+00  1.000000e+00 -0.000000e+00
   outer loop
     vertex  2.602500e+00  1.812500e+00  1.166500e+00
     vertex -2.602500e+00  1.812500e+00  1.166500e+00
     vertex -2.602500e+00  1.812500e+00  1.176500e+00
   endloop
 endfacet
 facet normal  0.000000e+00  1.000000e+00  0.000000e+00
   outer loop
     vertex  2.602500e+00  1.812500e+00  1.176500e+00
     vertex  2.602500e+00  1.812500e+00  1.166500e+00
     vertex -2.602500e+00  1.812500e+00  1.176500e+00
   endloop
 endfacet
 facet normal  1.000000e+00 -0.000000e+00  0.000000e+00
   outer loop
     vertex  2.602500e+00 -1.812500e+00  1.176500e+00
     vertex  2.602500e+00 -1.812500e+00  1.166500e+00
     vertex  2.602500e+00  1.812500e+00  1.166500e+00
   endloop
 endfacet
 facet normal  1.000000e+00 -0.000000e+00  0.000000e+00
   outer loop
     vertex  2.602500e+00 -1.812500e+00  1.176500e+00
     vertex  2.602500e+00  1.812500e+00  1.166500e+00
     vertex  2.602500e+00  1.812500e+00  1.176500e+00
   endloop
 endfacet
 facet normal  0.000000e+00 -9.984604e-01 -5.547002e-02
   outer loop
     vertex -2.602500e+00 -1.812500e+00  1.166500e+00
     vertex -2.543250e+00 -1.753250e+00  1.000000e-01
     vertex  2.543250e+00 -1.753250e+00  1.000000e-01
   endloop
 endfacet
 facet normal -0.000000e+00 -9.984604e-01 -5.547002e-02
   outer loop
     vertex  2.602500e+00 -1.812500e+00  1.166500e+00
     vertex -2.602500e+00 -1.812500e+00  1.166500e+00
     vertex  2.543250e+00 -1.753250e+00  1.000000e-01
   endloop
 endfacet
 facet normal  0.000000e+00 -9.989526e-01  4.575797e-02
   outer loop
     vertex  2.543250e+00 -1.753250e+00  2.470000e+00
     vertex -2.543250e+00 -1.753250e+00  2.470000e+00
     vertex -2.602500e+00 -1.812500e+00  1.176500e+00
   endloop
 endfacet
 facet normal  0.000000e+00 -9.989526e-01  4.575797e-02
   outer loop
     vertex  2.543250e+00 -1.753250e+00  2.470000e+00
     vertex -2.602500e+00 -1.812500e+00  1.176500e+00
     vertex  2.602500e+00 -1.812500e+00  1.176500e+00
   endloop
 endfacet
 facet normal  0.000000e+00  0.000000e+00 -1.000000e+00
   outer loop
     vertex -2.543250e+00 -1.753250e+00  1.000000e-01
     vertex -2.543250e+00  1.753250e+00  1.000000e-01
     vertex  2.543250e+00  1.753250e+00  1.000000e-01
   endloop
 endfacet
 facet normal  0.000000e+00  0.000000e+00 -1.000000e+00
   outer loop
     vertex  2.543250e+00 -1.753250e+00  1.000000e-01
     vertex -2.543250e+00 -1.753250e+00  1.000000e-01
     vertex  2.543250e+00  1.753250e+00  1.000000e-01
   endloop
 endfacet
 facet normal  0.000000e+00  9.984604e-01 -5.547002e-02
   outer loop
     vertex  2.543250e+00  1.753250e+00  1.000000e-01
     vertex -2.543250e+00  1.753250e+00  1.000000e-01
     vertex -2.602500e+00  1.812500e+00  1.166500e+00
   endloop
 endfacet
 facet normal  0.000000e+00  9.984604e-01 -5.547002e-02
   outer loop
     vertex  2.543250e+00  1.753250e+00  1.000000e-01
     vertex -2.602500e+00  1.812500e+00  1.166500e+00
     vertex  2.602500e+00  1.812500e+00  1.166500e+00
   endloop
 endfacet
 facet normal  0.000000e+00  0.000000e+00  1.000000e+00
   outer loop
     vertex  2.543250e+00  1.753250e+00  2.470000e+00
     vertex -2.543250e+00  1.753250e+00  2.470000e+00
     vertex -2.543250e+00 -1.753250e+00  2.470000e+00
   endloop
 endfacet
 facet normal -0.000000e+00  0.000000e+00  1.000000e+00
   outer loop
     vertex  2.543250e+00  1.753250e+00  2.470000e+00
     vertex -2.543250e+00 -1.753250e+00  2.470000e+00
     vertex  2.543250e+00 -1.753250e+00  2.470000e+00
   endloop
 endfacet
 facet normal -0.000000e+00  9.989526e-01  4.575797e-02
   outer loop
     vertex -2.602500e+00  1.812500e+00  1.176500e+00
     vertex -2.543250e+00  1.753250e+00  2.470000e+00
     vertex  2.543250e+00  1.753250e+00  2.470000e+00
   endloop
 endfacet
 facet normal  0.000000e+00  9.989526e-01  4.575797e-02
   outer loop
     vertex  2.602500e+00  1.812500e+00  1.176500e+00
     vertex -2.602500e+00  1.812500e+00  1.176500e+00
     vertex  2.543250e+00  1.753250e+00  2.470000e+00
   endloop
 endfacet
 facet normal  9.984604e-01  0.000000e+00 -5.547002e-02
   outer loop
     vertex  2.602500e+00 -1.812500e+00  1.166500e+00
     vertex  2.543250e+00 -1.753250e+00  1.000000e-01
     vertex  2.602500e+00  1.812500e+00  1.166500e+00
   endloop
 endfacet
 facet normal  9.984604e-01  0.000000e+00 -5.547002e-02
   outer loop
     vertex  2.602500e+00  1.812500e+00  1.166500e+00
     vertex  2.543250e+00 -1.753250e+00  1.000000e-01
     vertex  2.543250e+00  1.753250e+00  1.000000e-01
   endloop
 endfacet
 facet normal  9.989526e-01  0.000000e+00  4.575797e-02
   outer loop
     vertex  2.602500e+00  1.812500e+00  1.176500e+00
     vertex  2.543250e+00 -1.753250e+00  2.470000e+00
     vertex  2.602500e+00 -1.812500e+00  1.176500e+00
   endloop
 endfacet
 facet normal  9.989526e-01  0.000000e+00  4.575797e-02
   outer loop
     vertex  2.543250e+00  1.753250e+00  2.470000e+00
     vertex  2.543250e+00 -1.753250e+00  2.470000e+00
     vertex  2.602500e+00  1.812500e+00  1.176500e+00
   endloop
 endfacet
 facet normal  0.000000e+00 -1.000000e+00  0.000000e+00
   outer loop
     vertex -2.628382e+00 -1.040000e+00  3.407417e-03
     vertex -2.602500e+00 -1.040000e+00 -1.387779e-17
     vertex -2.602500e+00 -1.040000e+00  1.000000e-01
   endloop
 endfacet
 facet normal  0.000000e+00 -1.000000e+00  0.000000e+00
   outer loop
     vertex -2.652500e+00 -1.040000e+00  1.339746e-02
     vertex -2.628382e+00 -1.040000e+00  3.407417e-03
     vertex -2.602500e+00 -1.040000e+00  1.000000e-01
   endloop
 endfacet
 facet normal  0.000000e+00 -1.000000e+00  0.000000e+00
   outer loop
     vertex -2.673211e+00 -1.040000e+00  2.928932e-02
     vertex -2.652500e+00 -1.040000e+00  1.339746e-02
     vertex -2.602500e+00 -1.040000e+00  1.000000e-01
   endloop
 endfacet
 facet normal  0.000000e+00 -1.000000e+00  0.000000e+00
   outer loop
     vertex -2.689103e+00 -1.040000e+00  5.000000e-02
     vertex -2.673211e+00 -1.040000e+00  2.928932e-02
     vertex -2.602500e+00 -1.040000e+00  1.000000e-01
   endloop
 endfacet
 facet normal  0.000000e+00 -1.000000e+00  0.000000e+00
   outer loop
     vertex -2.699093e+00 -1.040000e+00  7.411810e-02
     vertex -2.689103e+00 -1.040000e+00  5.000000e-02
     vertex -2.602500e+00 -1.040000e+00  1.000000e-01
   endloop
 endfacet
 facet normal  0.000000e+00 -1.000000e+00  0.000000e+00
   outer loop
     vertex -2.702500e+00 -1.040000e+00  1.000000e-01
     vertex -2.699093e+00 -1.040000e+00  7.411810e-02
     vertex -2.602500e+00 -1.040000e+00  1.000000e-01
   endloop
 endfacet
 facet normal  0.000000e+00 -1.000000e+00  0.000000e+00
   outer loop
     vertex -2.702500e+00 -1.040000e+00  1.000000e-01
     vertex -2.602500e+00 -1.040000e+00  1.000000e-01
     vertex -2.702500e+00 -1.040000e+00  1.066500e+00
   endloop
 endfacet
 facet normal  0.000000e+00 -1.000000e+00 -0.000000e+00
   outer loop
     vertex -2.699093e+00 -1.040000e+00  1.092382e+00
     vertex -2.702500e+00 -1.040000e+00  1.066500e+00
     vertex -2.602500e+00 -1.040000e+00  1.066500e+00
   endloop
 endfacet
 facet normal  0.000000e+00 -1.000000e+00 -0.000000e+00
   outer loop
     vertex -2.689103e+00 -1.040000e+00  1.116500e+00
     vertex -2.699093e+00 -1.040000e+00  1.092382e+00
     vertex -2.602500e+00 -1.040000e+00  1.066500e+00
   endloop
 endfacet
 facet normal  0.000000e+00 -1.000000e+00 -0.000000e+00
   outer loop
     vertex -2.673211e+00 -1.040000e+00  1.137211e+00
     vertex -2.689103e+00 -1.040000e+00  1.116500e+00
     vertex -2.602500e+00 -1.040000e+00  1.066500e+00
   endloop
 endfacet
 facet normal  0.000000e+00 -1.000000e+00  0.000000e+00
   outer loop
     vertex -2.702500e+00 -1.040000e+00  1.066500e+00
     vertex -2.602500e+00 -1.040000e+00  1.000000e-01
     vertex -2.602500e+00 -1.040000e+00  1.066500e+00
   endloop
 endfacet
 facet normal  0.000000e+00 -1.000000e+00  0.000000e+00
   outer loop
     vertex -2.673211e+00 -1.040000e+00  1.137211e+00
     vertex -2.602500e+00 -1.040000e+00  1.066500e+00
     vertex -2.652500e+00 -1.040000e+00  1.153103e+00
   endloop
 endfacet
 facet normal  0.000000e+00 -1.000000e+00  0.000000e+00
   outer loop
     vertex -2.652500e+00 -1.040000e+00  1.153103e+00
     vertex -2.602500e+00 -1.040000e+00  1.066500e+00
     vertex -2.628382e+00 -1.040000e+00  1.163093e+00
   endloop
 endfacet
 facet normal  0.000000e+00 -1.000000e+00  0.000000e+00
   outer loop
     vertex -2.628382e+00 -1.040000e+00  1.163093e+00
     vertex -2.602500e+00 -1.040000e+00  1.066500e+00
     vertex -2.602500e+00 -1.040000e+00  1.166500e+00
   endloop
 endfacet
 facet normal  0.000000e+00 -1.000000e+00  0.000000e+00
   outer loop
     vertex -2.602500e+00 -1.040000e+00 -1.387779e-17
     vertex -1.522500e+00 -1.040000e+00  0.000000e+00
     vertex -1.522500e+00 -1.040000e+00  1.000000e-01
   endloop
 endfacet
 facet normal  0.000000e+00 -1.000000e+00  0.000000e+00
   outer loop
     vertex -2.602500e+00 -1.040000e+00  1.000000e-01
     vertex -2.602500e+00 -1.040000e+00 -1.387779e-17
     vertex -1.522500e+00 -1.040000e+00  1.000000e-01
   endloop
 endfacet
 facet normal  0.000000e+00 -1.000000e+00  0.000000e+00
   outer loop
     vertex -2.602500e+00 -1.040000e+00  1.066500e+00
     vertex -1.622500e+00 -1.040000e+00  1.066500e+00
     vertex -1.622500e+00 -1.040000e+00  1.166500e+00
   endloop
 endfacet
 facet normal  0.000000e+00 -1.000000e+00  0.000000e+00
   outer loop
     vertex -2.602500e+00 -1.040000e+00  1.166500e+00
     vertex -2.602500e+00 -1.040000e+00  1.066500e+00
     vertex -1.622500e+00 -1.040000e+00  1.166500e+00
   endloop
 endfacet
 facet normal -0.000000e+00  0.000000e+00  1.000000e+00
   outer loop
     vertex -1.622500e+00  1.040000e+00  1.166500e+00
     vertex -2.602500e+00 -1.040000e+00  1.166500e+00
     vertex -1.622500e+00 -1.040000e+00  1.166500e+00
   endloop
 endfacet
 facet normal  0.000000e+00  0.000000e+00  1.000000e+00
   outer loop
     vertex -1.622500e+00  1.040000e+00  1.166500e+00
     vertex -2.602500e+00  1.040000e+00  1.166500e+00
     vertex -2.602500e+00 -1.040000e+00  1.166500e+00
   endloop
 endfacet
 facet normal -9.914449e-01  0.000000e+00  1.305262e-01
   outer loop
     vertex -2.699093e+00  1.040000e+00  1.092382e+00
     vertex -2.702500e+00 -1.040000e+00  1.066500e+00
     vertex -2.699093e+00 -1.040000e+00  1.092382e+00
   endloop
 endfacet
 facet normal -9.914449e-01  0.000000e+00  1.305262e-01
   outer loop
     vertex -2.699093e+00  1.040000e+00  1.092382e+00
     vertex -2.702500e+00  1.040000e+00  1.066500e+00
     vertex -2.702500e+00 -1.040000e+00  1.066500e+00
   endloop
 endfacet
 facet normal -9.238795e-01  0.000000e+00  3.826834e-01
   outer loop
     vertex -2.689103e+00  1.040000e+00  1.116500e+00
     vertex -2.699093e+00 -1.040000e+00  1.092382e+00
     vertex -2.689103e+00 -1.040000e+00  1.116500e+00
   endloop
 endfacet
 facet normal -9.238795e-01  0.000000e+00  3.826834e-01
   outer loop
     vertex -2.689103e+00  1.040000e+00  1.116500e+00
     vertex -2.699093e+00  1.040000e+00  1.092382e+00
     vertex -2.699093e+00 -1.040000e+00  1.092382e+00
   endloop
 endfacet
 facet normal -7.933533e-01  0.000000e+00  6.087614e-01
   outer loop
     vertex -2.673211e+00  1.040000e+00  1.137211e+00
     vertex -2.689103e+00 -1.040000e+00  1.116500e+00
     vertex -2.673211e+00 -1.040000e+00  1.137211e+00
   endloop
 endfacet
 facet normal -7.933533e-01  0.000000e+00  6.087614e-01
   outer loop
     vertex -2.673211e+00  1.040000e+00  1.137211e+00
     vertex -2.689103e+00  1.040000e+00  1.116500e+00
     vertex -2.689103e+00 -1.040000e+00  1.116500e+00
   endloop
 endfacet
 facet normal -6.087614e-01  0.000000e+00  7.933533e-01
   outer loop
     vertex -2.652500e+00  1.040000e+00  1.153103e+00
     vertex -2.673211e+00 -1.040000e+00  1.137211e+00
     vertex -2.652500e+00 -1.040000e+00  1.153103e+00
   endloop
 endfacet
 facet normal -6.087614e-01  0.000000e+00  7.933533e-01
   outer loop
     vertex -2.652500e+00  1.040000e+00  1.153103e+00
     vertex -2.673211e+00  1.040000e+00  1.137211e+00
     vertex -2.673211e+00 -1.040000e+00  1.137211e+00
   endloop
 endfacet
 facet normal -3.826834e-01  0.000000e+00  9.238795e-01
   outer loop
     vertex -2.628382e+00  1.040000e+00  1.163093e+00
     vertex -2.652500e+00 -1.040000e+00  1.153103e+00
     vertex -2.628382e+00 -1.040000e+00  1.163093e+00
   endloop
 endfacet
 facet normal -1.305262e-01  0.000000e+00  9.914449e-01
   outer loop
     vertex -2.628382e+00  1.040000e+00  1.163093e+00
     vertex -2.628382e+00 -1.040000e+00  1.163093e+00
     vertex -2.602500e+00 -1.040000e+00  1.166500e+00
   endloop
 endfacet
 facet normal -3.826834e-01  0.000000e+00  9.238795e-01
   outer loop
     vertex -2.628382e+00  1.040000e+00  1.163093e+00
     vertex -2.652500e+00  1.040000e+00  1.153103e+00
     vertex -2.652500e+00 -1.040000e+00  1.153103e+00
   endloop
 endfacet
 facet normal -1.305262e-01  0.000000e+00  9.914449e-01
   outer loop
     vertex -2.602500e+00  1.040000e+00  1.166500e+00
     vertex -2.628382e+00  1.040000e+00  1.163093e+00
     vertex -2.602500e+00 -1.040000e+00  1.166500e+00
   endloop
 endfacet
 facet normal  1.000000e+00 -0.000000e+00  0.000000e+00
   outer loop
     vertex -1.622500e+00 -1.040000e+00  1.166500e+00
     vertex -1.622500e+00  1.040000e+00  1.066500e+00
     vertex -1.622500e+00  1.040000e+00  1.166500e+00
   endloop
 endfacet
 facet normal  1.000000e+00 -0.000000e+00  0.000000e+00
   outer loop
     vertex -1.622500e+00 -1.040000e+00  1.166500e+00
     vertex -1.622500e+00 -1.040000e+00  1.066500e+00
     vertex -1.622500e+00  1.040000e+00  1.066500e+00
   endloop
 endfacet
 facet normal -1.000000e+00 -0.000000e+00 -0.000000e+00
   outer loop
     vertex -2.702500e+00  1.040000e+00  1.066500e+00
     vertex -2.702500e+00  1.040000e+00  1.000000e-01
     vertex -2.702500e+00 -1.040000e+00  1.000000e-01
   endloop
 endfacet
 facet normal -1.000000e+00 -0.000000e+00  0.000000e+00
   outer loop
     vertex -2.702500e+00  1.040000e+00  1.066500e+00
     vertex -2.702500e+00 -1.040000e+00  1.000000e-01
     vertex -2.702500e+00 -1.040000e+00  1.066500e+00
   endloop
 endfacet
 facet normal  0.000000e+00  0.000000e+00 -1.000000e+00
   outer loop
     vertex -1.622500e+00 -1.040000e+00  1.066500e+00
     vertex -2.602500e+00 -1.040000e+00  1.066500e+00
     vertex -1.622500e+00  1.040000e+00  1.066500e+00
   endloop
 endfacet
 facet normal  0.000000e+00  0.000000e+00 -1.000000e+00
   outer loop
     vertex -2.602500e+00 -1.040000e+00  1.066500e+00
     vertex -2.602500e+00  1.040000e+00  1.066500e+00
     vertex -1.622500e+00  1.040000e+00  1.066500e+00
   endloop
 endfacet
 facet normal -1.305262e-01 -0.000000e+00 -9.914449e-01
   outer loop
     vertex -2.602500e+00  1.040000e+00 -1.387779e-17
     vertex -2.602500e+00 -1.040000e+00 -1.387779e-17
     vertex -2.628382e+00 -1.040000e+00  3.407417e-03
   endloop
 endfacet
 facet normal -3.826834e-01 -0.000000e+00 -9.238795e-01
   outer loop
     vertex -2.628382e+00  1.040000e+00  3.407417e-03
     vertex -2.628382e+00 -1.040000e+00  3.407417e-03
     vertex -2.652500e+00 -1.040000e+00  1.339746e-02
   endloop
 endfacet
 facet normal -1.305262e-01  0.000000e+00 -9.914449e-01
   outer loop
     vertex -2.628382e+00  1.040000e+00  3.407417e-03
     vertex -2.602500e+00  1.040000e+00 -1.387779e-17
     vertex -2.628382e+00 -1.040000e+00  3.407417e-03
   endloop
 endfacet
 facet normal -3.826834e-01  0.000000e+00 -9.238795e-01
   outer loop
     vertex -2.652500e+00  1.040000e+00  1.339746e-02
     vertex -2.628382e+00  1.040000e+00  3.407417e-03
     vertex -2.652500e+00 -1.040000e+00  1.339746e-02
   endloop
 endfacet
 facet normal -6.087614e-01  0.000000e+00 -7.933533e-01
   outer loop
     vertex -2.673211e+00  1.040000e+00  2.928932e-02
     vertex -2.652500e+00 -1.040000e+00  1.339746e-02
     vertex -2.673211e+00 -1.040000e+00  2.928932e-02
   endloop
 endfacet
 facet normal -7.933533e-01 -0.000000e+00 -6.087614e-01
   outer loop
     vertex -2.673211e+00  1.040000e+00  2.928932e-02
     vertex -2.673211e+00 -1.040000e+00  2.928932e-02
     vertex -2.689103e+00 -1.040000e+00  5.000000e-02
   endloop
 endfacet
 facet normal -6.087614e-01 -0.000000e+00 -7.933533e-01
   outer loop
     vertex -2.673211e+00  1.040000e+00  2.928932e-02
     vertex -2.652500e+00  1.040000e+00  1.339746e-02
     vertex -2.652500e+00 -1.040000e+00  1.339746e-02
   endloop
 endfacet
 facet normal -7.933533e-01  0.000000e+00 -6.087614e-01
   outer loop
     vertex -2.689103e+00  1.040000e+00  5.000000e-02
     vertex -2.673211e+00  1.040000e+00  2.928932e-02
     vertex -2.689103e+00 -1.040000e+00  5.000000e-02
   endloop
 endfacet
 facet normal -9.238795e-01  0.000000e+00 -3.826834e-01
   outer loop
     vertex -2.699093e+00  1.040000e+00  7.411810e-02
     vertex -2.689103e+00 -1.040000e+00  5.000000e-02
     vertex -2.699093e+00 -1.040000e+00  7.411810e-02
   endloop
 endfacet
 facet normal -9.238795e-01 -0.000000e+00 -3.826834e-01
   outer loop
     vertex -2.699093e+00  1.040000e+00  7.411810e-02
     vertex -2.689103e+00  1.040000e+00  5.000000e-02
     vertex -2.689103e+00 -1.040000e+00  5.000000e-02
   endloop
 endfacet
 facet normal -9.914449e-01  0.000000e+00 -1.305262e-01
   outer loop
     vertex -2.702500e+00  1.040000e+00  1.000000e-01
     vertex -2.699093e+00 -1.040000e+00  7.411810e-02
     vertex -2.702500e+00 -1.040000e+00  1.000000e-01
   endloop
 endfacet
 facet normal -9.914449e-01 -0.000000e+00 -1.305262e-01
   outer loop
     vertex -2.702500e+00  1.040000e+00  1.000000e-01
     vertex -2.699093e+00  1.040000e+00  7.411810e-02
     vertex -2.699093e+00 -1.040000e+00  7.411810e-02
   endloop
 endfacet
 facet normal  1.000000e+00 -0.000000e+00  0.000000e+00
   outer loop
     vertex -2.602500e+00 -1.040000e+00  1.066500e+00
     vertex -2.602500e+00  1.040000e+00  1.000000e-01
     vertex -2.602500e+00  1.040000e+00  1.066500e+00
   endloop
 endfacet
 facet normal  1.000000e+00 -0.000000e+00  0.000000e+00
   outer loop
     vertex -2.602500e+00 -1.040000e+00  1.066500e+00
     vertex -2.602500e+00 -1.040000e+00  1.000000e-01
     vertex -2.602500e+00  1.040000e+00  1.000000e-01
   endloop
 endfacet
 facet normal  1.284980e-17  0.000000e+00 -1.000000e+00
   outer loop
     vertex -2.602500e+00 -1.040000e+00 -1.387779e-17
     vertex -2.602500e+00  1.040000e+00 -1.387779e-17
     vertex -1.522500e+00  1.040000e+00  0.000000e+00
   endloop
 endfacet
 facet normal  1.284980e-17  0.000000e+00 -1.000000e+00
   outer loop
     vertex -1.522500e+00 -1.040000e+00  0.000000e+00
     vertex -2.602500e+00 -1.040000e+00 -1.387779e-17
     vertex -1.522500e+00  1.040000e+00  0.000000e+00
   endloop
 endfacet
 facet normal -0.000000e+00  0.000000e+00  1.000000e+00
   outer loop
     vertex -1.522500e+00  1.040000e+00  1.000000e-01
     vertex -2.602500e+00 -1.040000e+00  1.000000e-01
     vertex -1.522500e+00 -1.040000e+00  1.000000e-01
   endloop
 endfacet
 facet normal  0.000000e+00  0.000000e+00  1.000000e+00
   outer loop
     vertex -1.522500e+00  1.040000e+00  1.000000e-01
     vertex -2.602500e+00  1.040000e+00  1.000000e-01
     vertex -2.602500e+00 -1.040000e+00  1.000000e-01
   endloop
 endfacet
 facet normal  1.000000e+00 -0.000000e+00  0.000000e+00
   outer loop
     vertex -1.522500e+00 -1.040000e+00  1.000000e-01
     vertex -1.522500e+00  1.040000e+00  0.000000e+00
     vertex -1.522500e+00  1.040000e+00  1.000000e-01
   endloop
 endfacet
 facet normal  1.000000e+00 -0.000000e+00  0.000000e+00
   outer loop
     vertex -1.522500e+00 -1.040000e+00  1.000000e-01
     vertex -1.522500e+00 -1.040000e+00  0.000000e+00
     vertex -1.522500e+00  1.040000e+00  0.000000e+00
   endloop
 endfacet
 facet normal  0.000000e+00  1.000000e+00  0.000000e+00
   outer loop
     vertex -2.602500e+00  1.040000e+00  1.000000e-01
     vertex -2.602500e+00  1.040000e+00 -1.387779e-17
     vertex -2.628382e+00  1.040000e+00  3.407417e-03
   endloop
 endfacet
 facet normal  0.000000e+00  1.000000e+00  0.000000e+00
   outer loop
     vertex -2.602500e+00  1.040000e+00  1.000000e-01
     vertex -2.628382e+00  1.040000e+00  3.407417e-03
     vertex -2.652500e+00  1.040000e+00  1.339746e-02
   endloop
 endfacet
 facet normal  0.000000e+00  1.000000e+00  0.000000e+00
   outer loop
     vertex -2.602500e+00  1.040000e+00  1.000000e-01
     vertex -2.652500e+00  1.040000e+00  1.339746e-02
     vertex -2.673211e+00  1.040000e+00  2.928932e-02
   endloop
 endfacet
 facet normal  0.000000e+00  1.000000e+00  0.000000e+00
   outer loop
     vertex -2.602500e+00  1.040000e+00  1.000000e-01
     vertex -2.673211e+00  1.040000e+00  2.928932e-02
     vertex -2.689103e+00  1.040000e+00  5.000000e-02
   endloop
 endfacet
 facet normal  0.000000e+00  1.000000e+00  0.000000e+00
   outer loop
     vertex -2.602500e+00  1.040000e+00  1.000000e-01
     vertex -2.689103e+00  1.040000e+00  5.000000e-02
     vertex -2.699093e+00  1.040000e+00  7.411810e-02
   endloop
 endfacet
 facet normal  0.000000e+00  1.000000e+00  0.000000e+00
   outer loop
     vertex -2.602500e+00  1.040000e+00  1.000000e-01
     vertex -2.699093e+00  1.040000e+00  7.411810e-02
     vertex -2.702500e+00  1.040000e+00  1.000000e-01
   endloop
 endfacet
 facet normal  0.000000e+00  1.000000e+00  0.000000e+00
   outer loop
     vertex -2.702500e+00  1.040000e+00  1.066500e+00
     vertex -2.602500e+00  1.040000e+00  1.000000e-01
     vertex -2.702500e+00  1.040000e+00  1.000000e-01
   endloop
 endfacet
 facet normal  0.000000e+00  1.000000e+00 -0.000000e+00
   outer loop
     vertex -2.602500e+00  1.040000e+00  1.066500e+00
     vertex -2.702500e+00  1.040000e+00  1.066500e+00
     vertex -2.699093e+00  1.040000e+00  1.092382e+00
   endloop
 endfacet
 facet normal  0.000000e+00  1.000000e+00 -0.000000e+00
   outer loop
     vertex -2.602500e+00  1.040000e+00  1.066500e+00
     vertex -2.699093e+00  1.040000e+00  1.092382e+00
     vertex -2.689103e+00  1.040000e+00  1.116500e+00
   endloop
 endfacet
 facet normal  0.000000e+00  1.000000e+00 -0.000000e+00
   outer loop
     vertex -2.602500e+00  1.040000e+00  1.066500e+00
     vertex -2.689103e+00  1.040000e+00  1.116500e+00
     vertex -2.673211e+00  1.040000e+00  1.137211e+00
   endloop
 endfacet
 facet normal  0.000000e+00  1.000000e+00  0.000000e+00
   outer loop
     vertex -2.602500e+00  1.040000e+00  1.066500e+00
     vertex -2.602500e+00  1.040000e+00  1.000000e-01
     vertex -2.702500e+00  1.040000e+00  1.066500e+00
   endloop
 endfacet
 facet normal  0.000000e+00  1.000000e+00  0.000000e+00
   outer loop
     vertex -2.652500e+00  1.040000e+00  1.153103e+00
     vertex -2.602500e+00  1.040000e+00  1.066500e+00
     vertex -2.673211e+00  1.040000e+00  1.137211e+00
   endloop
 endfacet
 facet normal  0.000000e+00  1.000000e+00  0.000000e+00
   outer loop
     vertex -2.628382e+00  1.040000e+00  1.163093e+00
     vertex -2.602500e+00  1.040000e+00  1.066500e+00
     vertex -2.652500e+00  1.040000e+00  1.153103e+00
   endloop
 endfacet
 facet normal  0.000000e+00  1.000000e+00  0.000000e+00
   outer loop
     vertex -2.602500e+00  1.040000e+00  1.166500e+00
     vertex -2.602500e+00  1.040000e+00  1.066500e+00
     vertex -2.628382e+00  1.040000e+00  1.163093e+00
   endloop
 endfacet
 facet normal  0.000000e+00  1.000000e+00  0.000000e+00
   outer loop
     vertex -1.522500e+00  1.040000e+00  1.000000e-01
     vertex -1.522500e+00  1.040000e+00  0.000000e+00
     vertex -2.602500e+00  1.040000e+00 -1.387779e-17
   endloop
 endfacet
 facet normal  0.000000e+00  1.000000e+00 -0.000000e+00
   outer loop
     vertex -1.522500e+00  1.040000e+00  1.000000e-01
     vertex -2.602500e+00  1.040000e+00 -1.387779e-17
     vertex -2.602500e+00  1.040000e+00  1.000000e-01
   endloop
 endfacet
 facet normal  0.000000e+00  1.000000e+00  0.000000e+00
   outer loop
     vertex -1.622500e+00  1.040000e+00  1.166500e+00
     vertex -1.622500e+00  1.040000e+00  1.066500e+00
     vertex -2.602500e+00  1.040000e+00  1.066500e+00
   endloop
 endfacet
 facet normal  0.000000e+00  1.000000e+00 -0.000000e+00
   outer loop
     vertex -1.622500e+00  1.040000e+00  1.166500e+00
     vertex -2.602500e+00  1.040000e+00  1.066500e+00
     vertex -2.602500e+00  1.040000e+00  1.166500e+00
   endloop
 endfacet
 facet normal  1.000000e+00  0.000000e+00  0.000000e+00
   outer loop
     vertex  2.702500e+00 -1.040000e+00  1.000000e-01
     vertex  2.702500e+00  1.040000e+00  1.000000e-01
     vertex  2.702500e+00  1.040000e+00  1.066500e+00
   endloop
 endfacet
 facet normal  1.000000e+00 -0.000000e+00  0.000000e+00
   outer loop
     vertex  2.702500e+00 -1.040000e+00  1.066500e+00
     vertex  2.702500e+00 -1.040000e+00  1.000000e-01
     vertex  2.702500e+00  1.040000e+00  1.066500e+00
   endloop
 endfacet
 facet normal  0.000000e+00 -1.000000e+00  0.000000e+00
   outer loop
     vertex  1.422500e+00 -1.040000e+00  0.000000e+00
     vertex  2.602500e+00 -1.040000e+00 -1.387779e-17
     vertex  2.602500e+00 -1.040000e+00  1.000000e-01
   endloop
 endfacet
 facet normal  0.000000e+00 -1.000000e+00  0.000000e+00
   outer loop
     vertex  2.628382e+00 -1.040000e+00  3.407417e-03
     vertex  2.652500e+00 -1.040000e+00  1.339746e-02
     vertex  2.602500e+00 -1.040000e+00  1.000000e-01
   endloop
 endfacet
 facet normal  0.000000e+00 -1.000000e+00  0.000000e+00
   outer loop
     vertex  2.602500e+00 -1.040000e+00 -1.387779e-17
     vertex  2.628382e+00 -1.040000e+00  3.407417e-03
     vertex  2.602500e+00 -1.040000e+00  1.000000e-01
   endloop
 endfacet
 facet normal  0.000000e+00 -1.000000e+00  0.000000e+00
   outer loop
     vertex  1.422500e+00 -1.040000e+00  1.000000e-01
     vertex  1.422500e+00 -1.040000e+00  0.000000e+00
     vertex  2.602500e+00 -1.040000e+00  1.000000e-01
   endloop
 endfacet
 facet normal  0.000000e+00 -1.000000e+00  0.000000e+00
   outer loop
     vertex  2.602500e+00 -1.040000e+00  1.000000e-01
     vertex  2.652500e+00 -1.040000e+00  1.339746e-02
     vertex  2.673211e+00 -1.040000e+00  2.928932e-02
   endloop
 endfacet
 facet normal  0.000000e+00 -1.000000e+00  0.000000e+00
   outer loop
     vertex  2.602500e+00 -1.040000e+00  1.000000e-01
     vertex  2.673211e+00 -1.040000e+00  2.928932e-02
     vertex  2.689103e+00 -1.040000e+00  5.000000e-02
   endloop
 endfacet
 facet normal  0.000000e+00 -1.000000e+00  0.000000e+00
   outer loop
     vertex  2.602500e+00 -1.040000e+00  1.000000e-01
     vertex  2.689103e+00 -1.040000e+00  5.000000e-02
     vertex  2.699093e+00 -1.040000e+00  7.411810e-02
   endloop
 endfacet
 facet normal  0.000000e+00 -1.000000e+00  0.000000e+00
   outer loop
     vertex  2.602500e+00 -1.040000e+00  1.000000e-01
     vertex  2.699093e+00 -1.040000e+00  7.411810e-02
     vertex  2.702500e+00 -1.040000e+00  1.000000e-01
   endloop
 endfacet
 facet normal  0.000000e+00 -1.000000e+00  0.000000e+00
   outer loop
     vertex  2.602500e+00 -1.040000e+00  1.066500e+00
     vertex  2.602500e+00 -1.040000e+00  1.000000e-01
     vertex  2.702500e+00 -1.040000e+00  1.066500e+00
   endloop
 endfacet
 facet normal  0.000000e+00 -1.000000e+00  0.000000e+00
   outer loop
     vertex  2.602500e+00 -1.040000e+00  1.000000e-01
     vertex  2.702500e+00 -1.040000e+00  1.000000e-01
     vertex  2.702500e+00 -1.040000e+00  1.066500e+00
   endloop
 endfacet
 facet normal  0.000000e+00 -1.000000e+00  0.000000e+00
   outer loop
     vertex  1.522500e+00 -1.040000e+00  1.066500e+00
     vertex  2.602500e+00 -1.040000e+00  1.066500e+00
     vertex  2.602500e+00 -1.040000e+00  1.166500e+00
   endloop
 endfacet
 facet normal  0.000000e+00 -1.000000e+00  0.000000e+00
   outer loop
     vertex  1.522500e+00 -1.040000e+00  1.166500e+00
     vertex  1.522500e+00 -1.040000e+00  1.066500e+00
     vertex  2.602500e+00 -1.040000e+00  1.166500e+00
   endloop
 endfacet
 facet normal  0.000000e+00 -1.000000e+00  0.000000e+00
   outer loop
     vertex  2.602500e+00 -1.040000e+00  1.166500e+00
     vertex  2.602500e+00 -1.040000e+00  1.066500e+00
     vertex  2.628382e+00 -1.040000e+00  1.163093e+00
   endloop
 endfacet
 facet normal  0.000000e+00 -1.000000e+00  0.000000e+00
   outer loop
     vertex  2.602500e+00 -1.040000e+00  1.066500e+00
     vertex  2.702500e+00 -1.040000e+00  1.066500e+00
     vertex  2.699093e+00 -1.040000e+00  1.092382e+00
   endloop
 endfacet
 facet normal  0.000000e+00 -1.000000e+00  0.000000e+00
   outer loop
     vertex  2.602500e+00 -1.040000e+00  1.066500e+00
     vertex  2.699093e+00 -1.040000e+00  1.092382e+00
     vertex  2.689103e+00 -1.040000e+00  1.116500e+00
   endloop
 endfacet
 facet normal  0.000000e+00 -1.000000e+00 -0.000000e+00
   outer loop
     vertex  2.628382e+00 -1.040000e+00  1.163093e+00
     vertex  2.602500e+00 -1.040000e+00  1.066500e+00
     vertex  2.652500e+00 -1.040000e+00  1.153103e+00
   endloop
 endfacet
 facet normal  0.000000e+00 -1.000000e+00  0.000000e+00
   outer loop
     vertex  2.602500e+00 -1.040000e+00  1.066500e+00
     vertex  2.689103e+00 -1.040000e+00  1.116500e+00
     vertex  2.673211e+00 -1.040000e+00  1.137211e+00
   endloop
 endfacet
 facet normal  0.000000e+00 -1.000000e+00 -0.000000e+00
   outer loop
     vertex  2.652500e+00 -1.040000e+00  1.153103e+00
     vertex  2.602500e+00 -1.040000e+00  1.066500e+00
     vertex  2.673211e+00 -1.040000e+00  1.137211e+00
   endloop
 endfacet
 facet normal  9.914449e-01  0.000000e+00 -1.305262e-01
   outer loop
     vertex  2.699093e+00  1.040000e+00  7.411810e-02
     vertex  2.702500e+00 -1.040000e+00  1.000000e-01
     vertex  2.699093e+00 -1.040000e+00  7.411810e-02
   endloop
 endfacet
 facet normal  9.914449e-01  0.000000e+00 -1.305262e-01
   outer loop
     vertex  2.699093e+00  1.040000e+00  7.411810e-02
     vertex  2.702500e+00  1.040000e+00  1.000000e-01
     vertex  2.702500e+00 -1.040000e+00  1.000000e-01
   endloop
 endfacet
 facet normal  9.238795e-01  0.000000e+00 -3.826834e-01
   outer loop
     vertex  2.689103e+00  1.040000e+00  5.000000e-02
     vertex  2.699093e+00 -1.040000e+00  7.411810e-02
     vertex  2.689103e+00 -1.040000e+00  5.000000e-02
   endloop
 endfacet
 facet normal  9.238795e-01  0.000000e+00 -3.826834e-01
   outer loop
     vertex  2.689103e+00  1.040000e+00  5.000000e-02
     vertex  2.699093e+00  1.040000e+00  7.411810e-02
     vertex  2.699093e+00 -1.040000e+00  7.411810e-02
   endloop
 endfacet
 facet normal  7.933533e-01  0.000000e+00 -6.087614e-01
   outer loop
     vertex  2.673211e+00  1.040000e+00  2.928932e-02
     vertex  2.689103e+00 -1.040000e+00  5.000000e-02
     vertex  2.673211e+00 -1.040000e+00  2.928932e-02
   endloop
 endfacet
 facet normal  6.087614e-01  0.000000e+00 -7.933533e-01
   outer loop
     vertex  2.673211e+00  1.040000e+00  2.928932e-02
     vertex  2.673211e+00 -1.040000e+00  2.928932e-02
     vertex  2.652500e+00 -1.040000e+00  1.339746e-02
   endloop
 endfacet
 facet normal  7.933533e-01  0.000000e+00 -6.087614e-01
   outer loop
     vertex  2.673211e+00  1.040000e+00  2.928932e-02
     vertex  2.689103e+00  1.040000e+00  5.000000e-02
     vertex  2.689103e+00 -1.040000e+00  5.000000e-02
   endloop
 endfacet
 facet normal  3.826834e-01  0.000000e+00 -9.238795e-01
   outer loop
     vertex  2.652500e+00  1.040000e+00  1.339746e-02
     vertex  2.652500e+00 -1.040000e+00  1.339746e-02
     vertex  2.628382e+00 -1.040000e+00  3.407417e-03
   endloop
 endfacet
 facet normal  6.087614e-01  0.000000e+00 -7.933533e-01
   outer loop
     vertex  2.652500e+00  1.040000e+00  1.339746e-02
     vertex  2.673211e+00  1.040000e+00  2.928932e-02
     vertex  2.652500e+00 -1.040000e+00  1.339746e-02
   endloop
 endfacet
 facet normal  3.826834e-01  0.000000e+00 -9.238795e-01
   outer loop
     vertex  2.628382e+00  1.040000e+00  3.407417e-03
     vertex  2.652500e+00  1.040000e+00  1.339746e-02
     vertex  2.628382e+00 -1.040000e+00  3.407417e-03
   endloop
 endfacet
 facet normal  1.305262e-01  0.000000e+00 -9.914449e-01
   outer loop
     vertex  2.602500e+00  1.040000e+00 -1.387779e-17
     vertex  2.628382e+00 -1.040000e+00  3.407417e-03
     vertex  2.602500e+00 -1.040000e+00 -1.387779e-17
   endloop
 endfacet
 facet normal  1.305262e-01  0.000000e+00 -9.914449e-01
   outer loop
     vertex  2.602500e+00  1.040000e+00 -1.387779e-17
     vertex  2.628382e+00  1.040000e+00  3.407417e-03
     vertex  2.628382e+00 -1.040000e+00  3.407417e-03
   endloop
 endfacet
 facet normal  9.914449e-01  0.000000e+00  1.305262e-01
   outer loop
     vertex  2.699093e+00 -1.040000e+00  1.092382e+00
     vertex  2.702500e+00 -1.040000e+00  1.066500e+00
     vertex  2.699093e+00  1.040000e+00  1.092382e+00
   endloop
 endfacet
 facet normal  9.914449e-01 -0.000000e+00  1.305262e-01
   outer loop
     vertex  2.702500e+00 -1.040000e+00  1.066500e+00
     vertex  2.702500e+00  1.040000e+00  1.066500e+00
     vertex  2.699093e+00  1.040000e+00  1.092382e+00
   endloop
 endfacet
 facet normal  9.238795e-01  0.000000e+00  3.826834e-01
   outer loop
     vertex  2.689103e+00 -1.040000e+00  1.116500e+00
     vertex  2.699093e+00 -1.040000e+00  1.092382e+00
     vertex  2.689103e+00  1.040000e+00  1.116500e+00
   endloop
 endfacet
 facet normal  9.238795e-01 -0.000000e+00  3.826834e-01
   outer loop
     vertex  2.699093e+00 -1.040000e+00  1.092382e+00
     vertex  2.699093e+00  1.040000e+00  1.092382e+00
     vertex  2.689103e+00  1.040000e+00  1.116500e+00
   endloop
 endfacet
 facet normal  7.933533e-01  0.000000e+00  6.087614e-01
   outer loop
     vertex  2.673211e+00 -1.040000e+00  1.137211e+00
     vertex  2.689103e+00 -1.040000e+00  1.116500e+00
     vertex  2.673211e+00  1.040000e+00  1.137211e+00
   endloop
 endfacet
 facet normal  7.933533e-01 -0.000000e+00  6.087614e-01
   outer loop
     vertex  2.689103e+00 -1.040000e+00  1.116500e+00
     vertex  2.689103e+00  1.040000e+00  1.116500e+00
     vertex  2.673211e+00  1.040000e+00  1.137211e+00
   endloop
 endfacet
 facet normal  6.087614e-01  0.000000e+00  7.933533e-01
   outer loop
     vertex  2.652500e+00 -1.040000e+00  1.153103e+00
     vertex  2.673211e+00 -1.040000e+00  1.137211e+00
     vertex  2.652500e+00  1.040000e+00  1.153103e+00
   endloop
 endfacet
 facet normal  6.087614e-01 -0.000000e+00  7.933533e-01
   outer loop
     vertex  2.673211e+00 -1.040000e+00  1.137211e+00
     vertex  2.673211e+00  1.040000e+00  1.137211e+00
     vertex  2.652500e+00  1.040000e+00  1.153103e+00
   endloop
 endfacet
 facet normal  3.826834e-01  0.000000e+00  9.238795e-01
   outer loop
     vertex  2.628382e+00 -1.040000e+00  1.163093e+00
     vertex  2.652500e+00 -1.040000e+00  1.153103e+00
     vertex  2.628382e+00  1.040000e+00  1.163093e+00
   endloop
 endfacet
 facet normal  1.305262e-01 -0.000000e+00  9.914449e-01
   outer loop
     vertex  2.602500e+00 -1.040000e+00  1.166500e+00
     vertex  2.628382e+00 -1.040000e+00  1.163093e+00
     vertex  2.628382e+00  1.040000e+00  1.163093e+00
   endloop
 endfacet
 facet normal  3.826834e-01 -0.000000e+00  9.238795e-01
   outer loop
     vertex  2.652500e+00 -1.040000e+00  1.153103e+00
     vertex  2.652500e+00  1.040000e+00  1.153103e+00
     vertex  2.628382e+00  1.040000e+00  1.163093e+00
   endloop
 endfacet
 facet normal  1.305262e-01  0.000000e+00  9.914449e-01
   outer loop
     vertex  2.602500e+00 -1.040000e+00  1.166500e+00
     vertex  2.628382e+00  1.040000e+00  1.163093e+00
     vertex  2.602500e+00  1.040000e+00  1.166500e+00
   endloop
 endfacet
 facet normal  0.000000e+00  1.000000e+00  0.000000e+00
   outer loop
     vertex  2.602500e+00  1.040000e+00  1.000000e-01
     vertex  2.652500e+00  1.040000e+00  1.339746e-02
     vertex  2.628382e+00  1.040000e+00  3.407417e-03
   endloop
 endfacet
 facet normal  0.000000e+00  1.000000e+00  0.000000e+00
   outer loop
     vertex  2.602500e+00  1.040000e+00  1.000000e-01
     vertex  2.628382e+00  1.040000e+00  3.407417e-03
     vertex  2.602500e+00  1.040000e+00 -1.387779e-17
   endloop
 endfacet
 facet normal  0.000000e+00  1.000000e+00  0.000000e+00
   outer loop
     vertex  2.602500e+00  1.040000e+00  1.000000e-01
     vertex  2.602500e+00  1.040000e+00 -1.387779e-17
     vertex  1.422500e+00  1.040000e+00  0.000000e+00
   endloop
 endfacet
 facet normal  0.000000e+00  1.000000e+00 -0.000000e+00
   outer loop
     vertex  2.602500e+00  1.040000e+00  1.000000e-01
     vertex  1.422500e+00  1.040000e+00  0.000000e+00
     vertex  1.422500e+00  1.040000e+00  1.000000e-01
   endloop
 endfacet
 facet normal  0.000000e+00  1.000000e+00  0.000000e+00
   outer loop
     vertex  2.673211e+00  1.040000e+00  2.928932e-02
     vertex  2.652500e+00  1.040000e+00  1.339746e-02
     vertex  2.602500e+00  1.040000e+00  1.000000e-01
   endloop
 endfacet
 facet normal  0.000000e+00  1.000000e+00  0.000000e+00
   outer loop
     vertex  2.689103e+00  1.040000e+00  5.000000e-02
     vertex  2.673211e+00  1.040000e+00  2.928932e-02
     vertex  2.602500e+00  1.040000e+00  1.000000e-01
   endloop
 endfacet
 facet normal  0.000000e+00  1.000000e+00  0.000000e+00
   outer loop
     vertex  2.699093e+00  1.040000e+00  7.411810e-02
     vertex  2.689103e+00  1.040000e+00  5.000000e-02
     vertex  2.602500e+00  1.040000e+00  1.000000e-01
   endloop
 endfacet
 facet normal  0.000000e+00  1.000000e+00  0.000000e+00
   outer loop
     vertex  2.702500e+00  1.040000e+00  1.000000e-01
     vertex  2.699093e+00  1.040000e+00  7.411810e-02
     vertex  2.602500e+00  1.040000e+00  1.000000e-01
   endloop
 endfacet
 facet normal  0.000000e+00  1.000000e+00 -0.000000e+00
   outer loop
     vertex  2.602500e+00  1.040000e+00  1.166500e+00
     vertex  1.522500e+00  1.040000e+00  1.066500e+00
     vertex  1.522500e+00  1.040000e+00  1.166500e+00
   endloop
 endfacet
 facet normal  0.000000e+00  1.000000e+00  0.000000e+00
   outer loop
     vertex  2.602500e+00  1.040000e+00  1.166500e+00
     vertex  2.602500e+00  1.040000e+00  1.066500e+00
     vertex  1.522500e+00  1.040000e+00  1.066500e+00
   endloop
 endfacet
 facet normal  0.000000e+00  1.000000e+00 -0.000000e+00
   outer loop
     vertex  2.702500e+00  1.040000e+00  1.066500e+00
     vertex  2.602500e+00  1.040000e+00  1.000000e-01
     vertex  2.602500e+00  1.040000e+00  1.066500e+00
   endloop
 endfacet
 facet normal  0.000000e+00  1.000000e+00  0.000000e+00
   outer loop
     vertex  2.702500e+00  1.040000e+00  1.066500e+00
     vertex  2.702500e+00  1.040000e+00  1.000000e-01
     vertex  2.602500e+00  1.040000e+00  1.000000e-01
   endloop
 endfacet
 facet normal  0.000000e+00  1.000000e+00  0.000000e+00
   outer loop
     vertex  2.699093e+00  1.040000e+00  1.092382e+00
     vertex  2.702500e+00  1.040000e+00  1.066500e+00
     vertex  2.602500e+00  1.040000e+00  1.066500e+00
   endloop
 endfacet
 facet normal  0.000000e+00  1.000000e+00 -0.000000e+00
   outer loop
     vertex  2.628382e+00  1.040000e+00  1.163093e+00
     vertex  2.602500e+00  1.040000e+00  1.066500e+00
     vertex  2.602500e+00  1.040000e+00  1.166500e+00
   endloop
 endfacet
 facet normal  0.000000e+00  1.000000e+00  0.000000e+00
   outer loop
     vertex  2.689103e+00  1.040000e+00  1.116500e+00
     vertex  2.699093e+00  1.040000e+00  1.092382e+00
     vertex  2.602500e+00  1.040000e+00  1.066500e+00
   endloop
 endfacet
 facet normal  0.000000e+00  1.000000e+00 -0.000000e+00
   outer loop
     vertex  2.652500e+00  1.040000e+00  1.153103e+00
     vertex  2.602500e+00  1.040000e+00  1.066500e+00
     vertex  2.628382e+00  1.040000e+00  1.163093e+00
   endloop
 endfacet
 facet normal  0.000000e+00  1.000000e+00  0.000000e+00
   outer loop
     vertex  2.673211e+00  1.040000e+00  1.137211e+00
     vertex  2.689103e+00  1.040000e+00  1.116500e+00
     vertex  2.602500e+00  1.040000e+00  1.066500e+00
   endloop
 endfacet
 facet normal  0.000000e+00  1.000000e+00 -0.000000e+00
   outer loop
     vertex  2.673211e+00  1.040000e+00  1.137211e+00
     vertex  2.602500e+00  1.040000e+00  1.066500e+00
     vertex  2.652500e+00  1.040000e+00  1.153103e+00
   endloop
 endfacet
 facet normal -1.176084e-17  0.000000e+00 -1.000000e+00
   outer loop
     vertex  2.602500e+00 -1.040000e+00 -1.387779e-17
     vertex  1.422500e+00 -1.040000e+00  0.000000e+00
     vertex  1.422500e+00  1.040000e+00  0.000000e+00
   endloop
 endfacet
 facet normal -1.176084e-17  0.000000e+00 -1.000000e+00
   outer loop
     vertex  2.602500e+00 -1.040000e+00 -1.387779e-17
     vertex  1.422500e+00  1.040000e+00  0.000000e+00
     vertex  2.602500e+00  1.040000e+00 -1.387779e-17
   endloop
 endfacet
 facet normal -1.000000e+00 -0.000000e+00 -0.000000e+00
   outer loop
     vertex  1.422500e+00  1.040000e+00  1.000000e-01
     vertex  1.422500e+00  1.040000e+00  0.000000e+00
     vertex  1.422500e+00 -1.040000e+00  1.000000e-01
   endloop
 endfacet
 facet normal -1.000000e+00  0.000000e+00  0.000000e+00
   outer loop
     vertex  1.422500e+00  1.040000e+00  0.000000e+00
     vertex  1.422500e+00 -1.040000e+00  0.000000e+00
     vertex  1.422500e+00 -1.040000e+00  1.000000e-01
   endloop
 endfacet
 facet normal -0.000000e+00  0.000000e+00  1.000000e+00
   outer loop
     vertex  1.422500e+00  1.040000e+00  1.000000e-01
     vertex  1.422500e+00 -1.040000e+00  1.000000e-01
     vertex  2.602500e+00 -1.040000e+00  1.000000e-01
   endloop
 endfacet
 facet normal  0.000000e+00  0.000000e+00  1.000000e+00
   outer loop
     vertex  2.602500e+00  1.040000e+00  1.000000e-01
     vertex  1.422500e+00  1.040000e+00  1.000000e-01
     vertex  2.602500e+00 -1.040000e+00  1.000000e-01
   endloop
 endfacet
 facet normal -1.000000e+00 -0.000000e+00 -0.000000e+00
   outer loop
     vertex  2.602500e+00  1.040000e+00  1.066500e+00
     vertex  2.602500e+00  1.040000e+00  1.000000e-01
     vertex  2.602500e+00 -1.040000e+00  1.066500e+00
   endloop
 endfacet
 facet normal -1.000000e+00  0.000000e+00  0.000000e+00
   outer loop
     vertex  2.602500e+00  1.040000e+00  1.000000e-01
     vertex  2.602500e+00 -1.040000e+00  1.000000e-01
     vertex  2.602500e+00 -1.040000e+00  1.066500e+00
   endloop
 endfacet
 facet normal  0.000000e+00 -0.000000e+00  1.000000e+00
   outer loop
     vertex  1.522500e+00 -1.040000e+00  1.166500e+00
     vertex  2.602500e+00 -1.040000e+00  1.166500e+00
     vertex  1.522500e+00  1.040000e+00  1.166500e+00
   endloop
 endfacet
 facet normal  0.000000e+00 -0.000000e+00  1.000000e+00
   outer loop
     vertex  2.602500e+00 -1.040000e+00  1.166500e+00
     vertex  2.602500e+00  1.040000e+00  1.166500e+00
     vertex  1.522500e+00  1.040000e+00  1.166500e+00
   endloop
 endfacet
 facet normal  0.000000e+00  0.000000e+00 -1.000000e+00
   outer loop
     vertex  2.602500e+00 -1.040000e+00  1.066500e+00
     vertex  1.522500e+00 -1.040000e+00  1.066500e+00
     vertex  1.522500e+00  1.040000e+00  1.066500e+00
   endloop
 endfacet
 facet normal  0.000000e+00  0.000000e+00 -1.000000e+00
   outer loop
     vertex  2.602500e+00 -1.040000e+00  1.066500e+00
     vertex  1.522500e+00  1.040000e+00  1.066500e+00
     vertex  2.602500e+00  1.040000e+00  1.066500e+00
   endloop
 endfacet
 facet normal -1.000000e+00 -0.000000e+00 -0.000000e+00
   outer loop
     vertex  1.522500e+00  1.040000e+00  1.166500e+00
     vertex  1.522500e+00  1.040000e+00  1.066500e+00
     vertex  1.522500e+00 -1.040000e+00  1.166500e+00
   endloop
 endfacet
 facet normal -1.000000e+00  0.000000e+00  0.000000e+00
   outer loop
     vertex  1.522500e+00  1.040000e+00  1.066500e+00
     vertex  1.522500e+00 -1.040000e+00  1.066500e+00
     vertex  1.522500e+00 -1.040000e+00  1.166500e+00
   endloop
 endfacet
endsolid
