G04*
G04 #@! TF.GenerationSoftware,Altium Limited,Altium Designer,18.1.9 (240)*
G04*
G04 Layer_Color=255*
%FSAX24Y24*%
%MOIN*%
G70*
G01*
G75*
%ADD61R,0.0658X0.0658*%
%ADD62C,0.0679*%
%ADD63C,0.0600*%
%ADD64C,0.0472*%
%ADD65C,0.0669*%
%ADD66C,0.0433*%
%ADD67C,0.0561*%
%ADD68R,0.0743X0.0743*%
%ADD69C,0.0768*%
D61*
X017925Y022361D02*
D03*
X029750Y046567D02*
D03*
X032500Y044539D02*
D03*
X028537Y048221D02*
D03*
D62*
X018925Y022361D02*
D03*
X019925D02*
D03*
X030750Y046567D02*
D03*
X031750D02*
D03*
X030500Y044539D02*
D03*
X031500D02*
D03*
X030537Y048221D02*
D03*
X029537D02*
D03*
D63*
X036795Y037300D02*
D03*
X037795D02*
D03*
X036795Y038300D02*
D03*
X037795D02*
D03*
X036795Y039300D02*
D03*
X037795D02*
D03*
X036795Y040300D02*
D03*
X037795D02*
D03*
X036795Y041300D02*
D03*
X037795D02*
D03*
X036795Y042300D02*
D03*
X037795D02*
D03*
X036795Y043300D02*
D03*
X037795D02*
D03*
X036795Y044300D02*
D03*
X037795D02*
D03*
X036795Y045300D02*
D03*
X037795D02*
D03*
X036795Y046300D02*
D03*
X037795D02*
D03*
D64*
X034522Y013950D02*
D03*
X035522D02*
D03*
D65*
X014334Y043116D02*
D03*
Y045084D02*
D03*
X012366D02*
D03*
Y043116D02*
D03*
D66*
X022064Y047771D02*
D03*
X023985D02*
D03*
D67*
X013950Y022187D02*
D03*
Y037148D02*
D03*
D68*
X016793Y027600D02*
D03*
X019300Y027533D02*
D03*
D69*
X017793Y027600D02*
D03*
X020300Y027533D02*
D03*
M02*
