G04*
G04 #@! TF.GenerationSoftware,Altium Limited,Altium Designer,18.1.9 (240)*
G04*
G04 Layer_Color=65535*
%FSAX24Y24*%
%MOIN*%
G70*
G01*
G75*
%ADD10C,0.0098*%
%ADD11C,0.0079*%
%ADD12C,0.0079*%
%ADD13C,0.0090*%
D10*
X024771Y044151D02*
G03*
X024771Y044151I-000049J000000D01*
G01*
D11*
X038900Y014737D02*
G03*
X038900Y014737I-003878J000000D01*
G01*
X015892Y043054D02*
G03*
X015892Y043054I-000026J000000D01*
G01*
D12*
X021119Y043531D02*
X024781D01*
X021119Y039869D02*
Y043531D01*
Y039869D02*
X024781D01*
Y043531D01*
X024037Y021715D02*
X024352D01*
X024037Y021125D02*
X024352D01*
X034564Y026445D02*
Y026760D01*
X033974Y026445D02*
Y026760D01*
X026253Y030976D02*
X026568D01*
X026253Y030385D02*
X026568D01*
X020695Y030326D02*
Y030641D01*
X020105Y030326D02*
Y030641D01*
X036790Y022217D02*
Y022532D01*
X036200Y022217D02*
Y022532D01*
D13*
X029262Y049450D02*
X029128D01*
X029195D01*
Y049117D01*
X029128Y049050D01*
X029062D01*
X028995Y049117D01*
X029661Y049450D02*
X029395D01*
Y049250D01*
X029528Y049317D01*
X029595D01*
X029661Y049250D01*
Y049117D01*
X029595Y049050D01*
X029461D01*
X029395Y049117D01*
X031564Y045729D02*
X031431D01*
X031497D01*
Y045396D01*
X031431Y045329D01*
X031364D01*
X031297Y045396D01*
X031964Y045729D02*
X031830Y045662D01*
X031697Y045529D01*
Y045396D01*
X031764Y045329D01*
X031897D01*
X031964Y045396D01*
Y045462D01*
X031897Y045529D01*
X031697D01*
X032967Y046857D02*
X032833D01*
X032900D01*
Y046523D01*
X032833Y046457D01*
X032767D01*
X032700Y046523D01*
X033100Y046857D02*
X033366D01*
Y046790D01*
X033100Y046523D01*
Y046457D01*
X028950Y017280D02*
Y017680D01*
X029150D01*
X029217Y017613D01*
Y017480D01*
X029150Y017413D01*
X028950D01*
X029083D02*
X029217Y017280D01*
X029350D02*
Y017680D01*
X029483Y017547D01*
X029616Y017680D01*
Y017280D01*
X030016D02*
X029750D01*
X030016Y017547D01*
Y017613D01*
X029950Y017680D01*
X029816D01*
X029750Y017613D01*
X017870Y020920D02*
Y020520D01*
X018070D01*
X018137Y020587D01*
Y020853D01*
X018070Y020920D01*
X017870D01*
X018270Y020520D02*
X018403D01*
X018337D01*
Y020920D01*
X018270Y020853D01*
X035767Y026189D02*
X035700Y026255D01*
X035567D01*
X035500Y026189D01*
Y025922D01*
X035567Y025856D01*
X035700D01*
X035767Y025922D01*
X035900Y025856D02*
X036033D01*
X035967D01*
Y026255D01*
X035900Y026189D01*
X036233D02*
X036300Y026255D01*
X036433D01*
X036500Y026189D01*
Y025922D01*
X036433Y025856D01*
X036300D01*
X036233Y025922D01*
Y026189D01*
X036633Y025856D02*
X036766D01*
X036700D01*
Y026255D01*
X036633Y026189D01*
X036966Y025856D02*
Y026255D01*
X037099Y026122D01*
X037233Y026255D01*
Y025856D01*
X017525Y031035D02*
X017859D01*
X017925Y031101D01*
Y031235D01*
X017859Y031301D01*
X017525D01*
X017925Y031435D02*
X017659D01*
X017525Y031568D01*
X017659Y031701D01*
X017925D01*
X017725D01*
Y031435D01*
X017925Y031835D02*
X017659D01*
X017525Y031968D01*
X017659Y032101D01*
X017925D01*
X017725D01*
Y031835D01*
X023192Y035175D02*
X022792D01*
Y035375D01*
X022859Y035441D01*
X022992D01*
X023059Y035375D01*
Y035175D01*
Y035308D02*
X023192Y035441D01*
X022792Y035575D02*
Y035841D01*
Y035708D01*
X023192D01*
X022792Y036241D02*
Y035975D01*
X022992D01*
X022925Y036108D01*
Y036174D01*
X022992Y036241D01*
X023125D01*
X023192Y036174D01*
Y036041D01*
X023125Y035975D01*
X018450Y032050D02*
Y032450D01*
X018650D01*
X018717Y032383D01*
Y032250D01*
X018650Y032183D01*
X018450D01*
X018583D02*
X018717Y032050D01*
X019116Y032450D02*
X018850D01*
Y032050D01*
X019116D01*
X018850Y032250D02*
X018983D01*
X019450Y032050D02*
Y032450D01*
X019250Y032250D01*
X019516D01*
X023113Y031750D02*
Y032150D01*
X023313D01*
X023380Y032084D01*
Y031950D01*
X023313Y031884D01*
X023113D01*
X023246D02*
X023380Y031750D01*
X023513Y032084D02*
X023580Y032150D01*
X023713D01*
X023780Y032084D01*
Y032017D01*
X023713Y031950D01*
X023646D01*
X023713D01*
X023780Y031884D01*
Y031817D01*
X023713Y031750D01*
X023580D01*
X023513Y031817D01*
X024179Y032150D02*
X023913D01*
Y031750D01*
X024179D01*
X023913Y031950D02*
X024046D01*
X022852Y027900D02*
X022452D01*
Y028100D01*
X022518Y028167D01*
X022652D01*
X022718Y028100D01*
Y027900D01*
Y028033D02*
X022852Y028167D01*
Y028566D02*
Y028300D01*
X022585Y028566D01*
X022518D01*
X022452Y028500D01*
Y028367D01*
X022518Y028300D01*
X022452Y028966D02*
Y028700D01*
X022852D01*
Y028966D01*
X022652Y028700D02*
Y028833D01*
X023826Y027948D02*
X023426D01*
Y028148D01*
X023493Y028215D01*
X023626D01*
X023693Y028148D01*
Y027948D01*
Y028082D02*
X023826Y028215D01*
Y028348D02*
Y028481D01*
Y028415D01*
X023426D01*
X023493Y028348D01*
X023426Y028948D02*
Y028681D01*
X023826D01*
Y028948D01*
X023626Y028681D02*
Y028815D01*
X019017Y028860D02*
X018883D01*
X018950D01*
Y028527D01*
X018883Y028460D01*
X018817D01*
X018750Y028527D01*
X019350Y028460D02*
Y028860D01*
X019150Y028660D01*
X019416D01*
X016507Y028930D02*
X016373D01*
X016440D01*
Y028597D01*
X016373Y028530D01*
X016307D01*
X016240Y028597D01*
X016640Y028863D02*
X016707Y028930D01*
X016840D01*
X016906Y028863D01*
Y028797D01*
X016840Y028730D01*
X016773D01*
X016840D01*
X016906Y028663D01*
Y028597D01*
X016840Y028530D01*
X016707D01*
X016640Y028597D01*
X021140Y026800D02*
X021273D01*
X021207D01*
Y026400D01*
X021140D01*
X021273D01*
X021740Y026733D02*
X021673Y026800D01*
X021540D01*
X021473Y026733D01*
Y026467D01*
X021540Y026400D01*
X021673D01*
X021740Y026467D01*
X022140Y026400D02*
X021873D01*
X022140Y026667D01*
Y026733D01*
X022073Y026800D01*
X021940D01*
X021873Y026733D01*
X022540Y026400D02*
X022273D01*
X022540Y026667D01*
Y026733D01*
X022473Y026800D01*
X022340D01*
X022273Y026733D01*
X022742Y024567D02*
X022676Y024500D01*
Y024367D01*
X022742Y024300D01*
X023009D01*
X023076Y024367D01*
Y024500D01*
X023009Y024567D01*
X022676Y024900D02*
Y024767D01*
X022742Y024700D01*
X023009D01*
X023076Y024767D01*
Y024900D01*
X023009Y024966D01*
X022742D01*
X022676Y024900D01*
X022742Y025100D02*
X022676Y025166D01*
Y025300D01*
X022742Y025366D01*
X022809D01*
X022876Y025300D01*
Y025233D01*
Y025300D01*
X022942Y025366D01*
X023009D01*
X023076Y025300D01*
Y025166D01*
X023009Y025100D01*
X018805Y024982D02*
X018739Y024915D01*
Y024782D01*
X018805Y024715D01*
X019072D01*
X019139Y024782D01*
Y024915D01*
X019072Y024982D01*
X018739Y025315D02*
Y025182D01*
X018805Y025115D01*
X019072D01*
X019139Y025182D01*
Y025315D01*
X019072Y025382D01*
X018805D01*
X018739Y025315D01*
X019139Y025782D02*
Y025515D01*
X018872Y025782D01*
X018805D01*
X018739Y025715D01*
Y025582D01*
X018805Y025515D01*
X019500Y030081D02*
X019434Y030014D01*
Y029881D01*
X019500Y029814D01*
X019767D01*
X019833Y029881D01*
Y030014D01*
X019767Y030081D01*
X019434Y030481D02*
Y030214D01*
X019633D01*
X019567Y030347D01*
Y030414D01*
X019633Y030481D01*
X019767D01*
X019833Y030414D01*
Y030281D01*
X019767Y030214D01*
X019434Y030881D02*
Y030614D01*
X019833D01*
Y030881D01*
X019633Y030614D02*
Y030747D01*
X024093Y030752D02*
X024026Y030819D01*
X023893D01*
X023826Y030752D01*
Y030486D01*
X023893Y030419D01*
X024026D01*
X024093Y030486D01*
X024492Y030419D02*
X024226D01*
X024492Y030686D01*
Y030752D01*
X024426Y030819D01*
X024293D01*
X024226Y030752D01*
X024892Y030819D02*
X024626D01*
Y030419D01*
X024892D01*
X024626Y030619D02*
X024759D01*
X021807Y023253D02*
X021740Y023320D01*
X021607D01*
X021540Y023253D01*
Y022987D01*
X021607Y022920D01*
X021740D01*
X021807Y022987D01*
X021940Y023253D02*
X022007Y023320D01*
X022140D01*
X022207Y023253D01*
Y022987D01*
X022140Y022920D01*
X022007D01*
X021940Y022987D01*
Y023253D01*
X022340Y022920D02*
X022474D01*
X022407D01*
Y023320D01*
X022340Y023253D01*
X021877Y033096D02*
Y032696D01*
X022077D01*
X022144Y032763D01*
Y032830D01*
X022077Y032896D01*
X021877D01*
X022077D01*
X022144Y032963D01*
Y033030D01*
X022077Y033096D01*
X021877D01*
X022544Y033030D02*
X022477Y033096D01*
X022344D01*
X022277Y033030D01*
Y032763D01*
X022344Y032696D01*
X022477D01*
X022544Y032763D01*
X022943Y033096D02*
X022677D01*
Y032896D01*
X022810Y032963D01*
X022877D01*
X022943Y032896D01*
Y032763D01*
X022877Y032696D01*
X022744D01*
X022677Y032763D01*
X012810Y037830D02*
X012943D01*
X012877D01*
Y038230D01*
X012810Y038163D01*
X013143D02*
X013210Y038230D01*
X013343D01*
X013410Y038163D01*
Y037897D01*
X013343Y037830D01*
X013210D01*
X013143Y037897D01*
Y038163D01*
X025330Y018857D02*
Y018457D01*
X025596D01*
X025730Y018857D02*
Y018457D01*
X025930D01*
X025996Y018524D01*
Y018591D01*
X025930Y018657D01*
X025730D01*
X025930D01*
X025996Y018724D01*
Y018791D01*
X025930Y018857D01*
X025730D01*
X026964Y049570D02*
X026897D01*
X026764Y049437D01*
X026897Y049304D01*
X026964D01*
X026764Y049437D02*
X026564D01*
Y049171D02*
Y049037D01*
Y049104D01*
X026964D01*
X026897Y049171D01*
X035570Y034390D02*
X035837Y033990D01*
Y034390D02*
X035570Y033990D01*
X035970D02*
X036103D01*
X036037D01*
Y034390D01*
X035970Y034323D01*
X028095Y025949D02*
Y025616D01*
X028162Y025549D01*
X028295D01*
X028362Y025616D01*
Y025949D01*
X011307Y047113D02*
X011240Y047180D01*
X011107D01*
X011040Y047113D01*
Y047047D01*
X011107Y046980D01*
X011240D01*
X011307Y046913D01*
Y046847D01*
X011240Y046780D01*
X011107D01*
X011040Y046847D01*
X011440Y047180D02*
Y046780D01*
X011573Y046913D01*
X011706Y046780D01*
Y047180D01*
X011840D02*
X012106D01*
X011973D01*
Y046780D01*
X012240Y047180D02*
Y046780D01*
Y046980D01*
X012506D01*
Y047180D01*
Y046780D01*
X024171Y028770D02*
Y029170D01*
X024371D01*
X024437Y029103D01*
Y028970D01*
X024371Y028903D01*
X024171D01*
X024304D02*
X024437Y028770D01*
X024570Y029170D02*
X024837D01*
X024704D01*
Y028770D01*
X025170D02*
Y029170D01*
X024970Y028970D01*
X025237D01*
X030274Y030105D02*
Y030505D01*
X030474D01*
X030540Y030438D01*
Y030305D01*
X030474Y030238D01*
X030274D01*
X030407D02*
X030540Y030105D01*
X030674Y030505D02*
X030940D01*
X030807D01*
Y030105D01*
X031073Y030438D02*
X031140Y030505D01*
X031273D01*
X031340Y030438D01*
Y030372D01*
X031273Y030305D01*
X031207D01*
X031273D01*
X031340Y030238D01*
Y030172D01*
X031273Y030105D01*
X031140D01*
X031073Y030172D01*
X031743Y023457D02*
Y023857D01*
X031943D01*
X032009Y023791D01*
Y023657D01*
X031943Y023591D01*
X031743D01*
X031876D02*
X032009Y023457D01*
X032143Y023857D02*
X032409D01*
X032276D01*
Y023457D01*
X032809D02*
X032543D01*
X032809Y023724D01*
Y023791D01*
X032743Y023857D01*
X032609D01*
X032543Y023791D01*
X029900Y021300D02*
Y021700D01*
X030100D01*
X030166Y021633D01*
Y021500D01*
X030100Y021433D01*
X029900D01*
X030033D02*
X030166Y021300D01*
X030299Y021700D02*
X030566D01*
X030433D01*
Y021300D01*
X030699D02*
X030833D01*
X030766D01*
Y021700D01*
X030699Y021633D01*
X032344Y018750D02*
Y019150D01*
X032544D01*
X032610Y019083D01*
Y018950D01*
X032544Y018883D01*
X032344D01*
X032477D02*
X032610Y018750D01*
X032744D02*
Y019150D01*
X032877Y019017D01*
X033010Y019150D01*
Y018750D01*
X033143Y019150D02*
Y018750D01*
Y018883D01*
X033410Y019150D01*
X033210Y018950D01*
X033410Y018750D01*
X016050Y013200D02*
Y013600D01*
X016250D01*
X016317Y013533D01*
Y013400D01*
X016250Y013333D01*
X016050D01*
X016183D02*
X016317Y013200D01*
X016450Y013533D02*
X016517Y013600D01*
X016650D01*
X016716Y013533D01*
Y013467D01*
X016650Y013400D01*
X016716Y013333D01*
Y013267D01*
X016650Y013200D01*
X016517D01*
X016450Y013267D01*
Y013333D01*
X016517Y013400D01*
X016450Y013467D01*
Y013533D01*
X016517Y013400D02*
X016650D01*
X016850Y013200D02*
Y013600D01*
X017050D01*
X017116Y013533D01*
Y013400D01*
X017050Y013333D01*
X016850D01*
X021750Y045150D02*
Y045550D01*
X021950D01*
X022017Y045483D01*
Y045350D01*
X021950Y045283D01*
X021750D01*
X021883D02*
X022017Y045150D01*
X022350D02*
Y045550D01*
X022150Y045350D01*
X022416D01*
X022816Y045483D02*
X022750Y045550D01*
X022616D01*
X022550Y045483D01*
Y045417D01*
X022616Y045350D01*
X022750D01*
X022816Y045283D01*
Y045217D01*
X022750Y045150D01*
X022616D01*
X022550Y045217D01*
X025483Y027536D02*
Y027935D01*
X025683D01*
X025750Y027869D01*
Y027736D01*
X025683Y027669D01*
X025483D01*
X025616D02*
X025750Y027536D01*
X026083D02*
Y027935D01*
X025883Y027736D01*
X026150D01*
X026283Y027935D02*
Y027536D01*
X026483D01*
X026549Y027602D01*
Y027869D01*
X026483Y027935D01*
X026283D01*
X030318Y027729D02*
Y028129D01*
X030518D01*
X030585Y028062D01*
Y027929D01*
X030518Y027862D01*
X030318D01*
X030451D02*
X030585Y027729D01*
X030918D02*
Y028129D01*
X030718Y027929D01*
X030984D01*
X031384Y028062D02*
X031318Y028129D01*
X031184D01*
X031118Y028062D01*
Y027796D01*
X031184Y027729D01*
X031318D01*
X031384Y027796D01*
X034778Y023850D02*
Y024250D01*
X034978D01*
X035045Y024183D01*
Y024050D01*
X034978Y023983D01*
X034778D01*
X034912D02*
X035045Y023850D01*
X035378D02*
Y024250D01*
X035178Y024050D01*
X035445D01*
X035578Y024250D02*
Y023850D01*
X035778D01*
X035845Y023917D01*
Y023983D01*
X035778Y024050D01*
X035578D01*
X035778D01*
X035845Y024117D01*
Y024183D01*
X035778Y024250D01*
X035578D01*
X023836Y023933D02*
Y024333D01*
X024036D01*
X024102Y024266D01*
Y024133D01*
X024036Y024066D01*
X023836D01*
X023969D02*
X024102Y023933D01*
X024436D02*
Y024333D01*
X024236Y024133D01*
X024502D01*
X024636Y023933D02*
Y024199D01*
X024769Y024333D01*
X024902Y024199D01*
Y023933D01*
Y024133D01*
X024636D01*
X033795Y046786D02*
Y047186D01*
X033995D01*
X034062Y047119D01*
Y046986D01*
X033995Y046919D01*
X033795D01*
X033928D02*
X034062Y046786D01*
X034195Y047119D02*
X034261Y047186D01*
X034395D01*
X034461Y047119D01*
Y047053D01*
X034395Y046986D01*
X034328D01*
X034395D01*
X034461Y046919D01*
Y046853D01*
X034395Y046786D01*
X034261D01*
X034195Y046853D01*
X034861Y047119D02*
X034795Y047186D01*
X034661D01*
X034595Y047119D01*
Y047053D01*
X034661Y046986D01*
X034795D01*
X034861Y046919D01*
Y046853D01*
X034795Y046786D01*
X034661D01*
X034595Y046853D01*
X034660Y032816D02*
X034260D01*
Y033016D01*
X034326Y033083D01*
X034460D01*
X034526Y033016D01*
Y032816D01*
Y032950D02*
X034660Y033083D01*
X034326Y033216D02*
X034260Y033283D01*
Y033416D01*
X034326Y033483D01*
X034393D01*
X034460Y033416D01*
Y033349D01*
Y033416D01*
X034526Y033483D01*
X034593D01*
X034660Y033416D01*
Y033283D01*
X034593Y033216D01*
X034660Y033616D02*
X034260D01*
X034393Y033749D01*
X034260Y033883D01*
X034660D01*
X025687Y029515D02*
Y029914D01*
X025887D01*
X025954Y029848D01*
Y029714D01*
X025887Y029648D01*
X025687D01*
X025820D02*
X025954Y029515D01*
X026087Y029848D02*
X026154Y029914D01*
X026287D01*
X026354Y029848D01*
Y029781D01*
X026287Y029714D01*
X026220D01*
X026287D01*
X026354Y029648D01*
Y029581D01*
X026287Y029515D01*
X026154D01*
X026087Y029581D01*
X026487Y029914D02*
Y029515D01*
X026687D01*
X026753Y029581D01*
Y029848D01*
X026687Y029914D01*
X026487D01*
X032125Y028927D02*
Y029327D01*
X032325D01*
X032392Y029260D01*
Y029127D01*
X032325Y029060D01*
X032125D01*
X032259D02*
X032392Y028927D01*
X032525Y029260D02*
X032592Y029327D01*
X032725D01*
X032792Y029260D01*
Y029193D01*
X032725Y029127D01*
X032658D01*
X032725D01*
X032792Y029060D01*
Y028994D01*
X032725Y028927D01*
X032592D01*
X032525Y028994D01*
X033192Y029260D02*
X033125Y029327D01*
X032992D01*
X032925Y029260D01*
Y028994D01*
X032992Y028927D01*
X033125D01*
X033192Y028994D01*
X034888Y021900D02*
Y022300D01*
X035088D01*
X035155Y022233D01*
Y022100D01*
X035088Y022033D01*
X034888D01*
X035022D02*
X035155Y021900D01*
X035288Y022233D02*
X035355Y022300D01*
X035488D01*
X035555Y022233D01*
Y022167D01*
X035488Y022100D01*
X035422D01*
X035488D01*
X035555Y022033D01*
Y021967D01*
X035488Y021900D01*
X035355D01*
X035288Y021967D01*
X035688Y022300D02*
Y021900D01*
X035888D01*
X035955Y021967D01*
Y022033D01*
X035888Y022100D01*
X035688D01*
X035888D01*
X035955Y022167D01*
Y022233D01*
X035888Y022300D01*
X035688D01*
X024915Y022138D02*
Y022538D01*
X025115D01*
X025182Y022471D01*
Y022338D01*
X025115Y022271D01*
X024915D01*
X025048D02*
X025182Y022138D01*
X025315Y022471D02*
X025382Y022538D01*
X025515D01*
X025581Y022471D01*
Y022404D01*
X025515Y022338D01*
X025448D01*
X025515D01*
X025581Y022271D01*
Y022205D01*
X025515Y022138D01*
X025382D01*
X025315Y022205D01*
X025715Y022138D02*
Y022404D01*
X025848Y022538D01*
X025981Y022404D01*
Y022138D01*
Y022338D01*
X025715D01*
X033900Y044348D02*
Y044748D01*
X034100D01*
X034167Y044681D01*
Y044548D01*
X034100Y044481D01*
X033900D01*
X034033D02*
X034167Y044348D01*
X034566D02*
X034300D01*
X034566Y044614D01*
Y044681D01*
X034500Y044748D01*
X034367D01*
X034300Y044681D01*
X034966D02*
X034900Y044748D01*
X034766D01*
X034700Y044681D01*
Y044614D01*
X034766Y044548D01*
X034900D01*
X034966Y044481D01*
Y044414D01*
X034900Y044348D01*
X034766D01*
X034700Y044414D01*
X038611Y026777D02*
Y027177D01*
X038811D01*
X038877Y027111D01*
Y026977D01*
X038811Y026911D01*
X038611D01*
X038744D02*
X038877Y026777D01*
X039277D02*
X039011D01*
X039277Y027044D01*
Y027111D01*
X039210Y027177D01*
X039077D01*
X039011Y027111D01*
X039410Y026777D02*
Y027177D01*
X039544Y027044D01*
X039677Y027177D01*
Y026777D01*
X027610Y027644D02*
Y028044D01*
X027810D01*
X027877Y027977D01*
Y027844D01*
X027810Y027777D01*
X027610D01*
X027744D02*
X027877Y027644D01*
X028277D02*
X028010D01*
X028277Y027910D01*
Y027977D01*
X028210Y028044D01*
X028077D01*
X028010Y027977D01*
X028410Y028044D02*
Y027644D01*
X028610D01*
X028677Y027711D01*
Y027977D01*
X028610Y028044D01*
X028410D01*
X032808Y027732D02*
Y028132D01*
X033008D01*
X033074Y028065D01*
Y027932D01*
X033008Y027865D01*
X032808D01*
X032941D02*
X033074Y027732D01*
X033474D02*
X033208D01*
X033474Y027998D01*
Y028065D01*
X033408Y028132D01*
X033274D01*
X033208Y028065D01*
X033874D02*
X033807Y028132D01*
X033674D01*
X033607Y028065D01*
Y027798D01*
X033674Y027732D01*
X033807D01*
X033874Y027798D01*
X032591Y021046D02*
Y021446D01*
X032791D01*
X032858Y021379D01*
Y021246D01*
X032791Y021179D01*
X032591D01*
X032724D02*
X032858Y021046D01*
X033258D02*
X032991D01*
X033258Y021312D01*
Y021379D01*
X033191Y021446D01*
X033058D01*
X032991Y021379D01*
X033391Y021446D02*
Y021046D01*
X033591D01*
X033658Y021112D01*
Y021179D01*
X033591Y021246D01*
X033391D01*
X033591D01*
X033658Y021312D01*
Y021379D01*
X033591Y021446D01*
X033391D01*
X025483Y020250D02*
Y020650D01*
X025683D01*
X025750Y020583D01*
Y020450D01*
X025683Y020383D01*
X025483D01*
X025616D02*
X025750Y020250D01*
X026150D02*
X025883D01*
X026150Y020517D01*
Y020583D01*
X026083Y020650D01*
X025950D01*
X025883Y020583D01*
X026283Y020250D02*
Y020517D01*
X026416Y020650D01*
X026549Y020517D01*
Y020250D01*
Y020450D01*
X026283D01*
X034720Y042830D02*
Y043230D01*
X034920D01*
X034987Y043163D01*
Y043030D01*
X034920Y042963D01*
X034720D01*
X034853D02*
X034987Y042830D01*
X035120D02*
X035253D01*
X035187D01*
Y043230D01*
X035120Y043163D01*
X035720D02*
X035653Y043230D01*
X035520D01*
X035453Y043163D01*
Y043097D01*
X035520Y043030D01*
X035653D01*
X035720Y042963D01*
Y042897D01*
X035653Y042830D01*
X035520D01*
X035453Y042897D01*
X037941Y032213D02*
Y032612D01*
X038141D01*
X038207Y032546D01*
Y032413D01*
X038141Y032346D01*
X037941D01*
X038074D02*
X038207Y032213D01*
X038341D02*
X038474D01*
X038407D01*
Y032612D01*
X038341Y032546D01*
X038674Y032213D02*
Y032612D01*
X038807Y032479D01*
X038940Y032612D01*
Y032213D01*
X028665Y029082D02*
Y029482D01*
X028865D01*
X028932Y029415D01*
Y029282D01*
X028865Y029215D01*
X028665D01*
X028798D02*
X028932Y029082D01*
X029065D02*
X029198D01*
X029132D01*
Y029482D01*
X029065Y029415D01*
X029398Y029482D02*
Y029082D01*
X029598D01*
X029665Y029148D01*
Y029415D01*
X029598Y029482D01*
X029398D01*
X032973Y026244D02*
X033373D01*
Y026044D01*
X033306Y025978D01*
X033173D01*
X033107Y026044D01*
Y026244D01*
Y026111D02*
X032973Y025978D01*
Y025844D02*
Y025711D01*
Y025778D01*
X033373D01*
X033306Y025844D01*
Y025245D02*
X033373Y025311D01*
Y025445D01*
X033306Y025511D01*
X033040D01*
X032973Y025445D01*
Y025311D01*
X033040Y025245D01*
X031182Y021046D02*
Y021446D01*
X031381D01*
X031448Y021379D01*
Y021246D01*
X031381Y021179D01*
X031182D01*
X031315D02*
X031448Y021046D01*
X031581D02*
X031715D01*
X031648D01*
Y021446D01*
X031581Y021379D01*
X031915Y021446D02*
Y021046D01*
X032115D01*
X032181Y021112D01*
Y021179D01*
X032115Y021246D01*
X031915D01*
X032115D01*
X032181Y021312D01*
Y021379D01*
X032115Y021446D01*
X031915D01*
X027300Y021774D02*
Y022174D01*
X027500D01*
X027567Y022107D01*
Y021974D01*
X027500Y021907D01*
X027300D01*
X027433D02*
X027567Y021774D01*
X027700D02*
X027833D01*
X027767D01*
Y022174D01*
X027700Y022107D01*
X028033Y021774D02*
Y022041D01*
X028166Y022174D01*
X028300Y022041D01*
Y021774D01*
Y021974D01*
X028033D01*
X038543Y018300D02*
Y018700D01*
X038676Y018567D01*
X038810Y018700D01*
Y018300D01*
X038943Y018700D02*
Y018300D01*
Y018433D01*
X039209Y018700D01*
X039009Y018500D01*
X039209Y018300D01*
X017068Y042400D02*
Y042000D01*
X017335D01*
X017468D02*
X017601D01*
X017535D01*
Y042400D01*
X017468Y042333D01*
X035947Y047620D02*
X035813D01*
X035880D01*
Y047287D01*
X035813Y047220D01*
X035747D01*
X035680Y047287D01*
X036080Y047620D02*
X036346D01*
X036213D01*
Y047220D01*
X036480D02*
Y047487D01*
X036613Y047620D01*
X036746Y047487D01*
Y047220D01*
Y047420D01*
X036480D01*
X037146Y047553D02*
X037080Y047620D01*
X036946D01*
X036880Y047553D01*
Y047287D01*
X036946Y047220D01*
X037080D01*
X037146Y047287D01*
Y047420D01*
X037013D01*
X017617Y023690D02*
X017483D01*
X017550D01*
Y023357D01*
X017483Y023290D01*
X017417D01*
X017350Y023357D01*
X018016Y023290D02*
X017750D01*
X018016Y023557D01*
Y023623D01*
X017950Y023690D01*
X017817D01*
X017750Y023623D01*
X020060Y037300D02*
X020193D01*
X020127D01*
Y036900D01*
X020060D01*
X020193D01*
X020660Y037233D02*
X020593Y037300D01*
X020460D01*
X020393Y037233D01*
Y036967D01*
X020460Y036900D01*
X020593D01*
X020660Y036967D01*
X020793Y037300D02*
X021060D01*
Y037233D01*
X020793Y036967D01*
Y036900D01*
X029067Y020883D02*
X029000Y020950D01*
X028867D01*
X028800Y020883D01*
Y020617D01*
X028867Y020550D01*
X029000D01*
X029067Y020617D01*
X029200Y020550D02*
Y020950D01*
X029333Y020817D01*
X029466Y020950D01*
Y020550D01*
X029600Y020950D02*
Y020550D01*
Y020683D01*
X029866Y020950D01*
X029666Y020750D01*
X029866Y020550D01*
X016041Y044067D02*
X015974Y044133D01*
X015841D01*
X015774Y044067D01*
Y043800D01*
X015841Y043733D01*
X015974D01*
X016041Y043800D01*
X016174Y043733D02*
X016308D01*
X016241D01*
Y044133D01*
X016174Y044067D01*
X016774Y043733D02*
X016508D01*
X016774Y044000D01*
Y044067D01*
X016707Y044133D01*
X016574D01*
X016508Y044067D01*
X017174D02*
X017107Y044133D01*
X016974D01*
X016907Y044067D01*
Y044000D01*
X016974Y043933D01*
X017107D01*
X017174Y043867D01*
Y043800D01*
X017107Y043733D01*
X016974D01*
X016907Y043800D01*
X016219Y043210D02*
X016152Y043276D01*
X016019D01*
X015953Y043210D01*
Y042943D01*
X016019Y042876D01*
X016152D01*
X016219Y042943D01*
X016352Y042876D02*
X016486D01*
X016419D01*
Y043276D01*
X016352Y043210D01*
X016686Y042876D02*
X016819D01*
X016752D01*
Y043276D01*
X016686Y043210D01*
X017285D02*
X017219Y043276D01*
X017086D01*
X017019Y043210D01*
Y043143D01*
X017086Y043076D01*
X017219D01*
X017285Y043010D01*
Y042943D01*
X017219Y042876D01*
X017086D01*
X017019Y042943D01*
X016617Y041217D02*
X016550Y041283D01*
X016417D01*
X016350Y041217D01*
Y040950D01*
X016417Y040883D01*
X016550D01*
X016617Y040950D01*
X016750Y040883D02*
X016883D01*
X016817D01*
Y041283D01*
X016750Y041217D01*
X017083D02*
X017150Y041283D01*
X017283D01*
X017350Y041217D01*
Y040950D01*
X017283Y040883D01*
X017150D01*
X017083Y040950D01*
Y041217D01*
X017750D02*
X017683Y041283D01*
X017550D01*
X017483Y041217D01*
Y041150D01*
X017550Y041083D01*
X017683D01*
X017750Y041017D01*
Y040950D01*
X017683Y040883D01*
X017550D01*
X017483Y040950D01*
X017067Y040383D02*
X017000Y040450D01*
X016867D01*
X016800Y040383D01*
Y040117D01*
X016867Y040050D01*
X017000D01*
X017067Y040117D01*
X017200D02*
X017267Y040050D01*
X017400D01*
X017466Y040117D01*
Y040383D01*
X017400Y040450D01*
X017267D01*
X017200Y040383D01*
Y040317D01*
X017267Y040250D01*
X017466D01*
X017866Y040383D02*
X017800Y040450D01*
X017666D01*
X017600Y040383D01*
Y040317D01*
X017666Y040250D01*
X017800D01*
X017866Y040183D01*
Y040117D01*
X017800Y040050D01*
X017666D01*
X017600Y040117D01*
X017067Y039629D02*
X017000Y039696D01*
X016867D01*
X016800Y039629D01*
Y039362D01*
X016867Y039296D01*
X017000D01*
X017067Y039362D01*
X017200Y039629D02*
X017267Y039696D01*
X017400D01*
X017466Y039629D01*
Y039562D01*
X017400Y039496D01*
X017466Y039429D01*
Y039362D01*
X017400Y039296D01*
X017267D01*
X017200Y039362D01*
Y039429D01*
X017267Y039496D01*
X017200Y039562D01*
Y039629D01*
X017267Y039496D02*
X017400D01*
X017866Y039629D02*
X017800Y039696D01*
X017666D01*
X017600Y039629D01*
Y039562D01*
X017666Y039496D01*
X017800D01*
X017866Y039429D01*
Y039362D01*
X017800Y039296D01*
X017666D01*
X017600Y039362D01*
X016167Y018971D02*
X016100Y019037D01*
X015967D01*
X015900Y018971D01*
Y018704D01*
X015967Y018637D01*
X016100D01*
X016167Y018704D01*
X016300Y018971D02*
X016367Y019037D01*
X016500D01*
X016566Y018971D01*
Y018904D01*
X016500Y018837D01*
X016566Y018771D01*
Y018704D01*
X016500Y018637D01*
X016367D01*
X016300Y018704D01*
Y018771D01*
X016367Y018837D01*
X016300Y018904D01*
Y018971D01*
X016367Y018837D02*
X016500D01*
X016700Y018637D02*
Y019037D01*
X016900D01*
X016966Y018971D01*
Y018837D01*
X016900Y018771D01*
X016700D01*
X019932Y038733D02*
X019865Y038800D01*
X019732D01*
X019665Y038733D01*
Y038467D01*
X019732Y038400D01*
X019865D01*
X019932Y038467D01*
X020065Y038800D02*
X020331D01*
Y038733D01*
X020065Y038467D01*
Y038400D01*
X020731Y038733D02*
X020665Y038800D01*
X020531D01*
X020465Y038733D01*
Y038667D01*
X020531Y038600D01*
X020665D01*
X020731Y038533D01*
Y038467D01*
X020665Y038400D01*
X020531D01*
X020465Y038467D01*
X013191Y018933D02*
X013124Y019000D01*
X012991D01*
X012924Y018933D01*
Y018667D01*
X012991Y018600D01*
X013124D01*
X013191Y018667D01*
X013324Y019000D02*
X013591D01*
Y018933D01*
X013324Y018667D01*
Y018600D01*
X013724D02*
Y019000D01*
X013924D01*
X013991Y018933D01*
Y018800D01*
X013924Y018733D01*
X013724D01*
X021791Y036549D02*
X021725Y036616D01*
X021591D01*
X021525Y036549D01*
Y036283D01*
X021591Y036216D01*
X021725D01*
X021791Y036283D01*
X022191Y036616D02*
X022058Y036549D01*
X021925Y036416D01*
Y036283D01*
X021991Y036216D01*
X022125D01*
X022191Y036283D01*
Y036349D01*
X022125Y036416D01*
X021925D01*
X022591Y036549D02*
X022524Y036616D01*
X022391D01*
X022325Y036549D01*
Y036483D01*
X022391Y036416D01*
X022524D01*
X022591Y036349D01*
Y036283D01*
X022524Y036216D01*
X022391D01*
X022325Y036283D01*
X019187Y017963D02*
X019120Y018030D01*
X018987D01*
X018920Y017963D01*
Y017697D01*
X018987Y017630D01*
X019120D01*
X019187Y017697D01*
X019586Y018030D02*
X019453Y017963D01*
X019320Y017830D01*
Y017697D01*
X019387Y017630D01*
X019520D01*
X019586Y017697D01*
Y017763D01*
X019520Y017830D01*
X019320D01*
X019720Y017630D02*
Y018030D01*
X019920D01*
X019986Y017963D01*
Y017830D01*
X019920Y017763D01*
X019720D01*
X018389Y035217D02*
X018322Y035150D01*
Y035017D01*
X018389Y034950D01*
X018655D01*
X018722Y035017D01*
Y035150D01*
X018655Y035217D01*
X018322Y035616D02*
Y035350D01*
X018522D01*
X018455Y035483D01*
Y035550D01*
X018522Y035616D01*
X018655D01*
X018722Y035550D01*
Y035417D01*
X018655Y035350D01*
X018389Y036016D02*
X018322Y035950D01*
Y035816D01*
X018389Y035750D01*
X018455D01*
X018522Y035816D01*
Y035950D01*
X018589Y036016D01*
X018655D01*
X018722Y035950D01*
Y035816D01*
X018655Y035750D01*
X014517Y015783D02*
X014450Y015850D01*
X014317D01*
X014250Y015783D01*
Y015517D01*
X014317Y015450D01*
X014450D01*
X014517Y015517D01*
X014916Y015850D02*
X014650D01*
Y015650D01*
X014783Y015717D01*
X014850D01*
X014916Y015650D01*
Y015517D01*
X014850Y015450D01*
X014717D01*
X014650Y015517D01*
X015050Y015450D02*
Y015850D01*
X015250D01*
X015316Y015783D01*
Y015650D01*
X015250Y015583D01*
X015050D01*
X025754Y031557D02*
X025688Y031624D01*
X025555D01*
X025488Y031557D01*
Y031290D01*
X025555Y031224D01*
X025688D01*
X025754Y031290D01*
X026154Y031624D02*
X025888D01*
Y031424D01*
X026021Y031490D01*
X026088D01*
X026154Y031424D01*
Y031290D01*
X026088Y031224D01*
X025954D01*
X025888Y031290D01*
X026288Y031624D02*
Y031224D01*
X026488D01*
X026554Y031290D01*
Y031557D01*
X026488Y031624D01*
X026288D01*
X034307Y025342D02*
X034374Y025409D01*
Y025542D01*
X034307Y025609D01*
X034040D01*
X033974Y025542D01*
Y025409D01*
X034040Y025342D01*
X034374Y024942D02*
Y025209D01*
X034174D01*
X034240Y025076D01*
Y025009D01*
X034174Y024942D01*
X034040D01*
X033974Y025009D01*
Y025142D01*
X034040Y025209D01*
X034307Y024543D02*
X034374Y024609D01*
Y024742D01*
X034307Y024809D01*
X034040D01*
X033974Y024742D01*
Y024609D01*
X034040Y024543D01*
X037317Y022471D02*
X037250Y022538D01*
X037117D01*
X037050Y022471D01*
Y022205D01*
X037117Y022138D01*
X037250D01*
X037317Y022205D01*
X037716Y022538D02*
X037450D01*
Y022338D01*
X037583Y022404D01*
X037650D01*
X037716Y022338D01*
Y022205D01*
X037650Y022138D01*
X037517D01*
X037450Y022205D01*
X037850Y022538D02*
Y022138D01*
X038050D01*
X038116Y022205D01*
Y022271D01*
X038050Y022338D01*
X037850D01*
X038050D01*
X038116Y022404D01*
Y022471D01*
X038050Y022538D01*
X037850D01*
X023747Y022433D02*
X023680Y022500D01*
X023547D01*
X023480Y022433D01*
Y022167D01*
X023547Y022100D01*
X023680D01*
X023747Y022167D01*
X024146Y022500D02*
X023880D01*
Y022300D01*
X024013Y022367D01*
X024080D01*
X024146Y022300D01*
Y022167D01*
X024080Y022100D01*
X023947D01*
X023880Y022167D01*
X024280Y022100D02*
Y022367D01*
X024413Y022500D01*
X024546Y022367D01*
Y022100D01*
Y022300D01*
X024280D01*
X018528Y034233D02*
X018462Y034300D01*
X018328D01*
X018262Y034233D01*
Y033967D01*
X018328Y033900D01*
X018462D01*
X018528Y033967D01*
X018861Y033900D02*
Y034300D01*
X018662Y034100D01*
X018928D01*
X019328Y034233D02*
X019261Y034300D01*
X019128D01*
X019061Y034233D01*
Y034167D01*
X019128Y034100D01*
X019261D01*
X019328Y034033D01*
Y033967D01*
X019261Y033900D01*
X019128D01*
X019061Y033967D01*
X038368Y031797D02*
X038301Y031864D01*
X038168D01*
X038101Y031797D01*
Y031531D01*
X038168Y031464D01*
X038301D01*
X038368Y031531D01*
X038701Y031464D02*
Y031864D01*
X038501Y031664D01*
X038768D01*
X038901Y031464D02*
Y031864D01*
X039034Y031731D01*
X039168Y031864D01*
Y031464D01*
X018402Y047898D02*
X018335Y047964D01*
X018202D01*
X018135Y047898D01*
Y047631D01*
X018202Y047564D01*
X018335D01*
X018402Y047631D01*
X018535Y047898D02*
X018602Y047964D01*
X018735D01*
X018802Y047898D01*
Y047831D01*
X018735Y047764D01*
X018668D01*
X018735D01*
X018802Y047698D01*
Y047631D01*
X018735Y047564D01*
X018602D01*
X018535Y047631D01*
X019201Y047898D02*
X019135Y047964D01*
X019001D01*
X018935Y047898D01*
Y047831D01*
X019001Y047764D01*
X019135D01*
X019201Y047698D01*
Y047631D01*
X019135Y047564D01*
X019001D01*
X018935Y047631D01*
X038262Y028777D02*
X038195Y028711D01*
Y028577D01*
X038262Y028511D01*
X038528D01*
X038595Y028577D01*
Y028711D01*
X038528Y028777D01*
X038262Y028911D02*
X038195Y028977D01*
Y029110D01*
X038262Y029177D01*
X038328D01*
X038395Y029110D01*
Y029044D01*
Y029110D01*
X038462Y029177D01*
X038528D01*
X038595Y029110D01*
Y028977D01*
X038528Y028911D01*
X038595Y029310D02*
X038195D01*
X038328Y029444D01*
X038195Y029577D01*
X038595D01*
X026817Y047763D02*
X026750Y047830D01*
X026617D01*
X026550Y047763D01*
Y047497D01*
X026617Y047430D01*
X026750D01*
X026817Y047497D01*
X027216Y047430D02*
X026950D01*
X027216Y047697D01*
Y047763D01*
X027150Y047830D01*
X027017D01*
X026950Y047763D01*
X027616D02*
X027550Y047830D01*
X027416D01*
X027350Y047763D01*
Y047697D01*
X027416Y047630D01*
X027550D01*
X027616Y047563D01*
Y047497D01*
X027550Y047430D01*
X027416D01*
X027350Y047497D01*
X040301Y032019D02*
X040234Y032086D01*
X040101D01*
X040034Y032019D01*
Y031753D01*
X040101Y031686D01*
X040234D01*
X040301Y031753D01*
X040701Y031686D02*
X040434D01*
X040701Y031953D01*
Y032019D01*
X040634Y032086D01*
X040501D01*
X040434Y032019D01*
X040834Y031686D02*
Y032086D01*
X040967Y031953D01*
X041101Y032086D01*
Y031686D01*
X027572Y029830D02*
X027506Y029763D01*
Y029630D01*
X027572Y029563D01*
X027839D01*
X027906Y029630D01*
Y029763D01*
X027839Y029830D01*
X027906Y030230D02*
Y029963D01*
X027639Y030230D01*
X027572D01*
X027506Y030163D01*
Y030030D01*
X027572Y029963D01*
X027506Y030363D02*
X027906D01*
Y030563D01*
X027839Y030630D01*
X027572D01*
X027506Y030563D01*
Y030363D01*
X034399Y028989D02*
X034466Y029056D01*
Y029189D01*
X034399Y029256D01*
X034133D01*
X034066Y029189D01*
Y029056D01*
X034133Y028989D01*
X034066Y028589D02*
Y028856D01*
X034333Y028589D01*
X034399D01*
X034466Y028656D01*
Y028789D01*
X034399Y028856D01*
Y028189D02*
X034466Y028256D01*
Y028389D01*
X034399Y028456D01*
X034133D01*
X034066Y028389D01*
Y028256D01*
X034133Y028189D01*
X034339Y021333D02*
X034272Y021400D01*
X034139D01*
X034072Y021333D01*
Y021067D01*
X034139Y021000D01*
X034272D01*
X034339Y021067D01*
X034739Y021000D02*
X034472D01*
X034739Y021267D01*
Y021333D01*
X034672Y021400D01*
X034539D01*
X034472Y021333D01*
X034872Y021400D02*
Y021000D01*
X035072D01*
X035138Y021067D01*
Y021133D01*
X035072Y021200D01*
X034872D01*
X035072D01*
X035138Y021267D01*
Y021333D01*
X035072Y021400D01*
X034872D01*
X025789Y024713D02*
X025722Y024780D01*
X025589D01*
X025522Y024713D01*
Y024447D01*
X025589Y024380D01*
X025722D01*
X025789Y024447D01*
X026189Y024380D02*
X025922D01*
X026189Y024647D01*
Y024713D01*
X026122Y024780D01*
X025989D01*
X025922Y024713D01*
X026322Y024380D02*
Y024647D01*
X026456Y024780D01*
X026589Y024647D01*
Y024380D01*
Y024580D01*
X026322D01*
X013067Y041363D02*
X013000Y041430D01*
X012867D01*
X012800Y041363D01*
Y041097D01*
X012867Y041030D01*
X013000D01*
X013067Y041097D01*
X013200Y041030D02*
X013333D01*
X013267D01*
Y041430D01*
X013200Y041363D01*
X013800D02*
X013733Y041430D01*
X013600D01*
X013533Y041363D01*
Y041297D01*
X013600Y041230D01*
X013733D01*
X013800Y041163D01*
Y041097D01*
X013733Y041030D01*
X013600D01*
X013533Y041097D01*
X037897Y036203D02*
X037830Y036270D01*
X037697D01*
X037630Y036203D01*
Y035937D01*
X037697Y035870D01*
X037830D01*
X037897Y035937D01*
X038030Y035870D02*
X038163D01*
X038097D01*
Y036270D01*
X038030Y036203D01*
X038363Y035870D02*
Y036270D01*
X038496Y036137D01*
X038630Y036270D01*
Y035870D01*
X019050Y013450D02*
Y013050D01*
X019250D01*
X019317Y013117D01*
Y013183D01*
X019250Y013250D01*
X019050D01*
X019250D01*
X019317Y013317D01*
Y013383D01*
X019250Y013450D01*
X019050D01*
X019450Y013317D02*
Y013117D01*
X019517Y013050D01*
X019716D01*
Y013317D01*
X020116D02*
X019916D01*
X019850Y013250D01*
Y013117D01*
X019916Y013050D01*
X020116D01*
X020250D02*
Y013450D01*
Y013183D02*
X020450Y013317D01*
X020250Y013183D02*
X020450Y013050D01*
X037606Y028712D02*
X037540Y028645D01*
Y028512D01*
X037606Y028445D01*
X037873D01*
X037939Y028512D01*
Y028645D01*
X037873Y028712D01*
Y028845D02*
X037939Y028912D01*
Y029045D01*
X037873Y029112D01*
X037606D01*
X037540Y029045D01*
Y028912D01*
X037606Y028845D01*
X037673D01*
X037740Y028912D01*
Y029112D01*
X037939Y029245D02*
X037540D01*
X037673Y029378D01*
X037540Y029511D01*
X037939D01*
X036845Y028470D02*
X037245D01*
Y028670D01*
X037178Y028736D01*
X037112D01*
X037045Y028670D01*
Y028470D01*
Y028670D01*
X036978Y028736D01*
X036912D01*
X036845Y028670D01*
Y028470D01*
X036912Y029136D02*
X036845Y029070D01*
Y028936D01*
X036912Y028870D01*
X037178D01*
X037245Y028936D01*
Y029070D01*
X037178Y029136D01*
X037245Y029470D02*
X036845D01*
X037045Y029270D01*
Y029536D01*
X035945Y028470D02*
X036345D01*
Y028670D01*
X036278Y028736D01*
X036212D01*
X036145Y028670D01*
Y028470D01*
Y028670D01*
X036078Y028736D01*
X036012D01*
X035945Y028670D01*
Y028470D01*
X036012Y029136D02*
X035945Y029070D01*
Y028936D01*
X036012Y028870D01*
X036278D01*
X036345Y028936D01*
Y029070D01*
X036278Y029136D01*
X036012Y029270D02*
X035945Y029336D01*
Y029470D01*
X036012Y029536D01*
X036078D01*
X036145Y029470D01*
Y029403D01*
Y029470D01*
X036212Y029536D01*
X036278D01*
X036345Y029470D01*
Y029336D01*
X036278Y029270D01*
X033995Y029950D02*
X034395D01*
Y030150D01*
X034328Y030217D01*
X034262D01*
X034195Y030150D01*
Y029950D01*
Y030150D01*
X034128Y030217D01*
X034062D01*
X033995Y030150D01*
Y029950D01*
X034062Y030617D02*
X033995Y030550D01*
Y030417D01*
X034062Y030350D01*
X034328D01*
X034395Y030417D01*
Y030550D01*
X034328Y030617D01*
X034395Y031016D02*
Y030750D01*
X034128Y031016D01*
X034062D01*
X033995Y030950D01*
Y030817D01*
X034062Y030750D01*
X035195Y028764D02*
X035595D01*
Y028964D01*
X035528Y029030D01*
X035462D01*
X035395Y028964D01*
Y028764D01*
Y028964D01*
X035328Y029030D01*
X035262D01*
X035195Y028964D01*
Y028764D01*
X035262Y029430D02*
X035195Y029363D01*
Y029230D01*
X035262Y029163D01*
X035528D01*
X035595Y029230D01*
Y029363D01*
X035528Y029430D01*
X035595Y029563D02*
Y029697D01*
Y029630D01*
X035195D01*
X035262Y029563D01*
X019925Y044500D02*
Y044100D01*
X020125D01*
X020192Y044167D01*
Y044233D01*
X020125Y044300D01*
X019925D01*
X020125D01*
X020192Y044367D01*
Y044433D01*
X020125Y044500D01*
X019925D01*
X020325Y044100D02*
X020458D01*
X020392D01*
Y044500D01*
X020325Y044433D01*
M02*
