M48
;Layer_Color=9474304
;FILE_FORMAT=2:4
INCH
;TYPE=PLATED
T1F00S00C0.0120
T2F00S00C0.0260
T3F00S00C0.0276
T4F00S00C0.0280
T5F00S00C0.0374
T6F00S00C0.0400
T7F00S00C0.0449
T8F00S00C0.0453
T9F00S00C0.0512
%
T01
X033795Y022620
X031845Y026244
X031718Y027700
X031695Y028323
Y028750
X036381Y029527
X031002Y029665
X029984Y027213
X030068Y023260
X030345Y022920
X029687Y022891
X028995Y022413
X028763Y023367
X028095Y023058
X025868Y023229
X026018Y021871
X025107Y024420
X026186Y026671
X026966Y028538
X025250Y029763
X024193Y027725
X023192Y026700
X021136Y023850
X020328Y024173
X019116Y023850
X021708Y030460
X022708Y032270
X021922Y034109
X023652Y034232
X024475Y036337
X025107Y038300
X025930Y039821
X026181Y041621
X026380Y042521
X027981Y040871
X029222Y043871
X028431Y046670
X022443Y044719
X021767Y044676
X019268Y044447
X018334Y046457
X018189Y038573
X018750Y037650
X019942Y040004
X022527Y037527
X020115Y034876
X019688Y034810
X019179Y033610
X020270Y033083
X018811Y031382
X034522Y032035
X036495Y031813
X037672Y032696
X039300Y033204
X033813Y033923
X035309Y038671
X032100Y040300
X034050Y045750
X039150Y042300
T02
X022064Y047771
X023985
T03
X034522Y013950
X035522
T04
X017359Y015755
X017700Y016950
X021150Y016579
X021437Y018900
X027587Y017400
X031081Y018305
X015000Y016355
X013769
X013950Y038400
T05
X013950Y022187
Y037148
T06
X036795Y037300
X037795
Y038300
X036795
Y039300
X037795
Y040300
X036795
Y041300
X037795
Y042300
X036795
Y043300
X037795
Y044300
X036795
Y045300
X037795
Y046300
X036795
T07
X012366Y043116
X014334
Y045084
X012366
T08
X017925Y022361
X018925
X019925
X030500Y044539
X030750Y046567
X029750
X031750
X031500Y044539
X032500
X030537Y048221
X029537
X028537
T09
X016793Y027600
X017793
X019300Y027533
X020300
M30
