G04*
G04 #@! TF.GenerationSoftware,Altium Limited,Altium Designer,18.1.9 (240)*
G04*
G04 Layer_Physical_Order=4*
G04 Layer_Color=16711680*
%FSAX24Y24*%
%MOIN*%
G70*
G01*
G75*
%ADD59C,0.0060*%
%ADD60C,0.0100*%
%ADD61R,0.0658X0.0658*%
%ADD62C,0.0679*%
%ADD63C,0.0600*%
%ADD64C,0.0472*%
%ADD65C,0.0669*%
%ADD66C,0.0433*%
%ADD67C,0.0561*%
%ADD68R,0.0743X0.0743*%
%ADD69C,0.0768*%
%ADD70C,0.0250*%
%ADD71C,0.0500*%
D59*
X022443Y044719D02*
X022760Y044402D01*
Y043116D02*
Y044402D01*
Y043116D02*
X023726Y042150D01*
X032192D01*
X034342Y044300D01*
X036795D01*
X029960Y023367D02*
X030068Y023260D01*
X028763Y023367D02*
X029960D01*
X025868Y023229D02*
X026018Y023079D01*
Y021871D02*
Y023079D01*
X026966Y028538D02*
X029585D01*
X026474D02*
X026966D01*
X031695Y028750D02*
Y029262D01*
X031156Y029801D02*
X031695Y029262D01*
X031156Y029801D02*
X031156D01*
X031087Y029870D02*
X031156Y029801D01*
X030917Y029870D02*
X031087D01*
X029585Y028538D02*
X030917Y029870D01*
X035923Y031813D02*
X036495D01*
X033813Y033923D02*
X035923Y031813D01*
X028431Y044571D02*
Y046670D01*
X026380Y042521D02*
X028431Y044571D01*
X026181Y041621D02*
X031800D01*
X034750Y038671D01*
X035309D01*
X025930Y039821D02*
Y040157D01*
X026644Y040871D01*
X027981D01*
X025107Y038300D02*
X027107Y040300D01*
X032100D01*
X018512Y038573D02*
X019942Y040004D01*
X018189Y038573D02*
X018512D01*
X024475Y036337D02*
Y038083D01*
X021767Y040791D02*
X024475Y038083D01*
X021767Y040791D02*
Y044676D01*
X012366Y043116D02*
X014334Y045084D01*
X020802Y031382D02*
X023652Y034232D01*
X018811Y031382D02*
X020802D01*
X031695Y028750D02*
X031871Y028927D01*
X033609D01*
X036495Y031813D01*
X025107Y024420D02*
X026188D01*
X027550Y023058D01*
X028095D01*
X025107Y024420D02*
X025250Y024562D01*
Y029763D01*
X026474Y028538D01*
X031002Y027087D02*
X031845Y026244D01*
X031002Y027087D02*
Y029665D01*
X033244Y022069D02*
X033795Y022620D01*
X028887Y022069D02*
X033244D01*
X028545Y022411D02*
X028887Y022069D01*
X028545Y022411D02*
Y022608D01*
X028095Y023058D02*
X028545Y022608D01*
X029687Y022891D02*
X029833Y022745D01*
X029502Y022413D02*
X029833Y022745D01*
X028995Y022413D02*
X029502D01*
X021136Y024644D02*
X023192Y026700D01*
X021136Y023850D02*
Y024644D01*
X017359Y016609D02*
X017700Y016950D01*
X017359Y015755D02*
Y016609D01*
D60*
X031695Y027723D02*
X031718Y027700D01*
X031695Y027723D02*
Y028323D01*
X020005Y023850D02*
X020328Y024173D01*
X019116Y023850D02*
X020005D01*
X021708Y030460D02*
X022708Y031460D01*
Y032270D01*
X023794Y027725D02*
X024193D01*
X020366Y031153D02*
X023794Y027725D01*
X018289Y031153D02*
X020366D01*
X028537Y048221D02*
X029762Y046995D01*
X030120D01*
X030310Y046805D01*
Y046384D02*
Y046805D01*
Y046384D02*
X031500Y045195D01*
Y044539D02*
Y045195D01*
X018750Y035748D02*
X019688Y034810D01*
X018750Y035748D02*
Y037650D01*
X019179Y033610D02*
X019688Y034119D01*
Y034810D01*
X013950Y038400D02*
X014700Y037650D01*
X018750D01*
X018334Y045380D02*
X019268Y044447D01*
X018334Y045380D02*
Y046457D01*
X013769Y016355D02*
X015000D01*
X021150Y016579D02*
X021437Y016865D01*
Y018900D01*
X022937Y017400D01*
X027587D01*
X020570Y034109D02*
X021922D01*
X018289Y031828D02*
X020570Y034109D01*
X018289Y031153D02*
Y031828D01*
X026186Y026671D02*
X026728Y027213D01*
X029984D01*
X036381Y029527D02*
X037672Y030818D01*
Y032696D01*
X038180Y033204D01*
X039300D01*
D61*
X017925Y022361D02*
D03*
X029750Y046567D02*
D03*
X032500Y044539D02*
D03*
X028537Y048221D02*
D03*
D62*
X018925Y022361D02*
D03*
X019925D02*
D03*
X030750Y046567D02*
D03*
X031750D02*
D03*
X030500Y044539D02*
D03*
X031500D02*
D03*
X030537Y048221D02*
D03*
X029537D02*
D03*
D63*
X036795Y037300D02*
D03*
X037795D02*
D03*
X036795Y038300D02*
D03*
X037795D02*
D03*
X036795Y039300D02*
D03*
X037795D02*
D03*
X036795Y040300D02*
D03*
X037795D02*
D03*
X036795Y041300D02*
D03*
X037795D02*
D03*
X036795Y042300D02*
D03*
X037795D02*
D03*
X036795Y043300D02*
D03*
X037795D02*
D03*
X036795Y044300D02*
D03*
X037795D02*
D03*
X036795Y045300D02*
D03*
X037795D02*
D03*
X036795Y046300D02*
D03*
X037795D02*
D03*
D64*
X034522Y013950D02*
D03*
X035522D02*
D03*
D65*
X014334Y043116D02*
D03*
Y045084D02*
D03*
X012366D02*
D03*
Y043116D02*
D03*
D66*
X022064Y047771D02*
D03*
X023985D02*
D03*
D67*
X013950Y022187D02*
D03*
Y037148D02*
D03*
D68*
X016793Y027600D02*
D03*
X019300Y027533D02*
D03*
D69*
X017793Y027600D02*
D03*
X020300Y027533D02*
D03*
D70*
X031695Y028323D02*
D03*
X031718Y027700D02*
D03*
X020328Y024173D02*
D03*
X020115Y034876D02*
D03*
X030068Y023260D02*
D03*
X028763Y023367D02*
D03*
X025868Y023229D02*
D03*
X026018Y021871D02*
D03*
X021708Y030460D02*
D03*
X022708Y032270D02*
D03*
X019179Y033610D02*
D03*
X019688Y034810D02*
D03*
X019268Y044447D02*
D03*
X024193Y027725D02*
D03*
X026186Y026671D02*
D03*
X029984Y027213D02*
D03*
X026966Y028538D02*
D03*
X033813Y033923D02*
D03*
X026380Y042521D02*
D03*
X028431Y046670D02*
D03*
X029222Y043871D02*
D03*
X035309Y038671D02*
D03*
X026181Y041621D02*
D03*
X027981Y040871D02*
D03*
X025930Y039821D02*
D03*
X032100Y040300D02*
D03*
X025107Y038300D02*
D03*
X039150Y042300D02*
D03*
X022443Y044719D02*
D03*
X019942Y040004D02*
D03*
X018189Y038573D02*
D03*
X021767Y044676D02*
D03*
X024475Y036337D02*
D03*
X022527Y037527D02*
D03*
X018750Y037650D02*
D03*
X018334Y046457D02*
D03*
X021922Y034109D02*
D03*
X018811Y031382D02*
D03*
X023652Y034232D02*
D03*
X034050Y045750D02*
D03*
X020270Y033083D02*
D03*
X039300Y033204D02*
D03*
X037672Y032696D02*
D03*
X034522Y032035D02*
D03*
X036495Y031813D02*
D03*
X030345Y022920D02*
D03*
X029687Y022891D02*
D03*
X036381Y029527D02*
D03*
X033795Y022620D02*
D03*
X028095Y023058D02*
D03*
X025250Y029763D02*
D03*
X031845Y026244D02*
D03*
X031695Y028750D02*
D03*
X031002Y029665D02*
D03*
X028995Y022413D02*
D03*
X025107Y024420D02*
D03*
X023192Y026700D02*
D03*
X021136Y023850D02*
D03*
X019116D02*
D03*
D71*
X021437Y018900D02*
D03*
X017700Y016950D02*
D03*
X017359Y015755D02*
D03*
X021150Y016579D02*
D03*
X031081Y018305D02*
D03*
X027587Y017400D02*
D03*
X013950Y038400D02*
D03*
X015000Y016355D02*
D03*
X013769D02*
D03*
M02*
