G04*
G04 #@! TF.GenerationSoftware,Altium Limited,Altium Designer,18.1.9 (240)*
G04*
G04 Layer_Physical_Order=3*
G04 Layer_Color=128*
%FSAX24Y24*%
%MOIN*%
G70*
G01*
G75*
%ADD59C,0.0060*%
%ADD63C,0.0600*%
%ADD72C,0.0400*%
%ADD73C,0.0653*%
%ADD74C,0.0476*%
%ADD75C,0.0649*%
%ADD76C,0.0460*%
%ADD77C,0.0574*%
%ADD78C,0.0712*%
%ADD79C,0.0320*%
%ADD80C,0.0480*%
G04:AMPARAMS|DCode=81|XSize=60mil|YSize=60mil|CornerRadius=0mil|HoleSize=0mil|Usage=FLASHONLY|Rotation=0.000|XOffset=0mil|YOffset=0mil|HoleType=Round|Shape=Relief|Width=6mil|Gap=6mil|Entries=4|*
%AMTHD81*
7,0,0,0.0600,0.0480,0.0060,45*
%
%ADD81THD81*%
G04:AMPARAMS|DCode=82|XSize=71.18mil|YSize=71.18mil|CornerRadius=0mil|HoleSize=0mil|Usage=FLASHONLY|Rotation=0.000|XOffset=0mil|YOffset=0mil|HoleType=Round|Shape=Relief|Width=6mil|Gap=6mil|Entries=4|*
%AMTHD82*
7,0,0,0.0712,0.0592,0.0060,45*
%
%ADD82THD82*%
G04:AMPARAMS|DCode=83|XSize=65.28mil|YSize=65.28mil|CornerRadius=0mil|HoleSize=0mil|Usage=FLASHONLY|Rotation=0.000|XOffset=0mil|YOffset=0mil|HoleType=Round|Shape=Relief|Width=6mil|Gap=6mil|Entries=4|*
%AMTHD83*
7,0,0,0.0653,0.0533,0.0060,45*
%
%ADD83THD83*%
G04:AMPARAMS|DCode=84|XSize=32mil|YSize=32mil|CornerRadius=0mil|HoleSize=0mil|Usage=FLASHONLY|Rotation=0.000|XOffset=0mil|YOffset=0mil|HoleType=Round|Shape=Relief|Width=6mil|Gap=6mil|Entries=4|*
%AMTHD84*
7,0,0,0.0320,0.0200,0.0060,45*
%
%ADD84THD84*%
G04:AMPARAMS|DCode=85|XSize=48mil|YSize=48mil|CornerRadius=0mil|HoleSize=0mil|Usage=FLASHONLY|Rotation=0.000|XOffset=0mil|YOffset=0mil|HoleType=Round|Shape=Relief|Width=6mil|Gap=6mil|Entries=4|*
%AMTHD85*
7,0,0,0.0480,0.0360,0.0060,45*
%
%ADD85THD85*%
D59*
X041100Y036114D02*
Y050250D01*
X040686Y035700D02*
X041100Y036114D01*
X018000Y035700D02*
X040686D01*
X017467Y036233D02*
X018000Y035700D01*
X017467Y036233D02*
Y039317D01*
X017033Y039750D02*
X017467Y039317D01*
X009750Y039750D02*
X017033D01*
D63*
X036795Y038300D02*
D03*
X037795D02*
D03*
X036795Y039300D02*
D03*
X037795D02*
D03*
X036795Y040300D02*
D03*
X037795D02*
D03*
X036795Y041300D02*
D03*
X037795D02*
D03*
X036795Y042300D02*
D03*
X037795D02*
D03*
X036795Y043300D02*
D03*
X037795D02*
D03*
X036795Y044300D02*
D03*
X037795D02*
D03*
X036795Y045300D02*
D03*
X037795D02*
D03*
X036795Y046300D02*
D03*
X037795D02*
D03*
D72*
X042662Y010000D02*
Y049950D01*
X010000Y010000D02*
X042662D01*
X010000Y049950D02*
X041500D01*
X042662D01*
X010000Y010000D02*
Y049950D01*
D73*
X017925Y022361D02*
D03*
X018925D02*
D03*
X019925D02*
D03*
X029750Y046567D02*
D03*
X030750D02*
D03*
X031750D02*
D03*
X030500Y044539D02*
D03*
X031500D02*
D03*
X029537Y048221D02*
D03*
X028537D02*
D03*
D74*
X034522Y013950D02*
D03*
X035522D02*
D03*
D75*
X014334Y043116D02*
D03*
Y045084D02*
D03*
X012366D02*
D03*
Y043116D02*
D03*
D76*
X022064Y047771D02*
D03*
X023985D02*
D03*
D77*
X013950Y022187D02*
D03*
Y037148D02*
D03*
D78*
X016793Y027600D02*
D03*
X019300Y027533D02*
D03*
D79*
X031695Y028323D02*
D03*
X031718Y027700D02*
D03*
X020328Y024173D02*
D03*
X030068Y023260D02*
D03*
X028763Y023367D02*
D03*
X025868Y023229D02*
D03*
X026018Y021871D02*
D03*
X021708Y030460D02*
D03*
X022708Y032270D02*
D03*
X019179Y033610D02*
D03*
X019688Y034810D02*
D03*
X019268Y044447D02*
D03*
X024193Y027725D02*
D03*
X026186Y026671D02*
D03*
X029984Y027213D02*
D03*
X026966Y028538D02*
D03*
X033813Y033923D02*
D03*
X026380Y042521D02*
D03*
X028431Y046670D02*
D03*
X029222Y043871D02*
D03*
X035309Y038671D02*
D03*
X026181Y041621D02*
D03*
X027981Y040871D02*
D03*
X025930Y039821D02*
D03*
X032100Y040300D02*
D03*
X025107Y038300D02*
D03*
X039150Y042300D02*
D03*
X022443Y044719D02*
D03*
X019942Y040004D02*
D03*
X018189Y038573D02*
D03*
X021767Y044676D02*
D03*
X024475Y036337D02*
D03*
X018750Y037650D02*
D03*
X018334Y046457D02*
D03*
X021922Y034109D02*
D03*
X018811Y031382D02*
D03*
X023652Y034232D02*
D03*
X034050Y045750D02*
D03*
X039300Y033204D02*
D03*
X037672Y032696D02*
D03*
X036495Y031813D02*
D03*
X029687Y022891D02*
D03*
X036381Y029527D02*
D03*
X033795Y022620D02*
D03*
X028095Y023058D02*
D03*
X025250Y029763D02*
D03*
X031845Y026244D02*
D03*
X031695Y028750D02*
D03*
X031002Y029665D02*
D03*
X028995Y022413D02*
D03*
X025107Y024420D02*
D03*
X023192Y026700D02*
D03*
X021136Y023850D02*
D03*
X019116D02*
D03*
D80*
X021437Y018900D02*
D03*
X017700Y016950D02*
D03*
X017359Y015755D02*
D03*
X021150Y016579D02*
D03*
X027587Y017400D02*
D03*
X013950Y038400D02*
D03*
X015000Y016355D02*
D03*
X013769D02*
D03*
D81*
X036795Y037300D02*
D03*
X037795D02*
D03*
D82*
X017793Y027600D02*
D03*
X020300Y027533D02*
D03*
D83*
X032500Y044539D02*
D03*
X030537Y048221D02*
D03*
D84*
X020115Y034876D02*
D03*
X022527Y037527D02*
D03*
X020270Y033083D02*
D03*
X034522Y032035D02*
D03*
X030345Y022920D02*
D03*
D85*
X031081Y018305D02*
D03*
M02*
