G04*
G04 #@! TF.GenerationSoftware,Altium Limited,Altium Designer,18.1.9 (240)*
G04*
G04 Layer_Color=2752767*
%FSLAX25Y25*%
%MOIN*%
G70*
G01*
G75*
%ADD97C,0.00200*%
%ADD98C,0.00267*%
%ADD99C,0.00133*%
D97*
X271200Y184117D02*
Y185717D01*
X272800D01*
Y184117D01*
X271200D01*
X281200D02*
Y185717D01*
X282800D01*
Y184117D01*
X281200D01*
X265516Y377200D02*
Y378800D01*
X267116D01*
Y377200D01*
X265516D01*
Y367200D02*
Y368800D01*
X267116D01*
Y367200D01*
X265516D01*
X179252Y222810D02*
X178452Y224410D01*
X180052D01*
X179252Y222810D01*
X189252D02*
X188452Y224410D01*
X190052D01*
X189252Y222810D01*
X199252D02*
X198452Y224410D01*
X200052D01*
X199252Y222810D01*
X367949Y372200D02*
X368349Y372600D01*
X368749D01*
X368349Y373000D01*
X368749Y373400D01*
X368349D01*
X367949Y373800D01*
X367549Y373400D01*
X367149D01*
X367549Y373000D01*
X367149Y372600D01*
X367549D01*
X367949Y372200D01*
X377949D02*
X378349Y372600D01*
X378749D01*
X378349Y373000D01*
X378749Y373400D01*
X378349D01*
X377949Y373800D01*
X377549Y373400D01*
X377149D01*
X377549Y373000D01*
X377149Y372600D01*
X377549D01*
X377949Y372200D01*
X367949Y382200D02*
X368349Y382600D01*
X368749D01*
X368349Y383000D01*
X368749Y383400D01*
X368349D01*
X367949Y383800D01*
X367549Y383400D01*
X367149D01*
X367549Y383000D01*
X367149Y382600D01*
X367549D01*
X367949Y382200D01*
X377949D02*
X378349Y382600D01*
X378749D01*
X378349Y383000D01*
X378749Y383400D01*
X378349D01*
X377949Y383800D01*
X377549Y383400D01*
X377149D01*
X377549Y383000D01*
X377149Y382600D01*
X377549D01*
X377949Y382200D01*
X367949Y392200D02*
X368349Y392600D01*
X368749D01*
X368349Y393000D01*
X368749Y393400D01*
X368349D01*
X367949Y393800D01*
X367549Y393400D01*
X367149D01*
X367549Y393000D01*
X367149Y392600D01*
X367549D01*
X367949Y392200D01*
X377949D02*
X378349Y392600D01*
X378749D01*
X378349Y393000D01*
X378749Y393400D01*
X378349D01*
X377949Y393800D01*
X377549Y393400D01*
X377149D01*
X377549Y393000D01*
X377149Y392600D01*
X377549D01*
X377949Y392200D01*
X367949Y402200D02*
X368349Y402600D01*
X368749D01*
X368349Y403000D01*
X368749Y403400D01*
X368349D01*
X367949Y403800D01*
X367549Y403400D01*
X367149D01*
X367549Y403000D01*
X367149Y402600D01*
X367549D01*
X367949Y402200D01*
X377949D02*
X378349Y402600D01*
X378749D01*
X378349Y403000D01*
X378749Y403400D01*
X378349D01*
X377949Y403800D01*
X377549Y403400D01*
X377149D01*
X377549Y403000D01*
X377149Y402600D01*
X377549D01*
X377949Y402200D01*
X367949Y412200D02*
X368349Y412600D01*
X368749D01*
X368349Y413000D01*
X368749Y413400D01*
X368349D01*
X367949Y413800D01*
X367549Y413400D01*
X367149D01*
X367549Y413000D01*
X367149Y412600D01*
X367549D01*
X367949Y412200D01*
X377949D02*
X378349Y412600D01*
X378749D01*
X378349Y413000D01*
X378749Y413400D01*
X378349D01*
X377949Y413800D01*
X377549Y413400D01*
X377149D01*
X377549Y413000D01*
X377149Y412600D01*
X377549D01*
X377949Y412200D01*
X367949Y422200D02*
X368349Y422600D01*
X368749D01*
X368349Y423000D01*
X368749Y423400D01*
X368349D01*
X367949Y423800D01*
X367549Y423400D01*
X367149D01*
X367549Y423000D01*
X367149Y422600D01*
X367549D01*
X367949Y422200D01*
X377949D02*
X378349Y422600D01*
X378749D01*
X378349Y423000D01*
X378749Y423400D01*
X378349D01*
X377949Y423800D01*
X377549Y423400D01*
X377149D01*
X377549Y423000D01*
X377149Y422600D01*
X377549D01*
X377949Y422200D01*
X367949Y432200D02*
X368349Y432600D01*
X368749D01*
X368349Y433000D01*
X368749Y433400D01*
X368349D01*
X367949Y433800D01*
X367549Y433400D01*
X367149D01*
X367549Y433000D01*
X367149Y432600D01*
X367549D01*
X367949Y432200D01*
X377949D02*
X378349Y432600D01*
X378749D01*
X378349Y433000D01*
X378749Y433400D01*
X378349D01*
X377949Y433800D01*
X377549Y433400D01*
X377149D01*
X377549Y433000D01*
X377149Y432600D01*
X377549D01*
X377949Y432200D01*
X367949Y442200D02*
X368349Y442600D01*
X368749D01*
X368349Y443000D01*
X368749Y443400D01*
X368349D01*
X367949Y443800D01*
X367549Y443400D01*
X367149D01*
X367549Y443000D01*
X367149Y442600D01*
X367549D01*
X367949Y442200D01*
X377949D02*
X378349Y442600D01*
X378749D01*
X378349Y443000D01*
X378749Y443400D01*
X378349D01*
X377949Y443800D01*
X377549Y443400D01*
X377149D01*
X377549Y443000D01*
X377149Y442600D01*
X377549D01*
X377949Y442200D01*
X367949Y452200D02*
X368349Y452600D01*
X368749D01*
X368349Y453000D01*
X368749Y453400D01*
X368349D01*
X367949Y453800D01*
X367549Y453400D01*
X367149D01*
X367549Y453000D01*
X367149Y452600D01*
X367549D01*
X367949Y452200D01*
X377949D02*
X378349Y452600D01*
X378749D01*
X378349Y453000D01*
X378749Y453400D01*
X378349D01*
X377949Y453800D01*
X377549Y453400D01*
X377149D01*
X377549Y453000D01*
X377149Y452600D01*
X377549D01*
X377949Y452200D01*
X367949Y462200D02*
X368349Y462600D01*
X368749D01*
X368349Y463000D01*
X368749Y463400D01*
X368349D01*
X367949Y463800D01*
X367549Y463400D01*
X367149D01*
X367549Y463000D01*
X367149Y462600D01*
X367549D01*
X367949Y462200D01*
X377949D02*
X378349Y462600D01*
X378749D01*
X378349Y463000D01*
X378749Y463400D01*
X378349D01*
X377949Y463800D01*
X377549Y463400D01*
X377149D01*
X377549Y463000D01*
X377149Y462600D01*
X377549D01*
X377949Y462200D01*
X344425Y138700D02*
X344825Y139500D01*
X344425Y140300D01*
X345225Y139900D01*
X346025Y140300D01*
X345625Y139500D01*
X346025Y138700D01*
X345225Y139100D01*
X344425Y138700D01*
X354425D02*
X354825Y139500D01*
X354425Y140300D01*
X355225Y139900D01*
X356025Y140300D01*
X355625Y139500D01*
X356025Y138700D01*
X355225Y139100D01*
X354425Y138700D01*
X142943Y430757D02*
Y430357D01*
X143743D01*
Y430757D01*
X144143D01*
Y431557D01*
X143743D01*
Y431957D01*
X142943D01*
Y431557D01*
X142543D01*
Y430757D01*
X142943D01*
Y450443D02*
Y450043D01*
X143743D01*
Y450443D01*
X144143D01*
Y451243D01*
X143743D01*
Y451643D01*
X142943D01*
Y451243D01*
X142543D01*
Y450443D01*
X142943D01*
X123257D02*
Y450043D01*
X124057D01*
Y450443D01*
X124457D01*
Y451243D01*
X124057D01*
Y451643D01*
X123257D01*
Y451243D01*
X122857D01*
Y450443D01*
X123257D01*
Y430757D02*
Y430357D01*
X124057D01*
Y430757D01*
X124457D01*
Y431557D01*
X124057D01*
Y431957D01*
X123257D01*
Y431557D01*
X122857D01*
Y430757D01*
X123257D01*
X219842Y476905D02*
X220242D01*
X220642Y477305D01*
X221042Y476905D01*
X221442D01*
Y477305D01*
X221042Y477705D01*
X221442Y478105D01*
Y478505D01*
X221042D01*
X220642Y478105D01*
X220242Y478505D01*
X219842D01*
Y478105D01*
X220242Y477705D01*
X219842Y477305D01*
Y476905D01*
X239054D02*
X239454D01*
X239854Y477305D01*
X240254Y476905D01*
X240654D01*
Y477305D01*
X240254Y477705D01*
X240654Y478105D01*
Y478505D01*
X240254D01*
X239854Y478105D01*
X239454Y478505D01*
X239054D01*
Y478105D01*
X239454Y477705D01*
X239054Y477305D01*
Y476905D01*
X138700Y221870D02*
X139500Y222670D01*
X140300Y221870D01*
X139500Y221070D01*
X138700Y221870D01*
Y371476D02*
X139500Y372276D01*
X140300Y371476D01*
X139500Y370676D01*
X138700Y371476D01*
X167125Y275200D02*
Y276800D01*
X168725D01*
Y275200D01*
X167125D01*
X177125D02*
Y276800D01*
X178725D01*
Y275200D01*
X177125D01*
X192200Y274535D02*
Y276135D01*
X193800D01*
Y274535D01*
X192200D01*
X202200D02*
Y276135D01*
X203800D01*
Y274535D01*
X202200D01*
X297500Y464865D02*
X296700Y466465D01*
X298300D01*
X297500Y464865D01*
X307500D02*
X306700Y466465D01*
X308300D01*
X307500Y464865D01*
X317500D02*
X316700Y466465D01*
X318300D01*
X317500Y464865D01*
X305000Y444588D02*
X304200Y446188D01*
X305800D01*
X305000Y444588D01*
X315000D02*
X314200Y446188D01*
X315800D01*
X315000Y444588D01*
X325000D02*
X324200Y446188D01*
X325800D01*
X325000Y444588D01*
X305368Y481405D02*
X304568Y483005D01*
X306168D01*
X305368Y481405D01*
X295368D02*
X294568Y483005D01*
X296168D01*
X295368Y481405D01*
X285368D02*
X284568Y483005D01*
X286168D01*
X285368Y481405D01*
X254031Y374200D02*
Y375800D01*
X255631D01*
Y374200D01*
X254031D01*
X254431Y374600D02*
Y375400D01*
X255231D01*
Y374600D01*
X254431D01*
X316149Y282433D02*
Y284033D01*
X317749D01*
Y282433D01*
X316149D01*
X316549Y282833D02*
Y283633D01*
X317349D01*
Y282833D01*
X316549D01*
X316378Y276199D02*
Y277799D01*
X317978D01*
Y276199D01*
X316378D01*
X316778Y276599D02*
Y277399D01*
X317578D01*
Y276599D01*
X316778D01*
X202478Y240927D02*
Y242527D01*
X204078D01*
Y240927D01*
X202478D01*
X202878Y241327D02*
Y242127D01*
X203678D01*
Y241327D01*
X202878D01*
X200347Y347961D02*
Y349561D01*
X201947D01*
Y347961D01*
X200347D01*
X200747Y348361D02*
Y349161D01*
X201547D01*
Y348361D01*
X200747D01*
X299878Y231796D02*
Y233396D01*
X301478D01*
Y231796D01*
X299878D01*
X300278Y232195D02*
Y232996D01*
X301078D01*
Y232195D01*
X300278D01*
X286827Y232872D02*
Y234472D01*
X288427D01*
Y232872D01*
X286827D01*
X287227Y233272D02*
Y234072D01*
X288027D01*
Y233272D01*
X287227D01*
X257878Y231494D02*
Y233094D01*
X259478D01*
Y231494D01*
X257878D01*
X258278Y231894D02*
Y232694D01*
X259078D01*
Y231894D01*
X258278D01*
X259378Y217909D02*
Y219509D01*
X260978D01*
Y217909D01*
X259378D01*
X259778Y218309D02*
Y219109D01*
X260578D01*
Y218309D01*
X259778D01*
X216278Y303796D02*
Y305396D01*
X217878D01*
Y303796D01*
X216278D01*
X216678Y304195D02*
Y304995D01*
X217478D01*
Y304195D01*
X216678D01*
X226283Y321895D02*
Y323495D01*
X227883D01*
Y321895D01*
X226283D01*
X226683Y322295D02*
Y323095D01*
X227483D01*
Y322295D01*
X226683D01*
X190993Y335296D02*
Y336895D01*
X192593D01*
Y335296D01*
X190993D01*
X191393Y335696D02*
Y336495D01*
X192193D01*
Y335696D01*
X191393D01*
X196082Y347295D02*
Y348896D01*
X197682D01*
Y347295D01*
X196082D01*
X196482Y347695D02*
Y348496D01*
X197282D01*
Y347695D01*
X196482D01*
X191878Y443666D02*
Y445265D01*
X193478D01*
Y443666D01*
X191878D01*
X192278Y444066D02*
Y444866D01*
X193078D01*
Y444066D01*
X192278D01*
X241134Y276447D02*
Y278047D01*
X242734D01*
Y276447D01*
X241134D01*
X241534Y276847D02*
Y277647D01*
X242334D01*
Y276847D01*
X241534D01*
X261055Y265908D02*
Y267508D01*
X262655D01*
Y265908D01*
X261055D01*
X261455Y266308D02*
Y267108D01*
X262255D01*
Y266308D01*
X261455D01*
X299043Y271329D02*
Y272929D01*
X300643D01*
Y271329D01*
X299043D01*
X299443Y271729D02*
Y272529D01*
X300243D01*
Y271729D01*
X299443D01*
X268862Y284584D02*
Y286184D01*
X270462D01*
Y284584D01*
X268862D01*
X269262Y284984D02*
Y285784D01*
X270062D01*
Y284984D01*
X269262D01*
X337329Y338434D02*
Y340034D01*
X338929D01*
Y338434D01*
X337329D01*
X337729Y338834D02*
Y339634D01*
X338529D01*
Y338834D01*
X337729D01*
X263003Y424406D02*
Y426006D01*
X264603D01*
Y424406D01*
X263003D01*
X263403Y424806D02*
Y425606D01*
X264203D01*
Y424806D01*
X263403D01*
X283507Y465899D02*
Y467499D01*
X285107D01*
Y465899D01*
X283507D01*
X283907Y466299D02*
Y467099D01*
X284707D01*
Y466299D01*
X283907D01*
X291424Y437906D02*
Y439506D01*
X293024D01*
Y437906D01*
X291424D01*
X291824Y438306D02*
Y439106D01*
X292624D01*
Y438306D01*
X291824D01*
X352291Y385906D02*
Y387506D01*
X353890D01*
Y385906D01*
X352291D01*
X352691Y386306D02*
Y387106D01*
X353490D01*
Y386306D01*
X352691D01*
X261007Y415406D02*
Y417006D01*
X262607D01*
Y415406D01*
X261007D01*
X261407Y415806D02*
Y416606D01*
X262207D01*
Y415806D01*
X261407D01*
X279007Y407906D02*
Y409506D01*
X280607D01*
Y407906D01*
X279007D01*
X279407Y408306D02*
Y409106D01*
X280207D01*
Y408306D01*
X279407D01*
X258504Y397406D02*
Y399006D01*
X260104D01*
Y397406D01*
X258504D01*
X258904Y397806D02*
Y398606D01*
X259703D01*
Y397806D01*
X258904D01*
X320200Y402200D02*
Y403800D01*
X321800D01*
Y402200D01*
X320200D01*
X320600Y402600D02*
Y403400D01*
X321400D01*
Y402600D01*
X320600D01*
X250271Y382200D02*
Y383800D01*
X251871D01*
Y382200D01*
X250271D01*
X250671Y382600D02*
Y383400D01*
X251471D01*
Y382600D01*
X250671D01*
X390700Y422200D02*
Y423800D01*
X392300D01*
Y422200D01*
X390700D01*
X391100Y422600D02*
Y423400D01*
X391900D01*
Y422600D01*
X391100D01*
X223634Y446394D02*
Y447994D01*
X225234D01*
Y446394D01*
X223634D01*
X224034Y446794D02*
Y447594D01*
X224834D01*
Y446794D01*
X224034D01*
X198622Y399240D02*
Y400840D01*
X200222D01*
Y399240D01*
X198622D01*
X199022Y399640D02*
Y400440D01*
X199822D01*
Y399640D01*
X199022D01*
X181090Y384933D02*
Y386533D01*
X182690D01*
Y384933D01*
X181090D01*
X181490Y385333D02*
Y386133D01*
X182290D01*
Y385333D01*
X181490D01*
X216866Y445965D02*
Y447565D01*
X218466D01*
Y445965D01*
X216866D01*
X217266Y446365D02*
Y447165D01*
X218066D01*
Y446365D01*
X217266D01*
X224468Y374468D02*
Y376068D01*
X226068D01*
Y374468D01*
X224468D01*
X224868Y374868D02*
Y375668D01*
X225668D01*
Y374868D01*
X224868D01*
X186700Y375700D02*
Y377300D01*
X188300D01*
Y375700D01*
X186700D01*
X187100Y376100D02*
Y376900D01*
X187900D01*
Y376100D01*
X187100D01*
X182539Y463768D02*
Y465368D01*
X184139D01*
Y463768D01*
X182539D01*
X182939Y464168D02*
Y464968D01*
X183739D01*
Y464168D01*
X182939D01*
X218420Y340291D02*
Y341891D01*
X220020D01*
Y340291D01*
X218420D01*
X218820Y340691D02*
Y341491D01*
X219620D01*
Y340691D01*
X218820D01*
X187307Y313023D02*
Y314623D01*
X188907D01*
Y313023D01*
X187307D01*
X187707Y313423D02*
Y314223D01*
X188507D01*
Y313423D01*
X187707D01*
X235720Y341523D02*
Y343123D01*
X237320D01*
Y341523D01*
X235720D01*
X236120Y341923D02*
Y342723D01*
X236920D01*
Y341923D01*
X236120D01*
X339700Y456700D02*
Y458300D01*
X341300D01*
Y456700D01*
X339700D01*
X340100Y457100D02*
Y457900D01*
X340900D01*
Y457100D01*
X340100D01*
X201895Y330029D02*
Y331629D01*
X203495D01*
Y330029D01*
X201895D01*
X202295Y330429D02*
Y331229D01*
X203095D01*
Y330429D01*
X202295D01*
X392200Y331243D02*
Y332843D01*
X393800D01*
Y331243D01*
X392200D01*
X392600Y331643D02*
Y332443D01*
X393400D01*
Y331643D01*
X392600D01*
X375925Y326163D02*
Y327763D01*
X377525D01*
Y326163D01*
X375925D01*
X376325Y326563D02*
Y327363D01*
X377125D01*
Y326563D01*
X376325D01*
X344425Y319551D02*
Y321151D01*
X346025D01*
Y319551D01*
X344425D01*
X344825Y319951D02*
Y320751D01*
X345625D01*
Y319951D01*
X344825D01*
X364149Y317331D02*
Y318931D01*
X365749D01*
Y317331D01*
X364149D01*
X364549Y317731D02*
Y318531D01*
X365349D01*
Y317731D01*
X364549D01*
X302649Y228398D02*
Y229998D01*
X304249D01*
Y228398D01*
X302649D01*
X303049Y228799D02*
Y229598D01*
X303849D01*
Y228799D01*
X303049D01*
X296068Y228114D02*
Y229714D01*
X297668D01*
Y228114D01*
X296068D01*
X296468Y228514D02*
Y229314D01*
X297268D01*
Y228514D01*
X296468D01*
X363015Y294465D02*
Y296065D01*
X364615D01*
Y294465D01*
X363015D01*
X363415Y294865D02*
Y295666D01*
X364215D01*
Y294865D01*
X363415D01*
X337149Y225398D02*
Y226998D01*
X338749D01*
Y225398D01*
X337149D01*
X337549Y225799D02*
Y226599D01*
X338349D01*
Y225799D01*
X337549D01*
X280149Y229777D02*
Y231377D01*
X281749D01*
Y229777D01*
X280149D01*
X280549Y230177D02*
Y230977D01*
X281349D01*
Y230177D01*
X280549D01*
X251697Y296829D02*
Y298429D01*
X253297D01*
Y296829D01*
X251697D01*
X252097Y297229D02*
Y298029D01*
X252897D01*
Y297229D01*
X252097D01*
X317649Y261643D02*
Y263243D01*
X319249D01*
Y261643D01*
X317649D01*
X318049Y262043D02*
Y262843D01*
X318849D01*
Y262043D01*
X318049D01*
X316149Y286704D02*
Y288304D01*
X317749D01*
Y286704D01*
X316149D01*
X316549Y287104D02*
Y287904D01*
X317349D01*
Y287104D01*
X316549D01*
X309220Y295851D02*
Y297451D01*
X310820D01*
Y295851D01*
X309220D01*
X309620Y296251D02*
Y297051D01*
X310420D01*
Y296251D01*
X309620D01*
X289149Y223335D02*
Y224935D01*
X290749D01*
Y223335D01*
X289149D01*
X289549Y223735D02*
Y224535D01*
X290349D01*
Y223735D01*
X289549D01*
X250271Y243398D02*
Y244999D01*
X251871D01*
Y243398D01*
X250271D01*
X250671Y243798D02*
Y244599D01*
X251471D01*
Y243798D01*
X250671D01*
X231119Y266200D02*
Y267800D01*
X232719D01*
Y266200D01*
X231119D01*
X231519Y266600D02*
Y267400D01*
X232319D01*
Y266600D01*
X231519D01*
X210560Y237700D02*
Y239300D01*
X212160D01*
Y237700D01*
X210560D01*
X210960Y238100D02*
Y238900D01*
X211760D01*
Y238100D01*
X210960D01*
X190356Y237700D02*
Y239300D01*
X191956D01*
Y237700D01*
X190356D01*
X190756Y238100D02*
Y238900D01*
X191556D01*
Y238100D01*
X190756D01*
D98*
X280202Y202240D02*
X279649Y203001D01*
X278755Y202710D01*
Y201770D01*
X279649Y201479D01*
X280202Y202240D01*
X281300Y248669D02*
X280747Y249429D01*
X279853Y249139D01*
Y248198D01*
X280747Y247908D01*
X281300Y248669D01*
X356300Y251643D02*
X355747Y252404D01*
X354853Y252114D01*
Y251173D01*
X355747Y250883D01*
X356300Y251643D01*
X225234Y221000D02*
X224681Y221761D01*
X223787Y221470D01*
Y220530D01*
X224681Y220239D01*
X225234Y221000D01*
X379024Y233179D02*
X378472Y233940D01*
X377577Y233649D01*
Y232708D01*
X378472Y232418D01*
X379024Y233179D01*
X215166Y189000D02*
X214614Y189761D01*
X213719Y189470D01*
Y188530D01*
X214614Y188239D01*
X215166Y189000D01*
X177800Y169500D02*
X177247Y170261D01*
X176353Y169970D01*
Y169030D01*
X177247Y168739D01*
X177800Y169500D01*
X174387Y157547D02*
X173834Y158308D01*
X172940Y158017D01*
Y157077D01*
X173834Y156786D01*
X174387Y157547D01*
X212300Y165787D02*
X211747Y166548D01*
X210853Y166258D01*
Y165317D01*
X211747Y165026D01*
X212300Y165787D01*
X311608Y183047D02*
X311055Y183808D01*
X310160Y183517D01*
Y182577D01*
X311055Y182286D01*
X311608Y183047D01*
X276674Y174000D02*
X276121Y174761D01*
X275227Y174470D01*
Y173530D01*
X276121Y173239D01*
X276674Y174000D01*
X140300Y384000D02*
X139747Y384761D01*
X138853Y384470D01*
Y383530D01*
X139747Y383239D01*
X140300Y384000D01*
X150800Y163547D02*
X150247Y164308D01*
X149353Y164017D01*
Y163077D01*
X150247Y162786D01*
X150800Y163547D01*
X138493D02*
X137940Y164308D01*
X137046Y164017D01*
Y163077D01*
X137940Y162786D01*
X138493Y163547D01*
D99*
X214766Y189000D02*
X214166Y189346D01*
Y188654D01*
X214766Y189000D01*
X177400Y169500D02*
X176800Y169846D01*
Y169154D01*
X177400Y169500D01*
X173987Y157547D02*
X173387Y157894D01*
Y157201D01*
X173987Y157547D01*
X211900Y165787D02*
X211300Y166134D01*
Y165441D01*
X211900Y165787D01*
X311208Y183047D02*
X310608Y183394D01*
Y182701D01*
X311208Y183047D01*
X276274Y174000D02*
X275674Y174346D01*
Y173654D01*
X276274Y174000D01*
X139900Y384000D02*
X139300Y384346D01*
Y383654D01*
X139900Y384000D01*
X150400Y163547D02*
X149800Y163894D01*
Y163201D01*
X150400Y163547D01*
X138093D02*
X137493Y163894D01*
Y163201D01*
X138093Y163547D01*
M02*
