G04*
G04 #@! TF.GenerationSoftware,Altium Limited,Altium Designer,18.1.9 (240)*
G04*
G04 Layer_Physical_Order=4*
G04 Layer_Color=16711680*
%FSLAX25Y25*%
%MOIN*%
G70*
G01*
G75*
%ADD13C,0.01000*%
%ADD62C,0.00600*%
%ADD63C,0.07677*%
%ADD64R,0.07433X0.07433*%
%ADD65C,0.06496*%
%ADD66R,0.07433X0.07433*%
%ADD67R,0.06575X0.06575*%
%ADD68C,0.06791*%
%ADD69C,0.06000*%
%ADD70C,0.04724*%
%ADD71C,0.06693*%
%ADD72C,0.04331*%
%ADD73C,0.05610*%
%ADD74C,0.02500*%
%ADD75C,0.05000*%
D13*
X316949Y277227D02*
X317178Y276999D01*
X316949Y277227D02*
Y283233D01*
X200051Y238500D02*
X203278Y241727D01*
X191156Y238500D02*
X200051D01*
X217078Y304595D02*
X227083Y314600D01*
Y322695D01*
X237945Y277247D02*
X241934D01*
X203663Y311529D02*
X237945Y277247D01*
X182887Y311529D02*
X203663D01*
X285368Y482205D02*
X297620Y469953D01*
X301202D01*
X303104Y468050D01*
Y463845D02*
Y468050D01*
Y463845D02*
X315000Y451949D01*
Y445388D02*
Y451949D01*
X187500Y357478D02*
X196882Y348095D01*
X187500Y357478D02*
Y376500D01*
X191793Y336095D02*
X196882Y341185D01*
Y348095D01*
X139500Y384000D02*
X147000Y376500D01*
X187500D01*
X183339Y453804D02*
X192678Y444465D01*
X183339Y453804D02*
Y464568D01*
X137693Y163547D02*
X150000D01*
X211500Y165787D02*
X214366Y168654D01*
Y189000D01*
X229366Y174000D01*
X275874D01*
X205696Y341091D02*
X219220D01*
X182887Y318282D02*
X205696Y341091D01*
X182887Y311529D02*
Y318282D01*
X261855Y266708D02*
X267277Y272129D01*
X299843D01*
X363815Y295266D02*
X376725Y308175D01*
Y326963D01*
X381804Y332043D01*
X393000D01*
D62*
X244745Y380833D02*
X248999D01*
X254831Y375000D01*
X224434Y447194D02*
X227605Y444023D01*
Y431157D02*
Y444023D01*
Y431157D02*
X237262Y421500D01*
X321918D01*
X343418Y443000D01*
X367949D01*
X299601Y233672D02*
X300678Y232595D01*
X287627Y233672D02*
X299601D01*
X258678Y232294D02*
X260178Y230794D01*
Y218709D02*
Y230794D01*
X269662Y285384D02*
X295853D01*
X264742D02*
X269662D01*
X316949Y287504D02*
Y292621D01*
X311560Y298010D02*
X316949Y292621D01*
X311560Y298010D02*
X311560D01*
X310869Y298701D02*
X311560Y298010D01*
X309171Y298701D02*
X310869D01*
X295853Y285384D02*
X309171Y298701D01*
X359233Y318131D02*
X364949D01*
X338129Y339234D02*
X359233Y318131D01*
X284307Y445709D02*
Y466699D01*
X263803Y425206D02*
X284307Y445709D01*
X261807Y416206D02*
X318000D01*
X347500Y386706D01*
X353091D01*
X259303Y398206D02*
Y401574D01*
X266435Y408706D01*
X279807D01*
X251071Y383000D02*
X271071Y403000D01*
X321000D01*
X185115Y385733D02*
X199422Y400040D01*
X181890Y385733D02*
X185115D01*
X217666Y407912D02*
X244745Y380833D01*
X217666Y407912D02*
Y446765D01*
X123657Y431157D02*
X143343Y450843D01*
X208020Y313823D02*
X236520Y342323D01*
X188107Y313823D02*
X208020D01*
X316949Y287504D02*
X318714Y289269D01*
X336088D01*
X364949Y318131D01*
X251071Y244198D02*
X261882D01*
X275504Y230577D01*
X280949D01*
X251071Y244198D02*
X252497Y245624D01*
Y297629D01*
X264742Y285384D01*
X310020Y270872D02*
X318449Y262443D01*
X310020Y270872D02*
Y296651D01*
X332441Y220690D02*
X337949Y226199D01*
X288872Y220690D02*
X332441D01*
X285449Y224113D02*
X288872Y220690D01*
X285449Y224113D02*
Y226077D01*
X280949Y230577D02*
X285449Y226077D01*
X296868Y228914D02*
X298331Y227451D01*
X295015Y224135D02*
X298331Y227451D01*
X289949Y224135D02*
X295015D01*
X211360Y246441D02*
X231919Y267000D01*
X211360Y238500D02*
Y246441D01*
X173587Y166087D02*
X177000Y169500D01*
X173587Y157547D02*
Y166087D01*
D63*
X272000Y184917D02*
D03*
X266316Y378000D02*
D03*
X177925Y276000D02*
D03*
X203000Y275335D02*
D03*
D64*
X282000Y184917D02*
D03*
X167925Y276000D02*
D03*
X193000Y275335D02*
D03*
D65*
X279402Y202240D02*
D03*
X280500Y248669D02*
D03*
X355500Y251643D02*
D03*
X224434Y221000D02*
D03*
X378224Y233179D02*
D03*
D66*
X266316Y368000D02*
D03*
D67*
X179252Y223610D02*
D03*
X297500Y465665D02*
D03*
X325000Y445388D02*
D03*
X285368Y482205D02*
D03*
D68*
X189252Y223610D02*
D03*
X199252D02*
D03*
X307500Y465665D02*
D03*
X317500D02*
D03*
X305000Y445388D02*
D03*
X315000D02*
D03*
X305368Y482205D02*
D03*
X295368D02*
D03*
D69*
X367949Y373000D02*
D03*
X377949D02*
D03*
X367949Y383000D02*
D03*
X377949D02*
D03*
X367949Y393000D02*
D03*
X377949D02*
D03*
X367949Y403000D02*
D03*
X377949D02*
D03*
X367949Y413000D02*
D03*
X377949D02*
D03*
X367949Y423000D02*
D03*
X377949D02*
D03*
X367949Y433000D02*
D03*
X377949D02*
D03*
X367949Y443000D02*
D03*
X377949D02*
D03*
X367949Y453000D02*
D03*
X377949D02*
D03*
X367949Y463000D02*
D03*
X377949D02*
D03*
D70*
X345225Y139500D02*
D03*
X355225D02*
D03*
D71*
X143343Y431157D02*
D03*
Y450843D02*
D03*
X123657D02*
D03*
Y431157D02*
D03*
D72*
X220642Y477705D02*
D03*
X239854D02*
D03*
D73*
X139500Y221870D02*
D03*
Y371476D02*
D03*
D74*
X254831Y375000D02*
D03*
X316949Y283233D02*
D03*
X317178Y276999D02*
D03*
X203278Y241727D02*
D03*
X201147Y348761D02*
D03*
X300678Y232595D02*
D03*
X287627Y233672D02*
D03*
X258678Y232294D02*
D03*
X260178Y218709D02*
D03*
X217078Y304595D02*
D03*
X227083Y322695D02*
D03*
X191793Y336095D02*
D03*
X196882Y348095D02*
D03*
X192678Y444465D02*
D03*
X241934Y277247D02*
D03*
X261855Y266708D02*
D03*
X299843Y272129D02*
D03*
X269662Y285384D02*
D03*
X338129Y339234D02*
D03*
X263803Y425206D02*
D03*
X284307Y466699D02*
D03*
X292224Y438706D02*
D03*
X353091Y386706D02*
D03*
X261807Y416206D02*
D03*
X279807Y408706D02*
D03*
X259303Y398206D02*
D03*
X321000Y403000D02*
D03*
X251071Y383000D02*
D03*
X391500Y423000D02*
D03*
X224434Y447194D02*
D03*
X199422Y400040D02*
D03*
X181890Y385733D02*
D03*
X217666Y446765D02*
D03*
X225268Y375268D02*
D03*
X187500Y376500D02*
D03*
X183339Y464568D02*
D03*
X219220Y341091D02*
D03*
X188107Y313823D02*
D03*
X236520Y342323D02*
D03*
X340500Y457500D02*
D03*
X202695Y330829D02*
D03*
X393000Y332043D02*
D03*
X376725Y326963D02*
D03*
X345225Y320351D02*
D03*
X364949Y318131D02*
D03*
X303449Y229199D02*
D03*
X296868Y228914D02*
D03*
X363815Y295266D02*
D03*
X337949Y226199D02*
D03*
X280949Y230577D02*
D03*
X252497Y297629D02*
D03*
X318449Y262443D02*
D03*
X316949Y287504D02*
D03*
X310020Y296651D02*
D03*
X289949Y224135D02*
D03*
X251071Y244198D02*
D03*
X231919Y267000D02*
D03*
X211360Y238500D02*
D03*
X191156D02*
D03*
D75*
X214366Y189000D02*
D03*
X177000Y169500D02*
D03*
X173587Y157547D02*
D03*
X211500Y165787D02*
D03*
X310807Y183047D02*
D03*
X275874Y174000D02*
D03*
X139500Y384000D02*
D03*
X150000Y163547D02*
D03*
X137693D02*
D03*
M02*
