G04*
G04 #@! TF.GenerationSoftware,Altium Limited,Altium Designer,18.1.9 (240)*
G04*
G04 Layer_Color=8388736*
%FSAX24Y24*%
%MOIN*%
G70*
G01*
G75*
%ADD11C,0.0079*%
%ADD59C,0.0060*%
%ADD86C,0.0200*%
%ADD88C,0.0039*%
D11*
X015476Y045084D02*
G03*
X015476Y043116I-002135J-000984D01*
G01*
X037884Y034160D02*
X040482D01*
X037884Y035440D02*
X040246D01*
X039755Y028553D02*
Y031151D01*
X041035Y028789D02*
Y031151D01*
X017925Y022891D02*
X020484D01*
Y021832D02*
Y022891D01*
X017366Y021832D02*
X020484D01*
X017366D02*
Y022361D01*
X018216Y042150D02*
X018452D01*
X015476Y043116D02*
Y045084D01*
X029351Y023573D02*
Y024154D01*
X029361Y024292D02*
X031329D01*
Y025748D01*
X029361D02*
X031329D01*
X029361Y024292D02*
Y025748D01*
X012867Y026518D02*
Y032817D01*
X015033D01*
Y026518D02*
Y032817D01*
X012867Y026518D02*
X015033D01*
X013950Y022605D02*
Y026518D01*
Y032817D02*
Y036730D01*
X016263Y027071D02*
Y027600D01*
Y027071D02*
X018322D01*
Y028129D01*
X016793D02*
X018322D01*
X018771Y027004D02*
Y027533D01*
Y027004D02*
X020830D01*
Y028063D01*
X019300D02*
X020830D01*
X035519Y027044D02*
X038117D01*
X035519Y028323D02*
X037881D01*
X017911Y020063D02*
X020243D01*
X018158Y018637D02*
X020243D01*
X025858Y013742D02*
Y017758D01*
X021842Y013742D02*
Y017758D01*
X029750Y047096D02*
X032309D01*
Y046037D02*
Y047096D01*
X029191Y046037D02*
X032309D01*
X029191D02*
Y046567D01*
X033059Y044539D02*
Y045068D01*
X029941D02*
X033059D01*
X029941Y044009D02*
Y045068D01*
Y044009D02*
X032500D01*
X027978Y047691D02*
Y048221D01*
Y047691D02*
X031096D01*
Y048750D01*
X028537D02*
X031096D01*
D59*
X019396Y015887D02*
G03*
X019636Y015887I000120J000000D01*
G01*
X021140Y035760D02*
Y035960D01*
X020440Y036180D02*
X020700D01*
X020000Y035760D02*
Y035960D01*
X036325Y036700D02*
Y046900D01*
Y036700D02*
X038275D01*
Y046900D01*
X036325D02*
X038275D01*
X036161Y033673D02*
X036361D01*
X035921Y032953D02*
Y033213D01*
X036161Y032493D02*
X036361D01*
X021270Y025226D02*
Y025426D01*
X020570Y025646D02*
X020830D01*
X020130Y025226D02*
Y025426D01*
X021100Y031400D02*
Y031600D01*
X021540Y031820D02*
X021800D01*
X022240Y031400D02*
Y031600D01*
X018976Y013927D02*
X020056D01*
X019636Y015887D02*
X020056D01*
X019396D02*
X019636D01*
X018976D02*
X019396D01*
D86*
X035845Y037400D02*
G03*
X035845Y037100I000000J-000150D01*
G01*
D02*
G03*
X035845Y037400I000000J000150D01*
G01*
D88*
X024501Y046786D02*
G03*
X024501Y048755I-000158J000984D01*
G01*
X021548D02*
G03*
X021548Y046786I000157J-000984D01*
G01*
X021548Y048755D02*
X024501D01*
X021548Y046786D02*
X024501D01*
M02*
