G04*
G04 #@! TF.GenerationSoftware,Altium Limited,Altium Designer,18.1.9 (240)*
G04*
G04 Layer_Color=16711935*
%FSLAX25Y25*%
%MOIN*%
G70*
G01*
G75*
%ADD90C,0.00394*%
D90*
X370778Y317254D02*
X373422Y314610D01*
X375649Y322126D02*
X378294Y319481D01*
X370778Y317254D02*
X375649Y322126D01*
X373422Y314610D02*
X378294Y319481D01*
X235950Y233549D02*
Y237289D01*
X242839Y233549D02*
Y237289D01*
X235950D02*
X242839D01*
X235950Y233549D02*
X242839D01*
X356489Y461630D02*
Y465370D01*
X349599Y461630D02*
Y465370D01*
Y461630D02*
X356489D01*
X349599Y465370D02*
X356489D01*
X348079Y334111D02*
X351819D01*
X348079Y341001D02*
X351819D01*
X348079Y334111D02*
Y341001D01*
X351819Y334111D02*
Y341001D01*
X262871Y289714D02*
Y293455D01*
X269760Y289714D02*
Y293455D01*
X262871D02*
X269760D01*
X262871Y289714D02*
X269760D01*
X321548Y279411D02*
X325288D01*
X321548Y286301D02*
X325288D01*
X321548Y279411D02*
Y286301D01*
X325288Y279411D02*
Y286301D01*
X351542Y224994D02*
Y228734D01*
X344652Y224994D02*
Y228734D01*
Y224994D02*
X351542D01*
X344652Y228734D02*
X351542D01*
X264004Y227328D02*
Y231069D01*
X270894Y227328D02*
Y231069D01*
X264004D02*
X270894D01*
X264004Y227328D02*
X270894D01*
X356489Y451130D02*
Y454870D01*
X349599Y451130D02*
Y454870D01*
Y451130D02*
X356489D01*
X349599Y454870D02*
X356489D01*
X393555Y277612D02*
Y281352D01*
X386665Y277612D02*
Y281352D01*
Y277612D02*
X393555D01*
X386665Y281352D02*
X393555D01*
X289313Y283959D02*
Y287699D01*
X282424Y283959D02*
Y287699D01*
Y283959D02*
X289313D01*
X282424Y287699D02*
X289313D01*
X322925Y265983D02*
X326666D01*
X322925Y272872D02*
X326666D01*
X322925Y265983D02*
Y272872D01*
X326666Y265983D02*
Y272872D01*
X325420Y217343D02*
Y221083D01*
X332310Y217343D02*
Y221083D01*
X325420D02*
X332310D01*
X325420Y217343D02*
X332310D01*
X256457Y212329D02*
Y216069D01*
X263347Y212329D02*
Y216069D01*
X256457D02*
X263347D01*
X256457Y212329D02*
X263347D01*
X354619Y421130D02*
Y424870D01*
X347729Y421130D02*
Y424870D01*
Y421130D02*
X354619D01*
X347729Y424870D02*
X354619D01*
X293950Y279384D02*
X297690D01*
X293950Y286274D02*
X297690D01*
X293950Y279384D02*
Y286274D01*
X297690Y279384D02*
Y286274D01*
X322925Y251545D02*
X326666D01*
X322925Y258435D02*
X326666D01*
X322925Y251545D02*
Y258435D01*
X326666Y251545D02*
Y258435D01*
X312580Y217343D02*
Y221083D01*
X319469Y217343D02*
Y221083D01*
X312580D02*
X319469D01*
X312580Y217343D02*
X319469D01*
X279894Y212328D02*
Y216069D01*
X273004Y212328D02*
Y216069D01*
Y212328D02*
X279894D01*
X273004Y216069D02*
X279894D01*
X245705Y282828D02*
Y286569D01*
X252595Y282828D02*
Y286569D01*
X245705D02*
X252595D01*
X245705Y282828D02*
X252595D01*
X303229Y287799D02*
Y291539D01*
X310119Y287799D02*
Y291539D01*
X303229D02*
X310119D01*
X303229Y287799D02*
X310119D01*
X318004Y229143D02*
Y232883D01*
X324894Y229143D02*
Y232883D01*
X318004D02*
X324894D01*
X318004Y229143D02*
X324894D01*
X305394Y219706D02*
Y223446D01*
X298504Y219706D02*
Y223446D01*
Y219706D02*
X305394D01*
X298504Y223446D02*
X305394D01*
X317067Y179602D02*
X320807D01*
X317067Y186492D02*
X320807D01*
X317067Y179602D02*
Y186492D01*
X320807Y179602D02*
Y186492D01*
X163130Y143752D02*
X166870D01*
X163130Y150642D02*
X166870D01*
X163130Y143752D02*
Y150642D01*
X166870Y143752D02*
Y150642D01*
X235130Y457524D02*
X238870D01*
X235130Y450634D02*
X238870D01*
Y457524D01*
X235130Y450634D02*
Y457524D01*
X256505Y282828D02*
Y286569D01*
X263394Y282828D02*
Y286569D01*
X256505D02*
X263394D01*
X256505Y282828D02*
X263394D01*
X313465Y272033D02*
Y275773D01*
X306575Y272033D02*
Y275773D01*
Y272033D02*
X313465D01*
X306575Y275773D02*
X313465D01*
X357571Y231013D02*
Y234753D01*
X350681Y231013D02*
Y234753D01*
Y231013D02*
X357571D01*
X350681Y234753D02*
X357571D01*
X289130Y161555D02*
X292870D01*
X289130Y168445D02*
X292870D01*
X289130Y161555D02*
Y168445D01*
X292870Y161555D02*
Y168445D01*
X234520Y361087D02*
X238260D01*
X234520Y354197D02*
X238260D01*
Y361087D01*
X234520Y354197D02*
Y361087D01*
X198354Y316330D02*
Y320070D01*
X205244Y316330D02*
Y320070D01*
X198354D02*
X205244D01*
X198354Y316330D02*
X205244D01*
X228474Y311930D02*
Y315670D01*
X235364Y311930D02*
Y315670D01*
X228474D02*
X235364D01*
X228474Y311930D02*
X235364D01*
X226843Y296630D02*
Y300370D01*
X219953Y296630D02*
Y300370D01*
Y296630D02*
X226843D01*
X219953Y300370D02*
X226843D01*
X238898Y296630D02*
Y300370D01*
X232008Y296630D02*
Y300370D01*
Y296630D02*
X238898D01*
X232008Y300370D02*
X238898D01*
X352579Y303754D02*
X356319D01*
X352579Y310643D02*
X356319D01*
X352579Y303754D02*
Y310643D01*
X356319Y303754D02*
Y310643D01*
X346579Y303754D02*
X350319D01*
X346579Y310644D02*
X350319D01*
X346579Y303754D02*
Y310644D01*
X350319Y303754D02*
Y310644D01*
X358579Y310643D02*
X362319D01*
X358579Y303754D02*
X362319D01*
Y310643D01*
X358579Y303754D02*
Y310643D01*
X366079Y310643D02*
X369819D01*
X366079Y303754D02*
X369819D01*
Y310643D01*
X366079Y303754D02*
Y310643D01*
X373579Y303754D02*
X377319D01*
X373579Y310643D02*
X377319D01*
X373579Y303754D02*
Y310643D01*
X377319Y303754D02*
Y310643D01*
X128555Y406870D02*
X135445D01*
X128555Y403130D02*
X135445D01*
X128555D02*
Y406870D01*
X135445Y403130D02*
Y406870D01*
X256505Y237458D02*
Y241198D01*
X263394Y237458D02*
Y241198D01*
X256505D02*
X263394D01*
X256505Y237458D02*
X263394D01*
X345894Y217540D02*
Y221280D01*
X339004Y217540D02*
Y221280D01*
Y217540D02*
X345894D01*
X339004Y221280D02*
X345894D01*
X330248Y283939D02*
Y287679D01*
X337138Y283939D02*
Y287679D01*
X330248D02*
X337138D01*
X330248Y283939D02*
X337138D01*
X273446Y292273D02*
X277186D01*
X273446Y285384D02*
X277186D01*
Y292273D01*
X273446Y285384D02*
Y292273D01*
X268870Y462993D02*
Y469883D01*
X265130Y462993D02*
Y469883D01*
X268870D01*
X265130Y462993D02*
X268870D01*
X381079Y303754D02*
X384819D01*
X381079Y310643D02*
X384819D01*
X381079Y303754D02*
Y310643D01*
X384819Y303754D02*
Y310643D01*
X194142Y464411D02*
X197882D01*
X194142Y471301D02*
X197882D01*
X194142Y464411D02*
Y471301D01*
X197882Y464411D02*
Y471301D01*
X388579Y303502D02*
X392319D01*
X388579Y310392D02*
X392319D01*
X388579Y303502D02*
Y310392D01*
X392319Y303502D02*
Y310392D01*
X208306Y341630D02*
Y345370D01*
X201416Y341630D02*
Y345370D01*
Y341630D02*
X208306D01*
X201416Y345370D02*
X208306D01*
X235256Y210655D02*
Y217742D01*
X248642Y210655D02*
Y217742D01*
X235256D02*
X248642D01*
X235256Y210655D02*
X248642D01*
X339146Y272722D02*
X346233D01*
X339146Y259336D02*
X346233D01*
Y272722D01*
X339146Y259336D02*
Y272722D01*
X257410Y303261D02*
Y310348D01*
X270796Y303261D02*
Y310348D01*
X257410D02*
X270796D01*
X257410Y303261D02*
X270796D01*
X154130Y150445D02*
X157870D01*
X154130Y143555D02*
X157870D01*
Y150445D01*
X154130Y143555D02*
Y150445D01*
X190500Y352425D02*
X194240D01*
X190500Y359315D02*
X194240D01*
X190500Y352425D02*
Y359315D01*
X194240Y352425D02*
Y359315D01*
X189811Y172870D02*
X196701D01*
X189811Y169130D02*
X196701D01*
X189811D02*
Y172870D01*
X196701Y169130D02*
Y172870D01*
X218630Y353311D02*
X222370D01*
X218630Y360201D02*
X222370D01*
X218630Y353311D02*
Y360201D01*
X222370Y353311D02*
Y360201D01*
X140630Y176405D02*
X144370D01*
X140630Y183295D02*
X144370D01*
X140630Y176405D02*
Y183295D01*
X144370Y176405D02*
Y183295D01*
X193945Y385130D02*
Y388870D01*
X187055Y385130D02*
Y388870D01*
Y385130D02*
X193945D01*
X187055Y388870D02*
X193945D01*
X154130Y176405D02*
X157870D01*
X154130Y183295D02*
X157870D01*
X154130Y176405D02*
Y183295D01*
X157870Y176405D02*
Y183295D01*
X193945Y394130D02*
Y397870D01*
X187055Y394130D02*
Y397870D01*
Y394130D02*
X193945D01*
X187055Y397870D02*
X193945D01*
Y402130D02*
Y405870D01*
X187055Y402130D02*
Y405870D01*
Y402130D02*
X193945D01*
X187055Y405870D02*
X193945D01*
Y409130D02*
Y412870D01*
X187055Y409130D02*
Y412870D01*
Y409130D02*
X193945D01*
X187055Y412870D02*
X193945D01*
X189445Y429894D02*
Y433634D01*
X182555Y429894D02*
Y433634D01*
Y429894D02*
X189445D01*
X182555Y433634D02*
X189445D01*
Y437630D02*
Y441370D01*
X182555Y437630D02*
Y441370D01*
Y437630D02*
X189445D01*
X182555Y441370D02*
X189445D01*
X289168Y212329D02*
Y216069D01*
X296057Y212329D02*
Y216069D01*
X289168D02*
X296057D01*
X289168Y212329D02*
X296057D01*
X209415Y328999D02*
X216305D01*
X209415Y325259D02*
X216305D01*
X209415D02*
Y328999D01*
X216305Y325259D02*
Y328999D01*
X217197Y241870D02*
X224087D01*
X217197Y238130D02*
X224087D01*
X217197D02*
Y241870D01*
X224087Y238130D02*
Y241870D01*
X227311Y306883D02*
X234201D01*
X227311Y303143D02*
X234201D01*
X227311D02*
Y306883D01*
X234201Y303143D02*
Y306883D01*
X200457Y311529D02*
X207543D01*
X200457Y298143D02*
X207543D01*
Y311529D01*
X200457Y298143D02*
Y311529D01*
X196870Y250055D02*
Y256945D01*
X193130Y250055D02*
Y256945D01*
X196870D01*
X193130Y250055D02*
X196870D01*
X222370Y249646D02*
Y256536D01*
X218630Y249646D02*
Y256536D01*
X222370D01*
X218630Y249646D02*
X222370D01*
X361406Y230434D02*
X368493D01*
X361406Y217048D02*
X368493D01*
Y230434D01*
X361406Y217048D02*
Y230434D01*
M02*
