G04*
G04 #@! TF.GenerationSoftware,Altium Limited,Altium Designer,18.1.9 (240)*
G04*
G04 Layer_Physical_Order=1*
G04 Layer_Color=255*
%FSLAX25Y25*%
%MOIN*%
G70*
G01*
G75*
%ADD13C,0.01000*%
G04:AMPARAMS|DCode=15|XSize=35.43mil|YSize=31.5mil|CornerRadius=0mil|HoleSize=0mil|Usage=FLASHONLY|Rotation=135.000|XOffset=0mil|YOffset=0mil|HoleType=Round|Shape=Rectangle|*
%AMROTATEDRECTD15*
4,1,4,0.02366,-0.00139,0.00139,-0.02366,-0.02366,0.00139,-0.00139,0.02366,0.02366,-0.00139,0.0*
%
%ADD15ROTATEDRECTD15*%

%ADD16R,0.03150X0.03543*%
%ADD17R,0.03543X0.03150*%
%ADD18R,0.05807X0.01181*%
%ADD19R,0.01181X0.05807*%
%ADD20R,0.09055X0.09055*%
%ADD21R,0.09055X0.09055*%
%ADD22R,0.04331X0.06693*%
%ADD23R,0.06693X0.04331*%
%ADD24R,0.02200X0.05200*%
%ADD25R,0.03937X0.03543*%
%ADD26R,0.01772X0.05807*%
%ADD27R,0.05800X0.02200*%
%ADD28R,0.08858X0.08465*%
%ADD29R,0.12205X0.08661*%
%ADD30R,0.07800X0.02200*%
%ADD31R,0.09000X0.09000*%
%ADD60C,0.00600*%
%ADD61R,0.06575X0.06575*%
%ADD62C,0.06791*%
%ADD63C,0.06000*%
%ADD64C,0.04724*%
%ADD65C,0.06693*%
%ADD66C,0.04331*%
%ADD67C,0.05610*%
%ADD68R,0.07433X0.07433*%
%ADD69C,0.07677*%
%ADD70C,0.02500*%
%ADD71C,0.05000*%
D13*
X372449Y330829D02*
X376315Y326963D01*
X367315Y330829D02*
X372449D01*
X376315Y326963D02*
X376725D01*
X287827Y162047D02*
X291000D01*
X350091Y450370D02*
Y453000D01*
X348221Y423000D02*
X353237Y417984D01*
X307067Y273903D02*
Y276835D01*
X309233Y279000D01*
X315176D01*
X317178Y276999D01*
X316949Y283233D02*
X320279Y279903D01*
X323418D01*
X372143Y447194D02*
X377949Y453000D01*
X353268Y447194D02*
X372143D01*
X350091Y450370D02*
X353268Y447194D01*
X205400Y247056D02*
X207000Y248656D01*
X205400Y245642D02*
Y247056D01*
X203278Y243520D02*
X205400Y245642D01*
X203278Y241727D02*
Y243520D01*
X216705Y310400D02*
X217078Y310027D01*
Y304595D02*
Y310027D01*
X222649Y327129D02*
X227083Y322695D01*
X215616Y327129D02*
X222649D01*
X291000Y162047D02*
X313547Y139500D01*
X345225D01*
X377949Y383000D02*
X391500Y396551D01*
Y423000D01*
X400292Y348000D02*
Y360657D01*
X377949Y383000D02*
X400292Y360657D01*
X193648Y200513D02*
X200661Y193500D01*
X193648Y200513D02*
Y225431D01*
X191156Y227923D02*
X193648Y225431D01*
X191156Y227923D02*
Y238500D01*
X195000Y242344D02*
Y250744D01*
X191156Y238500D02*
X195000Y242344D01*
X205700Y354000D02*
X207300Y352400D01*
Y350986D02*
Y352400D01*
Y350986D02*
X208517Y349769D01*
X212273D01*
X216505Y354000D01*
X220500D01*
X207617Y338212D02*
Y343500D01*
X205500Y336095D02*
X207617Y338212D01*
X191793Y336095D02*
X205500D01*
X192370Y352608D02*
Y353114D01*
Y352608D02*
X196882Y348095D01*
X188756Y439500D02*
Y440544D01*
X192678Y444465D01*
X242273Y266708D02*
X252474D01*
X241934Y277247D02*
X252474Y266708D01*
X261855D01*
X225900Y250335D02*
X242273Y266708D01*
X220665Y250335D02*
X225900D01*
X220500D02*
X220665D01*
X299843Y270352D02*
Y272129D01*
Y270352D02*
X303449Y266746D01*
X203280Y151567D02*
X204861D01*
X191299Y163547D02*
X203280Y151567D01*
X179533Y163547D02*
X191299D01*
X315000Y445388D02*
X327112Y457500D01*
X340500D01*
X267000Y463682D02*
X270584D01*
X285368Y478466D01*
Y482205D01*
X377949Y393000D02*
Y403000D01*
Y413000D01*
Y423000D01*
Y453000D02*
Y463000D01*
Y443000D02*
Y453000D01*
Y433000D02*
Y443000D01*
Y423000D02*
Y433000D01*
Y423000D02*
X391500D01*
X372933Y417984D02*
X377949Y423000D01*
X353237Y417984D02*
X372933D01*
X340500Y457500D02*
X345000Y453000D01*
X350091D01*
X340500Y457500D02*
X346500Y463500D01*
X350091D01*
X252091Y429795D02*
X256500D01*
X263788Y437083D01*
Y451500D01*
X222610Y435000D02*
Y439591D01*
Y433500D02*
Y435000D01*
X223681Y433929D01*
X246217D01*
X263788Y451500D01*
X218905Y429795D02*
X222610Y433500D01*
X206909Y429795D02*
X218905D01*
X183871Y465100D02*
X196012D01*
X183339Y464568D02*
X183871Y465100D01*
X263788Y451500D02*
X267000Y454712D01*
Y463682D01*
X187500Y376500D02*
X188630Y377630D01*
Y379500D01*
X242295Y394409D02*
Y399000D01*
X240795Y400500D02*
X242295Y399000D01*
X214005Y400500D02*
X240795D01*
X209505Y396000D02*
X214005Y400500D01*
X193256Y396000D02*
X209505D01*
X193256Y411000D02*
Y413791D01*
X188756Y418291D02*
X193256Y413791D01*
X188756Y418291D02*
Y431764D01*
X202099Y429795D02*
X206909D01*
X200130Y431764D02*
X202099Y429795D01*
X188756Y431764D02*
X200130D01*
X188756D02*
Y439500D01*
X206705Y404000D02*
X206909Y404205D01*
X193256Y404000D02*
X206705D01*
X193256D02*
Y411000D01*
Y396000D02*
Y404000D01*
Y387000D02*
Y396000D01*
Y384000D02*
Y387000D01*
X188756Y379500D02*
X193256Y384000D01*
X188630Y379500D02*
X188756D01*
X205700Y349769D02*
Y354000D01*
Y349769D02*
X207617Y347852D01*
Y343500D02*
Y347852D01*
Y343500D02*
X210026Y341091D01*
X219220D01*
X215616Y327129D02*
X219220Y330732D01*
Y341091D01*
X363274Y294725D02*
X363815Y295266D01*
X363274Y290206D02*
Y294725D01*
Y290206D02*
X376646Y276835D01*
X384510D02*
X387157Y279482D01*
X376646Y276835D02*
X384510D01*
X393000Y332043D02*
X400292Y339335D01*
Y348000D01*
X303449Y261766D02*
Y266746D01*
X363815Y295266D02*
X369027Y290053D01*
X403949D01*
X390198Y304443D02*
X390449Y304191D01*
X382949Y304443D02*
X390198D01*
X382949Y304443D02*
X382949Y304443D01*
X375449Y304443D02*
X382949D01*
X363815Y295266D02*
X367949Y299400D01*
Y304443D01*
X375449D02*
X375449Y304443D01*
X367949Y304443D02*
X375449D01*
X367949Y304443D02*
X367949Y304443D01*
X360449Y304443D02*
X367949D01*
X360449Y304443D02*
X360449Y304443D01*
X354449Y304443D02*
X360449D01*
X354449Y304443D02*
X354449Y304443D01*
X348449Y304443D02*
X354449D01*
X150047Y163500D02*
X156000Y157547D01*
X211914Y234886D02*
X220795D01*
X209529Y232500D02*
X211914Y234886D01*
X203300Y232500D02*
Y236100D01*
X207000Y239800D01*
X203300Y232500D02*
X209529D01*
X207000Y239800D02*
Y248656D01*
X223398Y237488D02*
Y240000D01*
X220795Y234886D02*
X223398Y237488D01*
Y240000D02*
Y247602D01*
X220665Y250335D02*
X223398Y247602D01*
X139500Y371476D02*
Y384000D01*
X209866Y193500D02*
X214366Y189000D01*
X200661Y193500D02*
X209866D01*
X150047Y163500D02*
X179485D01*
X150000Y163547D02*
X150047Y163500D01*
X179485D02*
X179533Y163547D01*
X156000Y149756D02*
Y157547D01*
X204861Y146567D02*
Y151567D01*
X142500Y177094D02*
X156000D01*
X137693Y172287D02*
X142500Y177094D01*
X137693Y163547D02*
Y172287D01*
X211500Y165787D02*
X214366Y162921D01*
Y156000D02*
Y162921D01*
X209933Y151567D02*
X214366Y156000D01*
X204861Y151567D02*
X209933D01*
X275874Y174000D02*
X287827Y162047D01*
D15*
X372587Y316419D02*
D03*
X376484Y320317D02*
D03*
D16*
X236638Y235419D02*
D03*
X242150D02*
D03*
X355800Y463500D02*
D03*
X350288D02*
D03*
X263560Y291584D02*
D03*
X269072D02*
D03*
X350853Y226864D02*
D03*
X345341D02*
D03*
X264693Y229199D02*
D03*
X270205D02*
D03*
X355800Y453000D02*
D03*
X350288D02*
D03*
X392866Y279482D02*
D03*
X387354D02*
D03*
X288624Y285829D02*
D03*
X283113D02*
D03*
X326109Y219213D02*
D03*
X331621D02*
D03*
X257146Y214198D02*
D03*
X262658D02*
D03*
X353930Y423000D02*
D03*
X348418D02*
D03*
X313268Y219213D02*
D03*
X318780D02*
D03*
X279205Y214198D02*
D03*
X273693D02*
D03*
X246394Y284699D02*
D03*
X251906D02*
D03*
X303918Y289669D02*
D03*
X309430D02*
D03*
X318693Y231013D02*
D03*
X324205D02*
D03*
X304705Y221576D02*
D03*
X299193D02*
D03*
X257193Y284699D02*
D03*
X262705D02*
D03*
X312776Y273903D02*
D03*
X307264D02*
D03*
X356882Y232883D02*
D03*
X351370D02*
D03*
X199043Y318200D02*
D03*
X204555D02*
D03*
X229163Y313800D02*
D03*
X234675D02*
D03*
X226154Y298500D02*
D03*
X220642D02*
D03*
X238209Y298500D02*
D03*
X232697D02*
D03*
X129244Y405000D02*
D03*
X134756D02*
D03*
X257194Y239328D02*
D03*
X262705D02*
D03*
X345205Y219410D02*
D03*
X339693D02*
D03*
X330937Y285809D02*
D03*
X336449D02*
D03*
X207617Y343500D02*
D03*
X202105D02*
D03*
X190500Y171000D02*
D03*
X196012D02*
D03*
X193256Y387000D02*
D03*
X187744D02*
D03*
X193256Y396000D02*
D03*
X187744D02*
D03*
X193256Y404000D02*
D03*
X187744D02*
D03*
X193256Y411000D02*
D03*
X187744D02*
D03*
X188756Y431764D02*
D03*
X183244D02*
D03*
X188756Y439500D02*
D03*
X183244D02*
D03*
X289857Y214199D02*
D03*
X295368D02*
D03*
X210104Y327129D02*
D03*
X215616D02*
D03*
X217886Y240000D02*
D03*
X223398D02*
D03*
X228000Y305013D02*
D03*
X233512D02*
D03*
D17*
X349949Y334800D02*
D03*
Y340312D02*
D03*
X323418Y280100D02*
D03*
Y285612D02*
D03*
X324796Y266672D02*
D03*
Y272183D02*
D03*
X295820Y280073D02*
D03*
Y285584D02*
D03*
X324796Y252234D02*
D03*
Y257746D02*
D03*
X318937Y180291D02*
D03*
Y185803D02*
D03*
X165000Y144441D02*
D03*
Y149953D02*
D03*
X237000Y456835D02*
D03*
Y451323D02*
D03*
X291000Y162244D02*
D03*
Y167756D02*
D03*
X236390Y360398D02*
D03*
Y354886D02*
D03*
X354449Y304443D02*
D03*
Y309955D02*
D03*
X348449Y304443D02*
D03*
Y309955D02*
D03*
X360449Y309954D02*
D03*
Y304443D02*
D03*
X367949Y309954D02*
D03*
Y304443D02*
D03*
X375449Y304443D02*
D03*
Y309955D02*
D03*
X275316Y291584D02*
D03*
Y286073D02*
D03*
X267000Y469194D02*
D03*
Y463682D02*
D03*
X382949Y304443D02*
D03*
Y309954D02*
D03*
X196012Y465100D02*
D03*
Y470612D02*
D03*
X390449Y304191D02*
D03*
Y309703D02*
D03*
X156000Y149756D02*
D03*
Y144244D02*
D03*
X192370Y353114D02*
D03*
Y358626D02*
D03*
X220500Y354000D02*
D03*
Y359512D02*
D03*
X142500Y177094D02*
D03*
Y182606D02*
D03*
X156000Y177094D02*
D03*
Y182606D02*
D03*
X195000Y256256D02*
D03*
Y250744D02*
D03*
X220500Y255847D02*
D03*
Y250335D02*
D03*
D18*
X252091Y431764D02*
D03*
Y429795D02*
D03*
Y427827D02*
D03*
Y425858D02*
D03*
Y423890D02*
D03*
Y421921D02*
D03*
Y419953D02*
D03*
Y417984D02*
D03*
Y416016D02*
D03*
Y414047D02*
D03*
Y412079D02*
D03*
Y410110D02*
D03*
Y408142D02*
D03*
Y406173D02*
D03*
Y404205D02*
D03*
Y402236D02*
D03*
X206909D02*
D03*
Y404205D02*
D03*
Y406173D02*
D03*
Y408142D02*
D03*
Y410110D02*
D03*
Y412079D02*
D03*
Y414047D02*
D03*
Y416016D02*
D03*
Y417984D02*
D03*
Y419953D02*
D03*
Y421921D02*
D03*
Y423890D02*
D03*
Y425858D02*
D03*
Y427827D02*
D03*
Y429795D02*
D03*
Y431764D02*
D03*
D19*
X244264Y394409D02*
D03*
X242295D02*
D03*
X240327D02*
D03*
X238358D02*
D03*
X236390D02*
D03*
X234421D02*
D03*
X232453D02*
D03*
X230484D02*
D03*
X228516D02*
D03*
X226547D02*
D03*
X224579D02*
D03*
X222610D02*
D03*
X220642D02*
D03*
X218673D02*
D03*
X216705D02*
D03*
X214736D02*
D03*
Y439591D02*
D03*
X216705D02*
D03*
X218673D02*
D03*
X220642D02*
D03*
X222610D02*
D03*
X224579D02*
D03*
X226547D02*
D03*
X228516D02*
D03*
X230484D02*
D03*
X232453D02*
D03*
X234421D02*
D03*
X236390D02*
D03*
X238358D02*
D03*
X240327D02*
D03*
X242295D02*
D03*
X244264D02*
D03*
D20*
X400292Y348000D02*
D03*
X381000D02*
D03*
X376646Y276835D02*
D03*
X357354D02*
D03*
D21*
X403949Y290053D02*
D03*
Y309345D02*
D03*
D22*
X236634Y214198D02*
D03*
X247264D02*
D03*
X258788Y306805D02*
D03*
X269418D02*
D03*
D23*
X342689Y271344D02*
D03*
Y260714D02*
D03*
X204000Y310151D02*
D03*
Y299521D02*
D03*
X364949Y229056D02*
D03*
Y218426D02*
D03*
D24*
X202000Y354000D02*
D03*
X205700D02*
D03*
X209400D02*
D03*
Y363200D02*
D03*
X202000D02*
D03*
X203300Y248656D02*
D03*
X207000D02*
D03*
X210700D02*
D03*
Y257856D02*
D03*
X203300D02*
D03*
X213005Y319600D02*
D03*
X220405D02*
D03*
Y310400D02*
D03*
X216705D02*
D03*
X213005D02*
D03*
D25*
X183339Y424650D02*
D03*
Y418350D02*
D03*
D26*
X295772Y261766D02*
D03*
X298331D02*
D03*
X300890D02*
D03*
X303449D02*
D03*
X306008D02*
D03*
X308567D02*
D03*
X311126D02*
D03*
Y238632D02*
D03*
X308567D02*
D03*
X306008D02*
D03*
X303449D02*
D03*
X300890D02*
D03*
X298331D02*
D03*
X295772D02*
D03*
D27*
X367315Y327129D02*
D03*
Y330829D02*
D03*
Y334529D02*
D03*
X357915D02*
D03*
Y327129D02*
D03*
D28*
X183339Y193500D02*
D03*
X200661D02*
D03*
D29*
X238500Y175807D02*
D03*
Y139193D02*
D03*
D30*
X185461Y156567D02*
D03*
Y151567D02*
D03*
Y146567D02*
D03*
Y141567D02*
D03*
X204861D02*
D03*
Y146567D02*
D03*
Y151567D02*
D03*
Y156567D02*
D03*
D31*
X195161Y149067D02*
D03*
D60*
X264693Y228859D02*
Y229199D01*
Y228859D02*
X269418Y224135D01*
X289949D01*
X317211Y280986D02*
X324796Y273401D01*
X308638Y280986D02*
X317211D01*
X324796Y272380D02*
Y273401D01*
X209400Y354000D02*
Y356360D01*
X208020Y357740D02*
X209400Y356360D01*
X202587Y357740D02*
X208020D01*
X202000Y357154D02*
X202587Y357740D01*
X202000Y354000D02*
Y357154D01*
X201147Y353147D02*
X202000Y354000D01*
X201147Y348761D02*
Y353147D01*
X202000Y354000D02*
X203669Y352331D01*
Y345064D02*
Y352331D01*
X202105Y343500D02*
X203669Y345064D01*
X232453Y443476D02*
Y445388D01*
Y439591D02*
Y443476D01*
X228736Y447194D02*
X232453Y443476D01*
X224434Y447194D02*
X228736D01*
X300678Y238419D02*
X300890Y238632D01*
X300678Y232595D02*
Y238419D01*
X286988Y234311D02*
X287627Y233672D01*
X269029Y234311D02*
X286988D01*
X262705Y239328D02*
Y241295D01*
X261000Y243000D02*
X262705Y241295D01*
X254879Y243000D02*
X261000D01*
X253500Y241621D02*
X254879Y243000D01*
X253500Y236455D02*
Y241621D01*
Y236455D02*
X257661Y232294D01*
X258678D01*
X260178Y218709D02*
X262855Y216032D01*
Y214198D02*
Y216032D01*
X268298Y235043D02*
X269029Y234311D01*
X266991Y235043D02*
X268298D01*
X262705Y239328D02*
X266991Y235043D01*
X355225Y139500D02*
Y159986D01*
X329211Y186000D02*
X355225Y159986D01*
X318937Y186000D02*
X329211D01*
X338615Y226864D02*
X345144D01*
X337949Y226199D02*
X338615Y226864D01*
X183244Y439500D02*
Y443381D01*
X189217Y449355D01*
X219220D01*
X220642Y447933D01*
Y439591D02*
Y447933D01*
X204861Y156567D02*
Y162151D01*
X196012Y171000D02*
X204861Y162151D01*
X269268Y285777D02*
X269662Y285384D01*
X289857Y208500D02*
Y214199D01*
Y208500D02*
X291000Y207357D01*
Y167953D02*
Y207357D01*
X310807Y183047D02*
X313760Y180094D01*
X318937D01*
X295368Y209569D02*
X318937Y186000D01*
X295368Y209569D02*
Y214199D01*
X349949Y334603D02*
X350024Y334529D01*
X357915D01*
X338129Y339234D02*
X339404Y340509D01*
X349949D01*
X252091Y421921D02*
X258000D01*
X261284Y425206D01*
X263803D01*
X284307Y466699D02*
X295368Y477761D01*
Y482205D01*
X298658Y452830D02*
X299830D01*
X266034Y420206D02*
X298658Y452830D01*
X252343Y420206D02*
X266034D01*
X252091Y419953D02*
X252343Y420206D01*
X260050Y417984D02*
X260771Y418706D01*
X252091Y417984D02*
X260050D01*
X299076Y451126D02*
X302961D01*
X266655Y418706D02*
X299076Y451126D01*
X260771Y418706D02*
X266655D01*
X299830Y452830D02*
X307500Y460500D01*
X302961Y451126D02*
X317500Y465665D01*
X307500Y460500D02*
Y465665D01*
X252091Y423890D02*
X255724D01*
X297500Y465665D01*
X353091Y386706D02*
X356796Y383000D01*
X367949D01*
X259454Y416206D02*
X261807D01*
X252091Y402236D02*
X256121Y398206D01*
X259303D01*
X279807Y408706D02*
X334500D01*
X338794Y413000D01*
X367949D01*
X252091Y414047D02*
X257296D01*
X259454Y416206D01*
X321000Y403000D02*
X367949D01*
X240327Y389165D02*
Y394409D01*
Y389165D02*
X246492Y383000D01*
X251071D01*
X300890Y393000D02*
X367949D01*
X289685Y404205D02*
X300890Y393000D01*
X252091Y404205D02*
X289685D01*
X252091Y412079D02*
X264496D01*
X285418Y433000D01*
X367949D01*
X354127Y423000D02*
X367949D01*
X367449Y463500D02*
X367949Y463000D01*
X355996Y463500D02*
X367449D01*
X355996Y453000D02*
X367949D01*
X204714Y400040D02*
X206909Y402236D01*
X199422Y400040D02*
X204714D01*
X181890Y385733D02*
X183157Y387000D01*
X187744D01*
X213000Y427827D02*
X215257Y425570D01*
X213000Y427827D02*
X241682D01*
X206909D02*
X213000D01*
X206909Y402236D02*
X213158D01*
X215248Y404326D01*
Y406453D01*
X215257Y406462D01*
Y425570D01*
X245619Y431764D02*
X252091D01*
X241682Y427827D02*
X245619Y431764D01*
X218673Y439591D02*
Y443920D01*
X217666Y444927D02*
X218673Y443920D01*
X217666Y444927D02*
Y446765D01*
X241965Y360595D02*
X244745Y363375D01*
X236390Y360595D02*
X241965D01*
X123657Y431157D02*
X129244Y425570D01*
Y405000D02*
Y425570D01*
X134756Y405000D02*
X143343Y413587D01*
Y431157D01*
X123657Y450843D02*
X143343Y431157D01*
X226997Y450843D02*
X232453Y445388D01*
X143343Y450843D02*
X226997D01*
X209400Y363200D02*
X214905D01*
X218593Y359512D01*
X220500D01*
X225000Y375000D02*
X225268Y375268D01*
X219405Y375000D02*
X225000D01*
X243000Y451126D02*
Y470390D01*
X239854Y473536D02*
Y477705D01*
Y473536D02*
X243000Y470390D01*
X236390Y439591D02*
Y444516D01*
X243000Y451126D01*
X234421Y439591D02*
Y445921D01*
X237000Y448500D01*
Y451126D01*
X220642Y473390D02*
Y477705D01*
Y473390D02*
X237000Y457032D01*
X239854Y477705D02*
X248365Y469194D01*
X267000D01*
X203105Y477705D02*
X220642D01*
X196012Y470612D02*
X203105Y477705D01*
X183244Y431764D02*
Y439500D01*
Y431764D02*
X183339Y431669D01*
Y424650D02*
Y431669D01*
Y418350D02*
X187744Y413945D01*
Y411000D02*
Y413945D01*
Y404000D02*
Y411000D01*
Y396000D02*
Y404000D01*
Y387000D02*
Y396000D01*
X209400Y363200D02*
Y364995D01*
X219405Y375000D01*
X196944Y363200D02*
X202000D01*
X192370Y358626D02*
X196944Y363200D01*
X212756Y310151D02*
X213005Y310400D01*
X204000Y310151D02*
X212756D01*
X194469Y313823D02*
X198846Y318200D01*
X188107Y313823D02*
X194469D01*
X236390Y342453D02*
X236520Y342323D01*
X236390Y342453D02*
Y354689D01*
X245113Y305013D02*
X252497Y297629D01*
X233512Y305013D02*
X245113D01*
X233512D02*
X234872Y306374D01*
Y313800D01*
X220405Y319600D02*
X223166D01*
X228966Y313800D01*
X220405Y310400D02*
X222613D01*
X228000Y305013D01*
X216805Y316000D02*
X220405Y319600D01*
X209815Y316000D02*
X216805D01*
X207615Y318200D02*
X209815Y316000D01*
X204752Y318200D02*
X207615D01*
X206395Y327129D02*
X210104D01*
Y322500D02*
Y327129D01*
Y322500D02*
X213005Y319600D01*
X202695Y330829D02*
X206395Y327129D01*
X198846Y314000D02*
Y318200D01*
Y314000D02*
X202695Y310151D01*
X204000D01*
Y299521D02*
X209521Y294000D01*
X224435D01*
X226351Y295915D01*
Y298500D01*
X220405Y310400D02*
X220445Y310360D01*
Y298500D02*
Y310360D01*
X226351Y298500D02*
X232500D01*
X246197Y284699D02*
Y290708D01*
X238406Y298500D02*
X246197Y290708D01*
X204556Y264000D02*
X210700Y257856D01*
X179925Y264000D02*
X204556D01*
X167925Y276000D02*
X179925Y264000D01*
X193000Y275335D02*
Y278387D01*
X198276Y283663D01*
X215256D01*
X231919Y267000D01*
X390449Y309703D02*
X397792Y317045D01*
X410366D01*
X414000Y313412D01*
Y285526D02*
Y313412D01*
X407957Y279482D02*
X414000Y285526D01*
X393063Y279482D02*
X407957D01*
X342449Y317575D02*
X345225Y320351D01*
X342449Y297869D02*
Y317575D01*
Y297869D02*
X357354Y282964D01*
Y276835D02*
Y282964D01*
X345225Y313179D02*
Y320351D01*
X324796Y257943D02*
X327567Y260714D01*
X342689D01*
X367529Y334529D02*
X379394D01*
X367315D02*
X367529D01*
X381000Y348000D01*
X367315Y325589D02*
X382949Y309954D01*
X367315Y325589D02*
Y327129D01*
X367949Y309955D02*
X372448Y314453D01*
X367949Y309954D02*
X367949Y309955D01*
X372448Y314453D02*
Y316280D01*
X379697Y320456D02*
X390449Y309703D01*
X376624Y320456D02*
X379697D01*
X390449Y309703D02*
Y323474D01*
X379394Y334529D02*
X390449Y323474D01*
X351137Y320351D02*
X357915Y327129D01*
X345225Y320351D02*
X351137D01*
X345225Y313179D02*
X348449Y309955D01*
X367315Y320496D02*
Y325589D01*
X364949Y318131D02*
X367315Y320496D01*
X382949Y309954D02*
X385957Y306947D01*
X394698D01*
X397095Y309345D01*
X403949D01*
X367949Y309955D02*
X375449D01*
X360449Y309954D02*
X360449Y309954D01*
X360449Y309955D02*
X360449Y309954D01*
X360449Y309954D02*
X367949D01*
X354449Y309955D02*
X360449D01*
X354449Y309955D02*
X354449Y309955D01*
X348449Y309955D02*
X354449D01*
X269268Y285777D02*
Y291584D01*
X262902Y284699D02*
X263363Y285159D01*
Y291584D01*
X269268D02*
X275316D01*
X297548Y269034D02*
X300890Y265691D01*
Y261766D02*
Y265691D01*
X297543Y269034D02*
X297548D01*
X282916Y283661D02*
X297543Y269034D01*
X282916Y283661D02*
Y285829D01*
X275316Y286073D02*
X275560Y285829D01*
X282916D01*
X298331Y261766D02*
Y266129D01*
X296926Y267534D02*
X298331Y266129D01*
X275316Y267534D02*
X296926D01*
X262902Y279947D02*
X275316Y267534D01*
X262902Y279947D02*
Y284699D01*
X277666Y261766D02*
X295772D01*
X256997Y282435D02*
X277666Y261766D01*
X256997Y282435D02*
Y284699D01*
X252103D02*
X256997D01*
Y305013D01*
X258788Y306805D01*
X269418D02*
X288821Y287402D01*
Y285829D02*
Y287402D01*
Y285829D02*
X295773D01*
X295820Y285781D01*
X303721Y284600D02*
Y289669D01*
X298996Y279876D02*
X303721Y284600D01*
X295820Y279876D02*
X298996D01*
X311803Y262443D02*
X312973Y263612D01*
X311126Y261766D02*
X311803Y262443D01*
X318449D01*
X309626Y296258D02*
X310020Y296651D01*
X309626Y289669D02*
Y296258D01*
X303180Y275528D02*
X308638Y280986D01*
X316949Y287504D02*
X318644Y285809D01*
X323418D01*
X330937D01*
X312973Y273903D02*
X315941D01*
X320417Y269427D01*
X330126D01*
X332043Y271344D01*
X342689D01*
X312973Y263612D02*
Y273903D01*
X308567Y261766D02*
Y267534D01*
X307067Y269034D02*
X308567Y267534D01*
X307067Y269034D02*
Y273903D01*
X306008Y261766D02*
Y266699D01*
X303180Y269527D02*
X306008Y266699D01*
X303180Y269527D02*
Y275528D01*
X324796Y272380D02*
X336449Y284034D01*
Y285809D01*
X324796Y266423D02*
X324796Y266423D01*
Y257943D02*
Y266423D01*
X324402Y251643D02*
X324796Y252037D01*
X324402Y231013D02*
Y251643D01*
X357079Y232883D02*
X361122D01*
X364949Y229056D01*
X325912Y215614D02*
Y219213D01*
Y215614D02*
X328827Y212699D01*
X359222D01*
X364949Y218426D01*
X357079Y232883D02*
Y235504D01*
X355921Y236662D02*
X357079Y235504D01*
X340282Y236662D02*
X355921D01*
X331440Y227821D02*
X340282Y236662D01*
X317894Y229199D02*
Y231538D01*
X319949Y227821D02*
X331440D01*
X318496Y229273D02*
X319949Y227821D01*
X318496Y229273D02*
Y231013D01*
X311126Y234311D02*
Y238632D01*
Y234311D02*
X313900Y231538D01*
X317894D01*
X308567Y238632D02*
X308764Y238434D01*
Y228537D02*
Y238434D01*
Y228537D02*
X311815Y225486D01*
X331227D01*
X338500Y232759D01*
X351050D01*
X279571Y229199D02*
X280949Y230577D01*
X270402Y229199D02*
X279571D01*
X351050Y226864D02*
Y232759D01*
X345144Y226864D02*
X345205Y226803D01*
Y219410D02*
Y226803D01*
X331817Y219213D02*
X332014Y219410D01*
X339693D01*
X298331Y230376D02*
Y238632D01*
X296868Y228914D02*
X298331Y230376D01*
X306008Y234139D02*
Y238632D01*
Y234139D02*
X307264Y232883D01*
Y226883D02*
Y232883D01*
Y226883D02*
X310702Y223446D01*
X328668D01*
X331817Y220296D01*
Y219213D02*
Y220296D01*
X325912Y219213D02*
X325912Y219213D01*
X318977Y219213D02*
X325912D01*
X304902Y221576D02*
X307264Y219213D01*
X313072D01*
X303449Y229199D02*
Y238632D01*
X293508Y231660D02*
X295772Y233924D01*
X293508Y227064D02*
Y231660D01*
Y227064D02*
X298996Y221576D01*
X295772Y233924D02*
Y238632D01*
X236442Y235419D02*
Y243802D01*
X241308Y248669D01*
X262346D01*
X272383Y238632D01*
X295772D01*
X257194Y239328D02*
X262579Y233943D01*
X267842D01*
X270402Y231382D01*
Y229199D02*
Y231382D01*
X242347Y235419D02*
X248568Y229199D01*
X264496D01*
X236442Y235419D02*
X236634Y235226D01*
Y214198D02*
Y235226D01*
X247264Y214198D02*
X256949D01*
X262359Y208788D01*
X268086D01*
X273496Y214199D01*
X279402D02*
X289857D01*
X211360Y238500D02*
X212860Y240000D01*
X217886D01*
X203300Y248656D02*
Y251966D01*
X204834Y253500D01*
X208512D01*
X210700Y251312D01*
Y248656D02*
Y251312D01*
X195000Y256256D02*
X196600Y257856D01*
X203300D01*
X210700D02*
X212344Y259500D01*
X216847D01*
X220500Y255847D01*
X217886Y240000D02*
Y241470D01*
X210700Y248656D02*
X217886Y241470D01*
X199252Y244608D02*
X203300Y248656D01*
X199252Y223610D02*
Y244608D01*
X139500Y221870D02*
X141240Y223610D01*
X179252D01*
X173000Y183161D02*
X183339Y193500D01*
X173000Y167843D02*
Y183161D01*
Y167843D02*
X175343Y165500D01*
X178657D01*
X178704Y165547D01*
X195881D01*
X204861Y156567D01*
X189000Y169500D02*
X190500Y171000D01*
X177000Y169500D02*
X189000D01*
X173587Y157547D02*
X174567Y156567D01*
X185461D01*
X156000Y182606D02*
Y190358D01*
X189252Y223610D01*
X133500Y173606D02*
X142500Y182606D01*
X133500Y160256D02*
Y173606D01*
Y160256D02*
X156335Y137421D01*
X159095Y144244D02*
X165000Y150149D01*
X175500D01*
X156335Y137421D02*
X200715D01*
X204861Y141567D01*
X142500Y182606D02*
X156000D01*
X175500Y150149D02*
X184044D01*
X175500D02*
X179083Y146567D01*
X185461D01*
X184044Y150149D02*
X185461Y151567D01*
X156000Y144244D02*
X159095D01*
X175500Y141567D02*
X185461D01*
X172823Y144244D02*
X175500Y141567D01*
X165000Y144244D02*
X172823D01*
X196012Y171000D02*
X200819Y175807D01*
X238500D01*
X204861Y141567D02*
X207235Y139193D01*
X238500D01*
D61*
X179252Y223610D02*
D03*
X297500Y465665D02*
D03*
X325000Y445388D02*
D03*
X285368Y482205D02*
D03*
D62*
X189252Y223610D02*
D03*
X199252D02*
D03*
X307500Y465665D02*
D03*
X317500D02*
D03*
X305000Y445388D02*
D03*
X315000D02*
D03*
X305368Y482205D02*
D03*
X295368D02*
D03*
D63*
X367949Y373000D02*
D03*
X377949D02*
D03*
X367949Y383000D02*
D03*
X377949D02*
D03*
X367949Y393000D02*
D03*
X377949D02*
D03*
X367949Y403000D02*
D03*
X377949D02*
D03*
X367949Y413000D02*
D03*
X377949D02*
D03*
X367949Y423000D02*
D03*
X377949D02*
D03*
X367949Y433000D02*
D03*
X377949D02*
D03*
X367949Y443000D02*
D03*
X377949D02*
D03*
X367949Y453000D02*
D03*
X377949D02*
D03*
X367949Y463000D02*
D03*
X377949D02*
D03*
D64*
X345225Y139500D02*
D03*
X355225D02*
D03*
D65*
X143343Y431157D02*
D03*
Y450843D02*
D03*
X123657D02*
D03*
Y431157D02*
D03*
D66*
X220642Y477705D02*
D03*
X239854D02*
D03*
D67*
X139500Y221870D02*
D03*
Y371476D02*
D03*
D68*
X167925Y276000D02*
D03*
X193000Y275335D02*
D03*
D69*
X177925Y276000D02*
D03*
X203000Y275335D02*
D03*
D70*
X316949Y283233D02*
D03*
X317178Y276999D02*
D03*
X203278Y241727D02*
D03*
X201147Y348761D02*
D03*
X300678Y232595D02*
D03*
X287627Y233672D02*
D03*
X258678Y232294D02*
D03*
X260178Y218709D02*
D03*
X217078Y304595D02*
D03*
X227083Y322695D02*
D03*
X191793Y336095D02*
D03*
X196882Y348095D02*
D03*
X192678Y444465D02*
D03*
X241934Y277247D02*
D03*
X261855Y266708D02*
D03*
X299843Y272129D02*
D03*
X269662Y285384D02*
D03*
X338129Y339234D02*
D03*
X263803Y425206D02*
D03*
X284307Y466699D02*
D03*
X292224Y438706D02*
D03*
X353091Y386706D02*
D03*
X261807Y416206D02*
D03*
X279807Y408706D02*
D03*
X259303Y398206D02*
D03*
X321000Y403000D02*
D03*
X251071Y383000D02*
D03*
X391500Y423000D02*
D03*
X224434Y447194D02*
D03*
X199422Y400040D02*
D03*
X181890Y385733D02*
D03*
X217666Y446765D02*
D03*
X244745Y363375D02*
D03*
X225268Y375268D02*
D03*
X187500Y376500D02*
D03*
X183339Y464568D02*
D03*
X219220Y341091D02*
D03*
X188107Y313823D02*
D03*
X236520Y342323D02*
D03*
X340500Y457500D02*
D03*
X202695Y330829D02*
D03*
X393000Y332043D02*
D03*
X376725Y326963D02*
D03*
X345225Y320351D02*
D03*
X364949Y318131D02*
D03*
X303449Y229199D02*
D03*
X296868Y228914D02*
D03*
X363815Y295266D02*
D03*
X337949Y226199D02*
D03*
X280949Y230577D02*
D03*
X252497Y297629D02*
D03*
X318449Y262443D02*
D03*
X316949Y287504D02*
D03*
X310020Y296651D02*
D03*
X289949Y224135D02*
D03*
X251071Y244198D02*
D03*
X231919Y267000D02*
D03*
X211360Y238500D02*
D03*
X191156D02*
D03*
D71*
X214366Y189000D02*
D03*
X177000Y169500D02*
D03*
X173587Y157547D02*
D03*
X211500Y165787D02*
D03*
X310807Y183047D02*
D03*
X275874Y174000D02*
D03*
X139500Y384000D02*
D03*
X150000Y163547D02*
D03*
X137693D02*
D03*
M02*
