solid
 facet normal -9.989545e-01  0.000000e+00  4.571487e-02
   outer loop
     vertex -2.900000e+00 -1.625000e+00  1.325000e+00
     vertex -2.854596e+00 -1.579596e+00  2.317172e+00
     vertex -2.854596e+00  1.579596e+00  2.317172e+00
   endloop
 endfacet
 facet normal -9.989545e-01  0.000000e+00  4.571487e-02
   outer loop
     vertex -2.900000e+00  1.625000e+00  1.325000e+00
     vertex -2.900000e+00 -1.625000e+00  1.325000e+00
     vertex -2.854596e+00  1.579596e+00  2.317172e+00
   endloop
 endfacet
 facet normal  4.769976e-16 -9.989545e-01  4.571487e-02
   outer loop
     vertex -2.349167e+00 -1.557500e+00  2.800000e+00
     vertex -2.854596e+00 -1.579596e+00  2.317172e+00
     vertex -2.900000e+00 -1.625000e+00  1.325000e+00
   endloop
 endfacet
 facet normal  0.000000e+00 -9.989545e-01  4.571487e-02
   outer loop
     vertex  2.900000e+00 -1.625000e+00  1.325000e+00
     vertex -2.349167e+00 -1.557500e+00  2.800000e+00
     vertex -2.900000e+00 -1.625000e+00  1.325000e+00
   endloop
 endfacet
 facet normal  0.000000e+00 -9.989545e-01  4.571487e-02
   outer loop
     vertex  2.832500e+00 -1.557500e+00  2.800000e+00
     vertex -2.349167e+00 -1.557500e+00  2.800000e+00
     vertex  2.900000e+00 -1.625000e+00  1.325000e+00
   endloop
 endfacet
 facet normal -6.907551e-01  0.000000e+00  7.230888e-01
   outer loop
     vertex -2.854596e+00 -1.579596e+00  2.317172e+00
     vertex -2.349167e+00 -1.557500e+00  2.800000e+00
     vertex -2.349167e+00  1.557500e+00  2.800000e+00
   endloop
 endfacet
 facet normal -6.907551e-01  0.000000e+00  7.230888e-01
   outer loop
     vertex -2.854596e+00  1.579596e+00  2.317172e+00
     vertex -2.854596e+00 -1.579596e+00  2.317172e+00
     vertex -2.349167e+00  1.557500e+00  2.800000e+00
   endloop
 endfacet
 facet normal -1.000000e+00  0.000000e+00  0.000000e+00
   outer loop
     vertex -2.900000e+00  1.625000e+00  1.315000e+00
     vertex -2.900000e+00 -1.625000e+00  1.315000e+00
     vertex -2.900000e+00 -1.625000e+00  1.325000e+00
   endloop
 endfacet
 facet normal -1.000000e+00 -0.000000e+00 -0.000000e+00
   outer loop
     vertex -2.900000e+00  1.625000e+00  1.325000e+00
     vertex -2.900000e+00  1.625000e+00  1.315000e+00
     vertex -2.900000e+00 -1.625000e+00  1.325000e+00
   endloop
 endfacet
 facet normal -2.927031e-15  9.989545e-01  4.571487e-02
   outer loop
     vertex -2.900000e+00  1.625000e+00  1.325000e+00
     vertex -2.854596e+00  1.579596e+00  2.317172e+00
     vertex -2.349167e+00  1.557500e+00  2.800000e+00
   endloop
 endfacet
 facet normal  0.000000e+00  9.989545e-01  4.571487e-02
   outer loop
     vertex -2.900000e+00  1.625000e+00  1.325000e+00
     vertex -2.349167e+00  1.557500e+00  2.800000e+00
     vertex  2.900000e+00  1.625000e+00  1.325000e+00
   endloop
 endfacet
 facet normal -0.000000e+00  9.989545e-01  4.571487e-02
   outer loop
     vertex  2.900000e+00  1.625000e+00  1.325000e+00
     vertex -2.349167e+00  1.557500e+00  2.800000e+00
     vertex  2.832500e+00  1.557500e+00  2.800000e+00
   endloop
 endfacet
 facet normal  0.000000e+00 -1.000000e+00  0.000000e+00
   outer loop
     vertex -2.900000e+00 -1.625000e+00  1.315000e+00
     vertex  2.900000e+00 -1.625000e+00  1.315000e+00
     vertex  2.900000e+00 -1.625000e+00  1.325000e+00
   endloop
 endfacet
 facet normal  0.000000e+00 -1.000000e+00  0.000000e+00
   outer loop
     vertex -2.900000e+00 -1.625000e+00  1.325000e+00
     vertex -2.900000e+00 -1.625000e+00  1.315000e+00
     vertex  2.900000e+00 -1.625000e+00  1.325000e+00
   endloop
 endfacet
 facet normal -0.000000e+00  0.000000e+00  1.000000e+00
   outer loop
     vertex  2.832500e+00  1.557500e+00  2.800000e+00
     vertex -2.349167e+00 -1.557500e+00  2.800000e+00
     vertex  2.832500e+00 -1.557500e+00  2.800000e+00
   endloop
 endfacet
 facet normal  0.000000e+00  0.000000e+00  1.000000e+00
   outer loop
     vertex  2.832500e+00  1.557500e+00  2.800000e+00
     vertex -2.349167e+00  1.557500e+00  2.800000e+00
     vertex -2.349167e+00 -1.557500e+00  2.800000e+00
   endloop
 endfacet
 facet normal  9.989545e-01  0.000000e+00  4.571487e-02
   outer loop
     vertex  2.832500e+00  1.557500e+00  2.800000e+00
     vertex  2.832500e+00 -1.557500e+00  2.800000e+00
     vertex  2.900000e+00 -1.625000e+00  1.325000e+00
   endloop
 endfacet
 facet normal  9.989545e-01 -0.000000e+00  4.571487e-02
   outer loop
     vertex  2.832500e+00  1.557500e+00  2.800000e+00
     vertex  2.900000e+00 -1.625000e+00  1.325000e+00
     vertex  2.900000e+00  1.625000e+00  1.325000e+00
   endloop
 endfacet
 facet normal -9.984604e-01 -0.000000e+00 -5.547002e-02
   outer loop
     vertex -2.832500e+00  1.557500e+00  1.000000e-01
     vertex -2.832500e+00 -1.557500e+00  1.000000e-01
     vertex -2.900000e+00 -1.625000e+00  1.315000e+00
   endloop
 endfacet
 facet normal -9.984604e-01  0.000000e+00 -5.547002e-02
   outer loop
     vertex -2.832500e+00  1.557500e+00  1.000000e-01
     vertex -2.900000e+00 -1.625000e+00  1.315000e+00
     vertex -2.900000e+00  1.625000e+00  1.315000e+00
   endloop
 endfacet
 facet normal  0.000000e+00  1.000000e+00  0.000000e+00
   outer loop
     vertex  2.900000e+00  1.625000e+00  1.325000e+00
     vertex  2.900000e+00  1.625000e+00  1.315000e+00
     vertex -2.900000e+00  1.625000e+00  1.315000e+00
   endloop
 endfacet
 facet normal  0.000000e+00  1.000000e+00 -0.000000e+00
   outer loop
     vertex  2.900000e+00  1.625000e+00  1.325000e+00
     vertex -2.900000e+00  1.625000e+00  1.315000e+00
     vertex -2.900000e+00  1.625000e+00  1.325000e+00
   endloop
 endfacet
 facet normal  1.000000e+00 -0.000000e+00  0.000000e+00
   outer loop
     vertex  2.900000e+00 -1.625000e+00  1.325000e+00
     vertex  2.900000e+00 -1.625000e+00  1.315000e+00
     vertex  2.900000e+00  1.625000e+00  1.315000e+00
   endloop
 endfacet
 facet normal  1.000000e+00 -0.000000e+00  0.000000e+00
   outer loop
     vertex  2.900000e+00 -1.625000e+00  1.325000e+00
     vertex  2.900000e+00  1.625000e+00  1.315000e+00
     vertex  2.900000e+00  1.625000e+00  1.325000e+00
   endloop
 endfacet
 facet normal  0.000000e+00 -9.984604e-01 -5.547002e-02
   outer loop
     vertex -2.900000e+00 -1.625000e+00  1.315000e+00
     vertex -2.832500e+00 -1.557500e+00  1.000000e-01
     vertex  2.832500e+00 -1.557500e+00  1.000000e-01
   endloop
 endfacet
 facet normal -0.000000e+00 -9.984604e-01 -5.547002e-02
   outer loop
     vertex  2.900000e+00 -1.625000e+00  1.315000e+00
     vertex -2.900000e+00 -1.625000e+00  1.315000e+00
     vertex  2.832500e+00 -1.557500e+00  1.000000e-01
   endloop
 endfacet
 facet normal  0.000000e+00  0.000000e+00 -1.000000e+00
   outer loop
     vertex -2.832500e+00 -1.557500e+00  1.000000e-01
     vertex -2.832500e+00  1.557500e+00  1.000000e-01
     vertex  2.832500e+00  1.557500e+00  1.000000e-01
   endloop
 endfacet
 facet normal  0.000000e+00  0.000000e+00 -1.000000e+00
   outer loop
     vertex  2.832500e+00 -1.557500e+00  1.000000e-01
     vertex -2.832500e+00 -1.557500e+00  1.000000e-01
     vertex  2.832500e+00  1.557500e+00  1.000000e-01
   endloop
 endfacet
 facet normal  0.000000e+00  9.984604e-01 -5.547002e-02
   outer loop
     vertex  2.900000e+00  1.625000e+00  1.315000e+00
     vertex -2.832500e+00  1.557500e+00  1.000000e-01
     vertex -2.900000e+00  1.625000e+00  1.315000e+00
   endloop
 endfacet
 facet normal  0.000000e+00  9.984604e-01 -5.547002e-02
   outer loop
     vertex  2.832500e+00  1.557500e+00  1.000000e-01
     vertex -2.832500e+00  1.557500e+00  1.000000e-01
     vertex  2.900000e+00  1.625000e+00  1.315000e+00
   endloop
 endfacet
 facet normal  9.984604e-01  0.000000e+00 -5.547002e-02
   outer loop
     vertex  2.900000e+00 -1.625000e+00  1.315000e+00
     vertex  2.832500e+00 -1.557500e+00  1.000000e-01
     vertex  2.832500e+00  1.557500e+00  1.000000e-01
   endloop
 endfacet
 facet normal  9.984604e-01  0.000000e+00 -5.547002e-02
   outer loop
     vertex  2.900000e+00  1.625000e+00  1.315000e+00
     vertex  2.900000e+00 -1.625000e+00  1.315000e+00
     vertex  2.832500e+00  1.557500e+00  1.000000e-01
   endloop
 endfacet
 facet normal  0.000000e+00 -1.000000e+00  0.000000e+00
   outer loop
     vertex -2.925882e+00 -1.100000e+00  3.407417e-03
     vertex -2.900000e+00 -1.100000e+00 -1.387779e-17
     vertex -2.900000e+00 -1.100000e+00  1.000000e-01
   endloop
 endfacet
 facet normal  0.000000e+00 -1.000000e+00  0.000000e+00
   outer loop
     vertex -2.950000e+00 -1.100000e+00  1.339746e-02
     vertex -2.925882e+00 -1.100000e+00  3.407417e-03
     vertex -2.900000e+00 -1.100000e+00  1.000000e-01
   endloop
 endfacet
 facet normal  0.000000e+00 -1.000000e+00  0.000000e+00
   outer loop
     vertex -2.970711e+00 -1.100000e+00  2.928932e-02
     vertex -2.950000e+00 -1.100000e+00  1.339746e-02
     vertex -2.900000e+00 -1.100000e+00  1.000000e-01
   endloop
 endfacet
 facet normal  0.000000e+00 -1.000000e+00  0.000000e+00
   outer loop
     vertex -2.986603e+00 -1.100000e+00  5.000000e-02
     vertex -2.970711e+00 -1.100000e+00  2.928932e-02
     vertex -2.900000e+00 -1.100000e+00  1.000000e-01
   endloop
 endfacet
 facet normal  0.000000e+00 -1.000000e+00  0.000000e+00
   outer loop
     vertex -2.996593e+00 -1.100000e+00  7.411810e-02
     vertex -2.986603e+00 -1.100000e+00  5.000000e-02
     vertex -2.900000e+00 -1.100000e+00  1.000000e-01
   endloop
 endfacet
 facet normal  0.000000e+00 -1.000000e+00  0.000000e+00
   outer loop
     vertex -3.000000e+00 -1.100000e+00  1.000000e-01
     vertex -2.996593e+00 -1.100000e+00  7.411810e-02
     vertex -2.900000e+00 -1.100000e+00  1.000000e-01
   endloop
 endfacet
 facet normal  0.000000e+00 -1.000000e+00  0.000000e+00
   outer loop
     vertex -3.000000e+00 -1.100000e+00  1.000000e-01
     vertex -2.900000e+00 -1.100000e+00  1.000000e-01
     vertex -3.000000e+00 -1.100000e+00  1.215000e+00
   endloop
 endfacet
 facet normal  0.000000e+00 -1.000000e+00 -0.000000e+00
   outer loop
     vertex -2.996593e+00 -1.100000e+00  1.240882e+00
     vertex -3.000000e+00 -1.100000e+00  1.215000e+00
     vertex -2.900000e+00 -1.100000e+00  1.215000e+00
   endloop
 endfacet
 facet normal  0.000000e+00 -1.000000e+00 -0.000000e+00
   outer loop
     vertex -2.986603e+00 -1.100000e+00  1.265000e+00
     vertex -2.996593e+00 -1.100000e+00  1.240882e+00
     vertex -2.900000e+00 -1.100000e+00  1.215000e+00
   endloop
 endfacet
 facet normal  0.000000e+00 -1.000000e+00 -0.000000e+00
   outer loop
     vertex -2.970711e+00 -1.100000e+00  1.285711e+00
     vertex -2.986603e+00 -1.100000e+00  1.265000e+00
     vertex -2.900000e+00 -1.100000e+00  1.215000e+00
   endloop
 endfacet
 facet normal  0.000000e+00 -1.000000e+00  0.000000e+00
   outer loop
     vertex -3.000000e+00 -1.100000e+00  1.215000e+00
     vertex -2.900000e+00 -1.100000e+00  1.000000e-01
     vertex -2.900000e+00 -1.100000e+00  1.215000e+00
   endloop
 endfacet
 facet normal  0.000000e+00 -1.000000e+00  0.000000e+00
   outer loop
     vertex -2.900000e+00 -1.100000e+00  1.000000e-01
     vertex -2.900000e+00 -1.100000e+00 -1.387779e-17
     vertex -1.650000e+00 -1.100000e+00  0.000000e+00
   endloop
 endfacet
 facet normal  0.000000e+00 -1.000000e+00  0.000000e+00
   outer loop
     vertex -2.970711e+00 -1.100000e+00  1.285711e+00
     vertex -2.900000e+00 -1.100000e+00  1.215000e+00
     vertex -2.950000e+00 -1.100000e+00  1.301603e+00
   endloop
 endfacet
 facet normal  0.000000e+00 -1.000000e+00  0.000000e+00
   outer loop
     vertex -2.950000e+00 -1.100000e+00  1.301603e+00
     vertex -2.900000e+00 -1.100000e+00  1.215000e+00
     vertex -2.925882e+00 -1.100000e+00  1.311593e+00
   endloop
 endfacet
 facet normal  0.000000e+00 -1.000000e+00  0.000000e+00
   outer loop
     vertex -2.925882e+00 -1.100000e+00  1.311593e+00
     vertex -2.900000e+00 -1.100000e+00  1.215000e+00
     vertex -2.900000e+00 -1.100000e+00  1.315000e+00
   endloop
 endfacet
 facet normal  0.000000e+00 -1.000000e+00  0.000000e+00
   outer loop
     vertex -2.900000e+00 -1.100000e+00  1.000000e-01
     vertex -1.650000e+00 -1.100000e+00  0.000000e+00
     vertex -1.650000e+00 -1.100000e+00  1.000000e-01
   endloop
 endfacet
 facet normal  0.000000e+00 -1.000000e+00  0.000000e+00
   outer loop
     vertex -2.900000e+00 -1.100000e+00  1.315000e+00
     vertex -2.900000e+00 -1.100000e+00  1.215000e+00
     vertex -1.750000e+00 -1.100000e+00  1.215000e+00
   endloop
 endfacet
 facet normal  0.000000e+00 -1.000000e+00  0.000000e+00
   outer loop
     vertex -2.900000e+00 -1.100000e+00  1.315000e+00
     vertex -1.750000e+00 -1.100000e+00  1.215000e+00
     vertex -1.750000e+00 -1.100000e+00  1.315000e+00
   endloop
 endfacet
 facet normal -0.000000e+00  0.000000e+00  1.000000e+00
   outer loop
     vertex -2.900000e+00  1.100000e+00  1.315000e+00
     vertex -2.900000e+00 -1.100000e+00  1.315000e+00
     vertex -1.750000e+00 -1.100000e+00  1.315000e+00
   endloop
 endfacet
 facet normal  0.000000e+00  0.000000e+00  1.000000e+00
   outer loop
     vertex -1.750000e+00  1.100000e+00  1.315000e+00
     vertex -2.900000e+00  1.100000e+00  1.315000e+00
     vertex -1.750000e+00 -1.100000e+00  1.315000e+00
   endloop
 endfacet
 facet normal -9.914449e-01  0.000000e+00  1.305262e-01
   outer loop
     vertex -3.000000e+00  1.100000e+00  1.215000e+00
     vertex -3.000000e+00 -1.100000e+00  1.215000e+00
     vertex -2.996593e+00 -1.100000e+00  1.240882e+00
   endloop
 endfacet
 facet normal -9.238795e-01  0.000000e+00  3.826834e-01
   outer loop
     vertex -2.996593e+00  1.100000e+00  1.240882e+00
     vertex -2.996593e+00 -1.100000e+00  1.240882e+00
     vertex -2.986603e+00 -1.100000e+00  1.265000e+00
   endloop
 endfacet
 facet normal -9.914449e-01  0.000000e+00  1.305262e-01
   outer loop
     vertex -2.996593e+00  1.100000e+00  1.240882e+00
     vertex -3.000000e+00  1.100000e+00  1.215000e+00
     vertex -2.996593e+00 -1.100000e+00  1.240882e+00
   endloop
 endfacet
 facet normal -9.238795e-01  0.000000e+00  3.826834e-01
   outer loop
     vertex -2.986603e+00  1.100000e+00  1.265000e+00
     vertex -2.996593e+00  1.100000e+00  1.240882e+00
     vertex -2.986603e+00 -1.100000e+00  1.265000e+00
   endloop
 endfacet
 facet normal -7.933533e-01  0.000000e+00  6.087614e-01
   outer loop
     vertex -2.970711e+00  1.100000e+00  1.285711e+00
     vertex -2.986603e+00 -1.100000e+00  1.265000e+00
     vertex -2.970711e+00 -1.100000e+00  1.285711e+00
   endloop
 endfacet
 facet normal -6.087614e-01  0.000000e+00  7.933533e-01
   outer loop
     vertex -2.970711e+00  1.100000e+00  1.285711e+00
     vertex -2.970711e+00 -1.100000e+00  1.285711e+00
     vertex -2.950000e+00 -1.100000e+00  1.301603e+00
   endloop
 endfacet
 facet normal -7.933533e-01  0.000000e+00  6.087614e-01
   outer loop
     vertex -2.970711e+00  1.100000e+00  1.285711e+00
     vertex -2.986603e+00  1.100000e+00  1.265000e+00
     vertex -2.986603e+00 -1.100000e+00  1.265000e+00
   endloop
 endfacet
 facet normal -3.826834e-01  0.000000e+00  9.238795e-01
   outer loop
     vertex -2.950000e+00  1.100000e+00  1.301603e+00
     vertex -2.950000e+00 -1.100000e+00  1.301603e+00
     vertex -2.925882e+00 -1.100000e+00  1.311593e+00
   endloop
 endfacet
 facet normal -6.087614e-01  0.000000e+00  7.933533e-01
   outer loop
     vertex -2.950000e+00  1.100000e+00  1.301603e+00
     vertex -2.970711e+00  1.100000e+00  1.285711e+00
     vertex -2.950000e+00 -1.100000e+00  1.301603e+00
   endloop
 endfacet
 facet normal -3.826834e-01  0.000000e+00  9.238795e-01
   outer loop
     vertex -2.925882e+00  1.100000e+00  1.311593e+00
     vertex -2.950000e+00  1.100000e+00  1.301603e+00
     vertex -2.925882e+00 -1.100000e+00  1.311593e+00
   endloop
 endfacet
 facet normal -1.305262e-01  0.000000e+00  9.914449e-01
   outer loop
     vertex -2.900000e+00  1.100000e+00  1.315000e+00
     vertex -2.925882e+00 -1.100000e+00  1.311593e+00
     vertex -2.900000e+00 -1.100000e+00  1.315000e+00
   endloop
 endfacet
 facet normal -1.305262e-01  0.000000e+00  9.914449e-01
   outer loop
     vertex -2.900000e+00  1.100000e+00  1.315000e+00
     vertex -2.925882e+00  1.100000e+00  1.311593e+00
     vertex -2.925882e+00 -1.100000e+00  1.311593e+00
   endloop
 endfacet
 facet normal  1.000000e+00 -0.000000e+00  0.000000e+00
   outer loop
     vertex -1.750000e+00 -1.100000e+00  1.315000e+00
     vertex -1.750000e+00  1.100000e+00  1.215000e+00
     vertex -1.750000e+00  1.100000e+00  1.315000e+00
   endloop
 endfacet
 facet normal  1.000000e+00 -0.000000e+00  0.000000e+00
   outer loop
     vertex -1.750000e+00 -1.100000e+00  1.315000e+00
     vertex -1.750000e+00 -1.100000e+00  1.215000e+00
     vertex -1.750000e+00  1.100000e+00  1.215000e+00
   endloop
 endfacet
 facet normal -1.000000e+00  0.000000e+00  0.000000e+00
   outer loop
     vertex -3.000000e+00  1.100000e+00  1.000000e-01
     vertex -3.000000e+00 -1.100000e+00  1.000000e-01
     vertex -3.000000e+00 -1.100000e+00  1.215000e+00
   endloop
 endfacet
 facet normal -1.000000e+00 -0.000000e+00 -0.000000e+00
   outer loop
     vertex -3.000000e+00  1.100000e+00  1.215000e+00
     vertex -3.000000e+00  1.100000e+00  1.000000e-01
     vertex -3.000000e+00 -1.100000e+00  1.215000e+00
   endloop
 endfacet
 facet normal  0.000000e+00  0.000000e+00 -1.000000e+00
   outer loop
     vertex -1.750000e+00 -1.100000e+00  1.215000e+00
     vertex -2.900000e+00 -1.100000e+00  1.215000e+00
     vertex -2.900000e+00  1.100000e+00  1.215000e+00
   endloop
 endfacet
 facet normal  0.000000e+00  0.000000e+00 -1.000000e+00
   outer loop
     vertex -1.750000e+00 -1.100000e+00  1.215000e+00
     vertex -2.900000e+00  1.100000e+00  1.215000e+00
     vertex -1.750000e+00  1.100000e+00  1.215000e+00
   endloop
 endfacet
 facet normal -1.305262e-01 -0.000000e+00 -9.914449e-01
   outer loop
     vertex -2.900000e+00  1.100000e+00 -1.387779e-17
     vertex -2.900000e+00 -1.100000e+00 -1.387779e-17
     vertex -2.925882e+00 -1.100000e+00  3.407417e-03
   endloop
 endfacet
 facet normal -3.826834e-01 -0.000000e+00 -9.238795e-01
   outer loop
     vertex -2.925882e+00  1.100000e+00  3.407417e-03
     vertex -2.925882e+00 -1.100000e+00  3.407417e-03
     vertex -2.950000e+00 -1.100000e+00  1.339746e-02
   endloop
 endfacet
 facet normal -1.305262e-01  0.000000e+00 -9.914449e-01
   outer loop
     vertex -2.925882e+00  1.100000e+00  3.407417e-03
     vertex -2.900000e+00  1.100000e+00 -1.387779e-17
     vertex -2.925882e+00 -1.100000e+00  3.407417e-03
   endloop
 endfacet
 facet normal -6.087614e-01 -0.000000e+00 -7.933533e-01
   outer loop
     vertex -2.950000e+00  1.100000e+00  1.339746e-02
     vertex -2.950000e+00 -1.100000e+00  1.339746e-02
     vertex -2.970711e+00 -1.100000e+00  2.928932e-02
   endloop
 endfacet
 facet normal -3.826834e-01  0.000000e+00 -9.238795e-01
   outer loop
     vertex -2.950000e+00  1.100000e+00  1.339746e-02
     vertex -2.925882e+00  1.100000e+00  3.407417e-03
     vertex -2.950000e+00 -1.100000e+00  1.339746e-02
   endloop
 endfacet
 facet normal -7.933533e-01 -0.000000e+00 -6.087614e-01
   outer loop
     vertex -2.970711e+00  1.100000e+00  2.928932e-02
     vertex -2.970711e+00 -1.100000e+00  2.928932e-02
     vertex -2.986603e+00 -1.100000e+00  5.000000e-02
   endloop
 endfacet
 facet normal -6.087614e-01  0.000000e+00 -7.933533e-01
   outer loop
     vertex -2.970711e+00  1.100000e+00  2.928932e-02
     vertex -2.950000e+00  1.100000e+00  1.339746e-02
     vertex -2.970711e+00 -1.100000e+00  2.928932e-02
   endloop
 endfacet
 facet normal -9.238795e-01 -0.000000e+00 -3.826834e-01
   outer loop
     vertex -2.986603e+00  1.100000e+00  5.000000e-02
     vertex -2.986603e+00 -1.100000e+00  5.000000e-02
     vertex -2.996593e+00 -1.100000e+00  7.411810e-02
   endloop
 endfacet
 facet normal -7.933533e-01  0.000000e+00 -6.087614e-01
   outer loop
     vertex -2.986603e+00  1.100000e+00  5.000000e-02
     vertex -2.970711e+00  1.100000e+00  2.928932e-02
     vertex -2.986603e+00 -1.100000e+00  5.000000e-02
   endloop
 endfacet
 facet normal -9.914449e-01 -0.000000e+00 -1.305262e-01
   outer loop
     vertex -2.996593e+00  1.100000e+00  7.411810e-02
     vertex -2.996593e+00 -1.100000e+00  7.411810e-02
     vertex -3.000000e+00 -1.100000e+00  1.000000e-01
   endloop
 endfacet
 facet normal -9.238795e-01  0.000000e+00 -3.826834e-01
   outer loop
     vertex -2.996593e+00  1.100000e+00  7.411810e-02
     vertex -2.986603e+00  1.100000e+00  5.000000e-02
     vertex -2.996593e+00 -1.100000e+00  7.411810e-02
   endloop
 endfacet
 facet normal -9.914449e-01  0.000000e+00 -1.305262e-01
   outer loop
     vertex -3.000000e+00  1.100000e+00  1.000000e-01
     vertex -2.996593e+00  1.100000e+00  7.411810e-02
     vertex -3.000000e+00 -1.100000e+00  1.000000e-01
   endloop
 endfacet
 facet normal  1.000000e+00 -0.000000e+00  0.000000e+00
   outer loop
     vertex -2.900000e+00 -1.100000e+00  1.215000e+00
     vertex -2.900000e+00  1.100000e+00  1.000000e-01
     vertex -2.900000e+00  1.100000e+00  1.215000e+00
   endloop
 endfacet
 facet normal  1.000000e+00 -0.000000e+00  0.000000e+00
   outer loop
     vertex -2.900000e+00 -1.100000e+00  1.215000e+00
     vertex -2.900000e+00 -1.100000e+00  1.000000e-01
     vertex -2.900000e+00  1.100000e+00  1.000000e-01
   endloop
 endfacet
 facet normal  1.110223e-17  0.000000e+00 -1.000000e+00
   outer loop
     vertex -2.900000e+00 -1.100000e+00 -1.387779e-17
     vertex -2.900000e+00  1.100000e+00 -1.387779e-17
     vertex -1.650000e+00  1.100000e+00  0.000000e+00
   endloop
 endfacet
 facet normal  1.110223e-17  0.000000e+00 -1.000000e+00
   outer loop
     vertex -1.650000e+00 -1.100000e+00  0.000000e+00
     vertex -2.900000e+00 -1.100000e+00 -1.387779e-17
     vertex -1.650000e+00  1.100000e+00  0.000000e+00
   endloop
 endfacet
 facet normal -0.000000e+00  0.000000e+00  1.000000e+00
   outer loop
     vertex -1.650000e+00  1.100000e+00  1.000000e-01
     vertex -2.900000e+00 -1.100000e+00  1.000000e-01
     vertex -1.650000e+00 -1.100000e+00  1.000000e-01
   endloop
 endfacet
 facet normal  0.000000e+00  0.000000e+00  1.000000e+00
   outer loop
     vertex -1.650000e+00  1.100000e+00  1.000000e-01
     vertex -2.900000e+00  1.100000e+00  1.000000e-01
     vertex -2.900000e+00 -1.100000e+00  1.000000e-01
   endloop
 endfacet
 facet normal  1.000000e+00 -0.000000e+00  0.000000e+00
   outer loop
     vertex -1.650000e+00 -1.100000e+00  1.000000e-01
     vertex -1.650000e+00  1.100000e+00  0.000000e+00
     vertex -1.650000e+00  1.100000e+00  1.000000e-01
   endloop
 endfacet
 facet normal  1.000000e+00 -0.000000e+00  0.000000e+00
   outer loop
     vertex -1.650000e+00 -1.100000e+00  1.000000e-01
     vertex -1.650000e+00 -1.100000e+00  0.000000e+00
     vertex -1.650000e+00  1.100000e+00  0.000000e+00
   endloop
 endfacet
 facet normal  0.000000e+00  1.000000e+00  0.000000e+00
   outer loop
     vertex -2.900000e+00  1.100000e+00  1.000000e-01
     vertex -2.900000e+00  1.100000e+00 -1.387779e-17
     vertex -2.925882e+00  1.100000e+00  3.407417e-03
   endloop
 endfacet
 facet normal  0.000000e+00  1.000000e+00  0.000000e+00
   outer loop
     vertex -2.900000e+00  1.100000e+00  1.000000e-01
     vertex -2.925882e+00  1.100000e+00  3.407417e-03
     vertex -2.950000e+00  1.100000e+00  1.339746e-02
   endloop
 endfacet
 facet normal  0.000000e+00  1.000000e+00  0.000000e+00
   outer loop
     vertex -2.900000e+00  1.100000e+00  1.000000e-01
     vertex -2.950000e+00  1.100000e+00  1.339746e-02
     vertex -2.970711e+00  1.100000e+00  2.928932e-02
   endloop
 endfacet
 facet normal  0.000000e+00  1.000000e+00  0.000000e+00
   outer loop
     vertex -2.900000e+00  1.100000e+00  1.000000e-01
     vertex -2.970711e+00  1.100000e+00  2.928932e-02
     vertex -2.986603e+00  1.100000e+00  5.000000e-02
   endloop
 endfacet
 facet normal  0.000000e+00  1.000000e+00  0.000000e+00
   outer loop
     vertex -2.900000e+00  1.100000e+00  1.000000e-01
     vertex -2.986603e+00  1.100000e+00  5.000000e-02
     vertex -2.996593e+00  1.100000e+00  7.411810e-02
   endloop
 endfacet
 facet normal  0.000000e+00  1.000000e+00  0.000000e+00
   outer loop
     vertex -2.900000e+00  1.100000e+00  1.000000e-01
     vertex -2.996593e+00  1.100000e+00  7.411810e-02
     vertex -3.000000e+00  1.100000e+00  1.000000e-01
   endloop
 endfacet
 facet normal  0.000000e+00  1.000000e+00  0.000000e+00
   outer loop
     vertex -3.000000e+00  1.100000e+00  1.215000e+00
     vertex -2.900000e+00  1.100000e+00  1.000000e-01
     vertex -3.000000e+00  1.100000e+00  1.000000e-01
   endloop
 endfacet
 facet normal  0.000000e+00  1.000000e+00 -0.000000e+00
   outer loop
     vertex -2.900000e+00  1.100000e+00  1.215000e+00
     vertex -3.000000e+00  1.100000e+00  1.215000e+00
     vertex -2.996593e+00  1.100000e+00  1.240882e+00
   endloop
 endfacet
 facet normal  0.000000e+00  1.000000e+00 -0.000000e+00
   outer loop
     vertex -2.900000e+00  1.100000e+00  1.215000e+00
     vertex -2.996593e+00  1.100000e+00  1.240882e+00
     vertex -2.986603e+00  1.100000e+00  1.265000e+00
   endloop
 endfacet
 facet normal  0.000000e+00  1.000000e+00 -0.000000e+00
   outer loop
     vertex -2.900000e+00  1.100000e+00  1.215000e+00
     vertex -2.986603e+00  1.100000e+00  1.265000e+00
     vertex -2.970711e+00  1.100000e+00  1.285711e+00
   endloop
 endfacet
 facet normal  0.000000e+00  1.000000e+00  0.000000e+00
   outer loop
     vertex -2.900000e+00  1.100000e+00  1.215000e+00
     vertex -2.900000e+00  1.100000e+00  1.000000e-01
     vertex -3.000000e+00  1.100000e+00  1.215000e+00
   endloop
 endfacet
 facet normal  0.000000e+00  1.000000e+00 -0.000000e+00
   outer loop
     vertex -1.650000e+00  1.100000e+00  0.000000e+00
     vertex -2.900000e+00  1.100000e+00 -1.387779e-17
     vertex -2.900000e+00  1.100000e+00  1.000000e-01
   endloop
 endfacet
 facet normal  0.000000e+00  1.000000e+00  0.000000e+00
   outer loop
     vertex -2.950000e+00  1.100000e+00  1.301603e+00
     vertex -2.900000e+00  1.100000e+00  1.215000e+00
     vertex -2.970711e+00  1.100000e+00  1.285711e+00
   endloop
 endfacet
 facet normal  0.000000e+00  1.000000e+00  0.000000e+00
   outer loop
     vertex -2.925882e+00  1.100000e+00  1.311593e+00
     vertex -2.900000e+00  1.100000e+00  1.215000e+00
     vertex -2.950000e+00  1.100000e+00  1.301603e+00
   endloop
 endfacet
 facet normal  0.000000e+00  1.000000e+00  0.000000e+00
   outer loop
     vertex -2.900000e+00  1.100000e+00  1.315000e+00
     vertex -2.900000e+00  1.100000e+00  1.215000e+00
     vertex -2.925882e+00  1.100000e+00  1.311593e+00
   endloop
 endfacet
 facet normal  0.000000e+00  1.000000e+00  0.000000e+00
   outer loop
     vertex -1.650000e+00  1.100000e+00  1.000000e-01
     vertex -1.650000e+00  1.100000e+00  0.000000e+00
     vertex -2.900000e+00  1.100000e+00  1.000000e-01
   endloop
 endfacet
 facet normal  0.000000e+00  1.000000e+00 -0.000000e+00
   outer loop
     vertex -1.750000e+00  1.100000e+00  1.215000e+00
     vertex -2.900000e+00  1.100000e+00  1.215000e+00
     vertex -2.900000e+00  1.100000e+00  1.315000e+00
   endloop
 endfacet
 facet normal  0.000000e+00  1.000000e+00  0.000000e+00
   outer loop
     vertex -1.750000e+00  1.100000e+00  1.315000e+00
     vertex -1.750000e+00  1.100000e+00  1.215000e+00
     vertex -2.900000e+00  1.100000e+00  1.315000e+00
   endloop
 endfacet
 facet normal  1.000000e+00 -0.000000e+00  0.000000e+00
   outer loop
     vertex  3.000000e+00 -1.100000e+00  1.215000e+00
     vertex  3.000000e+00 -1.100000e+00  1.000000e-01
     vertex  3.000000e+00  1.100000e+00  1.000000e-01
   endloop
 endfacet
 facet normal  1.000000e+00 -0.000000e+00  0.000000e+00
   outer loop
     vertex  3.000000e+00 -1.100000e+00  1.215000e+00
     vertex  3.000000e+00  1.100000e+00  1.000000e-01
     vertex  3.000000e+00  1.100000e+00  1.215000e+00
   endloop
 endfacet
 facet normal  0.000000e+00 -1.000000e+00  0.000000e+00
   outer loop
     vertex  1.550000e+00 -1.100000e+00  1.000000e-01
     vertex  1.550000e+00 -1.100000e+00  0.000000e+00
     vertex  2.900000e+00 -1.100000e+00 -1.387779e-17
   endloop
 endfacet
 facet normal  0.000000e+00 -1.000000e+00  0.000000e+00
   outer loop
     vertex  2.925882e+00 -1.100000e+00  3.407417e-03
     vertex  2.950000e+00 -1.100000e+00  1.339746e-02
     vertex  2.900000e+00 -1.100000e+00  1.000000e-01
   endloop
 endfacet
 facet normal  0.000000e+00 -1.000000e+00  0.000000e+00
   outer loop
     vertex  2.900000e+00 -1.100000e+00 -1.387779e-17
     vertex  2.925882e+00 -1.100000e+00  3.407417e-03
     vertex  2.900000e+00 -1.100000e+00  1.000000e-01
   endloop
 endfacet
 facet normal  0.000000e+00 -1.000000e+00  0.000000e+00
   outer loop
     vertex  1.550000e+00 -1.100000e+00  1.000000e-01
     vertex  2.900000e+00 -1.100000e+00 -1.387779e-17
     vertex  2.900000e+00 -1.100000e+00  1.000000e-01
   endloop
 endfacet
 facet normal  0.000000e+00 -1.000000e+00  0.000000e+00
   outer loop
     vertex  2.900000e+00 -1.100000e+00  1.000000e-01
     vertex  2.950000e+00 -1.100000e+00  1.339746e-02
     vertex  2.970711e+00 -1.100000e+00  2.928932e-02
   endloop
 endfacet
 facet normal  0.000000e+00 -1.000000e+00  0.000000e+00
   outer loop
     vertex  2.900000e+00 -1.100000e+00  1.000000e-01
     vertex  2.970711e+00 -1.100000e+00  2.928932e-02
     vertex  2.986603e+00 -1.100000e+00  5.000000e-02
   endloop
 endfacet
 facet normal  0.000000e+00 -1.000000e+00  0.000000e+00
   outer loop
     vertex  2.900000e+00 -1.100000e+00  1.000000e-01
     vertex  2.986603e+00 -1.100000e+00  5.000000e-02
     vertex  2.996593e+00 -1.100000e+00  7.411810e-02
   endloop
 endfacet
 facet normal  0.000000e+00 -1.000000e+00  0.000000e+00
   outer loop
     vertex  2.900000e+00 -1.100000e+00  1.000000e-01
     vertex  2.996593e+00 -1.100000e+00  7.411810e-02
     vertex  3.000000e+00 -1.100000e+00  1.000000e-01
   endloop
 endfacet
 facet normal  0.000000e+00 -1.000000e+00  0.000000e+00
   outer loop
     vertex  1.650000e+00 -1.100000e+00  1.315000e+00
     vertex  1.650000e+00 -1.100000e+00  1.215000e+00
     vertex  2.900000e+00 -1.100000e+00  1.215000e+00
   endloop
 endfacet
 facet normal  0.000000e+00 -1.000000e+00  0.000000e+00
   outer loop
     vertex  2.900000e+00 -1.100000e+00  1.215000e+00
     vertex  2.900000e+00 -1.100000e+00  1.000000e-01
     vertex  3.000000e+00 -1.100000e+00  1.215000e+00
   endloop
 endfacet
 facet normal  0.000000e+00 -1.000000e+00  0.000000e+00
   outer loop
     vertex  2.900000e+00 -1.100000e+00  1.000000e-01
     vertex  3.000000e+00 -1.100000e+00  1.000000e-01
     vertex  3.000000e+00 -1.100000e+00  1.215000e+00
   endloop
 endfacet
 facet normal  0.000000e+00 -1.000000e+00  0.000000e+00
   outer loop
     vertex  1.650000e+00 -1.100000e+00  1.315000e+00
     vertex  2.900000e+00 -1.100000e+00  1.215000e+00
     vertex  2.900000e+00 -1.100000e+00  1.315000e+00
   endloop
 endfacet
 facet normal  0.000000e+00 -1.000000e+00  0.000000e+00
   outer loop
     vertex  2.900000e+00 -1.100000e+00  1.315000e+00
     vertex  2.900000e+00 -1.100000e+00  1.215000e+00
     vertex  2.925882e+00 -1.100000e+00  1.311593e+00
   endloop
 endfacet
 facet normal  0.000000e+00 -1.000000e+00  0.000000e+00
   outer loop
     vertex  2.900000e+00 -1.100000e+00  1.215000e+00
     vertex  3.000000e+00 -1.100000e+00  1.215000e+00
     vertex  2.996593e+00 -1.100000e+00  1.240882e+00
   endloop
 endfacet
 facet normal  0.000000e+00 -1.000000e+00 -0.000000e+00
   outer loop
     vertex  2.925882e+00 -1.100000e+00  1.311593e+00
     vertex  2.900000e+00 -1.100000e+00  1.215000e+00
     vertex  2.950000e+00 -1.100000e+00  1.301603e+00
   endloop
 endfacet
 facet normal  0.000000e+00 -1.000000e+00  0.000000e+00
   outer loop
     vertex  2.900000e+00 -1.100000e+00  1.215000e+00
     vertex  2.996593e+00 -1.100000e+00  1.240882e+00
     vertex  2.986603e+00 -1.100000e+00  1.265000e+00
   endloop
 endfacet
 facet normal  0.000000e+00 -1.000000e+00  0.000000e+00
   outer loop
     vertex  2.900000e+00 -1.100000e+00  1.215000e+00
     vertex  2.986603e+00 -1.100000e+00  1.265000e+00
     vertex  2.970711e+00 -1.100000e+00  1.285711e+00
   endloop
 endfacet
 facet normal  0.000000e+00 -1.000000e+00 -0.000000e+00
   outer loop
     vertex  2.950000e+00 -1.100000e+00  1.301603e+00
     vertex  2.900000e+00 -1.100000e+00  1.215000e+00
     vertex  2.970711e+00 -1.100000e+00  1.285711e+00
   endloop
 endfacet
 facet normal  9.914449e-01  0.000000e+00 -1.305262e-01
   outer loop
     vertex  2.996593e+00  1.100000e+00  7.411810e-02
     vertex  3.000000e+00 -1.100000e+00  1.000000e-01
     vertex  2.996593e+00 -1.100000e+00  7.411810e-02
   endloop
 endfacet
 facet normal  9.238795e-01  0.000000e+00 -3.826834e-01
   outer loop
     vertex  2.996593e+00  1.100000e+00  7.411810e-02
     vertex  2.996593e+00 -1.100000e+00  7.411810e-02
     vertex  2.986603e+00 -1.100000e+00  5.000000e-02
   endloop
 endfacet
 facet normal  9.914449e-01  0.000000e+00 -1.305262e-01
   outer loop
     vertex  2.996593e+00  1.100000e+00  7.411810e-02
     vertex  3.000000e+00  1.100000e+00  1.000000e-01
     vertex  3.000000e+00 -1.100000e+00  1.000000e-01
   endloop
 endfacet
 facet normal  7.933533e-01  0.000000e+00 -6.087614e-01
   outer loop
     vertex  2.986603e+00  1.100000e+00  5.000000e-02
     vertex  2.986603e+00 -1.100000e+00  5.000000e-02
     vertex  2.970711e+00 -1.100000e+00  2.928932e-02
   endloop
 endfacet
 facet normal  9.238795e-01  0.000000e+00 -3.826834e-01
   outer loop
     vertex  2.986603e+00  1.100000e+00  5.000000e-02
     vertex  2.996593e+00  1.100000e+00  7.411810e-02
     vertex  2.986603e+00 -1.100000e+00  5.000000e-02
   endloop
 endfacet
 facet normal  6.087614e-01  0.000000e+00 -7.933533e-01
   outer loop
     vertex  2.970711e+00  1.100000e+00  2.928932e-02
     vertex  2.970711e+00 -1.100000e+00  2.928932e-02
     vertex  2.950000e+00 -1.100000e+00  1.339746e-02
   endloop
 endfacet
 facet normal  7.933533e-01  0.000000e+00 -6.087614e-01
   outer loop
     vertex  2.970711e+00  1.100000e+00  2.928932e-02
     vertex  2.986603e+00  1.100000e+00  5.000000e-02
     vertex  2.970711e+00 -1.100000e+00  2.928932e-02
   endloop
 endfacet
 facet normal  3.826834e-01  0.000000e+00 -9.238795e-01
   outer loop
     vertex  2.950000e+00  1.100000e+00  1.339746e-02
     vertex  2.950000e+00 -1.100000e+00  1.339746e-02
     vertex  2.925882e+00 -1.100000e+00  3.407417e-03
   endloop
 endfacet
 facet normal  6.087614e-01  0.000000e+00 -7.933533e-01
   outer loop
     vertex  2.950000e+00  1.100000e+00  1.339746e-02
     vertex  2.970711e+00  1.100000e+00  2.928932e-02
     vertex  2.950000e+00 -1.100000e+00  1.339746e-02
   endloop
 endfacet
 facet normal  1.305262e-01  0.000000e+00 -9.914449e-01
   outer loop
     vertex  2.925882e+00  1.100000e+00  3.407417e-03
     vertex  2.925882e+00 -1.100000e+00  3.407417e-03
     vertex  2.900000e+00 -1.100000e+00 -1.387779e-17
   endloop
 endfacet
 facet normal  3.826834e-01  0.000000e+00 -9.238795e-01
   outer loop
     vertex  2.925882e+00  1.100000e+00  3.407417e-03
     vertex  2.950000e+00  1.100000e+00  1.339746e-02
     vertex  2.925882e+00 -1.100000e+00  3.407417e-03
   endloop
 endfacet
 facet normal  1.305262e-01  0.000000e+00 -9.914449e-01
   outer loop
     vertex  2.900000e+00  1.100000e+00 -1.387779e-17
     vertex  2.925882e+00  1.100000e+00  3.407417e-03
     vertex  2.900000e+00 -1.100000e+00 -1.387779e-17
   endloop
 endfacet
 facet normal  9.914449e-01 -0.000000e+00  1.305262e-01
   outer loop
     vertex  2.996593e+00 -1.100000e+00  1.240882e+00
     vertex  3.000000e+00 -1.100000e+00  1.215000e+00
     vertex  3.000000e+00  1.100000e+00  1.215000e+00
   endloop
 endfacet
 facet normal  9.238795e-01 -0.000000e+00  3.826834e-01
   outer loop
     vertex  2.986603e+00 -1.100000e+00  1.265000e+00
     vertex  2.996593e+00 -1.100000e+00  1.240882e+00
     vertex  2.996593e+00  1.100000e+00  1.240882e+00
   endloop
 endfacet
 facet normal  9.914449e-01  0.000000e+00  1.305262e-01
   outer loop
     vertex  2.996593e+00 -1.100000e+00  1.240882e+00
     vertex  3.000000e+00  1.100000e+00  1.215000e+00
     vertex  2.996593e+00  1.100000e+00  1.240882e+00
   endloop
 endfacet
 facet normal  9.238795e-01  0.000000e+00  3.826834e-01
   outer loop
     vertex  2.986603e+00 -1.100000e+00  1.265000e+00
     vertex  2.996593e+00  1.100000e+00  1.240882e+00
     vertex  2.986603e+00  1.100000e+00  1.265000e+00
   endloop
 endfacet
 facet normal  7.933533e-01  0.000000e+00  6.087614e-01
   outer loop
     vertex  2.970711e+00 -1.100000e+00  1.285711e+00
     vertex  2.986603e+00 -1.100000e+00  1.265000e+00
     vertex  2.970711e+00  1.100000e+00  1.285711e+00
   endloop
 endfacet
 facet normal  6.087614e-01 -0.000000e+00  7.933533e-01
   outer loop
     vertex  2.950000e+00 -1.100000e+00  1.301603e+00
     vertex  2.970711e+00 -1.100000e+00  1.285711e+00
     vertex  2.970711e+00  1.100000e+00  1.285711e+00
   endloop
 endfacet
 facet normal  7.933533e-01 -0.000000e+00  6.087614e-01
   outer loop
     vertex  2.986603e+00 -1.100000e+00  1.265000e+00
     vertex  2.986603e+00  1.100000e+00  1.265000e+00
     vertex  2.970711e+00  1.100000e+00  1.285711e+00
   endloop
 endfacet
 facet normal  3.826834e-01 -0.000000e+00  9.238795e-01
   outer loop
     vertex  2.925882e+00 -1.100000e+00  1.311593e+00
     vertex  2.950000e+00 -1.100000e+00  1.301603e+00
     vertex  2.950000e+00  1.100000e+00  1.301603e+00
   endloop
 endfacet
 facet normal  6.087614e-01  0.000000e+00  7.933533e-01
   outer loop
     vertex  2.950000e+00 -1.100000e+00  1.301603e+00
     vertex  2.970711e+00  1.100000e+00  1.285711e+00
     vertex  2.950000e+00  1.100000e+00  1.301603e+00
   endloop
 endfacet
 facet normal  3.826834e-01  0.000000e+00  9.238795e-01
   outer loop
     vertex  2.925882e+00 -1.100000e+00  1.311593e+00
     vertex  2.950000e+00  1.100000e+00  1.301603e+00
     vertex  2.925882e+00  1.100000e+00  1.311593e+00
   endloop
 endfacet
 facet normal  1.305262e-01  0.000000e+00  9.914449e-01
   outer loop
     vertex  2.900000e+00 -1.100000e+00  1.315000e+00
     vertex  2.925882e+00 -1.100000e+00  1.311593e+00
     vertex  2.900000e+00  1.100000e+00  1.315000e+00
   endloop
 endfacet
 facet normal  1.305262e-01 -0.000000e+00  9.914449e-01
   outer loop
     vertex  2.925882e+00 -1.100000e+00  1.311593e+00
     vertex  2.925882e+00  1.100000e+00  1.311593e+00
     vertex  2.900000e+00  1.100000e+00  1.315000e+00
   endloop
 endfacet
 facet normal  0.000000e+00  1.000000e+00 -0.000000e+00
   outer loop
     vertex  2.900000e+00  1.100000e+00 -1.387779e-17
     vertex  1.550000e+00  1.100000e+00  0.000000e+00
     vertex  1.550000e+00  1.100000e+00  1.000000e-01
   endloop
 endfacet
 facet normal  0.000000e+00  1.000000e+00  0.000000e+00
   outer loop
     vertex  2.900000e+00  1.100000e+00  1.000000e-01
     vertex  2.950000e+00  1.100000e+00  1.339746e-02
     vertex  2.925882e+00  1.100000e+00  3.407417e-03
   endloop
 endfacet
 facet normal  0.000000e+00  1.000000e+00  0.000000e+00
   outer loop
     vertex  2.900000e+00  1.100000e+00  1.000000e-01
     vertex  2.925882e+00  1.100000e+00  3.407417e-03
     vertex  2.900000e+00  1.100000e+00 -1.387779e-17
   endloop
 endfacet
 facet normal  0.000000e+00  1.000000e+00  0.000000e+00
   outer loop
     vertex  2.900000e+00  1.100000e+00  1.000000e-01
     vertex  2.900000e+00  1.100000e+00 -1.387779e-17
     vertex  1.550000e+00  1.100000e+00  1.000000e-01
   endloop
 endfacet
 facet normal  0.000000e+00  1.000000e+00  0.000000e+00
   outer loop
     vertex  2.970711e+00  1.100000e+00  2.928932e-02
     vertex  2.950000e+00  1.100000e+00  1.339746e-02
     vertex  2.900000e+00  1.100000e+00  1.000000e-01
   endloop
 endfacet
 facet normal  0.000000e+00  1.000000e+00  0.000000e+00
   outer loop
     vertex  2.986603e+00  1.100000e+00  5.000000e-02
     vertex  2.970711e+00  1.100000e+00  2.928932e-02
     vertex  2.900000e+00  1.100000e+00  1.000000e-01
   endloop
 endfacet
 facet normal  0.000000e+00  1.000000e+00  0.000000e+00
   outer loop
     vertex  2.996593e+00  1.100000e+00  7.411810e-02
     vertex  2.986603e+00  1.100000e+00  5.000000e-02
     vertex  2.900000e+00  1.100000e+00  1.000000e-01
   endloop
 endfacet
 facet normal  0.000000e+00  1.000000e+00  0.000000e+00
   outer loop
     vertex  3.000000e+00  1.100000e+00  1.000000e-01
     vertex  2.996593e+00  1.100000e+00  7.411810e-02
     vertex  2.900000e+00  1.100000e+00  1.000000e-01
   endloop
 endfacet
 facet normal  0.000000e+00  1.000000e+00 -0.000000e+00
   outer loop
     vertex  2.900000e+00  1.100000e+00  1.215000e+00
     vertex  1.650000e+00  1.100000e+00  1.215000e+00
     vertex  1.650000e+00  1.100000e+00  1.315000e+00
   endloop
 endfacet
 facet normal  0.000000e+00  1.000000e+00  0.000000e+00
   outer loop
     vertex  2.900000e+00  1.100000e+00  1.315000e+00
     vertex  2.900000e+00  1.100000e+00  1.215000e+00
     vertex  1.650000e+00  1.100000e+00  1.315000e+00
   endloop
 endfacet
 facet normal  0.000000e+00  1.000000e+00 -0.000000e+00
   outer loop
     vertex  3.000000e+00  1.100000e+00  1.215000e+00
     vertex  2.900000e+00  1.100000e+00  1.000000e-01
     vertex  2.900000e+00  1.100000e+00  1.215000e+00
   endloop
 endfacet
 facet normal  0.000000e+00  1.000000e+00  0.000000e+00
   outer loop
     vertex  3.000000e+00  1.100000e+00  1.215000e+00
     vertex  3.000000e+00  1.100000e+00  1.000000e-01
     vertex  2.900000e+00  1.100000e+00  1.000000e-01
   endloop
 endfacet
 facet normal  0.000000e+00  1.000000e+00  0.000000e+00
   outer loop
     vertex  2.996593e+00  1.100000e+00  1.240882e+00
     vertex  3.000000e+00  1.100000e+00  1.215000e+00
     vertex  2.900000e+00  1.100000e+00  1.215000e+00
   endloop
 endfacet
 facet normal  0.000000e+00  1.000000e+00 -0.000000e+00
   outer loop
     vertex  2.925882e+00  1.100000e+00  1.311593e+00
     vertex  2.900000e+00  1.100000e+00  1.215000e+00
     vertex  2.900000e+00  1.100000e+00  1.315000e+00
   endloop
 endfacet
 facet normal  0.000000e+00  1.000000e+00  0.000000e+00
   outer loop
     vertex  2.986603e+00  1.100000e+00  1.265000e+00
     vertex  2.996593e+00  1.100000e+00  1.240882e+00
     vertex  2.900000e+00  1.100000e+00  1.215000e+00
   endloop
 endfacet
 facet normal  0.000000e+00  1.000000e+00 -0.000000e+00
   outer loop
     vertex  2.950000e+00  1.100000e+00  1.301603e+00
     vertex  2.900000e+00  1.100000e+00  1.215000e+00
     vertex  2.925882e+00  1.100000e+00  1.311593e+00
   endloop
 endfacet
 facet normal  0.000000e+00  1.000000e+00  0.000000e+00
   outer loop
     vertex  2.970711e+00  1.100000e+00  1.285711e+00
     vertex  2.986603e+00  1.100000e+00  1.265000e+00
     vertex  2.900000e+00  1.100000e+00  1.215000e+00
   endloop
 endfacet
 facet normal  0.000000e+00  1.000000e+00 -0.000000e+00
   outer loop
     vertex  2.970711e+00  1.100000e+00  1.285711e+00
     vertex  2.900000e+00  1.100000e+00  1.215000e+00
     vertex  2.950000e+00  1.100000e+00  1.301603e+00
   endloop
 endfacet
 facet normal -1.027984e-17  0.000000e+00 -1.000000e+00
   outer loop
     vertex  2.900000e+00 -1.100000e+00 -1.387779e-17
     vertex  1.550000e+00 -1.100000e+00  0.000000e+00
     vertex  1.550000e+00  1.100000e+00  0.000000e+00
   endloop
 endfacet
 facet normal -1.027984e-17  0.000000e+00 -1.000000e+00
   outer loop
     vertex  2.900000e+00 -1.100000e+00 -1.387779e-17
     vertex  1.550000e+00  1.100000e+00  0.000000e+00
     vertex  2.900000e+00  1.100000e+00 -1.387779e-17
   endloop
 endfacet
 facet normal -1.000000e+00 -0.000000e+00 -0.000000e+00
   outer loop
     vertex  1.550000e+00  1.100000e+00  1.000000e-01
     vertex  1.550000e+00  1.100000e+00  0.000000e+00
     vertex  1.550000e+00 -1.100000e+00  1.000000e-01
   endloop
 endfacet
 facet normal -1.000000e+00  0.000000e+00  0.000000e+00
   outer loop
     vertex  1.550000e+00  1.100000e+00  0.000000e+00
     vertex  1.550000e+00 -1.100000e+00  0.000000e+00
     vertex  1.550000e+00 -1.100000e+00  1.000000e-01
   endloop
 endfacet
 facet normal -0.000000e+00  0.000000e+00  1.000000e+00
   outer loop
     vertex  1.550000e+00  1.100000e+00  1.000000e-01
     vertex  1.550000e+00 -1.100000e+00  1.000000e-01
     vertex  2.900000e+00 -1.100000e+00  1.000000e-01
   endloop
 endfacet
 facet normal  0.000000e+00  0.000000e+00  1.000000e+00
   outer loop
     vertex  2.900000e+00  1.100000e+00  1.000000e-01
     vertex  1.550000e+00  1.100000e+00  1.000000e-01
     vertex  2.900000e+00 -1.100000e+00  1.000000e-01
   endloop
 endfacet
 facet normal -1.000000e+00 -0.000000e+00 -0.000000e+00
   outer loop
     vertex  2.900000e+00  1.100000e+00  1.215000e+00
     vertex  2.900000e+00  1.100000e+00  1.000000e-01
     vertex  2.900000e+00 -1.100000e+00  1.215000e+00
   endloop
 endfacet
 facet normal -1.000000e+00  0.000000e+00  0.000000e+00
   outer loop
     vertex  2.900000e+00  1.100000e+00  1.000000e-01
     vertex  2.900000e+00 -1.100000e+00  1.000000e-01
     vertex  2.900000e+00 -1.100000e+00  1.215000e+00
   endloop
 endfacet
 facet normal  0.000000e+00 -0.000000e+00  1.000000e+00
   outer loop
     vertex  1.650000e+00 -1.100000e+00  1.315000e+00
     vertex  2.900000e+00 -1.100000e+00  1.315000e+00
     vertex  1.650000e+00  1.100000e+00  1.315000e+00
   endloop
 endfacet
 facet normal  0.000000e+00 -0.000000e+00  1.000000e+00
   outer loop
     vertex  2.900000e+00 -1.100000e+00  1.315000e+00
     vertex  2.900000e+00  1.100000e+00  1.315000e+00
     vertex  1.650000e+00  1.100000e+00  1.315000e+00
   endloop
 endfacet
 facet normal  0.000000e+00  0.000000e+00 -1.000000e+00
   outer loop
     vertex  1.650000e+00 -1.100000e+00  1.215000e+00
     vertex  1.650000e+00  1.100000e+00  1.215000e+00
     vertex  2.900000e+00  1.100000e+00  1.215000e+00
   endloop
 endfacet
 facet normal  0.000000e+00  0.000000e+00 -1.000000e+00
   outer loop
     vertex  2.900000e+00 -1.100000e+00  1.215000e+00
     vertex  1.650000e+00 -1.100000e+00  1.215000e+00
     vertex  2.900000e+00  1.100000e+00  1.215000e+00
   endloop
 endfacet
 facet normal -1.000000e+00 -0.000000e+00 -0.000000e+00
   outer loop
     vertex  1.650000e+00  1.100000e+00  1.315000e+00
     vertex  1.650000e+00  1.100000e+00  1.215000e+00
     vertex  1.650000e+00 -1.100000e+00  1.315000e+00
   endloop
 endfacet
 facet normal -1.000000e+00  0.000000e+00  0.000000e+00
   outer loop
     vertex  1.650000e+00  1.100000e+00  1.215000e+00
     vertex  1.650000e+00 -1.100000e+00  1.215000e+00
     vertex  1.650000e+00 -1.100000e+00  1.315000e+00
   endloop
 endfacet
endsolid
