G04*
G04 #@! TF.GenerationSoftware,Altium Limited,Altium Designer,18.1.9 (240)*
G04*
G04 Layer_Color=128*
%FSAX24Y24*%
%MOIN*%
G70*
G01*
G75*
%ADD91C,0.0020*%
D91*
X017699Y022361D02*
X018152D01*
X017925Y022135D02*
Y022587D01*
X018699Y022361D02*
X019152D01*
X018925Y022135D02*
Y022587D01*
X019699Y022361D02*
X020152D01*
X019925Y022135D02*
Y022587D01*
X036595Y037300D02*
X036995D01*
X036795Y037100D02*
Y037500D01*
X037595Y037300D02*
X037995D01*
X037795Y037100D02*
Y037500D01*
X036595Y038300D02*
X036995D01*
X036795Y038100D02*
Y038500D01*
X037595Y038300D02*
X037995D01*
X037795Y038100D02*
Y038500D01*
X036595Y039300D02*
X036995D01*
X036795Y039100D02*
Y039500D01*
X037595Y039300D02*
X037995D01*
X037795Y039100D02*
Y039500D01*
X036595Y040300D02*
X036995D01*
X036795Y040100D02*
Y040500D01*
X037595Y040300D02*
X037995D01*
X037795Y040100D02*
Y040500D01*
X036595Y041300D02*
X036995D01*
X036795Y041100D02*
Y041500D01*
X037595Y041300D02*
X037995D01*
X037795Y041100D02*
Y041500D01*
X036595Y042300D02*
X036995D01*
X036795Y042100D02*
Y042500D01*
X037595Y042300D02*
X037995D01*
X037795Y042100D02*
Y042500D01*
X036595Y043300D02*
X036995D01*
X036795Y043100D02*
Y043500D01*
X037595Y043300D02*
X037995D01*
X037795Y043100D02*
Y043500D01*
X036595Y044300D02*
X036995D01*
X036795Y044100D02*
Y044500D01*
X037595Y044300D02*
X037995D01*
X037795Y044100D02*
Y044500D01*
X036595Y045300D02*
X036995D01*
X036795Y045100D02*
Y045500D01*
X037595Y045300D02*
X037995D01*
X037795Y045100D02*
Y045500D01*
X036595Y046300D02*
X036995D01*
X036795Y046100D02*
Y046500D01*
X037595Y046300D02*
X037995D01*
X037795Y046100D02*
Y046500D01*
X034385Y013950D02*
X034660D01*
X034522Y013812D02*
Y014088D01*
X035385Y013950D02*
X035660D01*
X035522Y013812D02*
Y014088D01*
X014110Y043116D02*
X014559D01*
X014334Y042891D02*
Y043340D01*
X014110Y045084D02*
X014559D01*
X014334Y044860D02*
Y045309D01*
X012141Y045084D02*
X012590D01*
X012366Y044860D02*
Y045309D01*
X012141Y043116D02*
X012590D01*
X012366Y042891D02*
Y043340D01*
X021934Y047771D02*
X022194D01*
X022064Y047641D02*
Y047900D01*
X023855Y047771D02*
X024115D01*
X023985Y047641D02*
Y047900D01*
X013763Y022187D02*
X014137D01*
X013950Y022000D02*
Y022374D01*
X013763Y037148D02*
X014137D01*
X013950Y036961D02*
Y037335D01*
X016537Y027600D02*
X017048D01*
X016793Y027344D02*
Y027856D01*
X017537Y027600D02*
X018048D01*
X017793Y027344D02*
Y027856D01*
X019044Y027533D02*
X019556D01*
X019300Y027278D02*
Y027789D01*
X020044Y027533D02*
X020556D01*
X020300Y027278D02*
Y027789D01*
X029524Y046567D02*
X029976D01*
X029750Y046340D02*
Y046793D01*
X030524Y046567D02*
X030976D01*
X030750Y046340D02*
Y046793D01*
X031524Y046567D02*
X031976D01*
X031750Y046340D02*
Y046793D01*
X030274Y044539D02*
X030726D01*
X030500Y044312D02*
Y044765D01*
X031274Y044539D02*
X031726D01*
X031500Y044312D02*
Y044765D01*
X032274Y044539D02*
X032726D01*
X032500Y044312D02*
Y044765D01*
X030310Y048221D02*
X030763D01*
X030537Y047994D02*
Y048447D01*
X029310Y048221D02*
X029763D01*
X029537Y047994D02*
Y048447D01*
X028310Y048221D02*
X028763D01*
X028537Y047994D02*
Y048447D01*
X031635Y028323D02*
X031755D01*
X031695Y028263D02*
Y028383D01*
X031658Y027700D02*
X031778D01*
X031718Y027640D02*
Y027760D01*
X020268Y024173D02*
X020388D01*
X020328Y024113D02*
Y024233D01*
X020055Y034876D02*
X020175D01*
X020115Y034816D02*
Y034936D01*
X030008Y023260D02*
X030128D01*
X030068Y023200D02*
Y023320D01*
X028703Y023367D02*
X028823D01*
X028763Y023307D02*
Y023427D01*
X025808Y023229D02*
X025928D01*
X025868Y023169D02*
Y023289D01*
X025958Y021871D02*
X026078D01*
X026018Y021811D02*
Y021931D01*
X021648Y030460D02*
X021768D01*
X021708Y030400D02*
Y030520D01*
X022648Y032270D02*
X022768D01*
X022708Y032210D02*
Y032330D01*
X019119Y033610D02*
X019239D01*
X019179Y033550D02*
Y033670D01*
X019628Y034810D02*
X019748D01*
X019688Y034750D02*
Y034870D01*
X019208Y044447D02*
X019328D01*
X019268Y044387D02*
Y044507D01*
X024133Y027725D02*
X024253D01*
X024193Y027665D02*
Y027785D01*
X026126Y026671D02*
X026246D01*
X026186Y026611D02*
Y026731D01*
X029924Y027213D02*
X030044D01*
X029984Y027153D02*
Y027273D01*
X026906Y028538D02*
X027026D01*
X026966Y028478D02*
Y028598D01*
X033753Y033923D02*
X033873D01*
X033813Y033863D02*
Y033983D01*
X026320Y042521D02*
X026440D01*
X026380Y042461D02*
Y042581D01*
X028371Y046670D02*
X028491D01*
X028431Y046610D02*
Y046730D01*
X029162Y043871D02*
X029282D01*
X029222Y043811D02*
Y043931D01*
X035249Y038671D02*
X035369D01*
X035309Y038611D02*
Y038731D01*
X026121Y041621D02*
X026241D01*
X026181Y041561D02*
Y041681D01*
X027921Y040871D02*
X028041D01*
X027981Y040811D02*
Y040931D01*
X025870Y039821D02*
X025990D01*
X025930Y039761D02*
Y039881D01*
X032040Y040300D02*
X032160D01*
X032100Y040240D02*
Y040360D01*
X025047Y038300D02*
X025167D01*
X025107Y038240D02*
Y038360D01*
X039090Y042300D02*
X039210D01*
X039150Y042240D02*
Y042360D01*
X022383Y044719D02*
X022503D01*
X022443Y044659D02*
Y044779D01*
X019882Y040004D02*
X020002D01*
X019942Y039944D02*
Y040064D01*
X018129Y038573D02*
X018249D01*
X018189Y038513D02*
Y038633D01*
X021707Y044676D02*
X021827D01*
X021767Y044616D02*
Y044736D01*
X024415Y036337D02*
X024535D01*
X024475Y036277D02*
Y036397D01*
X022467Y037527D02*
X022587D01*
X022527Y037467D02*
Y037587D01*
X018690Y037650D02*
X018810D01*
X018750Y037590D02*
Y037710D01*
X018274Y046457D02*
X018394D01*
X018334Y046397D02*
Y046517D01*
X021862Y034109D02*
X021982D01*
X021922Y034049D02*
Y034169D01*
X018751Y031382D02*
X018871D01*
X018811Y031322D02*
Y031442D01*
X023592Y034232D02*
X023712D01*
X023652Y034172D02*
Y034292D01*
X033990Y045750D02*
X034110D01*
X034050Y045690D02*
Y045810D01*
X020210Y033083D02*
X020330D01*
X020270Y033023D02*
Y033143D01*
X039240Y033204D02*
X039360D01*
X039300Y033144D02*
Y033264D01*
X037612Y032696D02*
X037732D01*
X037672Y032636D02*
Y032756D01*
X034462Y032035D02*
X034582D01*
X034522Y031975D02*
Y032095D01*
X036435Y031813D02*
X036555D01*
X036495Y031753D02*
Y031873D01*
X030285Y022920D02*
X030405D01*
X030345Y022860D02*
Y022980D01*
X029627Y022891D02*
X029747D01*
X029687Y022831D02*
Y022951D01*
X036321Y029527D02*
X036441D01*
X036381Y029467D02*
Y029587D01*
X033735Y022620D02*
X033855D01*
X033795Y022560D02*
Y022680D01*
X028035Y023058D02*
X028155D01*
X028095Y022998D02*
Y023118D01*
X025190Y029763D02*
X025310D01*
X025250Y029703D02*
Y029823D01*
X031785Y026244D02*
X031905D01*
X031845Y026184D02*
Y026304D01*
X031635Y028750D02*
X031755D01*
X031695Y028690D02*
Y028810D01*
X030942Y029665D02*
X031062D01*
X031002Y029605D02*
Y029725D01*
X028935Y022413D02*
X029055D01*
X028995Y022353D02*
Y022473D01*
X025047Y024420D02*
X025167D01*
X025107Y024360D02*
Y024480D01*
X023132Y026700D02*
X023252D01*
X023192Y026640D02*
Y026760D01*
X021076Y023850D02*
X021196D01*
X021136Y023790D02*
Y023910D01*
X021297Y018900D02*
X021577D01*
X021437Y018760D02*
Y019040D01*
X017560Y016950D02*
X017840D01*
X017700Y016810D02*
Y017090D01*
X017219Y015755D02*
X017499D01*
X017359Y015615D02*
Y015895D01*
X021010Y016579D02*
X021290D01*
X021150Y016439D02*
Y016719D01*
X030941Y018305D02*
X031221D01*
X031081Y018165D02*
Y018445D01*
X019056Y023850D02*
X019176D01*
X019116Y023790D02*
Y023910D01*
X027447Y017400D02*
X027727D01*
X027587Y017260D02*
Y017540D01*
X013810Y038400D02*
X014090D01*
X013950Y038260D02*
Y038540D01*
X014860Y016355D02*
X015140D01*
X015000Y016215D02*
Y016495D01*
X013629Y016355D02*
X013909D01*
X013769Y016215D02*
Y016495D01*
M02*
