G04*
G04 #@! TF.GenerationSoftware,Altium Limited,Altium Designer,18.1.9 (240)*
G04*
G04 Layer_Color=8388736*
%FSAX24Y24*%
%MOIN*%
G70*
G01*
G75*
G04:AMPARAMS|DCode=31|XSize=40.4mil|YSize=36.5mil|CornerRadius=0mil|HoleSize=0mil|Usage=FLASHONLY|Rotation=135.000|XOffset=0mil|YOffset=0mil|HoleType=Round|Shape=Rectangle|*
%AMROTATEDRECTD31*
4,1,4,0.0272,-0.0014,0.0014,-0.0272,-0.0272,0.0014,-0.0014,0.0272,0.0272,-0.0014,0.0*
%
%ADD31ROTATEDRECTD31*%

%ADD32R,0.0365X0.0404*%
%ADD33R,0.0404X0.0365*%
%ADD34R,0.0631X0.0168*%
%ADD35R,0.0168X0.0631*%
%ADD36R,0.0956X0.0956*%
%ADD37R,0.0956X0.0956*%
%ADD38R,0.0483X0.0719*%
%ADD39R,0.0719X0.0483*%
%ADD40R,0.0270X0.0570*%
%ADD41R,0.0444X0.0404*%
%ADD42R,0.0227X0.0631*%
%ADD43R,0.0630X0.0270*%
%ADD44R,0.0936X0.0897*%
%ADD45R,0.1271X0.0916*%
%ADD46R,0.0830X0.0270*%
%ADD47R,0.0950X0.0950*%
%ADD48R,0.0708X0.0708*%
%ADD49C,0.0729*%
%ADD50C,0.0650*%
%ADD51C,0.0522*%
%ADD52C,0.0719*%
%ADD53C,0.0483*%
%ADD54C,0.0611*%
%ADD55R,0.0793X0.0793*%
%ADD56C,0.0818*%
%ADD57C,0.0300*%
%ADD58C,0.0550*%
D31*
X037259Y031642D02*
D03*
X037648Y032032D02*
D03*
D32*
X023664Y023542D02*
D03*
X024215D02*
D03*
X035580Y046350D02*
D03*
X035029D02*
D03*
X026356Y029158D02*
D03*
X026907D02*
D03*
X035085Y022686D02*
D03*
X034534D02*
D03*
X026469Y022920D02*
D03*
X027021D02*
D03*
X035580Y045300D02*
D03*
X035029D02*
D03*
X039287Y027948D02*
D03*
X038735D02*
D03*
X028862Y028583D02*
D03*
X028311D02*
D03*
X032611Y021921D02*
D03*
X033162D02*
D03*
X025715Y021420D02*
D03*
X026266D02*
D03*
X035393Y042300D02*
D03*
X034842D02*
D03*
X031327Y021921D02*
D03*
X031878D02*
D03*
X027921Y021420D02*
D03*
X027369D02*
D03*
X024639Y028470D02*
D03*
X025191D02*
D03*
X030392Y028967D02*
D03*
X030943D02*
D03*
X031869Y023101D02*
D03*
X032421D02*
D03*
X030471Y022158D02*
D03*
X029919D02*
D03*
X025719Y028470D02*
D03*
X026271D02*
D03*
X031278Y027390D02*
D03*
X030726D02*
D03*
X035688Y023288D02*
D03*
X035137D02*
D03*
X019904Y031820D02*
D03*
X020456D02*
D03*
X022916Y031380D02*
D03*
X023468D02*
D03*
X022615Y029850D02*
D03*
X022064D02*
D03*
X023821Y029850D02*
D03*
X023270D02*
D03*
X012924Y040500D02*
D03*
X013476D02*
D03*
X025719Y023933D02*
D03*
X026271D02*
D03*
X034520Y021941D02*
D03*
X033969D02*
D03*
X033094Y028581D02*
D03*
X033645D02*
D03*
X020762Y034350D02*
D03*
X020210D02*
D03*
X019050Y017100D02*
D03*
X019601D02*
D03*
X019326Y038700D02*
D03*
X018774D02*
D03*
X019326Y039600D02*
D03*
X018774D02*
D03*
X019326Y040400D02*
D03*
X018774D02*
D03*
X019326Y041100D02*
D03*
X018774D02*
D03*
X018876Y043176D02*
D03*
X018324D02*
D03*
X018876Y043950D02*
D03*
X018324D02*
D03*
X028986Y021420D02*
D03*
X029537D02*
D03*
X021010Y032713D02*
D03*
X021562D02*
D03*
X021789Y024000D02*
D03*
X022340D02*
D03*
X022800Y030501D02*
D03*
X023351D02*
D03*
D33*
X034995Y033480D02*
D03*
Y034031D02*
D03*
X032342Y028010D02*
D03*
Y028561D02*
D03*
X032480Y026667D02*
D03*
Y027218D02*
D03*
X029582Y028007D02*
D03*
Y028558D02*
D03*
X032480Y025223D02*
D03*
Y025775D02*
D03*
X031894Y018029D02*
D03*
Y018580D02*
D03*
X016500Y014444D02*
D03*
Y014995D02*
D03*
X023700Y045683D02*
D03*
Y045132D02*
D03*
X029100Y016224D02*
D03*
Y016776D02*
D03*
X023639Y036040D02*
D03*
Y035489D02*
D03*
X035445Y030444D02*
D03*
Y030995D02*
D03*
X034845Y030444D02*
D03*
Y030995D02*
D03*
X036045Y030995D02*
D03*
Y030444D02*
D03*
X036795Y030995D02*
D03*
Y030444D02*
D03*
X037545Y030444D02*
D03*
Y030995D02*
D03*
X027532Y029158D02*
D03*
Y028607D02*
D03*
X026700Y046919D02*
D03*
Y046368D02*
D03*
X038295Y030444D02*
D03*
Y030995D02*
D03*
X019601Y046510D02*
D03*
Y047061D02*
D03*
X039045Y030419D02*
D03*
Y030970D02*
D03*
X015600Y014976D02*
D03*
Y014424D02*
D03*
X019237Y035311D02*
D03*
Y035863D02*
D03*
X022050Y035400D02*
D03*
Y035951D02*
D03*
X014250Y017709D02*
D03*
Y018261D02*
D03*
X015600Y017709D02*
D03*
Y018261D02*
D03*
X019500Y025626D02*
D03*
Y025074D02*
D03*
X022050Y025585D02*
D03*
Y025033D02*
D03*
D34*
X025209Y043176D02*
D03*
Y042980D02*
D03*
Y042783D02*
D03*
Y042586D02*
D03*
Y042389D02*
D03*
Y042192D02*
D03*
Y041995D02*
D03*
Y041798D02*
D03*
Y041602D02*
D03*
Y041405D02*
D03*
Y041208D02*
D03*
Y041011D02*
D03*
Y040814D02*
D03*
Y040617D02*
D03*
Y040420D02*
D03*
Y040224D02*
D03*
X020691D02*
D03*
Y040420D02*
D03*
Y040617D02*
D03*
Y040814D02*
D03*
Y041011D02*
D03*
Y041208D02*
D03*
Y041405D02*
D03*
Y041602D02*
D03*
Y041798D02*
D03*
Y041995D02*
D03*
Y042192D02*
D03*
Y042389D02*
D03*
Y042586D02*
D03*
Y042783D02*
D03*
Y042980D02*
D03*
Y043176D02*
D03*
D35*
X024426Y039441D02*
D03*
X024230D02*
D03*
X024033D02*
D03*
X023836D02*
D03*
X023639D02*
D03*
X023442D02*
D03*
X023245D02*
D03*
X023048D02*
D03*
X022852D02*
D03*
X022655D02*
D03*
X022458D02*
D03*
X022261D02*
D03*
X022064D02*
D03*
X021867D02*
D03*
X021670D02*
D03*
X021474D02*
D03*
Y043959D02*
D03*
X021670D02*
D03*
X021867D02*
D03*
X022064D02*
D03*
X022261D02*
D03*
X022458D02*
D03*
X022655D02*
D03*
X022852D02*
D03*
X023048D02*
D03*
X023245D02*
D03*
X023442D02*
D03*
X023639D02*
D03*
X023836D02*
D03*
X024033D02*
D03*
X024230D02*
D03*
X024426D02*
D03*
D36*
X040029Y034800D02*
D03*
X038100D02*
D03*
X037665Y027683D02*
D03*
X035735D02*
D03*
D37*
X040395Y029005D02*
D03*
Y030934D02*
D03*
D38*
X023663Y021420D02*
D03*
X024726D02*
D03*
X025879Y030680D02*
D03*
X026942D02*
D03*
D39*
X034269Y027134D02*
D03*
Y026071D02*
D03*
X020400Y031015D02*
D03*
Y029952D02*
D03*
X036495Y022906D02*
D03*
Y021843D02*
D03*
D40*
X020200Y035400D02*
D03*
X020570D02*
D03*
X020940D02*
D03*
Y036320D02*
D03*
X020200D02*
D03*
X020330Y024866D02*
D03*
X020700D02*
D03*
X021070D02*
D03*
Y025786D02*
D03*
X020330D02*
D03*
X021300Y031960D02*
D03*
X022040D02*
D03*
Y031040D02*
D03*
X021670D02*
D03*
X021300D02*
D03*
D41*
X018334Y042465D02*
D03*
Y041835D02*
D03*
D42*
X029577Y026177D02*
D03*
X029833D02*
D03*
X030089D02*
D03*
X030345D02*
D03*
X030601D02*
D03*
X030857D02*
D03*
X031113D02*
D03*
Y023863D02*
D03*
X030857D02*
D03*
X030601D02*
D03*
X030345D02*
D03*
X030089D02*
D03*
X029833D02*
D03*
X029577D02*
D03*
D43*
X036731Y032713D02*
D03*
Y033083D02*
D03*
Y033453D02*
D03*
X035791D02*
D03*
Y032713D02*
D03*
D44*
X018334Y019350D02*
D03*
X020066D02*
D03*
D45*
X023850Y017581D02*
D03*
Y013919D02*
D03*
D46*
X018546Y015657D02*
D03*
Y015157D02*
D03*
Y014657D02*
D03*
Y014157D02*
D03*
X020486D02*
D03*
Y014657D02*
D03*
Y015157D02*
D03*
Y015657D02*
D03*
D47*
X019516Y014907D02*
D03*
D48*
X017925Y022361D02*
D03*
X029750Y046567D02*
D03*
X032500Y044539D02*
D03*
X028537Y048221D02*
D03*
D49*
X018925Y022361D02*
D03*
X019925D02*
D03*
X030750Y046567D02*
D03*
X031750D02*
D03*
X030500Y044539D02*
D03*
X031500D02*
D03*
X030537Y048221D02*
D03*
X029537D02*
D03*
D50*
X036795Y037300D02*
D03*
X037795D02*
D03*
X036795Y038300D02*
D03*
X037795D02*
D03*
X036795Y039300D02*
D03*
X037795D02*
D03*
X036795Y040300D02*
D03*
X037795D02*
D03*
X036795Y041300D02*
D03*
X037795D02*
D03*
X036795Y042300D02*
D03*
X037795D02*
D03*
X036795Y043300D02*
D03*
X037795D02*
D03*
X036795Y044300D02*
D03*
X037795D02*
D03*
X036795Y045300D02*
D03*
X037795D02*
D03*
X036795Y046300D02*
D03*
X037795D02*
D03*
D51*
X034522Y013950D02*
D03*
X035522D02*
D03*
D52*
X014334Y043116D02*
D03*
Y045084D02*
D03*
X012366D02*
D03*
Y043116D02*
D03*
D53*
X022064Y047771D02*
D03*
X023985D02*
D03*
D54*
X013950Y022187D02*
D03*
Y037148D02*
D03*
D55*
X016793Y027600D02*
D03*
X019300Y027533D02*
D03*
D56*
X017793Y027600D02*
D03*
X020300Y027533D02*
D03*
D57*
X031695Y028323D02*
D03*
X031718Y027700D02*
D03*
X020328Y024173D02*
D03*
X020115Y034876D02*
D03*
X030068Y023260D02*
D03*
X028763Y023367D02*
D03*
X025868Y023229D02*
D03*
X026018Y021871D02*
D03*
X021708Y030460D02*
D03*
X022708Y032270D02*
D03*
X019179Y033610D02*
D03*
X019688Y034810D02*
D03*
X019268Y044447D02*
D03*
X024193Y027725D02*
D03*
X026186Y026671D02*
D03*
X029984Y027213D02*
D03*
X026966Y028538D02*
D03*
X033813Y033923D02*
D03*
X026380Y042521D02*
D03*
X028431Y046670D02*
D03*
X029222Y043871D02*
D03*
X035309Y038671D02*
D03*
X026181Y041621D02*
D03*
X027981Y040871D02*
D03*
X025930Y039821D02*
D03*
X032100Y040300D02*
D03*
X025107Y038300D02*
D03*
X039150Y042300D02*
D03*
X022443Y044719D02*
D03*
X019942Y040004D02*
D03*
X018189Y038573D02*
D03*
X021767Y044676D02*
D03*
X024475Y036337D02*
D03*
X022527Y037527D02*
D03*
X018750Y037650D02*
D03*
X018334Y046457D02*
D03*
X021922Y034109D02*
D03*
X018811Y031382D02*
D03*
X023652Y034232D02*
D03*
X034050Y045750D02*
D03*
X020270Y033083D02*
D03*
X039300Y033204D02*
D03*
X037672Y032696D02*
D03*
X034522Y032035D02*
D03*
X036495Y031813D02*
D03*
X030345Y022920D02*
D03*
X029687Y022891D02*
D03*
X036381Y029527D02*
D03*
X033795Y022620D02*
D03*
X028095Y023058D02*
D03*
X025250Y029763D02*
D03*
X031845Y026244D02*
D03*
X031695Y028750D02*
D03*
X031002Y029665D02*
D03*
X028995Y022413D02*
D03*
X025107Y024420D02*
D03*
X023192Y026700D02*
D03*
X021136Y023850D02*
D03*
X019116D02*
D03*
D58*
X021437Y018900D02*
D03*
X017700Y016950D02*
D03*
X017359Y015755D02*
D03*
X021150Y016579D02*
D03*
X031081Y018305D02*
D03*
X027587Y017400D02*
D03*
X013950Y038400D02*
D03*
X015000Y016355D02*
D03*
X013769D02*
D03*
M02*
